<?xml version="1.0" encoding="utf-8"?>
<!-- Generator: Adobe Illustrator 24.0.3, SVG Export Plug-In . SVG Version: 6.00 Build 0)  -->
<svg version="1.1" id="Layer_1" xmlns="http://www.w3.org/2000/svg" xmlns:xlink="http://www.w3.org/1999/xlink" x="0px" y="0px"
	 viewBox="0 0 75 75" style="enable-background:new 0 0 75 75;" xml:space="preserve">
<style type="text/css">
	.st0{fill:#A15E70;}
	.st1{fill:#EFCAC5;}
	.st2{fill-rule:evenodd;clip-rule:evenodd;fill:#FBF3CB;}
	.st3{fill-rule:evenodd;clip-rule:evenodd;fill:#EAA95F;}
	.st4{fill:#4A374B;}
</style>
<g>
	<path class="st0" d="M23.4,41.8c1.3,2.9,3.1,5.9,5.6,8.4c3.7,3.8,7.3,6.3,7.3,6.3h0.3c0,0,3.6-2.5,7.3-6.3
		c4.1-4.2,6.3-9.4,7.5-14.1L23.4,41.8z"/>
	<path class="st0" d="M52.7,27.1c0.1-2.3,0-3.7,0-3.7l-16.2-6.6l-16.2,6.6c0,0-0.4,4.4,0.7,10.1L52.7,27.1z"/>
</g>
<g>
	<polygon class="st1" points="34.6,30.8 32,18.6 31.9,18.7 34.2,30.9 	"/>
	<path class="st1" d="M20.5,30.9c0,0,0,0.1,0,0.1l5.2,1.6l0.6-0.1L20.5,30.9z"/>
	<polygon class="st1" points="33.7,31 28.6,20 28.5,20.1 33.2,31.1 	"/>
	<polygon class="st1" points="32.6,31.2 25.2,21.4 25.1,21.4 32.2,31.3 	"/>
	<polygon class="st1" points="31.3,31.5 21.3,23 21.3,23 30.8,31.6 	"/>
	<polygon class="st1" points="35.6,30.6 35.7,17.2 35.6,17.2 35.2,30.7 	"/>
	<path class="st1" d="M50.7,27.6l2-1.1v0l-2.3,1.2L50.7,27.6z"/>
	<polygon class="st1" points="43.1,29.1 50.7,22.7 50.7,22.7 42.6,29.2 	"/>
	<path class="st1" d="M28.9,32l0.5-0.1l-9.3-5c0,0,0,0.1,0,0.1L28.9,32z"/>
	<polygon class="st1" points="40,29.7 46.6,21 46.6,21 39.4,29.8 	"/>
	<polygon class="st1" points="36.7,30.4 39.5,18.1 39.4,18.1 36.3,30.5 	"/>
	<polygon class="st1" points="38.1,30.1 43,19.5 42.9,19.5 37.6,30.2 	"/>
	<path class="st1" d="M38.3,38.8l8,8.5c0,0,0-0.1,0.1-0.1l-7.6-8.5L38.3,38.8z"/>
	<path class="st1" d="M37.3,39l6.7,11.1c0,0,0,0,0.1-0.1L37.7,39L37.3,39z"/>
	<path class="st1" d="M39.6,38.6l8.5,5.8c0,0,0-0.1,0.1-0.1l-8.1-5.8L39.6,38.6z"/>
	<path class="st1" d="M36.4,39.2L41,53c0,0,0,0,0,0l-4.2-13.8L36.4,39.2z"/>
	<path class="st1" d="M41.6,38.1l8,3.2c0,0,0-0.1,0-0.1L42.3,38L41.6,38.1z"/>
	<path class="st1" d="M45.7,37.3l5.1,0.8c0,0,0-0.1,0-0.1l-4.5-0.9L45.7,37.3z"/>
	<path class="st1" d="M30,40.5l-4.7,5c0,0,0,0.1,0.1,0.1l5.3-5.2L30,40.5z"/>
	<path class="st1" d="M32.2,40.1l-5,8.2c0,0,0.1,0.1,0.1,0.1l5.4-8.4L32.2,40.1z"/>
	<path class="st1" d="M26,41.3l-2.1,1.4c0,0,0,0.1,0.1,0.2l2.7-1.7L26,41.3z"/>
	<path class="st1" d="M33.5,39.8L29.7,51c0,0,0,0,0.1,0.1L34,39.7L33.5,39.8z"/>
	<polygon class="st1" points="35.5,39.4 37.2,55.7 35.9,39.3 	"/>
	<path class="st1" d="M34.6,39.6L33,54c0,0,0,0,0,0l2-14.5L34.6,39.6z"/>
</g>
<g>
	<path class="st2" d="M38.3,30l7-1.4c-1.5-4.1-4.3-7.1-7.7-7.7C38.4,23,38.9,25.9,38.3,30z"/>
	<path class="st2" d="M35.7,39.3c-0.4,1.7-0.5,3.1-0.4,4.3c0.4,5.9,4,7.2,7.7,2.3c1.7-2.2,2.9-5.3,3.2-8.8L35.7,39.3z"/>
</g>
<g>
	<path class="st3" d="M36.2,30.4c0.4-2.3,0.5-4.2,0.3-5.7c-0.4-3.8-2.5-4.4-5.5-1.9c-2.4,2.1-4.2,5.5-4.8,9.6L36.2,30.4z"/>
	<path class="st3" d="M33.6,39.7L27,41.1c1.5,4.9,4.8,8.3,8.7,8.6C33.9,47.7,32.7,44.7,33.6,39.7z"/>
</g>
<g>
	<path class="st4" d="M53.2,35.8c-1.3,5.3-3.8,11.2-8.5,16c-4.1,4.2-8.1,7.1-8.1,7.1h-0.3c0,0-4-2.8-8.1-7.1
		c-2.9-2.9-4.9-6.3-6.3-9.7l-1.7,0.4c1.6,3.8,3.9,7.7,7.2,11c4.6,4.7,9.1,7.9,9.1,7.9h0.3c0,0,4.5-3.2,9.1-7.9
		c5.3-5.4,8.1-12.1,9.5-18.1L53.2,35.8z"/>
	<path class="st4" d="M19.3,33.9c-1.4-6.7-0.9-12.1-0.9-12.1l18.1-7.3l18.1,7.3c0,0,0.2,1.9,0,4.9l2-0.4c0.3-3.7,0-6.2,0-6.2
		L36.4,12l-20.2,8.2c0,0-0.5,6.3,1.2,14.1L19.3,33.9z"/>
</g>
<g>
	<path class="st4" d="M16.2,36.3l0.1,0.6l-0.5,0.2l0.5,2.7c0.1,0.5,0,0.9-0.2,1.2c-0.3,0.3-0.6,0.5-1.1,0.6c-0.5,0.1-0.9,0-1.3-0.1
		c-0.4-0.2-0.6-0.5-0.6-1v0l0.9-0.2c0,0.3,0.1,0.4,0.3,0.5c0.1,0.1,0.3,0.1,0.5,0.1c0.2,0,0.3-0.1,0.4-0.3c0.1-0.2,0.1-0.4,0.1-0.6
		l-0.5-2.7h-0.5l-0.1-0.6l1.5-0.3L16.2,36.3z"/>
	<path class="st4" d="M17,40.6l0.3-0.1L18,36l1-0.2l2.3,3.9l0.4,0l0.1,0.6l-1.7,0.3L20,40l0.3-0.1l-0.4-0.6l-1.6,0.3l-0.1,0.7h0.4
		l0.1,0.6l-1.7,0.3L17,40.6z M18.5,38.8l1.1-0.2L18.7,37h0L18.5,38.8z"/>
	<path class="st4" d="M22.3,35.7L22,35.9l1.4,2.7l0.1,0.3h0v-0.3l0.3-3.1h-0.4l-0.1-0.6l1.8-0.4l0.1,0.6l-0.4,0.1l-0.6,4.5l-1,0.2
		L21,36l-0.4,0l-0.1-0.6l1.8-0.4L22.3,35.7z"/>
	<path class="st4" d="M25.6,38.9l0.3-0.1l0.7-4.5l1-0.2l2.3,3.9l0.4,0l0.1,0.6l-1.7,0.3l-0.1-0.6l0.3-0.1l-0.4-0.6l-1.6,0.3
		l-0.1,0.7h0.4l0.1,0.6l-1.7,0.3L25.6,38.9z M27,37.1l1.1-0.2l-0.9-1.6h0L27,37.1z"/>
	<path class="st4" d="M35.2,32.6l0.1,0.6l-0.5,0.2l0.5,2.7c0.1,0.5,0,0.9-0.2,1.2c-0.3,0.3-0.6,0.5-1.1,0.6c-0.5,0.1-0.9,0-1.3-0.1
		c-0.4-0.2-0.6-0.5-0.6-1v0l0.9-0.2c0,0.3,0.1,0.4,0.3,0.5c0.1,0.1,0.3,0.1,0.5,0.1c0.2,0,0.3-0.1,0.4-0.3c0.1-0.2,0.1-0.4,0.1-0.6
		l-0.5-2.7h-0.5L33.2,33l1.5-0.3L35.2,32.6z"/>
	<path class="st4" d="M37.5,32.2l0.1,0.6L37.1,33l0.5,2.5c0.1,0.3,0.2,0.5,0.4,0.7c0.2,0.1,0.4,0.2,0.8,0.1c0.3-0.1,0.5-0.2,0.7-0.4
		c0.1-0.2,0.2-0.4,0.1-0.8l-0.5-2.5h-0.5L38.4,32l2-0.4l0.1,0.6L40,32.4l0.5,2.5c0.1,0.5,0,1-0.3,1.4c-0.3,0.4-0.8,0.6-1.3,0.7
		c-0.6,0.1-1.1,0-1.5-0.2c-0.4-0.2-0.7-0.6-0.8-1.2l-0.5-2.5h-0.5l-0.1-0.6l0.5-0.1l1-0.2L37.5,32.2z"/>
	<path class="st4" d="M44.8,32.4L44,32.5l-0.3-0.6c-0.1,0-0.2,0-0.4-0.1c-0.2,0-0.4,0-0.5,0c-0.3,0-0.5,0.1-0.6,0.3
		c-0.1,0.1-0.2,0.3-0.1,0.5s0.1,0.3,0.3,0.4c0.2,0.1,0.4,0.1,0.8,0.2c0.6,0,1,0.2,1.3,0.4s0.5,0.5,0.6,0.9c0.1,0.4,0,0.8-0.3,1.1
		c-0.3,0.3-0.7,0.5-1.2,0.6c-0.4,0.1-0.8,0.1-1.1,0c-0.3-0.1-0.6-0.2-0.9-0.4l-0.2-1l0.8-0.1l0.2,0.7c0.1,0.1,0.3,0.1,0.4,0.1
		c0.2,0,0.4,0,0.6,0c0.3,0,0.4-0.1,0.6-0.3c0.1-0.1,0.2-0.3,0.1-0.5s-0.1-0.3-0.3-0.4c-0.2-0.1-0.4-0.1-0.8-0.2
		c-0.6,0-1.1-0.2-1.4-0.3c-0.3-0.2-0.5-0.4-0.6-0.8c-0.1-0.4,0-0.8,0.3-1.1c0.3-0.3,0.7-0.5,1.2-0.6c0.4-0.1,0.7-0.1,1.1,0
		c0.3,0,0.6,0.2,0.9,0.3L44.8,32.4z"/>
	<path class="st4" d="M49.3,29.9l0.3,1.3l-0.8,0.1l-0.1-0.5l-0.9,0.2l0.7,3.4H49l0.1,0.6l-2,0.4l-0.1-0.6l0.5-0.2l-0.7-3.4l-0.9,0.2
		l0.1,0.5L45.2,32l-0.3-1.3L49.3,29.9z"/>
	<path class="st4" d="M49.8,30.4l-0.1-0.6l2-0.4l0.1,0.6l-0.5,0.2l0.7,3.5h0.5l0.1,0.6l-2,0.4l-0.1-0.6l0.5-0.2l-0.7-3.5H49.8z"/>
	<path class="st4" d="M56.4,30.2l-0.7,0.1l-0.2-0.6c-0.1-0.1-0.3-0.1-0.4-0.2c-0.2,0-0.3,0-0.5,0c-0.4,0.1-0.7,0.3-0.9,0.7
		s-0.2,0.8-0.1,1.3l0,0.2c0.1,0.5,0.3,0.9,0.6,1.1c0.3,0.3,0.6,0.4,1.1,0.3c0.2,0,0.4-0.1,0.5-0.2c0.1-0.1,0.3-0.2,0.3-0.3l0-0.7
		l0.7-0.1l0.2,1c-0.1,0.3-0.4,0.5-0.6,0.7c-0.3,0.2-0.6,0.3-1,0.4c-0.7,0.1-1.2,0-1.7-0.4c-0.5-0.4-0.8-0.9-1-1.6l0-0.2
		c-0.1-0.7,0-1.3,0.3-1.9c0.3-0.5,0.8-0.9,1.5-1c0.4-0.1,0.7-0.1,1.1,0c0.3,0.1,0.6,0.2,0.8,0.4L56.4,30.2z"/>
	<path class="st4" d="M60.3,30.6l-1.7,0.3l0.3,1.4l1.6-0.3l-0.1-0.6l0.7-0.1l0.3,1.3l-3.8,0.8l-0.1-0.6l0.5-0.2L57.2,29h-0.5
		l-0.1-0.6l0.5-0.1l3.3-0.6l0.3,1.3l-0.8,0.1l-0.1-0.6l-1.6,0.3l0.2,1.2l1.7-0.3L60.3,30.6z"/>
</g>
</svg>
