<?xml version="1.0" encoding="utf-8"?>
<!-- Generator: Adobe Illustrator 24.0.3, SVG Export Plug-In . SVG Version: 6.00 Build 0)  -->
<svg version="1.1" id="Layer_1" xmlns="http://www.w3.org/2000/svg" xmlns:xlink="http://www.w3.org/1999/xlink" x="0px" y="0px"
	 viewBox="0 0 75 25" style="enable-background:new 0 0 75 25;" xml:space="preserve">
<style type="text/css">
	.st0{fill:#A15E70;}
	.st1{fill:#EFCAC5;}
	.st2{fill-rule:evenodd;clip-rule:evenodd;fill:#FBF3CB;}
	.st3{fill-rule:evenodd;clip-rule:evenodd;fill:#EAA95F;}
	.st4{fill:#4A374B;}
</style>
<g>
	<path class="st0" d="M31.69,14.99c0.55,1.25,1.31,2.49,2.37,3.58c1.56,1.6,3.09,2.68,3.09,2.68h0.12c0,0,1.53-1.08,3.09-2.68
		c1.75-1.79,2.69-4,3.19-5.98L31.69,14.99z"/>
	<path class="st0" d="M44.1,8.77c0.04-0.96-0.01-1.57-0.01-1.57l-6.88-2.79L30.33,7.2c0,0-0.16,1.87,0.3,4.29L44.1,8.77z"/>
</g>
<g>
	<polygon class="st1" points="36.44,10.34 35.33,5.18 35.29,5.2 36.27,10.37 	"/>
	<path class="st1" d="M30.43,10.36c0,0.02,0,0.04,0.01,0.06l2.21,0.69l0.25-0.05L30.43,10.36z"/>
	<polygon class="st1" points="36.03,10.42 33.89,5.76 33.85,5.78 35.85,10.46 	"/>
	<polygon class="st1" points="35.57,10.52 32.43,6.36 32.4,6.37 35.39,10.55 	"/>
	<polygon class="st1" points="35.02,10.63 30.8,7.02 30.78,7.03 34.81,10.67 	"/>
	<polygon class="st1" points="36.86,10.25 36.88,4.55 36.86,4.56 36.69,10.29 	"/>
	<path class="st1" d="M43.24,8.96l0.85-0.45c0,0,0-0.01,0-0.01L43.1,8.99L43.24,8.96z"/>
	<polygon class="st1" points="40.05,9.61 43.27,6.89 43.27,6.89 39.8,9.66 	"/>
	<path class="st1" d="M34.01,10.83l0.23-0.05L30.3,8.68c0,0.01,0,0.03,0,0.04L34.01,10.83z"/>
	<polygon class="st1" points="38.7,9.88 41.53,6.18 41.51,6.18 38.47,9.93 	"/>
	<polygon class="st1" points="37.33,10.16 38.49,4.95 38.46,4.94 37.14,10.2 	"/>
	<polygon class="st1" points="37.9,10.04 39.99,5.56 39.96,5.55 37.7,10.09 	"/>
	<path class="st1" d="M37.98,13.74l3.4,3.61c0.01-0.01,0.02-0.03,0.03-0.04l-3.22-3.61L37.98,13.74z"/>
	<path class="st1" d="M37.55,13.83l2.82,4.72c0.01-0.01,0.02-0.02,0.03-0.03l-2.66-4.73L37.55,13.83z"/>
	<path class="st1" d="M38.55,13.62l3.62,2.47c0.01-0.02,0.02-0.03,0.03-0.05l-3.42-2.47L38.55,13.62z"/>
	<path class="st1" d="M37.17,13.9l1.95,5.84c0.01-0.01,0.01-0.01,0.02-0.02l-1.78-5.86L37.17,13.9z"/>
	<path class="st1" d="M39.41,13.45l3.39,1.36c0.01-0.02,0.01-0.03,0.02-0.05l-3.15-1.36L39.41,13.45z"/>
	<path class="st1" d="M41.12,13.1l2.17,0.36c0.01-0.02,0.01-0.03,0.02-0.05l-1.9-0.37L41.12,13.1z"/>
	<path class="st1" d="M34.49,14.45l-2.01,2.11c0.01,0.02,0.02,0.04,0.04,0.06l2.23-2.22L34.49,14.45z"/>
	<path class="st1" d="M35.39,14.26l-2.1,3.46c0.01,0.02,0.03,0.03,0.04,0.05l2.28-3.55L35.39,14.26z"/>
	<path class="st1" d="M32.76,14.8l-0.9,0.61c0.01,0.02,0.02,0.05,0.03,0.07l1.15-0.73L32.76,14.8z"/>
	<path class="st1" d="M35.98,14.15l-1.62,4.75c0.01,0.01,0.02,0.02,0.03,0.03l1.79-4.82L35.98,14.15z"/>
	<polygon class="st1" points="36.81,13.98 37.54,20.88 36.99,13.94 	"/>
	<path class="st1" d="M36.42,14.05l-0.68,6.11c0.01,0,0.01,0.01,0.02,0.01l0.86-6.16L36.42,14.05z"/>
</g>
<g>
	<path class="st2" d="M37.98,10l2.97-0.6c-0.63-1.75-1.84-3.02-3.27-3.28C38.03,7.01,38.25,8.27,37.98,10z"/>
	<path class="st2" d="M36.9,13.93c-0.16,0.71-0.21,1.32-0.17,1.84c0.19,2.52,1.69,3.05,3.28,0.99c0.73-0.95,1.24-2.26,1.37-3.74
		L36.9,13.93z"/>
</g>
<g>
	<path class="st3" d="M37.12,10.18c0.18-0.97,0.21-1.77,0.13-2.43c-0.18-1.6-1.08-1.87-2.32-0.81c-1.03,0.88-1.78,2.35-2.02,4.09
		L37.12,10.18z"/>
	<path class="st3" d="M36.02,14.11l-2.82,0.57c0.64,2.06,2.04,3.53,3.7,3.66C36.13,17.48,35.6,16.22,36.02,14.11z"/>
</g>
<g>
	<path class="st4" d="M44.33,12.44c-0.56,2.25-1.61,4.76-3.6,6.8c-1.75,1.79-3.45,3-3.45,3h-0.13c0,0-1.71-1.2-3.45-3
		c-1.21-1.24-2.08-2.67-2.69-4.1l-0.74,0.15c0.69,1.63,1.66,3.25,3.04,4.66c1.94,1.99,3.84,3.33,3.84,3.33h0.14
		c0,0,1.9-1.34,3.84-3.33c2.24-2.3,3.42-5.15,4.03-7.68L44.33,12.44z"/>
	<path class="st4" d="M29.92,11.65c-0.58-2.85-0.39-5.11-0.39-5.11l7.69-3.11l7.68,3.11c0,0,0.07,0.81,0,2.08l0.84-0.17
		c0.11-1.58,0.02-2.61,0.02-2.61l-8.55-3.46l-8.55,3.46c0,0-0.22,2.66,0.5,5.97L29.92,11.65z"/>
</g>
<g>
	<path class="st4" d="M28.62,12.67l0.05,0.25L28.46,13l0.22,1.15c0.04,0.2,0,0.37-0.1,0.51c-0.11,0.14-0.26,0.23-0.46,0.27
		c-0.21,0.04-0.4,0.02-0.54-0.06c-0.15-0.08-0.24-0.22-0.27-0.43l0-0.01l0.4-0.08c0.02,0.11,0.06,0.18,0.12,0.22
		c0.06,0.04,0.14,0.05,0.22,0.03c0.08-0.02,0.14-0.06,0.18-0.13c0.04-0.07,0.05-0.16,0.03-0.26l-0.22-1.15l-0.23,0l-0.05-0.25
		l0.63-0.12L28.62,12.67z"/>
	<path class="st4" d="M28.96,14.49l0.14-0.05l0.28-1.91l0.42-0.08l0.97,1.67l0.15-0.01l0.05,0.25l-0.7,0.14l-0.05-0.25l0.14-0.05
		l-0.15-0.27l-0.67,0.13l-0.04,0.3l0.15,0l0.05,0.25l-0.7,0.14L28.96,14.49z M29.59,13.73l0.47-0.09l-0.37-0.68l-0.01,0L29.59,13.73
		z"/>
	<path class="st4" d="M31.23,12.42l-0.15,0.06l0.61,1.16l0.05,0.11l0.01,0l0-0.12l0.13-1.31l-0.16,0l-0.05-0.25l0.75-0.15l0.05,0.25
		l-0.17,0.06l-0.26,1.91l-0.42,0.08l-0.96-1.67l-0.17,0.01l-0.05-0.25l0.75-0.15L31.23,12.42z"/>
	<path class="st4" d="M32.59,13.78l0.14-0.05l0.28-1.92l0.42-0.08l0.97,1.67l0.15-0.01l0.05,0.25l-0.7,0.14l-0.05-0.25l0.14-0.05
		l-0.15-0.27l-0.67,0.13l-0.04,0.3l0.15,0l0.05,0.25l-0.7,0.14L32.59,13.78z M33.21,13.02l0.47-0.09l-0.37-0.68l-0.01,0L33.21,13.02
		z"/>
	<path class="st4" d="M36.68,11.1l0.05,0.25l-0.21,0.09l0.22,1.15c0.04,0.2,0,0.37-0.1,0.51c-0.11,0.14-0.26,0.23-0.46,0.27
		c-0.21,0.04-0.4,0.02-0.54-0.06c-0.15-0.08-0.24-0.22-0.27-0.43l0-0.01l0.4-0.08c0.02,0.11,0.06,0.18,0.12,0.22
		c0.06,0.04,0.14,0.05,0.22,0.03c0.08-0.01,0.14-0.06,0.18-0.13c0.04-0.07,0.05-0.16,0.03-0.26l-0.22-1.15h-0.23l-0.05-0.25
		l0.63-0.12L36.68,11.1z"/>
	<path class="st4" d="M37.65,10.91l0.05,0.25l-0.21,0.09l0.21,1.08c0.03,0.14,0.08,0.23,0.17,0.28c0.09,0.05,0.19,0.07,0.32,0.04
		c0.13-0.03,0.22-0.08,0.29-0.16c0.06-0.08,0.08-0.19,0.05-0.33l-0.21-1.08h-0.23l-0.05-0.25l0.85-0.17l0.05,0.25l-0.21,0.09
		l0.21,1.08c0.05,0.23,0,0.42-0.12,0.58c-0.13,0.16-0.32,0.26-0.56,0.31c-0.25,0.05-0.46,0.02-0.63-0.07
		c-0.18-0.1-0.29-0.26-0.33-0.49l-0.21-1.08h-0.23l-0.05-0.25l0.22-0.04l0.41-0.08L37.65,10.91z"/>
	<path class="st4" d="M40.74,11l-0.31,0.06l-0.11-0.27c-0.04-0.02-0.1-0.02-0.17-0.03c-0.07,0-0.15,0-0.22,0.02
		c-0.11,0.02-0.2,0.06-0.25,0.12c-0.05,0.06-0.07,0.13-0.06,0.2c0.01,0.07,0.06,0.12,0.13,0.15c0.07,0.03,0.19,0.06,0.36,0.08
		c0.24,0.02,0.43,0.07,0.57,0.15c0.14,0.08,0.22,0.21,0.26,0.37c0.03,0.18-0.01,0.33-0.13,0.46c-0.12,0.13-0.29,0.22-0.52,0.26
		c-0.16,0.03-0.32,0.03-0.46,0.01c-0.14-0.03-0.27-0.08-0.37-0.15L39.37,12l0.32-0.06l0.1,0.28c0.05,0.03,0.11,0.04,0.19,0.05
		c0.08,0.01,0.16,0,0.24-0.01c0.11-0.02,0.19-0.06,0.25-0.12c0.05-0.06,0.07-0.12,0.05-0.2c-0.02-0.08-0.06-0.14-0.12-0.17
		c-0.07-0.04-0.17-0.06-0.32-0.08c-0.26-0.02-0.46-0.07-0.6-0.14c-0.14-0.07-0.23-0.19-0.27-0.36c-0.03-0.17,0.01-0.32,0.13-0.45
		c0.12-0.13,0.29-0.22,0.5-0.27c0.16-0.03,0.31-0.03,0.45-0.01c0.14,0.02,0.26,0.07,0.37,0.13L40.74,11z"/>
	<path class="st4" d="M42.65,9.94l0.11,0.55l-0.32,0.06l-0.06-0.23l-0.38,0.07l0.28,1.45h0.23l0.05,0.25l-0.86,0.17l-0.05-0.25
		l0.21-0.09l-0.28-1.45l-0.38,0.07l0.03,0.23l-0.32,0.06l-0.11-0.55L42.65,9.94z"/>
	<path class="st4" d="M42.86,10.16l-0.05-0.25l0.85-0.17l0.05,0.25l-0.21,0.09l0.29,1.48l0.23,0l0.05,0.25l-0.85,0.17l-0.05-0.25
		l0.21-0.09l-0.29-1.48L42.86,10.16z"/>
	<path class="st4" d="M45.67,10.08l-0.31,0.06l-0.1-0.27c-0.05-0.03-0.11-0.06-0.17-0.07c-0.07-0.01-0.14-0.01-0.23,0.01
		c-0.18,0.03-0.3,0.13-0.38,0.28s-0.09,0.33-0.05,0.54l0.01,0.07c0.04,0.21,0.12,0.37,0.24,0.48c0.12,0.11,0.27,0.15,0.45,0.12
		c0.08-0.02,0.15-0.04,0.22-0.08c0.06-0.04,0.11-0.08,0.14-0.13l-0.01-0.28l0.31-0.06l0.08,0.41c-0.06,0.11-0.16,0.21-0.27,0.29
		c-0.12,0.08-0.26,0.14-0.42,0.17c-0.28,0.05-0.52,0-0.74-0.16c-0.21-0.16-0.35-0.39-0.41-0.69l-0.01-0.07
		c-0.06-0.3-0.02-0.56,0.12-0.79c0.14-0.23,0.35-0.37,0.62-0.42c0.16-0.03,0.31-0.03,0.45,0c0.14,0.03,0.26,0.09,0.36,0.17
		L45.67,10.08z"/>
	<path class="st4" d="M47.31,10.23l-0.7,0.14l0.11,0.59l0.67-0.13l-0.03-0.25l0.31-0.06l0.11,0.56l-1.63,0.32l-0.05-0.25l0.21-0.09
		l-0.29-1.48H45.8l-0.05-0.25l0.22-0.04l1.41-0.27l0.11,0.57l-0.32,0.06L47.11,9.4l-0.66,0.13l0.1,0.52l0.7-0.14L47.31,10.23z"/>
</g>
</svg>
