<?xml version="1.0" encoding="utf-8"?>
<!-- Generator: Adobe Illustrator 24.0.3, SVG Export Plug-In . SVG Version: 6.00 Build 0)  -->
<svg version="1.1" id="Layer_1" xmlns="http://www.w3.org/2000/svg" xmlns:xlink="http://www.w3.org/1999/xlink" x="0px" y="0px"
	 viewBox="0 0 75 75" style="enable-background:new 0 0 75 75;" xml:space="preserve">
<style type="text/css">
	.st0{fill:#A15E70;}
	.st1{fill:#EFCAC5;}
	.st2{fill-rule:evenodd;clip-rule:evenodd;fill:#FBF3CB;}
	.st3{fill-rule:evenodd;clip-rule:evenodd;fill:#EAA95F;}
	.st4{fill:#4A374B;}
</style>
<g>
	<path class="st0" d="M16.8,45.2c2,4.3,4.5,8.6,8.2,12.5c5.5,5.7,10.8,9.4,10.8,9.4h0.4c0,0,5.3-3.7,10.8-9.4
		C53,51.5,56.3,43.9,58,36.8L16.8,45.2z"/>
	<path class="st0" d="M60,23.5c0.2-3.3,0-5.5,0-5.5L35.9,8.2L11.9,18c0,0-0.6,6.5,1,15.1L60,23.5z"/>
</g>
<g>
	<polygon class="st1" points="33.4,29 29.5,11 29.3,11 32.8,29 	"/>
	<path class="st1" d="M12.2,29v0.2l7.6,2.3h1.2L12.2,29z"/>
	<polygon class="st1" points="31.8,29.2 24.4,12.9 24.2,12.9 31.2,29.4 	"/>
	<polygon class="st1" points="30.3,29.6 19.3,15.1 19.3,15.1 29.7,29.6 	"/>
	<polygon class="st1" points="28.3,30 13.6,17.2 13.6,17.4 27.7,30.2 	"/>
	<polygon class="st1" points="34.8,28.6 35,8.6 34.8,8.8 34.2,28.8 	"/>
	<path class="st1" d="M57.1,24.1l2.9-1.6l0,0l-3.5,1.8L57.1,24.1z"/>
	<polygon class="st1" points="45.9,26.4 57.3,16.9 57.3,16.9 45.1,26.6 	"/>
	<path class="st1" d="M24.8,30.6l0.8-0.2l-13.7-7.2v0.2L24.8,30.6z"/>
	<polygon class="st1" points="41.2,27.2 51.2,14.3 51,14.3 40.4,27.4 	"/>
	<polygon class="st1" points="36.5,28.2 40.4,10 40.4,10 35.7,28.4 	"/>
	<polygon class="st1" points="38.5,27.8 45.7,12.2 45.5,12.2 37.7,28 	"/>
	<path class="st1" d="M38.7,40.7l11.9,12.5c0,0,0-0.2,0.2-0.2L39.6,40.5L38.7,40.7z"/>
	<path class="st1" d="M37.1,41.1l9.8,16.4c0,0,0,0,0.2-0.2l-9.2-16.4L37.1,41.1z"/>
	<path class="st1" d="M40.6,40.3l12.7,8.6c0,0,0-0.2,0.2-0.2l-11.9-8.6L40.6,40.3z"/>
	<path class="st1" d="M35.9,41.3l6.8,20.4l0,0l-6.3-20.5L35.9,41.3z"/>
	<path class="st1" d="M43.8,39.8l11.7,4.7v-0.2l-11-4.7L43.8,39.8z"/>
	<path class="st1" d="M49.6,38.6l7.6,1.2v-0.2l-6.7-1.4L49.6,38.6z"/>
	<path class="st1" d="M26.5,43.3l-7,7.4c0,0,0,0.2,0.2,0.2l7.8-7.8L26.5,43.3z"/>
	<path class="st1" d="M29.7,42.7l-7.2,12.1l0.2,0.2l8-12.3H29.7z"/>
	<path class="st1" d="M20.5,44.4l-3.1,2.2c0,0,0,0.2,0.2,0.2l4.1-2.5L20.5,44.4z"/>
	<path class="st1" d="M31.6,42.3l-5.7,16.6c0,0,0,0,0.2,0.2l6.3-16.8H31.6z"/>
	<polygon class="st1" points="34.6,41.7 37.1,65.8 35.1,41.5 	"/>
	<path class="st1" d="M33.2,41.9l-2.3,21.3l0,0l2.9-21.5L33.2,41.9z"/>
</g>
<g>
	<path class="st2" d="M38.7,27.8L49,25.7c-2.2-6.1-6.5-10.6-11.4-11.5C38.9,17.2,39.6,21.7,38.7,27.8z"/>
	<path class="st2" d="M35,41.5c-0.6,2.5-0.8,4.7-0.6,6.5c0.6,8.8,5.9,10.6,11.5,3.5c2.5-3.3,4.3-7.8,4.7-13.1L35,41.5z"/>
</g>
<g>
	<path class="st3" d="M35.7,28.4c0.6-3.3,0.8-6.3,0.4-8.4c-0.6-5.7-3.7-6.5-8-2.7c-3.5,3.1-6.3,8.2-7,14.3L35.7,28.4z"/>
	<path class="st3" d="M31.8,42.1l-9.8,2c2.2,7.2,7,12.3,12.9,12.7C32.2,53.8,30.5,49.5,31.8,42.1z"/>
</g>
<g>
	<path class="st4" d="M60.8,36.2c-2,7.8-5.7,16.6-12.5,23.7c-6.1,6.3-12.1,10.6-12.1,10.6h-0.4c0,0-6.1-4.1-12.1-10.6
		c-4.3-4.3-7.2-9.4-9.4-14.3l-2.5,0.6c2.3,5.7,5.9,11.4,10.6,16.2c6.8,7,13.5,11.5,13.5,11.5h0.4c0,0,6.7-4.7,13.5-11.5
		c7.8-8,11.9-18,14.1-26.8L60.8,36.2z"/>
	<path class="st4" d="M10.5,33.5c-2-10-1.4-17.8-1.4-17.8L35.9,4.9l26.8,10.8c0,0,0.2,2.7,0,7.2l2.9-0.6c0.4-5.5,0-9.2,0-9.2L35.7,1
		L5.8,13.1c0,0-0.8,9.2,1.8,20.9L10.5,33.5z"/>
</g>
<g>
	<path class="st4" d="M6,37l0.2,0.8l-0.8,0.4l0.8,4.1c0.2,0.8,0,1.4-0.4,1.8c-0.4,0.4-1,0.8-1.6,1c-0.8,0.2-1.4,0-2-0.2
		c-0.4-0.4-0.8-0.8-0.8-1.6l0,0l1.4-0.2c0,0.4,0.2,0.6,0.4,0.8c0.2,0.2,0.4,0.2,0.8,0.2c0.4,0,0.4-0.2,0.6-0.4
		c0.2-0.2,0.2-0.6,0.2-1L4,38.6H3.2l-0.2-0.8l2.2-0.4L6,37z"/>
	<path class="st4" d="M7.2,43.5l0.4-0.2l1-6.7l1.4-0.2l3.3,5.9h0.6l0.2,0.8l-2.3,0.4l-0.2-0.8l0.4-0.2l-0.6-1l-2,0.4l-0.2,1h0.6
		l0.2,0.8l-2.5,0.6L7.2,43.5z M9.3,40.7l1.6-0.4L9.5,38l0,0L9.3,40.7z"/>
	<path class="st4" d="M15.2,36.2l-0.6,0.2l2.2,4.1l0.2,0.4l0,0v-0.4l0.4-4.5h-0.6l-0.2-0.8l2.5-0.6l0.2,0.8h-0.4l-1,6.7l-1.4,0.2
		l-3.3-5.9h-0.6l-0.2-0.8l2.5-0.6L15.2,36.2z"/>
	<path class="st4" d="M19.9,40.9l0.4-0.2l1-6.7l1.4-0.2l3.3,5.9h0.6l0.2,0.8l-2.3,0.4l-0.2-0.8l0.4-0.2L24,39l-2.2,0.4l-0.2,1h0.6
		l0.2,0.8l-2.3,0.4L19.9,40.9z M22,38.4l1.6-0.4l-1.4-2.3l0,0L22,38.4z"/>
	<path class="st4" d="M34.2,31.5l0.2,0.8l-0.8,0.4l0.8,4.1c0.2,0.8,0,1.4-0.4,1.8s-1,0.8-1.6,1c-0.8,0.2-1.4,0-2-0.2
		c-0.6-0.2-0.8-0.8-1-1.6l0,0l1.4-0.2c0,0.4,0.2,0.6,0.4,0.8c0.2,0.2,0.4,0.2,0.8,0.2c0.2,0,0.4-0.2,0.6-0.4c0.2-0.2,0.2-0.6,0.2-1
		L32,33.1h-0.8L31,32.3l2.2-0.4L34.2,31.5z"/>
	<path class="st4" d="M37.5,30.9l0.2,0.8l-0.8,0.4l0.8,3.7c0.2,0.4,0.2,0.8,0.6,1c0.4,0.2,0.6,0.2,1.2,0.2c0.6,0,0.8-0.2,1-0.6
		c0.2-0.2,0.2-0.6,0.2-1.2l-0.8-3.7h-0.8l-0.2-0.8l2.9-0.6l0.2,0.8l-0.8,0.4l0.8,3.7c0.2,0.8,0,1.4-0.4,2c-0.4,0.6-1.2,1-2,1.2
		c-0.8,0.2-1.6,0-2.2-0.2c-0.6-0.4-1-1-1.2-1.8l-0.8-3.7h-0.8l-0.2-1l0.8-0.2l1.4-0.2L37.5,30.9z"/>
	<path class="st4" d="M48.3,31.1l-1,0.4l-0.4-1c-0.2,0-0.4,0-0.6-0.2c-0.2,0-0.6,0-0.8,0c-0.4,0-0.8,0.2-0.8,0.4
		c-0.2,0.2-0.2,0.4-0.2,0.8c0,0.4,0.2,0.4,0.4,0.6c0.2,0.2,0.6,0.2,1.2,0.2c0.8,0,1.6,0.2,2,0.6s0.8,0.8,1,1.4
		c0.2,0.6,0,1.2-0.4,1.6s-1,0.8-1.8,1c-0.6,0.2-1.2,0.2-1.6,0c-0.4-0.2-1-0.2-1.4-0.6l-0.4-1.6l1.2-0.2l0.4,1
		c0.2,0.2,0.4,0.2,0.6,0.2c0.2,0,0.6,0,0.8,0c0.4,0,0.6-0.2,0.8-0.4c0.2-0.2,0.2-0.4,0.2-0.8s-0.2-0.4-0.4-0.6
		c-0.2-0.2-0.6-0.2-1.2-0.2c-1,0-1.6-0.2-2.2-0.4c-0.4-0.2-0.8-0.6-1-1.2c-0.2-0.6,0-1.2,0.4-1.6c0.4-0.4,1-0.8,1.8-1
		c0.6-0.2,1.2-0.2,1.6,0s1,0.2,1.4,0.4L48.3,31.1z"/>
	<path class="st4" d="M54.9,27.6l0.4,2h-1l-0.2-0.8L52.8,29l1,5.1h0.8l0.2,0.8l-2.9,0.6l-0.2-0.8l0.8-0.4l-1-5.1L50,29.6l0.2,0.8
		L49,30.6l-0.4-2L54.9,27.6z"/>
	<path class="st4" d="M55.7,28.2l-0.2-0.8l2.9-0.6l0.2,0.8L57.8,28l1,5.1h0.8l0.2,0.8l-2.9,0.6l-0.2-0.8l0.8-0.4l-1-5.1H55.7z"/>
	<path class="st4" d="M65.5,28l-1.2,0.2l-0.2-1C63.9,27,63.7,27,63.5,27c-0.2,0-0.4,0-0.8,0c-0.6,0.2-1,0.4-1.4,1
		c-0.2,0.6-0.4,1.2-0.2,2v0.2c0.2,0.8,0.4,1.4,0.8,1.8c0.4,0.4,1,0.6,1.6,0.4c0.2,0,0.6-0.2,0.8-0.2c0.2-0.2,0.4-0.2,0.4-0.4v-1
		l1.2-0.2l0.2,1.4c-0.2,0.4-0.6,0.8-1,1c-0.4,0.2-1,0.4-1.4,0.6c-1,0.2-1.8,0-2.5-0.6c-0.8-0.6-1.2-1.4-1.4-2.3v-0.2
		c-0.2-1,0-2,0.4-2.7c0.4-0.8,1.2-1.4,2.2-1.4c0.6-0.2,1.2-0.2,1.6,0c0.4,0.2,1,0.4,1.2,0.6L65.5,28z"/>
	<path class="st4" d="M71.4,28.6L69,29l0.4,2.2l2.3-0.4L71.5,30l1.2-0.2l0.4,2l-5.7,1.2l-0.2-0.8l0.8-0.4l-1-5.1h-1l-0.2-0.8
		l0.8-0.2l4.9-1l0.4,2l-1.2,0.2l-0.2-1.2l-2.3,0.4l0.4,1.8l2.3-0.4L71.4,28.6z"/>
</g>
</svg>
