<?xml version="1.0" encoding="utf-8"?>
<!-- Generator: Adobe Illustrator 24.0.3, SVG Export Plug-In . SVG Version: 6.00 Build 0)  -->
<svg version="1.1" id="Layer_1" xmlns="http://www.w3.org/2000/svg" xmlns:xlink="http://www.w3.org/1999/xlink" x="0px" y="0px"
	 viewBox="0 0 15 15" style="enable-background:new 0 0 15 15;" xml:space="preserve">
<style type="text/css">
	.st0{fill:#A15E70;}
	.st1{fill:#EFCAC5;}
	.st2{fill-rule:evenodd;clip-rule:evenodd;fill:#FBF3CB;}
	.st3{fill-rule:evenodd;clip-rule:evenodd;fill:#EAA95F;}
	.st4{fill:#ACDAC2;}
</style>
<g>
	<path class="st0" d="M3.76,8.95c0.37,0.83,0.87,1.65,1.58,2.38c1.04,1.07,2.05,1.78,2.05,1.78h0.08c0,0,1.01-0.72,2.05-1.78
		c1.16-1.19,1.79-2.66,2.12-3.98L3.76,8.95z"/>
	<path class="st0" d="M12,4.82C12.03,4.18,12,3.78,12,3.78L7.42,1.93L2.85,3.78c0,0-0.1,1.24,0.2,2.85L12,4.82z"/>
</g>
<g>
	<polygon class="st1" points="6.91,5.85 6.17,2.42 6.15,2.43 6.8,5.87 	"/>
	<path class="st1" d="M2.92,5.86c0,0.01,0,0.03,0,0.04L4.4,6.36l0.17-0.03L2.92,5.86z"/>
	<polygon class="st1" points="6.64,5.9 5.22,2.81 5.19,2.82 6.52,5.93 	"/>
	<polygon class="st1" points="6.34,5.96 4.25,3.2 4.23,3.21 6.21,5.99 	"/>
	<polygon class="st1" points="5.97,6.04 3.16,3.64 3.15,3.65 5.83,6.07 	"/>
	<polygon class="st1" points="7.19,5.79 7.2,2 7.19,2.01 7.07,5.81 	"/>
	<polygon class="st1" points="11.43,4.93 12,4.64 12,4.63 11.34,4.95 	"/>
	<polygon class="st1" points="9.31,5.36 11.45,3.56 11.45,3.55 9.15,5.4 	"/>
	<path class="st1" d="M5.3,6.17l0.15-0.03l-2.62-1.4c0,0.01,0,0.02,0,0.03L5.3,6.17z"/>
	<polygon class="st1" points="8.41,5.54 10.29,3.09 10.28,3.08 8.26,5.57 	"/>
	<polygon class="st1" points="7.5,5.73 8.27,2.27 8.26,2.26 7.38,5.75 	"/>
	<polygon class="st1" points="7.88,5.65 9.27,2.67 9.25,2.66 7.75,5.68 	"/>
	<path class="st1" d="M7.94,8.11l2.26,2.4c0.01-0.01,0.01-0.02,0.02-0.03l-2.14-2.4L7.94,8.11z"/>
	<path class="st1" d="M7.65,8.16l1.87,3.14c0.01-0.01,0.01-0.01,0.02-0.02L7.77,8.14L7.65,8.16z"/>
	<path class="st1" d="M8.31,8.03l2.41,1.64c0.01-0.01,0.01-0.02,0.02-0.03L8.46,8L8.31,8.03z"/>
	<path class="st1" d="M7.4,8.22l1.29,3.88c0,0,0.01-0.01,0.01-0.01l-1.19-3.9L7.4,8.22z"/>
	<path class="st1" d="M8.88,7.91l2.25,0.9c0-0.01,0.01-0.02,0.01-0.03L9.06,7.88L8.88,7.91z"/>
	<path class="st1" d="M10.02,7.68l1.44,0.24c0-0.01,0.01-0.02,0.01-0.03l-1.26-0.25L10.02,7.68z"/>
	<path class="st1" d="M5.62,8.58l-1.34,1.4c0.01,0.01,0.02,0.03,0.02,0.04l1.49-1.48L5.62,8.58z"/>
	<path class="st1" d="M6.21,8.46l-1.39,2.3c0.01,0.01,0.02,0.02,0.03,0.03l1.52-2.36L6.21,8.46z"/>
	<path class="st1" d="M4.46,8.81l-0.6,0.4c0.01,0.02,0.01,0.03,0.02,0.05l0.77-0.49L4.46,8.81z"/>
	<path class="st1" d="M6.6,8.38l-1.08,3.16c0.01,0.01,0.01,0.01,0.02,0.02l1.19-3.21L6.6,8.38z"/>
	<polygon class="st1" points="7.16,8.26 7.64,12.85 7.28,8.24 	"/>
	<polygon class="st1" points="6.9,8.32 6.45,12.37 6.46,12.38 7.03,8.29 	"/>
</g>
<g>
	<path class="st2" d="M7.93,5.64l1.97-0.4c-0.42-1.17-1.22-2-2.17-2.18C7.96,3.65,8.11,4.49,7.93,5.64z"/>
	<path class="st2" d="M7.21,8.25C7.1,8.72,7.07,9.13,7.1,9.47c0.13,1.67,1.13,2.03,2.18,0.66c0.49-0.63,0.82-1.5,0.91-2.48
		L7.21,8.25z"/>
</g>
<g>
	<path class="st3" d="M7.36,5.76C7.48,5.11,7.5,4.58,7.45,4.14C7.33,3.08,6.73,2.9,5.9,3.6C5.22,4.18,4.72,5.17,4.56,6.32L7.36,5.76
		z"/>
	<path class="st3" d="M6.62,8.37L4.75,8.75c0.42,1.37,1.36,2.34,2.46,2.43C6.7,10.61,6.35,9.77,6.62,8.37z"/>
</g>
<g>
	<path class="st4" d="M12.15,7.26c-0.37,1.5-1.07,3.16-2.39,4.52c-1.16,1.19-2.29,1.99-2.29,1.99H7.38c0,0-1.13-0.8-2.29-1.99
		c-0.81-0.83-1.38-1.77-1.79-2.72L2.8,9.16c0.46,1.08,1.11,2.16,2.02,3.1c1.29,1.32,2.55,2.21,2.55,2.21h0.1
		c0,0,1.26-0.89,2.55-2.21c1.49-1.53,2.27-3.42,2.68-5.11L12.15,7.26z"/>
	<path class="st4" d="M2.58,6.73c-0.39-1.9-0.26-3.4-0.26-3.4l5.11-2.07l5.11,2.07c0,0,0.05,0.54,0,1.38l0.56-0.11
		c0.07-1.05,0.01-1.74,0.01-1.74l-5.68-2.3l-5.68,2.3c0,0-0.15,1.77,0.33,3.97L2.58,6.73z"/>
</g>
<g>
	<path class="st4" d="M1.72,7.41l0.03,0.17L1.61,7.63L1.76,8.4c0.03,0.13,0,0.25-0.07,0.34c-0.07,0.09-0.17,0.15-0.3,0.18
		C1.24,8.94,1.12,8.93,1.02,8.88c-0.1-0.05-0.16-0.15-0.18-0.28l0-0.01l0.27-0.05c0.01,0.07,0.04,0.12,0.08,0.15
		c0.04,0.03,0.09,0.03,0.15,0.02C1.39,8.7,1.43,8.67,1.46,8.62c0.03-0.05,0.04-0.1,0.02-0.17L1.33,7.68l-0.15,0L1.15,7.52l0.42-0.08
		L1.72,7.41z"/>
	<path class="st4" d="M1.94,8.62l0.1-0.03l0.19-1.27L2.5,7.26l0.65,1.11l0.1,0l0.03,0.16L2.81,8.62L2.78,8.45l0.09-0.04l-0.1-0.18
		L2.33,8.33l-0.02,0.2l0.1,0l0.03,0.16L1.97,8.78L1.94,8.62z M2.36,8.11l0.31-0.06L2.42,7.6l-0.01,0L2.36,8.11z"/>
	<path class="st4" d="M3.45,7.24l-0.1,0.04l0.4,0.77l0.03,0.07l0.01,0l0-0.08l0.08-0.87l-0.11,0L3.73,7.02l0.5-0.1l0.03,0.17
		L4.15,7.12L3.98,8.39L3.7,8.44L3.06,7.33L2.95,7.34L2.92,7.18l0.5-0.1L3.45,7.24z"/>
	<path class="st4" d="M4.35,8.15l0.1-0.03l0.19-1.27l0.28-0.05L5.56,7.9l0.1,0l0.03,0.16L5.22,8.15L5.19,7.98l0.09-0.04l-0.1-0.18
		L4.74,7.86l-0.02,0.2l0.1,0l0.03,0.16L4.38,8.31L4.35,8.15z M4.77,7.64l0.31-0.06L4.83,7.13l-0.01,0L4.77,7.64z"/>
	<path class="st4" d="M7.07,6.37L7.1,6.53L6.96,6.59l0.15,0.76c0.03,0.13,0,0.25-0.07,0.34c-0.07,0.09-0.17,0.15-0.3,0.18
		C6.59,7.9,6.47,7.89,6.38,7.84C6.28,7.78,6.22,7.69,6.2,7.55l0-0.01l0.27-0.05c0.01,0.07,0.04,0.12,0.08,0.15
		C6.59,7.67,6.64,7.68,6.7,7.66c0.05-0.01,0.09-0.04,0.12-0.08c0.03-0.05,0.04-0.1,0.02-0.17L6.69,6.64H6.53L6.5,6.48L6.92,6.4
		L7.07,6.37z"/>
	<path class="st4" d="M7.72,6.24l0.03,0.17L7.61,6.46l0.14,0.72C7.77,7.27,7.8,7.33,7.86,7.37C7.92,7.4,7.99,7.41,8.07,7.4
		c0.09-0.02,0.15-0.05,0.19-0.11C8.3,7.24,8.31,7.16,8.3,7.07L8.16,6.36H8.01L7.97,6.19l0.57-0.11l0.03,0.17L8.43,6.3l0.14,0.72
		c0.03,0.15,0,0.28-0.08,0.39c-0.09,0.1-0.21,0.17-0.37,0.2c-0.16,0.03-0.3,0.02-0.42-0.05C7.58,7.5,7.5,7.39,7.47,7.23L7.33,6.52
		H7.18L7.15,6.35L7.3,6.32l0.27-0.05L7.72,6.24z"/>
	<path class="st4" d="M9.77,6.3L9.56,6.34L9.49,6.16C9.46,6.15,9.43,6.14,9.38,6.14c-0.05,0-0.1,0-0.15,0.01
		C9.15,6.16,9.1,6.19,9.06,6.23C9.03,6.27,9.01,6.31,9.02,6.36c0.01,0.05,0.04,0.08,0.09,0.1C9.16,6.49,9.24,6.5,9.35,6.52
		c0.16,0.01,0.28,0.05,0.38,0.1C9.82,6.67,9.88,6.75,9.9,6.87c0.02,0.12-0.01,0.22-0.09,0.3c-0.08,0.09-0.2,0.14-0.35,0.17
		c-0.11,0.02-0.21,0.02-0.3,0C9.07,7.33,8.99,7.3,8.92,7.25L8.86,6.96l0.21-0.04l0.07,0.19c0.03,0.02,0.07,0.03,0.12,0.03
		c0.05,0.01,0.1,0,0.16-0.01C9.5,7.12,9.56,7.09,9.59,7.06c0.03-0.04,0.04-0.08,0.03-0.13C9.61,6.87,9.59,6.83,9.54,6.81
		C9.5,6.78,9.43,6.76,9.33,6.75c-0.17-0.02-0.31-0.05-0.4-0.1c-0.1-0.05-0.15-0.13-0.18-0.24c-0.02-0.11,0.01-0.21,0.09-0.3
		c0.08-0.09,0.19-0.15,0.33-0.18c0.11-0.02,0.2-0.02,0.3-0.01c0.09,0.02,0.17,0.04,0.24,0.09L9.77,6.3z"/>
	<path class="st4" d="M11.04,5.6l0.07,0.37L10.9,6l-0.04-0.15L10.6,5.9l0.19,0.97h0.15l0.03,0.16l-0.57,0.11l-0.03-0.16l0.14-0.06
		l-0.19-0.97L10.08,6l0.02,0.16L9.89,6.2L9.81,5.83L11.04,5.6z"/>
	<path class="st4" d="M11.18,5.74l-0.03-0.17l0.57-0.11l0.03,0.17L11.6,5.69l0.19,0.98l0.15,0l0.03,0.16l-0.57,0.11l-0.03-0.16
		l0.14-0.06l-0.19-0.98L11.18,5.74z"/>
	<path class="st4" d="M13.05,5.68l-0.2,0.04l-0.06-0.18c-0.03-0.02-0.07-0.04-0.11-0.04c-0.04-0.01-0.09-0.01-0.15,0.01
		c-0.12,0.02-0.2,0.08-0.25,0.18c-0.05,0.1-0.06,0.22-0.03,0.36l0.01,0.05c0.03,0.14,0.08,0.25,0.16,0.32
		c0.08,0.07,0.18,0.1,0.3,0.08c0.05-0.01,0.1-0.03,0.14-0.05c0.04-0.02,0.07-0.05,0.09-0.08l-0.01-0.19l0.2-0.04l0.05,0.27
		c-0.04,0.07-0.1,0.14-0.18,0.19c-0.08,0.05-0.17,0.09-0.28,0.11c-0.18,0.04-0.35,0-0.49-0.1c-0.14-0.1-0.23-0.26-0.27-0.46
		L11.96,6.1c-0.04-0.2-0.01-0.37,0.08-0.52c0.09-0.15,0.23-0.24,0.42-0.28c0.11-0.02,0.21-0.02,0.3,0c0.09,0.02,0.17,0.06,0.24,0.11
		L13.05,5.68z"/>
	<path class="st4" d="M14.14,5.79l-0.46,0.09l0.08,0.39l0.44-0.09l-0.02-0.17l0.21-0.04l0.07,0.37l-1.08,0.21L13.34,6.4l0.14-0.06
		l-0.19-0.98h-0.15L13.1,5.19l0.15-0.03l0.94-0.18l0.07,0.38L14.05,5.4L14,5.24l-0.44,0.09l0.07,0.35l0.46-0.09L14.14,5.79z"/>
</g>
</svg>
