<?xml version="1.0" encoding="utf-8"?>
<!-- Generator: Adobe Illustrator 24.0.3, SVG Export Plug-In . SVG Version: 6.00 Build 0)  -->
<svg version="1.1" id="Layer_1" xmlns="http://www.w3.org/2000/svg" xmlns:xlink="http://www.w3.org/1999/xlink" x="0px" y="0px"
	 viewBox="0 0 75 75" style="enable-background:new 0 0 75 75;" xml:space="preserve">
<style type="text/css">
	.st0{fill:#A15E70;}
	.st1{fill:#EFCAC5;}
	.st2{fill-rule:evenodd;clip-rule:evenodd;fill:#FBF3CB;}
	.st3{fill-rule:evenodd;clip-rule:evenodd;fill:#EAA95F;}
	.st4{fill:#4A374B;}
</style>
<g>
	<path class="st0" d="M26.8,37c1,2.2,2.3,4.4,4.2,6.4c2.8,2.9,5.5,4.8,5.5,4.8h0.2c0,0,2.7-1.9,5.5-4.8c3.1-3.2,4.8-7.1,5.7-10.7
		L26.8,37z"/>
	<path class="st0" d="M48.9,25.9c0.1-1.7,0-2.8,0-2.8l-12.3-5l-12.3,5c0,0-0.3,3.3,0.5,7.7L48.9,25.9z"/>
</g>
<g>
	<polygon class="st1" points="35.3,28.7 33.3,19.5 33.2,19.5 35,28.7 	"/>
	<path class="st1" d="M24.5,28.7c0,0,0,0.1,0,0.1l3.9,1.2L29,30L24.5,28.7z"/>
	<polygon class="st1" points="34.5,28.8 30.7,20.5 30.6,20.5 34.2,28.9 	"/>
	<polygon class="st1" points="33.7,29 28.1,21.6 28.1,21.6 33.4,29 	"/>
	<polygon class="st1" points="32.7,29.2 25.2,22.7 25.2,22.8 32.4,29.3 	"/>
	<polygon class="st1" points="36,28.5 36.1,18.3 36,18.4 35.7,28.6 	"/>
	<path class="st1" d="M47.4,26.2l1.5-0.8v0l-1.8,0.9L47.4,26.2z"/>
	<polygon class="st1" points="41.7,27.4 47.5,22.5 47.5,22.5 41.3,27.5 	"/>
	<path class="st1" d="M30.9,29.5l0.4-0.1l-7-3.7c0,0,0,0.1,0,0.1L30.9,29.5z"/>
	<polygon class="st1" points="39.3,27.8 44.4,21.2 44.3,21.2 38.9,27.9 	"/>
	<polygon class="st1" points="36.9,28.3 38.9,19 38.9,19 36.5,28.4 	"/>
	<polygon class="st1" points="37.9,28.1 41.6,20.1 41.5,20.1 37.5,28.2 	"/>
	<path class="st1" d="M38,34.7l6.1,6.4c0,0,0-0.1,0.1-0.1l-5.7-6.4L38,34.7z"/>
	<path class="st1" d="M37.2,34.9l5,8.4c0,0,0,0,0.1-0.1l-4.7-8.4L37.2,34.9z"/>
	<path class="st1" d="M39,34.5l6.5,4.4c0,0,0-0.1,0.1-0.1l-6.1-4.4L39,34.5z"/>
	<path class="st1" d="M36.6,35l3.5,10.4c0,0,0,0,0,0l-3.2-10.5L36.6,35z"/>
	<path class="st1" d="M40.6,34.2l6,2.4c0,0,0-0.1,0-0.1L41,34.1L40.6,34.2z"/>
	<path class="st1" d="M43.6,33.6l3.9,0.6c0,0,0-0.1,0-0.1l-3.4-0.7L43.6,33.6z"/>
	<path class="st1" d="M31.8,36l-3.6,3.8c0,0,0,0.1,0.1,0.1l4-4L31.8,36z"/>
	<path class="st1" d="M33.4,35.7l-3.7,6.2c0,0,0.1,0.1,0.1,0.1l4.1-6.3L33.4,35.7z"/>
	<path class="st1" d="M28.7,36.6l-1.6,1.1c0,0,0,0.1,0.1,0.1l2.1-1.3L28.7,36.6z"/>
	<path class="st1" d="M34.4,35.5l-2.9,8.5c0,0,0,0,0.1,0.1l3.2-8.6L34.4,35.5z"/>
	<polygon class="st1" points="35.9,35.2 37.2,47.5 36.2,35.1 	"/>
	<path class="st1" d="M35.2,35.3L34,46.2c0,0,0,0,0,0l1.5-11L35.2,35.3z"/>
</g>
<g>
	<path class="st2" d="M38,28.1l5.3-1.1c-1.1-3.1-3.3-5.4-5.8-5.9C38.1,22.7,38.5,25,38,28.1z"/>
	<path class="st2" d="M36.1,35.1c-0.3,1.3-0.4,2.4-0.3,3.3c0.3,4.5,3,5.4,5.9,1.8c1.3-1.7,2.2-4,2.4-6.7L36.1,35.1z"/>
</g>
<g>
	<path class="st3" d="M36.5,28.4c0.3-1.7,0.4-3.2,0.2-4.3c-0.3-2.9-1.9-3.3-4.1-1.4c-1.8,1.6-3.2,4.2-3.6,7.3L36.5,28.4z"/>
	<path class="st3" d="M34.5,35.4l-5,1c1.1,3.7,3.6,6.3,6.6,6.5C34.7,41.4,33.8,39.2,34.5,35.4z"/>
</g>
<g>
	<path class="st4" d="M49.3,32.4c-1,4-2.9,8.5-6.4,12.1c-3.1,3.2-6.2,5.4-6.2,5.4h-0.2c0,0-3.1-2.1-6.2-5.4
		c-2.2-2.2-3.7-4.8-4.8-7.3l-1.3,0.3c1.2,2.9,3,5.8,5.4,8.3c3.5,3.6,6.9,5.9,6.9,5.9h0.2c0,0,3.4-2.4,6.9-5.9
		c4-4.1,6.1-9.2,7.2-13.7L49.3,32.4z"/>
	<path class="st4" d="M23.6,31c-1-5.1-0.7-9.1-0.7-9.1l13.7-5.5l13.7,5.5c0,0,0.1,1.4,0,3.7l1.5-0.3c0.2-2.8,0-4.7,0-4.7l-15.3-6.2
		l-15.3,6.2c0,0-0.4,4.7,0.9,10.7L23.6,31z"/>
</g>
<g>
	<path class="st4" d="M21.3,32.8l0.1,0.4L21,33.4l0.4,2.1c0.1,0.4,0,0.7-0.2,0.9c-0.2,0.2-0.5,0.4-0.8,0.5c-0.4,0.1-0.7,0-1-0.1
		C19.2,36.6,19,36.4,19,36v0l0.7-0.1c0,0.2,0.1,0.3,0.2,0.4c0.1,0.1,0.2,0.1,0.4,0.1s0.2-0.1,0.3-0.2c0.1-0.1,0.1-0.3,0.1-0.5
		l-0.4-2.1h-0.4l-0.1-0.4l1.1-0.2L21.3,32.8z"/>
	<path class="st4" d="M21.9,36.1l0.2-0.1l0.5-3.4l0.7-0.1l1.7,3l0.3,0l0.1,0.4l-1.2,0.2l-0.1-0.4l0.2-0.1l-0.3-0.5L23,35.3l-0.1,0.5
		h0.3l0.1,0.4L22,36.5L21.9,36.1z M23,34.7l0.8-0.2l-0.7-1.2h0L23,34.7z"/>
	<path class="st4" d="M26,32.4l-0.3,0.1l1.1,2.1l0.1,0.2h0v-0.2l0.2-2.3h-0.3l-0.1-0.4l1.3-0.3l0.1,0.4L27.9,32l-0.5,3.4l-0.7,0.1
		l-1.7-3l-0.3,0l-0.1-0.4l1.3-0.3L26,32.4z"/>
	<path class="st4" d="M28.4,34.8l0.2-0.1l0.5-3.4l0.7-0.1l1.7,3l0.3,0l0.1,0.4l-1.2,0.2l-0.1-0.4l0.2-0.1l-0.3-0.5L29.4,34l-0.1,0.5
		h0.3l0.1,0.4l-1.2,0.2L28.4,34.8z M29.5,33.5l0.8-0.2l-0.7-1.2h0L29.5,33.5z"/>
	<path class="st4" d="M35.7,30l0.1,0.4l-0.4,0.2l0.4,2.1c0.1,0.4,0,0.7-0.2,0.9c-0.2,0.2-0.5,0.4-0.8,0.5c-0.4,0.1-0.7,0-1-0.1
		c-0.3-0.1-0.4-0.4-0.5-0.8v0l0.7-0.1c0,0.2,0.1,0.3,0.2,0.4c0.1,0.1,0.2,0.1,0.4,0.1c0.1,0,0.2-0.1,0.3-0.2
		c0.1-0.1,0.1-0.3,0.1-0.5l-0.4-2.1h-0.4l-0.1-0.4l1.1-0.2L35.7,30z"/>
	<path class="st4" d="M37.4,29.7l0.1,0.4l-0.4,0.2l0.4,1.9c0.1,0.2,0.1,0.4,0.3,0.5c0.2,0.1,0.3,0.1,0.6,0.1s0.4-0.1,0.5-0.3
		c0.1-0.1,0.1-0.3,0.1-0.6L38.6,30h-0.4l-0.1-0.4l1.5-0.3l0.1,0.4l-0.4,0.2l0.4,1.9c0.1,0.4,0,0.7-0.2,1c-0.2,0.3-0.6,0.5-1,0.6
		c-0.4,0.1-0.8,0-1.1-0.1c-0.3-0.2-0.5-0.5-0.6-0.9l-0.4-1.9H36L35.9,30l0.4-0.1l0.7-0.1L37.4,29.7z"/>
	<path class="st4" d="M42.9,29.8L42.4,30l-0.2-0.5c-0.1,0-0.2,0-0.3-0.1c-0.1,0-0.3,0-0.4,0c-0.2,0-0.4,0.1-0.4,0.2
		c-0.1,0.1-0.1,0.2-0.1,0.4s0.1,0.2,0.2,0.3c0.1,0.1,0.3,0.1,0.6,0.1c0.4,0,0.8,0.1,1,0.3s0.4,0.4,0.5,0.7c0.1,0.3,0,0.6-0.2,0.8
		c-0.2,0.2-0.5,0.4-0.9,0.5c-0.3,0.1-0.6,0.1-0.8,0c-0.2-0.1-0.5-0.1-0.7-0.3l-0.2-0.8l0.6-0.1l0.2,0.5c0.1,0.1,0.2,0.1,0.3,0.1
		c0.1,0,0.3,0,0.4,0c0.2,0,0.3-0.1,0.4-0.2c0.1-0.1,0.1-0.2,0.1-0.4s-0.1-0.2-0.2-0.3c-0.1-0.1-0.3-0.1-0.6-0.1
		c-0.5,0-0.8-0.1-1.1-0.2c-0.2-0.1-0.4-0.3-0.5-0.6c-0.1-0.3,0-0.6,0.2-0.8c0.2-0.2,0.5-0.4,0.9-0.5c0.3-0.1,0.6-0.1,0.8,0
		s0.5,0.1,0.7,0.2L42.9,29.8z"/>
	<path class="st4" d="M46.3,28l0.2,1L46,29l-0.1-0.4l-0.7,0.1l0.5,2.6h0.4l0.1,0.4l-1.5,0.3l-0.1-0.4l0.4-0.2l-0.5-2.6L43.8,29
		l0.1,0.4l-0.6,0.1l-0.2-1L46.3,28z"/>
	<path class="st4" d="M46.7,28.3l-0.1-0.4l1.5-0.3l0.1,0.4l-0.4,0.2l0.5,2.6h0.4l0.1,0.4l-1.5,0.3l-0.1-0.4l0.4-0.2l-0.5-2.6H46.7z"
		/>
	<path class="st4" d="M51.7,28.2l-0.6,0.1L51,27.8c-0.1-0.1-0.2-0.1-0.3-0.1c-0.1,0-0.2,0-0.4,0c-0.3,0.1-0.5,0.2-0.7,0.5
		c-0.1,0.3-0.2,0.6-0.1,1l0,0.1c0.1,0.4,0.2,0.7,0.4,0.9c0.2,0.2,0.5,0.3,0.8,0.2c0.1,0,0.3-0.1,0.4-0.1c0.1-0.1,0.2-0.1,0.2-0.2
		l0-0.5l0.6-0.1l0.1,0.7c-0.1,0.2-0.3,0.4-0.5,0.5c-0.2,0.1-0.5,0.2-0.7,0.3c-0.5,0.1-0.9,0-1.3-0.3c-0.4-0.3-0.6-0.7-0.7-1.2l0-0.1
		c-0.1-0.5,0-1,0.2-1.4c0.2-0.4,0.6-0.7,1.1-0.7c0.3-0.1,0.6-0.1,0.8,0c0.2,0.1,0.5,0.2,0.6,0.3L51.7,28.2z"/>
	<path class="st4" d="M54.7,28.5l-1.2,0.2l0.2,1.1l1.2-0.2l-0.1-0.4l0.6-0.1l0.2,1l-2.9,0.6l-0.1-0.4l0.4-0.2l-0.5-2.6H52l-0.1-0.4
		l0.4-0.1l2.5-0.5l0.2,1l-0.6,0.1L54.3,27l-1.2,0.2l0.2,0.9l1.2-0.2L54.7,28.5z"/>
</g>
</svg>
