<?xml version="1.0" encoding="utf-8"?>
<!-- Generator: Adobe Illustrator 24.0.3, SVG Export Plug-In . SVG Version: 6.00 Build 0)  -->
<svg version="1.1" id="Layer_1" xmlns="http://www.w3.org/2000/svg" xmlns:xlink="http://www.w3.org/1999/xlink" x="0px" y="0px"
	 viewBox="0 0 576 576" style="enable-background:new 0 0 576 576;" xml:space="preserve">
<style type="text/css">
	.st0{fill:#5A9173;}
	.st1{fill:#191919;}
	.st2{fill:#A1D1B3;}
</style>
<g transform="matrix(1, 0, 0, 1, 35.35, 98.05)">
	<path id="Path_57-2" class="st0" d="M406.68,149.17c0.02-0.33,0.11-0.65,0.28-0.94c0.63-1.17,0.34-3.92,0.18-5.43
		c-0.09-0.87-0.44-4.26-1.33-5.43c-0.18-0.23-0.32-0.49-0.39-0.78c-0.11-0.48-0.09-0.98,0.08-1.45c0.37-2.13,0.02-4.32-1-6.22
		c-0.46-0.85-0.84-1.58-1.63-1.86c-0.79-0.28-1.3,0.1-2.21-0.34c-0.65-0.32-0.63-0.64-1.27-0.94c-0.55-0.26-0.93-0.18-2.04-0.12
		c-2.06,0.09-3.11,0.12-4.04-0.46c-0.45-0.28-0.33-0.36-0.89-0.73c-1.04-0.67-1.6-0.48-2.4-0.96c-0.88-0.53-0.53-0.97-1.43-1.71
		c-1.28-1.06-2.39-0.53-3.06-1.53c-0.35-0.53-0.11-0.78-0.41-1.54c-0.49-0.98-1.3-1.77-2.29-2.23c-1.57-0.99-1.14-1.37-3.89-4.15
		c-1.66-1.68-1.21-0.93-4.85-4.2c-0.56-0.5-3.23-2.91-4.78-3.07c-0.3-0.03-0.59-0.09-0.87-0.19c-0.53-0.23-1.02-0.55-1.44-0.94
		c-0.86-0.61-1.92-0.47-3.67-0.24c-1.39,0.18-1.33,0.41-2.13,0.34c-1.18-0.1-1.53-0.63-2.47-0.43c-0.67,0.14-0.83,0.49-1.44,0.45
		c-0.49-0.08-0.94-0.3-1.3-0.64c-1.62-1.14-2.63-1.84-3.21-1.54c-0.32,0.17-0.3,0.55-0.59,0.58c-0.49,0.05-0.81-0.95-1.24-0.88
		c-0.29,0.05-0.28,0.53-0.65,0.67c-0.37,0.13-0.78-0.19-0.96-0.31c-0.92-0.68,1.08,1.03-4.07-2.29c-0.62-0.48-1.32-0.85-2.07-1.08
		c-0.29-0.07-1.49-0.34-1.84,0.17c-0.17,0.25-0.06,0.58-0.3,0.73c-0.18,0.1-0.39,0.08-0.55-0.04c-0.2-0.18-0.04-0.45-0.19-0.59
		c-0.28-0.28-1.03,0.46-1.66,0.18c-0.34-0.15-0.39-0.49-0.61-0.45c-0.24,0.04-0.23,0.45-0.6,0.82c-0.28,0.28-0.45,0.2-0.88,0.43
		c-0.87,0.45-1.08,1.24-1.3,1.16c-0.15-0.06-0.21-0.51-0.04-0.83c0.21-0.42,0.66-0.36,0.83-0.75c0.13-0.28,0.08-0.61-0.13-0.83
		c-0.43-0.31-1.79,0.31-2.24,1.35c-0.33,0.76-0.06,1.52-0.44,1.68c-0.21,0.06-0.43,0-0.58-0.16c-0.21-0.23-0.08-0.58-0.19-0.62
		c-0.2-0.08-0.63,1.07-0.92,1.02c-0.32-0.06-0.68-1.58-0.01-2.48c0.46-0.62,1.06-0.46,1.45-1.12c0.35-0.61,0.28-1.51-0.06-1.69
		c-0.51-0.26-1.51,1.16-1.88,0.91c-0.18-0.12-0.13-0.57-0.01-0.89c0.39-1.06,1.8-1.31,1.72-1.74c-0.02-0.1-0.09-0.08-0.23-0.24
		c-0.49-0.55-0.13-1.21-0.47-1.52c-0.38-0.34-1.12,0.23-1.43-0.12c-0.13-0.22-0.13-0.49-0.02-0.71c0.22-0.51,0.84-0.55,0.83-0.75
		c-0.01-0.3-1.35-0.19-1.7-0.89c-0.24-0.48,0.11-1.07-0.07-1.15c-0.21-0.1-0.61,0.77-1.18,0.72c-0.35-0.03-0.38-0.38-0.69-0.43
		c-0.75-0.12-1.53,1.79-1.81,1.68c-0.2-0.08-0.03-1.24,0.03-1.65c0.07-0.48,0.15-0.78-0.01-0.92c-0.23-0.2-0.76,0.1-0.85-0.04
		c-0.05-0.09,0.13-0.2,0.09-0.32c-0.07-0.23-0.77-0.01-1.07-0.34c-0.26-0.29,0.02-0.75-0.19-0.89c-0.31-0.21-1.14,0.7-1.38,0.51
		c-0.18-0.14,0.12-0.73-0.04-0.83c-0.17-0.09-0.45,0.34-0.62,0.25s0.06-0.68-0.13-0.8c-0.12-0.08-0.32,0.12-0.59,0.25
		c-0.72,0.37-1.6,0.23-2.18-0.34c-0.26-0.36-0.06-0.7-0.33-0.89s-0.54,0.09-1.11,0.12c-0.8,0.06-1.57-0.33-1.99-1.01
		c-0.16-0.36-0.05-0.63-0.28-0.77c-0.3-0.19-0.68,0.18-0.96-0.02s-0.08-0.69-0.31-0.8c-0.29-0.15-0.78,0.61-1.14,0.45
		c-0.22-0.1-0.16-0.43-0.4-0.51c-0.27-0.08-0.53,0.29-0.67,0.19c-0.14-0.09,0.08-0.51-0.08-0.65c-0.16-0.15-0.44,0.18-0.85,0.18
		c-0.75-0.01-1.12-1.19-1.6-1c-0.28,0.11-0.25,0.43-0.53,0.52c-0.57,0.18-1.12-1.01-1.78-0.87c-0.4,0.08-0.41,0.55-0.84,0.61
		c-0.39,0.05-0.54-0.32-0.95-0.37c-0.42-0.05-0.62,0.27-1.37,0.86c-1.28,1.01-1.77,0.96-2.04,1.65c-0.17,0.44-0.01,0.57-0.24,0.97
		c-0.34,0.61-0.79,0.49-1.2,1c-0.63,0.78-0.16,1.85-0.61,2.03c-0.35,0.14-0.79-0.46-1.04-0.29c-0.22,0.15,0.05,0.65-0.24,0.97
		c-0.19,0.21-0.36,0.07-0.66,0.25c-0.58,0.35-0.43,1.16-0.9,1.31c-0.21,0.07-0.29-0.09-0.57-0.1c-0.5-0.02-0.96,0.5-1.82,1.87
		c-0.9,1.42-1.03,1.88-1.21,1.84c-0.28-0.06-0.51-1.32,0.04-2.13c0.46-0.68,1.29-0.77,1.24-1.04c-0.03-0.2-0.54-0.34-0.96-0.28
		s-0.54,0.3-0.97,0.42c-0.38,0.07-0.77,0.05-1.13-0.07c-1.04-0.15-1.19,0.32-2.76,0.44c-0.95,0.07-0.9-0.1-1.62,0.01
		c-1.13,0.19-1.77,0.69-1.93,0.5c-0.12-0.15,0.11-0.63,0.41-0.97c0.92-1.01,2.64-0.91,3.47-0.87c1.04,0.06,1.05,0.25,1.7,0.16
		c1.12-0.15,1.28-0.73,2.38-1.02c1.21-0.32,1.37,0.3,2.58,0c1.04-0.27,1.92-0.96,2.44-1.9c0.27-0.58,0.06-0.63,0.29-1.37
		c0.52-1.67,1.7-1.68,2.15-3.24c0.19-0.64-0.01-0.64,0.25-1.77c0.28-1.23,0.56-1.44,0.42-1.81c-0.24-0.65-1.25-0.46-3.43-0.99
		c-2.13-0.52-3.12-1.16-3.79-0.61c-0.35,0.29-0.39,0.71-0.89,0.91c-0.4,0.13-0.84,0.11-1.22-0.07c-2.12-0.78-5.03-1.84-7.07-1.14
		c-0.67,0.18-1.26,0.56-1.7,1.09c-0.44,0.59-0.65,1.4-0.87,1.36c-0.08-0.02-0.12-0.14-0.13-0.17c-0.12-0.39,0.55-0.64,0.49-1.17
		c-0.04-0.33-0.23-0.43-0.22-0.74c0.01-0.57,0.65-0.8,0.57-1.02c-0.1-0.29-1.32-0.47-2.1,0.14c-0.49,0.37-0.56,0.87-1.27,1.21
		c-0.26,0.12-0.54,0.21-0.58,0.14c-0.04-0.07,0.21-0.22,0.33-0.55c0.13-0.36-0.03-0.56,0.01-0.86c0.05-0.38,0.38-0.57,0.92-0.96
		c1.55-1.11,1.25-1.27,2.16-1.73c0.45-0.23,0.8-0.34,1.06-0.75c0.14-0.26,0.22-0.55,0.24-0.85c0.09-0.5,0.35-0.86,1.34-1.86
		c1.6-1.62,2.4-2.43,2.87-2.81c0.35-0.28,1.01-0.79,0.89-1.11c-0.09-0.23-0.55-0.21-0.58-0.39c-0.03-0.21,0.54-0.3,0.88-0.66
		c0.55-0.8,0.57-1.84,0.05-2.66c-0.5-0.81-1.43-1.05-2.71-1.38c-1.41-0.36-1.78-0.13-2.38-0.58c-0.55-0.41-0.59-0.88-1.09-2.38
		c-0.87-2.62-1.19-2.49-1.7-4.46c-0.15-0.91-0.34-1.81-0.59-2.7c-0.58-1.54-1.14-1.76-1.2-2.89c0.09-0.73,0.13-1.47,0.12-2.21
		c-0.02-0.15-0.19-1.51-0.67-1.58c-0.26-0.04-0.44,0.33-0.59,0.25c-0.21-0.11,0.2-0.91-0.06-1.77c-0.11-0.32-0.28-0.62-0.51-0.87
		c-0.82-1.06-2.09-1.99-2.42-1.73c-0.01,0.01-0.01,0.02-0.02,0.03c-0.14,0.17,0.1,0.58-0.17,1.06c-0.12,0.19-0.28,0.35-0.47,0.46
		c-0.57,0.52-0.99,1.19-1.23,1.93c-0.7,1.42-1.17,1.03-2.08,2.59c-0.87,1.48-0.5,1.93-1.36,2.78c-0.44,0.34-0.8,0.78-1.04,1.28
		c-0.12,0.38-0.18,0.78-0.2,1.18c-0.24,1.39-1.2,1.42-1.8,3.03c-0.32,0.86-0.17,1.17-0.58,1.55c-0.49,0.46-0.95,0.24-1.47,0.77
		c-0.49,0.49-0.47,1.06-0.78,1.08c-0.23,0.01-0.25-0.29-0.61-0.49c-0.65-0.35-1.29,0.33-1.78,0c-0.39-0.26-0.23-0.87-0.54-0.95
		c-0.25-0.07-0.39,0.33-0.88,0.61c-0.71,0.31-1.51,0.3-2.21-0.01c-0.63-0.28-0.59-0.58-0.98-0.61c-0.64-0.05-0.82,0.75-1.79,1.33
		c0-0.08,0-0.17,0.01-0.25c-0.14,0.06-0.29,0.09-0.43,0.08c-0.26,0.03-0.53,0.03-0.79,0.01c-0.07-0.01-0.43-0.05-0.43-0.12
		c0-0.04,0.13-0.06,0.14-0.13s-0.17-0.12-0.19-0.24c0-0.08,0.05-0.16,0.12-0.2c0.09-0.05,0.17-0.02,0.18-0.05
		c0.01-0.03-0.16-0.11-0.16-0.17c0.01-0.07,0.12-0.04,0.14-0.11c0.02-0.06-0.05-0.13-0.11-0.17c-0.13-0.06-0.27-0.06-0.41-0.01
		c-0.08,0.03-0.14,0.06-0.17,0.03c-0.04-0.03-0.03-0.11-0.03-0.11c0.01,0.08,0,0.17-0.04,0.24c-0.04,0.05-0.07,0.04-0.24,0.15
		c-0.12,0.07-0.11,0.08-0.15,0.09c-0.09,0.02-0.12-0.02-0.35-0.07c-0.1-0.02-0.12-0.02-0.14-0.04c-0.05-0.07,0.05-0.16,0.01-0.27
		c-0.03-0.1-0.21-0.07-0.4-0.23c-0.12-0.1-0.07-0.12-0.25-0.32c-0.06-0.05-0.1-0.11-0.12-0.19c-0.01-0.07,0.01-0.14,0.06-0.19
		c0.07-0.07,0.13-0.04,0.19-0.09c0.09-0.09,0.07-0.3,0.01-0.32s-0.09,0.16-0.27,0.24c-0.15,0.07-0.22-0.02-0.36,0.06
		c-0.08,0.06-0.15,0.14-0.21,0.22c-0.18,0.24-0.23,0.36-0.31,0.35c-0.06,0-0.07-0.07-0.14-0.07c-0.11,0-0.17,0.19-0.22,0.17
		s-0.03-0.14-0.02-0.24c0.01-0.17,0.04-0.24,0.01-0.26c-0.05-0.03-0.18,0.14-0.23,0.1c-0.05-0.03,0-0.12-0.04-0.13
		c-0.04-0.02-0.06,0.05-0.15,0.09c-0.09,0.04-0.12,0.02-0.15,0.05c-0.05,0.07,0.06,0.2,0.01,0.25c-0.05,0.06-0.14,0-0.16,0.04
		s0.1,0.13,0.08,0.2c-0.03,0.06-0.12,0.07-0.18,0.03s-0.04-0.11-0.08-0.12c-0.06-0.01-0.12,0.2-0.19,0.22l-0.01,0.01
		c-0.09,0-0.1-0.31-0.21-0.33c-0.07-0.01-0.1,0.11-0.19,0.11c-0.08-0.01-0.08-0.11-0.17-0.13c-0.11-0.02-0.21,0.04-0.26,0.14
		c-0.04,0.11,0.04,0.2,0,0.24s-0.16-0.03-0.19,0.01s0.02,0.13,0.08,0.18s0.1,0.04,0.11,0.07s-0.03,0.07-0.12,0.17
		c-0.11,0.13-0.11,0.17-0.16,0.19c-0.06,0.01-0.13-0.01-0.17-0.05c-0.06-0.07-0.01-0.15-0.05-0.21c-0.06-0.09-0.24-0.06-0.36-0.04
		c-0.22,0.03-0.45,0.03-0.67,0.08c-0.37,0.11-0.76,0.18-1.14,0.2c-0.17-0.03-0.35-0.02-0.51,0.04c-0.04,0.02-0.08,0.04-0.12,0.03
		c-0.09-0.01-0.16-0.12-0.19-0.23c-0.03-0.13,0.02-0.18-0.02-0.24c-0.04-0.05-0.08-0.03-0.3-0.01c-0.12,0.02-0.23,0.02-0.35-0.01
		c-0.07-0.04-0.06-0.07-0.16-0.18c-0.09-0.11-0.2-0.2-0.31-0.27s-0.23-0.12-0.36-0.13c-0.13-0.03-0.27,0-0.38,0.09
		c-0.06,0.06-0.09,0.18-0.05,0.23c0.02,0.03,0.04,0.02,0.06,0.04c0.03,0.05-0.04,0.17-0.13,0.24c-0.07,0.05-0.12,0.04-0.13,0.07
		s0.11,0.11,0.23,0.17c0.03,0.02,0.04,0.02,0.04,0.03c0.02,0.05-0.11,0.13-0.31,0.32c-0.15,0.14-0.16,0.18-0.16,0.21
		c0.01,0.1,0.16,0.14,0.14,0.21s-0.12,0.09-0.21,0.07c-0.05-0.01-0.07-0.04-0.18-0.13s-0.17-0.15-0.2-0.13
		c-0.03,0.02-0.01,0.05,0,0.23c0,0.07,0,0.1,0,0.12c-0.01,0.08-0.06,0.14-0.18,0.26c-0.17,0.18-0.21,0.2-0.2,0.24
		c0.01,0.04,0.05,0.07,0.31,0.13c0.33,0.08,0.48,0.09,0.51,0.18c0.01,0.03,0,0.07-0.03,0.16c-0.05,0.15-0.1,0.18-0.09,0.23
		s0.08,0.04,0.28,0.09c0.08,0.01,0.16,0.04,0.23,0.08c0.09,0.09,0.14,0.22,0.15,0.35c0.02,0.14-0.01,0.21,0.04,0.25
		c0.05,0.04,0.09-0.02,0.17,0s0.08,0.08,0.22,0.23c0.09,0.1,0.12,0.1,0.14,0.15c0.02,0.05-0.01,0.13-0.08,0.24
		c-0.09,0.17-0.14,0.17-0.15,0.25c-0.01,0.06,0,0.1,0.12,0.31c0.16,0.31,0.21,0.36,0.19,0.44s-0.05,0.07-0.24,0.21
		c-0.31,0.23-0.33,0.31-0.46,0.32c-0.11-0.02-0.22-0.05-0.32-0.09c-0.31-0.1-0.36-0.14-0.46-0.11c-0.14,0.03-0.15,0.12-0.25,0.12
		c-0.06,0-0.13-0.08-0.27-0.23c-0.21-0.24-0.23-0.25-0.28-0.27c-0.12-0.04-0.15,0.04-0.36,0.01c-0.1-0.01-0.14-0.03-0.19-0.01
		c-0.09,0.05-0.06,0.17-0.12,0.2s-0.14-0.07-0.35-0.23c-0.26-0.19-0.36-0.2-0.39-0.2c-0.08,0-0.16,0.02-0.23,0.04
		c-0.16,0.04-0.18,0.08-0.26,0.07c-0.08-0.02-0.16-0.06-0.22-0.12c-0.12-0.09-0.12-0.14-0.19-0.15c-0.04,0-0.09,0.03-0.2,0.09
		c-0.1,0.06-0.18,0.12-0.21,0.1c-0.02-0.01-0.02-0.03-0.02-0.05c-0.01-0.07,0.03-0.11,0.04-0.17s-0.02-0.09-0.11-0.2
		c-0.21-0.28-0.21-0.28-0.23-0.29c-0.09-0.05-0.11-0.01-0.35-0.07c-0.15-0.04-0.16-0.06-0.23-0.06c-0.1,0.02-0.19,0.06-0.28,0.11
		c-0.16,0.08-0.16,0.09-0.19,0.09c-0.16,0.01-0.3-0.2-0.32-0.23c-0.01-0.01-0.01-0.02-0.01-0.03c0.04,0.01,0.08,0.01,0.12,0.01
		c-0.79,0.05-1.15-0.84-1.73-0.68c-0.31,0.08-0.34,0.37-0.71,0.4c-0.3,0.02-0.35-0.16-0.67-0.22c-0.68-0.12-1.16,0.61-1.55,0.38
		c-0.17-0.09-0.11-0.24-0.31-0.36c-0.28-0.16-0.49,0.07-0.82,0.01c-0.55-0.08-0.61-0.78-1.03-0.79c-0.34,0-0.38,0.44-0.91,0.61
		c-0.46,0.14-0.61-0.14-0.93-0.02c-0.69,0.27-0.4,1.76-1.11,2.05c-0.2,0.08-0.21-0.04-0.76-0.04c-0.5,0.05-1,0.14-1.49,0.27
		c-0.95,0.09-1.27-0.36-1.6-0.12c-0.45,0.35,0.02,1.32-0.35,1.56c-0.5,0.32-1.73-1.21-2.35-0.84c-0.33,0.2-0.22,0.79-0.69,0.99
		c-0.28,0.12-0.49-0.02-0.61,0.14c-0.17,0.21,0.14,0.53,0.01,0.92c-0.11,0.26-0.33,0.46-0.59,0.55c-0.62,0.21-1-0.41-1.57-0.21
		c-0.42,0.15-0.46,0.58-0.8,0.58c-0.27,0-0.4-0.29-0.66-0.54c-0.54-0.53-1.04-0.34-2-0.66c-0.79-0.2-1.5-0.65-2.02-1.28
		c-0.49-0.66-0.49-1.3-1.14-1.62c-0.26-0.12-0.34-0.07-0.64-0.22c-0.45-0.25-0.8-0.64-1-1.11c-0.51-1.23,0.61-2.22,0.08-2.92
		c-0.32-0.42-0.83-0.24-1.18-0.79c-0.15-0.31-0.22-0.66-0.19-1.01c-0.12-1.64-0.91-1.9-0.68-2.85c0.16-0.67,0.58-0.61,0.69-1.35
		c0.11-0.69-0.23-0.94-0.06-1.54c0.16-0.55,0.51-0.54,0.83-1.08c0.57-0.95-0.18-1.59,0.25-2.6c0.42-0.98,1.3-0.75,1.69-1.77
		c0.28-0.73,0.18-1.55-0.25-2.19c-0.41-0.54-0.85-0.42-1.21-1c-0.38-0.63,0.01-1-0.29-1.54c-0.55-0.98-2.25-0.51-2.54-1.29
		c-0.07-0.19,0-0.3,0.55-1.56c0.7-1.58,0.76-1.77,0.74-2.05c-0.07-0.78-0.6-1.44-1.33-1.68c-0.2-0.03-0.41-0.02-0.61,0.02
		c-0.83,0.02-1.67-0.03-2.49-0.17c-0.28,0-0.56,0.03-0.83,0.11c-0.37,0.1-0.7,0.2-0.79,0.46c-0.17,0.45,0.54,0.78,0.58,1.55
		c-0.05,0.67-0.39,1.29-0.93,1.7c-0.57,0.45-0.84,0.24-1.38,0.71c-0.62,0.54-0.41,0.96-0.87,1.22c-0.84,0.49-2.03-0.64-2.62-0.11
		c-0.27,0.24-0.17,0.61-0.54,0.82c-0.31,0.18-0.46-0.03-0.79,0.1c-0.58,0.24-0.49,1.05-1.04,1.22c-0.24,0.08-0.31-0.07-0.55,0.02
		c-0.49,0.17-0.4,0.78-0.77,0.96c-0.51,0.24-1.02-0.69-1.74-0.54c-0.61,0.14-0.69,0.91-1.18,0.89c-0.45-0.02-0.62-0.69-1.09-0.64
		c-0.22,0.02-0.23,0.17-0.59,0.28c-0.37,0.12-0.54,0-0.82,0.04c-0.56,0.09-0.55,0.68-1.13,1.07c-0.84,0.57-1.74-0.1-2.16,0.43
		c-0.28,0.36,0.07,0.73-0.25,1.21c-0.34,0.48-0.97,0.68-1.52,0.47c-0.32-0.16-0.33-0.45-0.54-0.75c-0.52-0.73-1.54-0.54-3.37-0.74
		c-1.17-0.01-2.33-0.26-3.4-0.74c-0.89-0.53-1.44-1.25-2.19-1.07c-0.39,0.09-0.68,0.38-1.05,0.24c-0.28-0.1-0.32-0.35-0.54-0.57
		c-0.58-0.58-1.94-0.56-2.27-0.01c-0.32,0.52,0.29,1.49,0.78,2.02c1.16,1.27,2.37,0.82,3.14,1.98c0.4,0.64,0.54,1.4,0.4,2.13
		c-0.21,1.08-0.98,1.21-0.94,2.02c0.04,0.85,0.93,0.98,1.07,2.09c0.07,0.5-0.11,0.52-0.11,1.36c-0.05,0.6,0.04,1.21,0.26,1.78
		c0.46,0.94,1.48,1.27,2.62,1.64c0.52,0.26,1.11,0.35,1.69,0.24c0.74-0.22,0.77-0.8,1.5-1.01c0.71-0.2,1.67,0.06,1.85,0.62
		c0.06,0.48-0.15,0.96-0.55,1.23c-0.45,0.35-0.77,0.16-1.55,0.44c-0.62,0.22-0.63,0.42-1.29,0.77c-1.18,0.62-1.53,0.2-2.11,0.64
		c-0.96,0.74-0.18,2.06-1.25,3.2c-0.67,0.72-1.75,1.01-1.96,0.76c-0.11-0.12,0.03-0.35-0.08-0.44c-0.2-0.17-0.89,0.34-1.23,0.6
		c-1.49,1.14-1.34,1.36-1.95,1.68c-1.28,0.68-2.18-0.16-2.98,0.62c-0.41,0.4-0.27,0.72-0.84,1.22c-0.54,0.48-0.79,0.31-1.27,0.77
		c-0.61,0.58-0.53,1.17-0.95,1.25c-0.33,0.04-0.64-0.15-0.75-0.46c-0.11-0.45,0.65-0.78,0.55-1.2c-0.09-0.36-0.75-0.56-1.27-0.53
		c-0.51,0.08-0.98,0.31-1.35,0.65c-1.24,0.91-1.42,1.53-2.01,1.5c-0.43-0.02-0.52-0.36-1.07-0.34c-0.45,0.02-0.68,0.27-0.91,0.13
		c-0.22-0.14-0.12-0.41-0.25-0.71c-0.24-0.55-0.9-0.43-1.88-0.89c-0.17-0.08-0.34-0.17-0.49-0.28c-0.8-0.52-1.02-1.06-1.7-1
		c-0.35,0.03-0.52,0.19-0.82,0.15c-0.04,0-0.08-0.01-0.11-0.02c-0.42-0.12-0.75-0.44-0.89-0.85c-0.09-0.27-0.04-0.46,0.26-1.62
		c0.06-0.22,0.14-0.55,0.25-0.94l-2.93-4.1c-0.55,0.15-1.06,0.43-1.5,0.8c-0.87,0.75-0.88,1.47-1.69,1.8
		c-0.49,0.2-1.04,0.18-1.51-0.06c-0.44-0.29-0.37-0.71-0.8-0.87c-0.45-0.17-1.08,0.08-1.14,0.39c-0.03,0.13,0.05,0.24,0.17,0.42
		c0.33,0.49,0.68,0.51,0.86,0.9c0.06,0.14,0.09,0.29,0.08,0.45h-10.89c-0.22-0.2-0.51-0.31-0.81-0.31c-0.56,0.03-0.77,0.58-1.2,0.49
		c-0.29-0.06-0.36-0.35-0.72-0.36c-0.13-0.01-0.26,0.02-0.38,0.08l0.14,5.05c0.13,0.17,0.33,0.28,0.55,0.31
		c0.3,0.01,0.39-0.24,0.67-0.25c0.43-0.02,0.53,0.51,0.98,0.55c0.35,0.03,0.41-0.28,1-0.51c0.17-0.07,1-0.37,1.49,0
		c0.26,0.2,0.13,0.36,0.45,0.78c0.41,0.53,0.83,0.51,0.86,0.81c0.03,0.31-0.43,0.42-0.45,0.85s0.44,0.78,0.36,0.86
		c-0.05,0.05-0.19-0.12-0.41-0.12c-0.37,0-0.45,0.51-0.94,0.66c-0.23,0.09-0.5,0.05-0.7-0.1c-0.15-0.16-0.04-0.35-0.2-0.51
		c-0.21-0.14-0.47-0.15-0.7-0.04c-0.39,0.16-0.31,0.44-0.62,0.61c-0.51,0.27-1.03-0.33-1.63-0.03c-0.18,0.09-0.12,0.14-0.38,0.29
		c-0.31,0.18-0.66,0.27-1.02,0.28c-0.24,0-0.47-0.03-0.7-0.1l0.04,6.29c0.92,0.38,1.77,0.93,2.51,1.61
		c0.92,0.86,1.04,1.39,1.08,1.67c0.04,0.36-0.02,0.73-0.16,1.06l1.61,1.39l-0.08,1.06l0.92,0.73l-1.63,9.69l-0.46,2.72l-0.01,0.07
		l-1.52,9l-0.63,3.75c-0.22-0.12-0.48-0.12-0.7-0.01c-0.12,0.08-0.1,0.17-0.21,0.29c-0.28,0.28-0.72,0.32-1.05,0.1
		c-0.19-0.17-0.07-0.36-0.19-0.71c-0.21-0.54-0.69-0.91-1.26-0.97c-0.65-0.02-0.71,0.68-1.53,0.89c-0.86,0.22-1.44-0.39-1.78-0.06
		c-0.34,0.32,0.14,1.11-0.23,1.41c-0.32,0.27-0.82-0.23-1.4,0.09c-0.27,0.15-0.34,0.36-0.65,0.4c-0.23,0.03-0.34-0.08-0.55-0.01
		s-0.25,0.24-0.41,0.38c-0.48,0.39-1.21-0.25-2.07,0.08c-0.17,0.08-0.32,0.18-0.47,0.29c-1.15,0.68-1.91,0.03-2.92,0.48
		c-0.89,0.4-0.64,1.05-1.9,1.8c-0.67,0.4-0.71,0.19-1.38,0.57c-1.46,0.82-1.37,1.85-2.48,2.14c-0.66,0.17-0.97-0.11-1.52,0.24
		c-0.4,0.23-0.67,0.63-0.75,1.08c-0.03,0.79,1.03,1.09,0.93,1.82c-0.05,0.36-0.33,0.36-0.45,0.91c-0.11,0.5,0.09,0.67-0.05,1.03
		c-0.13,0.36-0.45,0.53-0.89,0.75c-0.97,0.51-1.36,0.29-1.7,0.65c-0.36,0.59-0.4,1.31-0.12,1.94c0.49,1.42,1.84,1.57,1.96,2.81
		c0.05,0.28-0.01,0.58-0.16,0.82c-0.35,0.51-1.08,0.4-1.96,0.5c-0.18,0.02-3.1,0.36-3.67,1.85c-0.19,0.5-0.03,0.88-0.44,1.56
		c-0.26,0.45-0.5,0.56-0.49,0.85c0.04,0.51,0.84,0.56,0.94,1.11c0.01,0.47-0.25,0.91-0.66,1.14c-0.59,0.36-1.28,0.11-1.35,0.33
		c-0.05,0.16,0.33,0.28,0.43,0.66c0.11,0.46-0.35,0.67-0.31,1.06c0.08,0.72,1.82,0.75,1.95,1.51c0.08,0.44-0.47,0.58-0.43,1.08
		c0.06,0.73,1.19,0.71,1.77,1.83c0.33,0.63,0.14,0.96,0.53,1.25c0.47,0.35,1.07,0.1,1.33,0.5c0.11,0.17,0.03,0.26,0.08,0.59
		c0.11,0.64,0.5,1.19,1.05,1.53c0.53,0.31,0.74,0.03,1.21,0.26c0.93,0.65,1.37,1.8,1.11,2.91c-0.28,1.33-1.48,1.76-1.29,2.19
		c0.2,0.47,1.67-0.01,4.25,0.26c2.31,0.24,2.62,0.79,2.69,1.03c0.16,0.51-0.35,0.96-0.08,1.42c0.25,0.43,0.8,0.22,1.15,0.67
		c0.4,0.51-0.07,1.08,0.24,1.48c0.41,0.53,1.41-0.28,3.35-0.2c1.28,0.05,1.83,0.43,2.97,0.08c0.36-0.12,0.71-0.28,1.03-0.49
		c1.07-0.65,2-1.5,2.72-2.52c0.91-1.22,1.01-1.85,1.78-2.09c0.54-0.17,1.16-0.07,1.25,0.17c0.1,0.28-0.62,0.58-0.57,1.14
		c0.03,0.35,0.32,0.49,0.28,0.83c-0.04,0.21-0.16,0.4-0.33,0.53c-0.51,0.49-0.34,1.53-0.21,3.6c0.1,1.01,0.13,2.03,0.09,3.04
		c-0.07,0.51-0.08,1.02-0.06,1.53c0.04,0.69,0.1,1.61,0.58,1.81c0.37,0.16,0.6-0.3,1.2-0.21c0.56,0.08,0.58,0.51,1.24,0.73
		c0.49,0.15,1.02,0.12,1.49-0.09c0.61-0.3,0.58-0.76,1.07-1.1c0.57-0.4,1.09-0.1,2.39,0.04c0.21,0.02,0.41,0.04,0.59,0.04
		c0.16,0.01,0.31,0.01,0.45,0.01h0.1c0.13,0,0.26-0.01,0.38-0.02c0.12-0.01,0.25-0.03,0.36-0.04l0.05-0.01
		c0.24-0.04,0.44-0.08,0.63-0.11c0.16-0.03,0.33-0.06,0.5-0.07h0.06c0.14-0.01,0.28,0,0.42,0.01c0.23,0.03,0.46,0.09,0.67,0.18
		c0.08,0.03,0.15,0.06,0.23,0.1l0.2,0.09l0.08,0.04l0.15,0.06l0.09,0.03c0.05,0.02,0.09,0.03,0.14,0.04l0.08,0.02
		c0.1,0.02,0.2,0.04,0.3,0.05c0.08,0,0.15,0,0.23-0.01s0.16-0.03,0.23-0.06c0.05-0.02,0.1-0.04,0.14-0.06
		c0.08-0.04,0.16-0.09,0.23-0.14l0.03-0.02c0.09-0.07,0.19-0.13,0.3-0.17l0.04-0.01c0.16-0.04,0.33-0.02,0.47,0.07
		c0.03,0.02,0.05,0.04,0.08,0.06l0,0c0.11,0.09,0.21,0.2,0.35,0.31c0.03,0.03,0.07,0.05,0.11,0.08c0.02,0.01,0.04,0.03,0.07,0.04
		c0.07,0.04,0.15,0.07,0.23,0.1l0,0c0.06,0.02,0.12,0.03,0.18,0.04c0.02,0,0.04,0,0.07,0h0.03c0.03,0,0.05,0,0.08,0s0.07,0,0.1-0.01
		h0.03h0.03c0.05-0.01,0.1-0.01,0.15-0.03c0.09-0.02,0.18-0.05,0.26-0.08c0.16-0.06,0.32-0.12,0.47-0.2
		c0.44-0.24,0.84-0.55,1.18-0.92c0.57-0.57,1.19-1.1,1.83-1.59c0.71-0.47,1.2-0.81,1.7-0.65c0.49,0.16,0.54,0.64,1.09,0.73
		c0.32,0.07,0.65-0.04,0.88-0.28c0.28-0.41-0.26-0.91,0-1.48c0.09-0.2,0.17-0.17,0.71-0.61c0.9-0.73,0.89-0.99,1.33-1.09
		c0.49-0.12,0.65,0.17,1.08-0.01c0.37-0.16,0.45-0.46,0.74-0.81c0.52-0.63,0.93-0.45,1.71-0.97c1.15-0.77,0.88-1.59,1.84-1.97
		c0.65-0.26,0.77,0.12,1.66-0.12c1.13-0.29,1.09-0.94,2.06-1.08c0.77-0.12,1.03,0.26,1.83,0c0.49-0.16,0.54-0.35,0.94-0.36
		c0.7-0.04,0.87,0.54,1.42,0.47c0.59-0.08,0.64-0.79,1.33-0.89c0.34-0.05,0.68,0.05,0.93,0.28c0.35,0.36,0.12,0.81,0.32,1.75
		c0.15,0.73,0.35,0.71,0.45,1.22c0.19,1.01-0.54,1.31-0.86,2.73c-0.28,1.08-0.17,2.22,0.29,3.22c0.39,0.73,0.78,0.8,0.79,1.32
		c0.02,0.94-1.28,1.35-1.14,2.1c0.1,0.57,0.89,0.61,0.94,1.26c0.04,0.48-0.37,0.78-0.19,1.09c0.13,0.23,0.41,0.14,0.58,0.39
		c0.2,0.32-0.12,0.63,0.04,0.89c0.22,0.36,0.97-0.04,1.46,0.35c0.33,0.27,0.15,0.62,0.39,1.21c0.42,0.8,1.13,1.4,1.98,1.69
		c1.09,0.49,1.54,0.2,1.97,0.72c0.49,0.59,0.08,1.17,0.55,1.64c0.48,0.46,1.05-0.03,2.21,0.31c1.14,0.33,1.36,1.04,2.02,0.89
		c0.61-0.13,0.54-0.76,1.24-1.01c0.83-0.19,1.7,0.04,2.32,0.63c0.52,0.47,0.61,0.96,1.06,0.99c0.25,0.02,0.32-0.12,0.85-0.34
		c0.57-0.23,1.04-0.41,1.32-0.24c0.52,0.32-0.06,1.62,0.49,1.99c0.33,0.22,0.64-0.18,1.22,0.05c0.52,0.21,0.46,0.61,0.95,0.76
		c0.52,0.16,0.77-0.25,1.25-0.07c0.43,0.16,0.34,0.53,0.77,0.75c0.57,0.3,0.93-0.21,1.63,0c0.48,0.14,0.4,0.41,1.2,1.03
		c0.83,0.64,1.06,0.46,1.44,0.94c0.51,0.64,0.29,1.17,0.73,1.4c0.41,0.21,0.66-0.2,1.31-0.06c0.69,0.14,0.75,0.68,1.3,0.7
		c0.57,0.03,0.66-0.55,1.35-0.71c0.77-0.06,1.53,0.21,2.08,0.75c0.94,0.71,0.74,1.18,1.49,1.53c0.84,0.39,1.5,0.01,1.88,0.51
		c0.24,0.3,0.03,0.49,0.24,0.98c0.36,0.83,1.19,0.78,1.32,1.32c0.15,0.64-0.91,0.93-0.96,1.78c-0.06,1.06,1.54,1.48,1.47,2.48
		c-0.06,0.87-1.28,0.93-1.43,1.95s0.96,1.83,0.6,2.37c-0.22,0.34-0.74,0.19-0.85,0.49c-0.12,0.34,0.45,0.77,0.94,1.32
		c0.6,0.72,1.05,1.55,1.33,2.45c0.33,1.2-0.04,1.8,0.37,3.64c0.04,0.39,0.25,0.75,0.57,0.99c0.37,0.15,0.78,0.14,1.14-0.04
		c1.41-0.12,2.84-0.09,4.25,0.08c1.72,0.01,3.43,0.17,5.12,0.48c0.69,0.24,1.81,0.73,2.59,0.23c0.28-0.18,0.5-0.48,0.88-0.46
		c0.38,0.02,0.78,0.34,0.78,0.63s-0.35,0.31-0.45,0.7s0.2,0.52,0.13,0.86c-0.11,0.51-0.84,0.45-1.01,0.99
		c-0.1,0.32,0.15,0.37,0.21,1.07c0.06,0.61-0.11,0.77,0.01,1.27c0.08,0.26,0.19,0.51,0.34,0.74c0.51,1.07-0.21,1.73,0.19,2.37
		c0.4,0.63,1.26,0.19,2.49,0.96c0.43,0.28,0.81,0.64,1.12,1.05c0.72,0.92,0.66,1.48,1.51,3.75c0.5,1.35,0.55,1.22,0.58,1.58
		c0.14,1.32-0.65,1.68-0.96,3.47c-0.25,1.42,0.17,1.62-0.25,2.6c-0.33,0.76-0.66,0.79-1.29,1.93c-0.43,0.78-0.32,0.85-0.79,1.82
		c-0.85,1.76-1.4,1.94-1.3,2.55c0.18,1.07,2,1.27,1.94,1.96c-0.02,0.24-0.26,0.41-0.56,0.56c-0.5,0.25-1.17,0.47-1.32,0.89l0,0
		c-0.02,0.04-0.03,0.09-0.04,0.13c-0.01,0.11,0.02,0.21,0.08,0.3c0.08,0.13,0.22,0.25,0.35,0.41c0.1,0.12,0.18,0.25,0.23,0.39
		c0.03,0.09,0.06,0.18,0.07,0.27c0.01,0.08,0.02,0.15,0.02,0.23v0.01c0,0.42-0.18,0.68-0.11,1.04c0.01,0.07,0.03,0.13,0.06,0.19
		c0.01,0.03,0.02,0.05,0.04,0.07c0.09,0.12,0.19,0.24,0.29,0.35c0.07,0.08,0.16,0.2,0.27,0.36c0.14,0.19,0.27,0.4,0.38,0.61
		c0.05,0.08,0.08,0.17,0.1,0.26c0.01,0.04,0.01,0.09,0.02,0.13c0,0.04,0,0.07,0,0.11c0,0.04-0.01,0.07-0.01,0.11
		c-0.04,0.14-0.05,0.28-0.02,0.42c0.03,0.11,0.09,0.22,0.17,0.3c0.07,0.07,0.15,0.14,0.24,0.19s0.17,0.11,0.24,0.18l0.01,0.02
		c0.07,0.07,0.12,0.15,0.15,0.24c0.01,0.05,0.02,0.09,0.02,0.14c0,0.31-0.33,0.52-0.49,1.27c-0.04,0.21-0.06,0.43-0.04,0.65
		c0,0.04,0,0.07,0,0.11c0,0.13-0.02,0.25-0.08,0.36c-0.1,0.23-0.27,0.42-0.49,0.54l-0.09,0.06c-0.17,0.08-0.3,0.23-0.35,0.41
		c-0.01,0.07-0.01,0.14,0,0.2c0.07,0.46,0.65,0.81,0.5,1.28c-0.02,0.07-0.06,0.14-0.11,0.19c-0.04,0.05-0.09,0.09-0.15,0.12
		c-0.03,0.02-0.05,0.04-0.08,0.05c-0.08,0.06-0.15,0.15-0.17,0.25c-0.04,0.19,0.01,0.39,0.13,0.54c0.18,0.28,0.46,0.55,0.4,0.92
		c-0.04,0.18-0.14,0.34-0.29,0.44c-0.07,0.06-0.14,0.13-0.19,0.21c-0.07,0.1-0.12,0.2-0.14,0.32c-0.02,0.08-0.03,0.16-0.03,0.24
		c-0.01,0.17,0.02,0.35,0.1,0.5c0.04,0.08,0.09,0.15,0.15,0.21c0.28,0.26,0.7,0.2,1.13,0.14c0.69-0.1,0.76-0.33,1.11-0.27
		c0.04,0.01,0.09,0.02,0.13,0.04c0.06,0.02,0.11,0.05,0.16,0.08c0.02,0.01,0.03,0.02,0.05,0.03l0.01,0.01
		c0.08,0.08,0.15,0.17,0.22,0.26c0.04,0.05,0.07,0.1,0.11,0.15c0.12,0.17,0.29,0.31,0.49,0.39c0.14,0.06,0.29,0.08,0.43,0.06
		c0.2-0.04,0.4-0.09,0.59-0.17c0.15-0.05,0.31-0.07,0.47-0.07h0.04c0.08,0,0.16,0.01,0.24,0.03c0.04,0.01,0.09,0.02,0.13,0.04
		c0.21,0.07,0.39,0.19,0.54,0.35c0.09,0.09,0.18,0.18,0.28,0.26c0.13,0.1,0.28,0.18,0.44,0.24c0.12,0.05,0.24,0.08,0.37,0.09
		c0.03,0,0.06,0,0.09,0h0.1c0.07,0,0.14-0.01,0.22-0.02l0.28-0.03c0.31-0.04,0.74-0.08,1.39-0.11c0.59-0.03,0.88-0.02,1.07-0.02
		h0.12c0.03,0,0.07,0,0.1-0.01c0.07-0.01,0.13-0.03,0.2-0.06c0.33-0.14,0.61-0.36,0.83-0.64c0.13-0.16,0.24-0.32,0.35-0.45
		c0.09-0.12,0.2-0.22,0.33-0.29c0.06-0.03,0.13-0.04,0.2-0.03c0.09,0,0.17,0.04,0.23,0.1c0.07,0.07,0.13,0.15,0.18,0.23
		c0.07,0.11,0.14,0.21,0.22,0.31c0.1,0.12,0.21,0.23,0.33,0.32c0.01,0.01,0.02,0.02,0.04,0.03c0.26,0.19,0.56,0.31,0.87,0.34
		c0.09,0.01,0.18,0.02,0.26,0.03c0.39,0,0.77,0.13,1.06,0.38c0.01,0.01,0.05,0.05,0.1,0.09c0.04,0.04,0.09,0.09,0.15,0.16l0.04,0.05
		c0.1,0.12,0.18,0.25,0.25,0.39c0.11,0.2,0.17,0.43,0.17,0.66c0,0.11-0.01,0.22-0.04,0.32s-0.04,0.2-0.03,0.3
		c0.01,0.13,0.05,0.25,0.12,0.36c0.11,0.15,0.23,0.28,0.38,0.39c0.05,0.04,0.1,0.08,0.14,0.13c0.1,0.09,0.19,0.2,0.26,0.31
		c0.05,0.09,0.1,0.19,0.12,0.29c0.05,0.24,0.04,0.48-0.03,0.71c-0.02,0.1-0.05,0.21-0.08,0.32s-0.05,0.23-0.07,0.35
		c-0.02,0.13-0.04,0.26-0.04,0.4c-0.01,0.24,0.01,0.48,0.05,0.71c0.11,0.46,0.32,0.9,0.61,1.28c0.02,0.04,0.03,0.08,0.04,0.12
		c0.03,0.12,0.05,0.23,0.05,0.35c0.01,0.32-0.05,0.63-0.17,0.92c-0.21,0.37-0.36,0.77-0.47,1.19c-0.01,0.11-0.01,0.22,0,0.33
		c0.01,0.06,0.02,0.12,0.04,0.18c0.03,0.11,0.08,0.22,0.14,0.32c0.1,0.15,0.18,0.32,0.24,0.49c0.02,0.06,0.04,0.13,0.07,0.21
		c0.06,0.18,0.09,0.36,0.12,0.54v0.03c0.01,0.07,0.01,0.13,0.01,0.19c0.01,0.18,0.03,0.36,0.08,0.54c0.14,0.59,0.47,1.13,0.94,1.52
		c0.14,0.11,0.31,0.17,0.49,0.19c0.03,0,0.07,0,0.1,0l0,0c0.06,0,0.11-0.02,0.16-0.04c0.06-0.03,0.12-0.06,0.21-0.1
		c0.04-0.02,0.08-0.03,0.13-0.05c0.08-0.03,0.16-0.05,0.24-0.06c0.23-0.04,0.46-0.05,0.68-0.02c0.06,0.01,0.12,0.02,0.17,0.03
		c0.1,0.02,0.2,0.04,0.31,0.04s0.22-0.01,0.32-0.05c0.35-0.13,0.42-0.37,0.56-0.61c0.06-0.1,0.13-0.2,0.22-0.28
		c0.05-0.05,0.11-0.09,0.17-0.12c0.1-0.06,0.2-0.1,0.31-0.12c0.6-0.07,1.2,0.07,1.71,0.38c0.22,0.11,0.42,0.22,0.59,0.32
		c0.08,0.04,0.17,0.09,0.25,0.15c0.06,0.04,0.13,0.08,0.19,0.12c0.1,0.07,0.2,0.14,0.29,0.22c0.23,0.16,0.38,0.41,0.41,0.69
		c0,0.03,0,0.06,0,0.09c-0.08,0.21-0.14,0.43-0.18,0.65c-0.02,0.21,0.01,0.41,0.08,0.61c0.03,0.1,0.07,0.2,0.12,0.3l0.04,0.08
		c0.22,0.63,0.22,1.31-0.01,1.94c-0.04,0.13-0.08,0.26-0.12,0.39c-0.08,0.25-0.17,0.5-0.25,0.7c-0.08,0.21-0.15,0.38-0.23,0.54l0,0
		c-0.04,0.07-0.07,0.14-0.1,0.21c-0.1,0.19-0.2,0.35-0.29,0.5c-0.04,0.06-0.08,0.12-0.12,0.17c-0.12,0.17-0.22,0.31-0.32,0.44
		c-0.09,0.12-0.16,0.25-0.22,0.39c-0.08,0.19-0.11,0.41-0.08,0.61c0.01,0.1,0.03,0.21,0.06,0.31c0.03,0.09,0.06,0.17,0.1,0.25
		c0.23,0.47,0.61,0.7,0.51,1.2c-0.04,0.2-0.15,0.38-0.31,0.51c-0.08,0.07-0.16,0.13-0.24,0.18c-0.16,0.1-0.33,0.2-0.49,0.3
		c-0.06,0.04-0.12,0.08-0.18,0.12c-0.08,0.06-0.15,0.14-0.22,0.21c-0.1,0.13-0.17,0.28-0.2,0.44c-0.03,0.15-0.03,0.31,0,0.46
		c0.01,0.08,0.03,0.15,0.06,0.22s0.06,0.14,0.09,0.21c0.08,0.17,0.22,0.3,0.38,0.39c0.21,0.09,0.45,0.09,0.67,0.01
		c0.81-0.27,1.66-0.43,2.51-0.49c0.85,0.28,1.49,0.99,1.69,1.86c0.22,0.83-0.21,1.04,0.06,1.77c0.35,0.95,1.21,1.02,1.25,1.77
		c0.02,0.46-0.3,0.49-0.43,1.23c-0.12,0.72,0.15,0.83,0.06,1.45c-0.14,0.95-0.85,1.05-0.91,1.87c-0.05,0.73,0.5,0.83,0.44,1.43
		c-0.08,0.86-1.24,0.82-2.66,2.25c-0.87,0.88-0.93,1.41-1.63,1.57c-0.6,0.13-0.96-0.16-1.6,0.15c-0.38,0.18-0.38,0.35-0.88,0.61
		c-0.61,0.31-0.71,0.11-1.08,0.36c-0.54,0.36-0.45,0.87-1.04,1.13c-0.24,0.11-0.29,0.04-0.47,0.17c-0.37,0.27-0.32,0.67-0.66,0.82
		c-0.17,0.07-0.21-0.03-0.44,0.05c-0.3,0.1-0.33,0.31-0.56,0.46c-0.39,0.25-0.67-0.09-1.02,0.1c-0.5,0.28-0.28,1.17-0.75,1.34
		c-0.24,0.09-0.45-0.11-0.64,0.05c-0.16,0.12-0.07,0.3-0.21,0.53c-0.19,0.3-0.47,0.2-0.68,0.43c-0.34,0.4,0.11,1.1-0.14,1.3
		c-0.22,0.17-0.62-0.38-1.13-0.32c-0.66,0.08-0.58,1.05-1.55,2.04c-0.86,0.88-1.85,1.07-1.84,1.71c0,0.22,0.13,0.52-0.04,0.77
		c-0.09,0.13-0.18,0.14-0.32,0.23c-0.54,0.36-0.37,1.07-0.78,1.26c-0.23,0.11-0.36-0.08-0.64-0.07c-0.67,0.02-0.92,1.15-1.76,2.45
		c-0.54,1.01-1.34,1.85-2.31,2.44c-0.74,0.39-1.32,0.42-1.53,0.95c-0.21,0.55,0.27,0.87,0.09,1.48c-0.27,0.89-1.54,1.03-1.48,1.48
		c0.02,0.15,0.19,0.26,0.41,0.34c0.1,0.04,0.21,0.08,0.31,0.11c0.04,0.01,0.11,0.04,0.21,0.06c0.05,0.01,0.09,0.02,0.15,0.03
		c0.1-0.04,0.19-0.15,0.34-0.14c0.13,0.01,0.12,0.1,0.29,0.12c0.1,0.01,0.2-0.01,0.24,0.05c0.02,0.03,0.01,0.06,0.03,0.07
		c0.04,0.02,0.1-0.09,0.21-0.1c0.1-0.01,0.13,0.09,0.22,0.08c0.11-0.01,0.12-0.18,0.21-0.18c0.09-0.01,0.17,0.2,0.28,0.18
		c0.06-0.01,0.05-0.07,0.12-0.09c0.11-0.03,0.18,0.14,0.28,0.12c0.1-0.02,0.08-0.17,0.22-0.27c0.1-0.06,0.16-0.02,0.2-0.08
		c0.03-0.06-0.04-0.13-0.06-0.32c-0.02-0.06-0.01-0.13,0.02-0.19c0.05-0.08,0.15-0.05,0.19-0.12s-0.04-0.2,0.01-0.25
		c0.04-0.04,0.09,0,0.14-0.04c0.06-0.04,0.03-0.11,0.08-0.16c0.08-0.08,0.2,0.02,0.29-0.06s0.04-0.16,0.09-0.18
		c0.04-0.01,0.05,0.03,0.12,0.06c0.11,0.04,0.17-0.05,0.29-0.03c0.13,0.01,0.15,0.13,0.28,0.13c0.12,0,0.14-0.08,0.25-0.06
		s0.12,0.1,0.21,0.1s0.11-0.09,0.21-0.14c0.18-0.06,0.39-0.01,0.52,0.13c0.11,0.13,0.04,0.24,0.18,0.39
		c0.03,0.03,0.02,0.02,0.18,0.13c0.2,0.15,0.19,0.15,0.23,0.17c0.15,0.05,0.21-0.04,0.36,0.03c0.07,0.03,0.15,0.1,0.14,0.14
		s-0.08,0.05-0.08,0.08s0.15,0.05,0.18,0.12s-0.09,0.17-0.05,0.23s0.09,0.01,0.13,0.06s-0.02,0.14,0.03,0.21
		c0.04,0.07,0.12,0.02,0.25,0.08c0.11,0.06,0.2,0.15,0.24,0.27c0.04,0.1,0,0.12,0.04,0.19c0.07,0.13,0.2,0.08,0.36,0.21
		c0.16,0.13,0.09,0.22,0.24,0.32c0.11,0.08,0.17,0.05,0.24,0.12c0.09,0.11,0.01,0.21,0.09,0.29c0.08,0.09,0.19,0.01,0.34,0.1
		s0.12,0.22,0.28,0.3c0.12,0.06,0.18,0,0.26,0.07c0.08,0.07,0.03,0.15,0.13,0.27c0.05,0.06,0.12,0.11,0.2,0.13
		c0.08,0.02,0.12,0,0.15,0.04s-0.04,0.12,0,0.18s0.15-0.02,0.23,0.05c0.08,0.06,0.04,0.21,0.14,0.28c0.03,0.02,0.05,0.02,0.06,0.05
		c0.03,0.05-0.02,0.1,0,0.17s0.08,0.06,0.12,0.12c0.05,0.06,0.02,0.15,0.04,0.24s0.1,0.17,0.24,0.27c0.42,0.31,0.44,0.3,0.53,0.38
		c0.13,0.15,0.23,0.33,0.29,0.52c0.16,0.39,0.18,0.69,0.35,0.76c0.07,0.02,0.13,0.06,0.18,0.1c0.05,0.05,0.05,0.08,0.1,0.12
		c0.08,0.07,0.13,0.04,0.22,0.08c0.05,0.03,0.09,0.07,0.11,0.12c0.04,0.08,0.06,0.17,0.15,0.2c0.05,0.02,0.05-0.01,0.21,0
		c0.1,0,0.13,0.02,0.16,0c0.05-0.04,0-0.12,0.05-0.2c0.05-0.08,0.15-0.04,0.26-0.12s0.07-0.18,0.16-0.23
		c0.13-0.07,0.26,0.09,0.36,0.04c0.1-0.06-0.02-0.3,0.09-0.61c0.03-0.1,0.09-0.25,0.21-0.29c0.16-0.05,0.35,0.14,0.45,0.24
		c0.17,0.16,0.18,0.27,0.34,0.33c0.06,0.01,0.12,0.04,0.16,0.08c0.07,0.07,0.05,0.13,0.12,0.18s0.09,0.02,0.18,0.06
		c0.07,0.04,0.13,0.1,0.17,0.18c0.07,0.15,0,0.22,0.07,0.31c0.07,0.08,0.12,0.02,0.26,0.09c0.14,0.06,0.25,0.18,0.28,0.32
		c0.01,0.11-0.05,0.18,0,0.26c0.03,0.04,0.06,0.03,0.08,0.08c0.05,0.08-0.04,0.16-0.02,0.24c0.03,0.12,0.2,0.08,0.31,0.24
		c0.04,0.06,0.02,0.07,0.09,0.18c0.06,0.11,0.08,0.11,0.12,0.17c0.08,0.16-0.01,0.24,0.06,0.36c0.07,0.09,0.16,0.14,0.26,0.17
		c0.16,0.06,0.19,0.01,0.3,0.06c0.17,0.07,0.13,0.2,0.32,0.35c0.16,0.12,0.38,0.18,0.45,0.11s-0.02-0.17,0.05-0.24
		c0.04-0.04,0.1-0.05,0.16-0.05c0.24,0.02,0.42,0.39,0.45,0.45c0.08,0.17,0.05,0.21,0.12,0.28c0.13,0.12,0.26,0.03,0.4,0.14
		c0.14,0.11,0.08,0.28,0.21,0.36c0.07,0.05,0.12,0.02,0.44-0.01c0.38-0.03,0.46,0,0.53,0.03c0.11,0.06,0.09,0.11,0.2,0.17
		c0.18,0.1,0.27-0.01,0.52,0.07c0.13,0.03,0.25,0.1,0.33,0.21c0.03,0.06,0.07,0.11,0.12,0.16c0.05,0.05,0.06,0.04,0.1,0.08
		c0.07,0.08,0.05,0.15,0.1,0.23c0.06,0.08,0.1,0.06,0.17,0.1c0.28,0.17,0.26,0.69,0.25,0.73c0,0.06-0.01,0.11-0.02,0.17l2.41,2.21
		c-0.03,0.1-0.02,0.13-0.01,0.14c0.05,0.03,0.19-0.21,0.45-0.25c0.1-0.01,0.21,0,0.31,0.05c0.13,0.06,0.24,0.16,0.3,0.29
		c0.05,0.11,0.01,0.14,0.05,0.2c0.1,0.14,0.3,0.03,0.43,0.16c0.11,0.11,0.01,0.23,0.14,0.44c0.06,0.12,0.16,0.21,0.28,0.28
		c0.14,0.07,0.21,0.02,0.44,0.12c0.18,0.07,0.19,0.12,0.2,0.14c0.01,0.08-0.12,0.11-0.12,0.21s0.13,0.13,0.19,0.31
		c0.03,0.09,0,0.1,0.02,0.2c0.05,0.18,0.16,0.18,0.21,0.33c0.05,0.16-0.05,0.25,0.02,0.4c0.04,0.08,0.08,0.06,0.12,0.14
		c0.08,0.17,0.09,0.36,0.04,0.54c-0.02,0.14-0.04,0.19,0,0.24s0.11,0.07,0.16,0.16c0.02,0.04,0.03,0.08,0.04,0.12
		c0.02,0.12,0.11,0.18,0.35,0.41c0.25,0.24,0.24,0.24,0.31,0.26c0.16,0.03,0.22-0.08,0.34-0.04c0.07,0.03,0.1,0.09,0.22,0.4
		c0.14,0.35,0.16,0.41,0.24,0.46c0.12,0.08,0.17-0.01,0.34,0.06c0.22,0.1,0.26,0.3,0.41,0.28c0.05,0,0.05-0.03,0.16-0.06
		c0.07-0.02,0.2-0.06,0.25,0s0,0.09,0.04,0.14c0.04,0.06,0.08,0.04,0.16,0.08c0.08,0.04,0.23,0.13,0.22,0.21
		c0,0.05-0.06,0.05-0.1,0.12c-0.08,0.13,0.04,0.27-0.02,0.36s-0.27-0.01-0.37,0.1c-0.06,0.07-0.01,0.14-0.08,0.2
		c-0.1,0.11-0.29-0.01-0.4,0.09c-0.05,0.08-0.07,0.17-0.04,0.26c0.03,0.19,0.14,0.21,0.16,0.36c0.02,0.16-0.06,0.31-0.16,0.33
		c-0.08,0.02-0.15-0.05-0.21,0c-0.02,0.02-0.04,0.05-0.04,0.08c0.01,0.04,0.06,0.04,0.07,0.06c0.01,0.06-0.29,0.15-0.28,0.21
		s0.22,0.04,0.23,0.1c0.01,0.04-0.06,0.08-0.12,0.11c-0.12,0.05-0.2,0-0.42-0.02c-0.14-0.01-0.27,0-0.41,0.02
		c-0.11,0.01-0.16,0.02-0.2,0.06c-0.06,0.07-0.01,0.16-0.08,0.21c-0.05,0.03-0.09,0.01-0.12,0.05c-0.03,0.04,0.01,0.08,0,0.13
		c-0.02,0.08-0.1,0.09-0.22,0.19c-0.1,0.08-0.15,0.12-0.17,0.19c-0.04,0.12,0.07,0.2,0.02,0.3c-0.04,0.07-0.12,0.1-0.14,0.08
		c-0.02-0.02,0.08-0.15,0.03-0.27c-0.02-0.04-0.05-0.08-0.09-0.08s-0.08,0.04-0.1,0.09c-0.04,0.09,0.06,0.16,0.02,0.24
		c-0.02,0.06-0.07,0.04-0.11,0.12c-0.03,0.06-0.04,0.13-0.03,0.2c0.01,0.09,0.05,0.09,0.08,0.18c0.03,0.1,0.04,0.23,0,0.24
		c-0.04,0.02-0.1-0.09-0.21-0.09c-0.06,0-0.12,0.03-0.15,0.09c-0.01,0.05,0.04,0.08,0.02,0.12c-0.02,0.04-0.15,0.06-0.14,0.08
		s0.17-0.01,0.24,0.07c0.07,0.08-0.02,0.14,0.02,0.25c0.06,0.11,0.16,0.2,0.28,0.24c0.09,0.03,0.13,0.02,0.14,0.06
		c0.02,0.04-0.04,0.1-0.12,0.28c-0.04,0.06-0.06,0.13-0.06,0.2c0.01,0.11,0.12,0.12,0.16,0.24c0.01,0.03,0.01,0.07-0.06,0.36
		c-0.03,0.08-0.05,0.16-0.06,0.24c-0.01,0.14,0.03,0.28,0.11,0.4c0.03,0.05,0.06,0.07,0.12,0.16s0.08,0.13,0.08,0.17
		c-0.02,0.09-0.2,0.08-0.22,0.17c-0.02,0.08,0.06,0.18,0.1,0.18c0.05-0.01,0.04-0.14,0.13-0.18c0.01,0,0.05-0.02,0.08,0
		s0,0.11-0.04,0.31c-0.02,0.07-0.02,0.14,0,0.21c0.02,0.05,0.04,0.05,0.07,0.1c0.07,0.12-0.03,0.22,0,0.45
		c0.01,0.06,0.01,0.09,0.03,0.1c0.02,0.02,0.07,0.06,0.44,0.02c0.05,0,0.1-0.01,0.12,0.02s0,0.08,0,0.18c0,0.06,0.02,0.12,0.04,0.17
		c0.09-0.04,0.18-0.09,0.24-0.17c1.02-1.36,0.79-1.82,2.3-3.35c0.62-1.14,1.18-2.32,1.68-3.52c0.93-1.79,0.73-2.49,1.82-4.01
		c0.47-0.64,1-1.22,1.6-1.74c1.33-1.07,2.76-2.01,4.27-2.81c1.37-0.94,2.59-2.07,3.64-3.36c1.41-1.64,1.1-1.82,3.29-4.66
		c0.72-0.8,1.34-1.68,1.85-2.62c0.47-1.09,0.86-2.22,1.17-3.38c0.12-0.6,0.31-1.2,0.56-1.76c0.48-0.92,0.9-1,1.99-2.12
		c0.47-0.49,1.19-1.43,2.62-3.32c0.32-0.48,0.67-0.93,1.04-1.37c1.51-1.35,3.7-1.36,3.74-2.09c0.01-0.21-0.17-0.41-0.05-0.65
		c0.11-0.22,0.37-0.26,0.53-0.32c0.79-0.28,1.07-1.66,1.27-2.67c0.26-1.28-0.03-1.18,0.24-1.8c0.43-1.01,1.18-1.26,1.29-2.19
		c0.06-0.53-0.1-1.12-0.33-1.16c-0.41-0.07-0.9,1.7-1.14,1.63c-0.15-0.04-0.23-0.85,0.14-1.47c0.28-0.49,0.67-0.59,0.66-0.93
		c-0.01-0.37-0.47-0.61-0.39-0.75c0.06-0.1,0.3,0.04,0.56-0.11c0.17-0.08,0.28-0.25,0.3-0.44c-0.02-0.27-0.41-0.29-0.57-0.69
		c-0.07-0.19,0-0.21-0.05-0.47c-0.11-0.51-0.42-0.56-0.45-0.89c-0.04-0.43,0.47-0.61,0.4-0.97c-0.06-0.28-0.38-0.25-0.57-0.54
		c-0.38-0.56,0.1-1.7,0.62-2.41s1.08-0.97,0.98-1.31c-0.07-0.26-0.42-0.19-0.72-0.61c-0.22-0.34-0.3-0.76-0.21-1.16
		c0.07-0.29,0.19-0.36,0.36-0.67c0.32-0.59,0.19-0.89,0.35-1.44c0.33-1.12,1.38-1.49,1.23-1.84c-0.12-0.28-0.79-0.04-1.07-0.46
		c-0.16-0.24-0.15-0.64,0.01-0.74c0.25-0.16,0.7,0.5,1.1,0.35c0.34-0.13,0.33-0.7,0.62-0.73c0.13,0,0.25,0.07,0.32,0.18
		c0.12,0.24-0.2,0.52-0.1,0.68c0.08,0.13,0.4,0.1,0.67,0.01c0.87-0.26,1.42-1.07,2.04-1.97c0.9-1.3,1.35-1.96,1.4-2.01
		c0.49-0.49,0.74-0.54,3.03-1.63c1.1-0.39,2.14-0.96,3.06-1.69c0.43-0.55,0.91-1.07,1.42-1.54c0.57-0.43,1.21-0.78,1.88-1.03
		c1.43-0.57,1.59-0.27,2.81-0.72c1.78-0.65,1.94-1.46,3.14-1.45c0.68,0.04,1.34,0.27,1.91,0.66c1.33,0.78,1.78,1.81,2.06,1.66
		c0.24-0.12,0.24-0.98-0.15-1.54c-0.29-0.41-0.64-0.44-0.71-0.81c-0.05-0.32,0.08-0.65,0.33-0.85c0.54-0.39,1.25,0.28,1.84-0.11
		c0.24-0.17,0.14-0.3,0.51-0.79c0.22-0.29,0.73-0.97,1.27-0.92c0.42,0.04,0.43,0.49,0.89,0.61c0.72,0.1,1.39-0.36,1.56-1.06
		c-0.01-0.4-0.5-0.57-0.42-0.87c0.07-0.26,0.54-0.43,0.91-0.4c0.41,0.03,0.49,0.28,0.81,0.25c0.37-0.04,0.38-0.39,0.77-0.55
		c0.67-0.28,1.43,0.46,1.66,0.21c0.13-0.14-0.11-0.4,0.04-0.62c0.19-0.29,0.83-0.18,1.14-0.12c0.29,0.05,0.99,0.22,0.98,0.43
		c0,0.27-1.17,0.32-1.18,0.6c0,0.19,0.5,0.41,0.98,0.4c0.23-0.01,0.46-0.06,0.67-0.16c1.2-0.34,2.46-0.47,3.71-0.4
		c0.91-0.06,1.83-0.06,2.74-0.01c2.41,0.25,2.96,1.08,4.39,0.67c0.83-0.24,1.73-0.83,1.68-1.3c-0.02-0.17-0.15-0.22-0.23-0.45
		c-0.18-0.54,0.29-1.17,0.52-1.47c0.6-0.77,0.99-0.77,2.45-1.84c0.43-0.39,0.9-0.72,1.41-0.98c0.58-0.16,1.16-0.27,1.75-0.35
		c0.71-0.18,1.87-0.48,2-1.11c0.09-0.42-0.35-0.58-0.47-1.31c-0.06-0.52,0.03-1.04,0.26-1.5c0.39-0.99,0.96-1.9,1.68-2.69
		c0.74-0.87,1.03-0.99,1.13-1.54c0.11-0.55-0.07-0.96,0.23-1.3c0.23-0.2,0.52-0.31,0.82-0.31c0.94-0.13,1.57-0.98,2.46-2.17
		c1.1-1.47,0.83-1.89,2.04-3.42c0.44-0.56,0.49-0.51,1.07-1.25c0.65-0.82,0.71-1.01,1.67-2.42c0.62-0.73,1.12-1.55,1.5-2.43
		c0.15-0.49,0.25-0.99,0.29-1.5c0.29-2.66-0.36-3.47,0.15-5.08c0.25-0.66,0.59-1.28,1.02-1.84c1.11-1.66,1.66-2.49,2.64-2.96
		c0.37-0.18,1.08-0.44,1.3-1.1c0.04-0.13,0.06-0.27,0.07-0.41c0.04-1.06,0.07-1.59,0.04-2.18c-0.01-0.79,0.07-1.58,0.24-2.36
		c0.36-1.52,0.9-3,1.59-4.4c0,0,0.62-1.5,1.37-3.58c0.32-0.72,0.46-1.51,0.42-2.3c-0.07-0.77-0.31-0.83-0.38-1.63
		c-0.1-1.14,0.36-1.32,0.27-2.39c-0.08-0.98-0.49-1.03-0.55-1.93s0.33-1.17,0.65-2.35c0.51-1.85-0.22-2.04,0.27-3.75
		c0.4-1.41,1.09-1.93,0.78-2.7c-0.24-0.61-0.96-1.03-0.85-1.2c0.06-0.09,0.28,0.05,0.47-0.08c0.24-0.17,0.05-0.57,0.19-1.06
		c0.21-0.74,1-0.99,0.9-1.25c-0.07-0.19-0.49-0.09-0.58-0.31s0.29-0.41,0.45-0.88c0.24-0.69-0.3-1.04-0.06-1.57
		c0.24-0.53,0.92-0.42,1.07-0.95c0.09-0.34-0.16-0.42-0.07-0.83c0.11-0.51,0.57-0.62,0.54-1.02c-0.02-0.27-0.23-0.42-0.17-0.5
		s0.3,0.09,0.55,0.07c0.61-0.06,0.67-1.31,1.19-1.4c0.38-0.06,0.93,0.51,0.97,1.08c0.06,0.81-0.9,1.39-0.76,1.61
		c0.06,0.09,0.33,0.17,1.32-0.27c1.72-0.82,3.21-2.04,4.37-3.55c1.29-1.65,0.77-1.56,1.86-2.8c1.12-1.29,2.26-2.06,2.45-3.53
		c0.05-0.38-0.02-0.38,0.04-0.77c0.27-1.09,0.9-2.04,1.79-2.71c3.55-3.29,3.19-3.79,4.56-4.23c0.88-0.12,1.73-0.43,2.49-0.9
		c0.69-0.52,0.58-0.78,1.37-1.69c1.52-1.76,2.87-1.86,3.14-3.25c0.07-0.37-0.02-0.36,0.07-0.71c0.31-1.13,1.49-1.6,2.51-2.2
		c1.15-0.71,2.19-1.6,3.08-2.63c0.24-0.29,0.3-0.4,2.03-4.39c1.06-2.44,1.58-3.68,1.16-4.5
		C406.77,150.05,406.66,149.61,406.68,149.17z"/>
</g>
<g id="Group_22" transform="translate(224.918 235.631)">
	<path id="Path_89" class="st1" d="M88.11,2.11c0.24,0.3,0.37,0.68,0.36,1.06c0.02,0.42-0.1,0.83-0.34,1.18
		c-0.23,0.31-0.54,0.55-0.9,0.69C86.84,5.19,86.42,5.27,86,5.26h-2.21v-7.42h1.92c0.62-0.04,1.24,0.13,1.77,0.47
		c0.43,0.33,0.66,0.86,0.63,1.4c0.01,0.36-0.08,0.71-0.26,1.02c-0.18,0.29-0.44,0.53-0.74,0.68C87.49,1.55,87.84,1.79,88.11,2.11z
		 M84.79,1.08h1.13c0.32,0.02,0.64-0.1,0.87-0.33c0.2-0.23,0.3-0.53,0.29-0.84c0.02-0.32-0.11-0.63-0.35-0.84
		c-0.28-0.2-0.63-0.3-0.97-0.28h-0.97L84.79,1.08z M87.03,4.04c0.28-0.19,0.44-0.52,0.42-0.86c0.02-0.35-0.15-0.68-0.46-0.86
		c-0.34-0.19-0.72-0.29-1.1-0.28h-1.1v2.29h1.17C86.34,4.35,86.71,4.25,87.03,4.04L87.03,4.04z"/>
	<path id="Path_90" class="st1" d="M91.3,1.4c0.19-0.17,0.41-0.31,0.64-0.41c0.19-0.09,0.39-0.14,0.6-0.15L92.5,1.79
		c-0.29-0.02-0.58,0.05-0.84,0.18c-0.24,0.13-0.45,0.33-0.58,0.57c-0.14,0.23-0.21,0.5-0.21,0.78v1.94h-0.95V1.01h0.85l0.07,1.01
		C90.94,1.78,91.1,1.57,91.3,1.4z"/>
	<path id="Path_91" class="st1" d="M98.03,1.01v4.25h-0.95v-0.7c-0.18,0.22-0.4,0.41-0.66,0.55c-0.3,0.17-0.63,0.26-0.97,0.25
		c-0.38,0.01-0.76-0.08-1.09-0.26c-0.33-0.17-0.59-0.44-0.77-0.76c-0.38-0.76-0.38-1.66,0.01-2.42c0.18-0.34,0.46-0.61,0.79-0.8
		c0.34-0.19,0.72-0.29,1.1-0.28c0.33-0.01,0.66,0.08,0.94,0.24c0.26,0.15,0.48,0.36,0.65,0.62l0.07-0.68L98.03,1.01z M96.6,4.28
		c0.25-0.2,0.42-0.48,0.48-0.8V2.64c-0.08-0.3-0.26-0.56-0.51-0.73C96.31,1.72,96,1.62,95.68,1.63c-0.25,0-0.49,0.06-0.7,0.18
		c-0.22,0.12-0.39,0.3-0.51,0.52C94.07,3.04,94.3,3.95,95,4.37c0.22,0.13,0.46,0.2,0.72,0.2C96.03,4.58,96.35,4.48,96.6,4.28
		L96.6,4.28z"/>
	<path id="Path_92" class="st1" d="M100.72,4.47h2.37v0.79h-3.93l2.41-3.47h-1.47c-0.2,0.01-0.4-0.06-0.55-0.2
		c-0.15-0.15-0.23-0.36-0.22-0.58V0.6h0.73v0.13c-0.01,0.08,0.02,0.16,0.08,0.22c0.08,0.05,0.18,0.07,0.27,0.06h2.72L100.72,4.47z"
		/>
	<path id="Path_93" class="st1" d="M104.55-0.9c0.11-0.1,0.25-0.15,0.4-0.15s0.29,0.05,0.4,0.15c0.21,0.19,0.23,0.51,0.04,0.72
		c-0.01,0.01-0.02,0.03-0.04,0.04c-0.11,0.1-0.25,0.16-0.4,0.15c-0.15,0-0.29-0.05-0.4-0.15c-0.21-0.18-0.23-0.5-0.05-0.71
		C104.52-0.87,104.54-0.89,104.55-0.9z M105.4,1.01v4.25h-0.95V1.01H105.4z"/>
	<path id="Path_94" class="st1" d="M108.03-2.7v7.96h-0.95V-2.7H108.03z"/>
</g>
<g id="Group_35" transform="translate(253.393 312.71)">
	<path id="Path_173" class="st2" d="M99.08,13.74c-5.09,0-9.22,4.13-9.22,9.22s4.13,9.22,9.22,9.22s9.22-4.13,9.22-9.22l0,0
		C108.3,17.87,104.18,13.74,99.08,13.74z M99.08,29.88c-3.83,0-6.93-3.1-6.93-6.93s3.1-6.93,6.93-6.93c3.83,0,6.93,3.1,6.93,6.93
		l0,0C106.01,26.78,102.91,29.88,99.08,29.88z"/>
	<circle id="Ellipse_1" class="st2" cx="99.08" cy="22.96" r="5.51"/>
</g>
</svg>
