<?xml version="1.0" encoding="utf-8"?>
<!-- Generator: Adobe Illustrator 24.0.3, SVG Export Plug-In . SVG Version: 6.00 Build 0)  -->
<svg version="1.1" id="Layer_1" xmlns="http://www.w3.org/2000/svg" xmlns:xlink="http://www.w3.org/1999/xlink" x="0px" y="0px"
	 viewBox="0 0 576 576" style="enable-background:new 0 0 576 576;" xml:space="preserve">
<style type="text/css">
	.st0{fill:#DDDDDD;}
	.st1{fill:#916070;}
	.st2{fill:#191919;}
	.st3{fill:#E4C7C4;}
</style>
<path id="Path_47" class="st0" d="M366.15,259.94c-0.05-0.06-0.11-0.11-0.16-0.16c-0.14-0.05-0.27-0.15-0.35-0.28
	c-0.12-0.08-0.23-0.19-0.32-0.3c-0.11-0.14-0.05-0.12-0.17-0.29c-0.22-0.32-0.43-0.42-0.54-0.59c-0.04-0.05-0.06-0.11-0.07-0.18
	c-0.02-0.14,0.04-0.13,0.01-0.28c-0.07-0.39-0.52-0.57-0.55-0.59c-0.16-0.05-0.33-0.07-0.49-0.06c-0.33,0-0.66-0.03-0.99-0.07
	c-0.42-0.11-0.61-0.31-0.71-0.21c-0.11,0.1,0.03,0.4-0.12,0.55c-0.11,0.1-0.23,0.02-0.34,0.14c-0.09,0.1-0.05,0.22-0.15,0.27
	c-0.07,0.04-0.11-0.01-0.19-0.01c-0.23,0.01-0.29,0.45-0.5,0.49c-0.16,0.03-0.19-0.23-0.47-0.35c-0.33-0.14-0.51,0.14-0.83,0
	c-0.26-0.11-0.21-0.32-0.47-0.46c-0.2-0.11-0.31-0.02-0.94,0.07c-0.71,0.11-0.84,0.04-1.01,0.21c-0.21,0.21-0.22,0.5-0.38,0.52
	c-0.12,0.01-0.14-0.13-0.32-0.17c-0.18-0.04-0.22,0.09-0.44,0.1c-0.3,0.02-0.4-0.2-0.62-0.11c-0.14,0.05-0.14,0.16-0.27,0.18
	c-0.17,0.03-0.36-0.12-0.35-0.22s0.17-0.13,0.24-0.16c0.32-0.09,0.45,0.05,0.82,0.04c0.12,0,0.53-0.01,0.63-0.25
	c0.04-0.09,0.03-0.19-0.02-0.27c-0.13-0.18-0.52-0.07-0.65-0.03c-0.32,0.09-0.35,0.21-0.53,0.19c-0.19-0.02-0.26-0.16-0.41-0.12
	c-0.14,0.04-0.14,0.17-0.24,0.18c-0.1,0.01-0.16-0.16-0.3-0.18c-0.13-0.01-0.17,0.11-0.33,0.12c-0.1,0-0.19-0.04-0.26-0.1
	c-0.33-0.19-0.85-0.15-0.95,0.05c-0.08,0.16,0.11,0.35,0.03,0.45c-0.1,0.12-0.49-0.08-0.74-0.27c-0.21-0.16-0.45-0.34-0.41-0.55
	c0.06-0.21,0.27-0.34,0.49-0.31c0.23,0.05,0.25,0.34,0.5,0.4c0.13,0.03,0.17-0.04,0.39-0.11c0.29-0.08,0.39,0,0.97,0
	c0.19,0.02,0.39,0.01,0.58-0.03c0.22-0.08,0.3-0.23,0.67-0.75c0.64-0.91,0.73-0.97,0.72-1.18c-0.04-0.23-0.04-0.47,0-0.7
	c0.01-0.08,0.04-0.16,0.07-0.23c0.08-0.15,0.19-0.29,0.34-0.39c0.25-0.19,0.47-0.41,0.66-0.66c0.1-0.14,0.24-0.36,0.17-0.49
	c-0.09-0.09-0.23-0.11-0.34-0.05c-0.1,0.05-0.12,0.14-0.2,0.27c-0.16,0.2-0.34,0.37-0.54,0.52c-0.38,0.32-0.42,0.32-0.44,0.3
	c-0.04-0.04,0.03-0.22,0.05-0.26c0.1-0.2,0.24-0.38,0.41-0.53c0.4-0.36,0.6-0.55,0.7-0.63c0.16-0.14,0.34-0.26,0.53-0.36
	c0.36-0.15,0.56-0.06,0.73-0.27c0.1-0.12,0.1-0.23,0.24-0.3c0.14-0.07,0.26-0.02,0.3-0.1c0.05-0.08-0.01-0.19-0.04-0.24
	c-0.14-0.28-0.34-0.28-0.55-0.49c-0.31-0.31-0.28-0.71-0.45-0.72c-0.14,0-0.22,0.26-0.34,0.23c-0.06-0.02-0.09-0.1-0.13-0.26
	c-0.16-0.56-0.17-0.72-0.29-0.8c-0.07-0.05-0.11-0.02-0.33-0.02c-0.64,0-0.9-0.21-1.1-0.02c-0.09,0.08-0.07,0.15-0.16,0.19
	c-0.13,0.06-0.3-0.02-0.55-0.2c-0.4-0.23-0.73-0.56-0.97-0.96c-0.21-0.39-0.09-0.42-0.28-0.71c-0.26-0.32-0.6-0.58-0.98-0.74
	c-0.29-0.17-0.62-0.35-0.68-0.27c-0.04,0.05,0.06,0.23,0.16,0.34c0.17,0.18,0.3,0.13,0.45,0.28c0.09,0.09,0.08,0.13,0.2,0.45
	c0.21,0.53,0.3,0.57,0.29,0.78c-0.01,0.28-0.21,0.52-0.27,0.5s0.15-0.44-0.02-0.81c-0.12-0.27-0.39-0.37-0.8-0.53
	c-0.31-0.12-0.77-0.3-0.92-0.1c-0.12,0.15,0.02,0.42-0.1,0.51c-0.08,0.05-0.22,0-0.31-0.09c-0.14-0.15-0.04-0.32-0.16-0.49
	c-0.1-0.14-0.24-0.1-0.43-0.19c-0.25-0.13-0.24-0.33-0.47-0.63c-0.33-0.35-0.75-0.62-1.21-0.76c-0.14-0.09-0.3-0.12-0.46-0.08
	c-0.24,0.07-0.42,0.36-0.36,0.52c0.03,0.07,0.08,0.07,0.24,0.15c0.17,0.08,0.31,0.21,0.41,0.36c-0.02,0.03-0.33-0.21-0.43-0.12
	c-0.06,0.06,0.02,0.2,0.02,0.5c0,0.18-0.03,0.46-0.09,0.47c-0.07,0.01-0.17-0.22-0.21-0.44c-0.07-0.38,0.08-0.58-0.04-0.71
	c-0.08-0.08-0.22-0.1-0.32-0.04c-0.15,0.11,0,0.4-0.04,0.83c-0.07,0.45-0.27,0.87-0.59,1.21c-0.24,0.31-0.57,0.61-0.63,0.56
	s0.18-0.57,0.31-0.83c0.18-0.36,0.27-0.48,0.23-0.66c-0.04-0.18-0.16-0.18-0.23-0.42c-0.06-0.21,0.01-0.29-0.08-0.44
	s-0.16-0.1-0.24-0.23c-0.09-0.17,0.01-0.3-0.04-0.52c-0.04-0.19-0.15-0.22-0.27-0.41c-0.25-0.38-0.07-0.6-0.28-0.97
	c-0.19-0.34-0.57-0.57-0.73-0.47c-0.09,0.06-0.11,0.21-0.11,0.25c-0.03,0.24,0.14,0.31,0.12,0.49c-0.02,0.26-0.38,0.44-0.63,0.49
	c-0.15,0.03-0.29,0.01-0.3-0.02c0-0.03,0.19-0.06,0.37-0.22c0.06-0.05,0.28-0.26,0.24-0.48c-0.02-0.15-0.13-0.13-0.18-0.31
	c-0.07-0.23,0.09-0.37,0-0.54c-0.05-0.09-0.1-0.05-0.25-0.19c-0.2-0.17-0.16-0.28-0.33-0.39c-0.17-0.12-0.29-0.1-0.29-0.16
	s0.18-0.11,0.17-0.17c0-0.01-0.01-0.04-0.16-0.07c-0.23-0.05-0.31,0.01-0.35-0.04c-0.09-0.11,0.32-0.54,0.21-0.73
	c-0.03-0.05-0.07-0.03-0.16-0.13c-0.05-0.05-0.15-0.16-0.12-0.23c0.03-0.09,0.22-0.01,0.44-0.12c0.24-0.12,0.33-0.39,0.38-0.36
	c0.04,0.02-0.06,0.18,0,0.27c0.04,0.05,0.12,0.08,0.44,0.01c0.36-0.09,0.45-0.18,0.68-0.23c0.23-0.04,0.46-0.03,0.68,0.04
	c0.49,0.12,0.51,0.36,0.92,0.42c0.24,0.03,0.48,0,0.71-0.09c0.41-0.16,0.36-0.36,0.73-0.49s0.49,0.06,0.86-0.11
	c0.16-0.07,0.23-0.14,0.39-0.15c0.18-0.01,0.22,0.08,0.46,0.12c0.11,0.02,0.44,0.07,0.55-0.1c0.08-0.11,0.01-0.25,0.11-0.32
	c0.06-0.04,0.1-0.01,0.19-0.06c0.05-0.03,0.1-0.08,0.13-0.13c0.09-0.14,0.34-0.62,0.22-0.76s-0.4,0.19-1.09,0.43
	c-0.35,0.17-0.74,0.25-1.13,0.22c-0.36-0.05-0.57-0.22-0.93-0.12c-0.11,0.04-0.23,0.06-0.35,0.06c-0.17,0-0.33-0.03-0.49-0.09
	c-0.22-0.06-0.3-0.1-0.41-0.14c-0.52-0.17-0.71,0.15-1.25,0c-0.25-0.07-0.28-0.15-0.51-0.16c-0.26-0.01-0.33,0.09-0.59,0.1
	c-0.35,0.01-0.41-0.16-0.7-0.17c-0.35-0.01-0.42,0.24-0.82,0.4c-0.47,0.19-0.61-0.06-1.49-0.05c-0.65,0.01-0.57,0.14-1.16,0.13
	c-0.79-0.01-1.06-0.24-1.37-0.01c-0.26,0.2-0.22,0.47-0.54,0.62c-0.18,0.07-0.38,0.09-0.57,0.04c-0.21-0.05-0.41-0.14-0.6-0.26
	c-0.51-0.23-0.59-0.06-1.02-0.27c-0.4-0.2-0.58-0.46-0.7-0.38c-0.12,0.08,0.02,0.29-0.09,0.49c-0.18,0.31-0.87,0.38-1.35,0.2
	c-0.16-0.08-0.34-0.11-0.52-0.09c-0.15,0.03-0.16,0.09-0.32,0.14c-0.21,0.07-0.31,0-0.71-0.04c-0.37-0.04-0.56-0.06-0.64,0.04
	c-0.13,0.21-0.09,0.47,0.09,0.64c0.14,0.1,0.29,0,0.61-0.08c0.29-0.05,0.59-0.06,0.89-0.04c0.84,0.01,0.83,0.2,1.28,0.08
	c0.3-0.08,0.52-0.21,0.8-0.11c0.2,0.07,0.22,0.19,0.52,0.39c0.39,0.25,0.63,0.22,0.63,0.3c-0.65,0.42-1.46,0.5-2.18,0.2
	c-0.16-0.08-0.32-0.14-0.5-0.18c-0.39-0.07-0.53,0.07-0.96,0.05c-0.4-0.02-0.36-0.14-0.71-0.14c-0.05,0-0.83,0-1.01,0.44
	c-0.08,0.19-0.02,0.43-0.13,0.47c-0.06,0.02-0.13-0.03-0.14-0.04c-0.17-0.13-0.1-0.47-0.15-0.47s-0.04,0.21-0.17,0.44
	s-0.27,0.26-0.26,0.39c0.01,0.17,0.27,0.22,0.26,0.31c-0.01,0.09-0.39,0.13-0.75,0.17c-0.53-0.01-1.05,0.12-1.52,0.37
	c-0.29,0.21-0.26,0.34-0.62,0.57c-0.22,0.15-0.48,0.25-0.74,0.29c-0.49,0.05-0.58-0.21-1.13-0.15c-0.17,0.03-0.34,0.04-0.51,0.05
	c-0.16,0-0.24-0.01-0.42-0.02c-0.31,0.01-0.62-0.01-0.93-0.05c-0.3-0.08-0.25-0.17-0.59-0.26c-0.2-0.05-0.33-0.05-0.61-0.14
	c-0.14-0.04-0.23-0.08-0.29-0.1c-0.63-0.24-1.29-0.28-2.15-0.58c-0.17-0.06-0.28-0.1-0.44-0.16c-0.19-0.1-0.39-0.19-0.59-0.26
	c-0.03,0.05,0.48,0.41,0.43,0.49c-0.04,0.08-0.52-0.14-0.79-0.29c-0.17-0.09-0.56-0.3-0.53-0.43c0.02-0.1,0.25-0.07,0.28-0.17
	c0.02-0.09-0.26-0.26-0.45-0.36c-0.56-0.32-1.24-0.69-1.21-1.04c0.01-0.22,0.29-0.29,0.26-0.45c-0.03-0.12-0.19-0.14-0.63-0.27
	c-0.61-0.18-0.73-0.28-0.97-0.22c-0.15,0.04-0.28,0.12-0.4,0.22c-0.47,0.31-0.91,0.08-2.18-0.07c-0.54-0.08-1.08-0.11-1.63-0.1
	c-0.38,0.06-0.76,0.07-1.14,0.02c-0.43-0.09-0.63-0.25-0.95-0.14c-0.2,0.07-0.25,0.18-0.53,0.24c-0.17,0.02-0.34,0.04-0.51,0.04
	c-0.34,0.03-0.33,0.06-0.61,0.09c-0.38,0.03-0.44-0.04-0.75-0.01c-0.21,0.02-0.42,0.08-0.62,0.15c-1.44,0.48-1.43,0.54-1.67,0.52
	c-0.34-0.04-0.54-0.19-0.85-0.06c-0.13,0.07-0.24,0.15-0.34,0.25c-0.31,0.23-0.63,0.14-1.6-0.02c-1.14-0.19-1.29-0.16-1.5-0.38
	c-0.19-0.24-0.34-0.5-0.45-0.78c-0.1-0.22-0.18-0.44-0.24-0.67c-0.07-0.25-0.1-0.41-0.02-0.51c0.04-0.06,0.11-0.08,0.13-0.16
	c0.02-0.07,0-0.14-0.04-0.2c-0.08-0.09-0.19-0.01-0.26-0.09c-0.06-0.09-0.06-0.21-0.01-0.31c0.12-0.22,0.45-0.11,0.53-0.3
	c0.04-0.1,0.01-0.2-0.07-0.27c-0.14-0.09-0.38,0.18-0.48,0.09c-0.06-0.08-0.05-0.18,0.01-0.25c0.06-0.05,0.15,0.02,0.2-0.03
	c0.05-0.05,0.01-0.19,0-0.23c-0.11-0.35-0.27-0.69-0.49-0.99c-0.21-0.28-0.25-0.28-0.32-0.45c-0.1-0.24-0.06-0.37-0.18-0.46
	c-0.11-0.09-0.24,0.02-0.46-0.04s-0.21-0.24-0.48-0.44c-0.33-0.24-0.53-0.1-0.71-0.33c-0.16-0.21-0.05-0.39-0.2-0.52
	c-0.19-0.16-0.43,0.1-0.75-0.02c-0.28-0.1-0.23-0.35-0.5-0.54c-0.36-0.25-0.63,0.06-1.36-0.02c-0.4-0.03-0.79-0.17-1.12-0.41
	c-0.38-0.29-0.38-0.53-0.67-0.59c-0.27-0.06-0.33,0.12-0.98,0.28c-0.25,0.07-0.51,0.11-0.77,0.09c-0.4-0.03-0.39-0.16-0.66-0.16
	c-0.53,0.01-0.74,0.51-1.08,0.41c-0.13-0.04-0.21-0.16-0.36-0.41c-0.32-0.47-0.5-1.02-0.52-1.58c0.01-0.2-0.01-0.41-0.06-0.61
	c-0.06-0.23-0.11-0.23-0.15-0.42c-0.07-0.33,0.07-0.39,0.03-0.78c-0.02-0.23-0.09-0.45-0.18-0.66c-0.04-0.11-0.1-0.21-0.15-0.31
	c-0.16-0.36-0.37-0.68-0.63-0.98c-0.39-0.16-0.84-0.13-1.2,0.1c-0.24,0.12-0.3,0.24-0.76,0.51c-0.08,0.04-0.16,0.09-0.22,0.16
	c-0.2,0.19-0.18,0.36-0.3,0.64c-0.21,0.49-0.47,0.48-0.54,0.89c0,0.03,0,0,0,0.36c-0.01,0.6-0.03,0.76,0.06,0.81
	c0.11,0.06,0.24-0.12,0.36-0.05c0.12,0.07,0.13,0.28,0.11,0.41c-0.02,0.14-0.06,0.13-0.1,0.27c-0.01,0.05-0.1,0.36,0.02,0.5
	c0.06,0.06,0.16,0.08,0.42,0c0.25-0.08,0.5-0.18,0.74-0.3c0.36-0.14,0.35,0,1.13-0.16c0.19-0.04,0.39-0.06,0.58-0.11
	c0.29-0.07,0.41-0.12,0.48-0.05c0.08,0.09-0.05,0.24,0,0.53c0.02,0.12,0.05,0.12,0.17,0.38c0.14,0.31,0.21,0.47,0.17,0.61
	c-0.04,0.14-0.17,0.23-0.36,0.34c-0.3,0.17-0.78,0.33-0.88,0.16c-0.07-0.1,0.06-0.27-0.02-0.34c-0.08-0.08-0.24,0.09-0.41,0
	c-0.14-0.07-0.11-0.23-0.27-0.3c-0.1-0.05-0.22-0.04-0.31,0.03c-0.13,0.13,0.01,0.36-0.12,0.5c-0.12,0.11-0.31,0.11-0.42-0.01
	c-0.03-0.04,0-0.07-0.04-0.11c-0.08-0.06-0.19-0.06-0.27,0c-0.09,0.07-0.09,0.19-0.12,0.29c-0.07,0.35-0.31,0.64-0.64,0.77
	c-0.21,0.06-0.27-0.07-0.49,0.01s-0.2,0.24-0.44,0.36c-0.19,0.08-0.39,0.11-0.59,0.09c-0.27-0.02-0.36-0.09-0.52-0.02
	c-0.12,0.06-0.11,0.12-0.24,0.23c-0.18,0.14-0.41,0.21-0.64,0.2c-0.25-0.04-0.25-0.19-0.48-0.21c-0.22-0.01-0.24,0.12-0.56,0.21
	c-0.36,0.1-0.44-0.06-0.67,0.06c-0.29,0.14-0.21,0.4-0.51,0.53c-0.22,0.1-0.36,0.01-0.55,0.17c-0.07,0.07-0.13,0.15-0.17,0.24
	c-0.08,0.13-0.23,0.27-0.78,0.47c-0.84,0.3-1.08,0.18-1.48,0.5c-0.15,0.12-0.15,0.17-0.28,0.23c-0.43,0.21-0.78-0.16-1.01,0.04
	c-0.22,0.18-0.17,0.69-0.16,0.74c0.02,0.21,0.09,0.27,0.05,0.38c-0.1,0.25-0.61,0.26-0.67,0.26c-0.32,0-0.52-0.11-0.56-0.04
	c-0.03,0.06,0.22,0.17,0.3,0.45c0.07,0.27-0.08,0.44,0.04,0.62c0.08,0.12,0.19,0.1,0.21,0.2c0.03,0.13-0.16,0.2-0.25,0.43
	c-0.07,0.18-0.08,0.37-0.02,0.55c0.14,0.36,0.6,0.36,0.61,0.59c0,0.15-0.2,0.21-0.19,0.38c0.01,0.15,0.16,0.2,0.3,0.34
	c0.3,0.33,0.08,0.68,0.32,1.11c0.18,0.34,0.35,0.17,0.74,0.63c0.25,0.28,0.42,0.61,0.52,0.96c0.09,0.36,0,0.42,0.11,0.61
	c0.22,0.39,0.63,0.22,0.92,0.58c0.14,0.37,0.2,0.76,0.2,1.15c0.07,0.34,0.08,0.69,0.01,1.03c-0.12,0.36-0.29,0.39-0.32,0.69
	c-0.03,0.34,0.18,0.43,0.22,0.82c0.02,0.34-0.07,0.69-0.27,0.97c-0.32,0.49-0.68,0.35-1.01,0.87c-0.19,0.29-0.1,0.38-0.29,0.61
	c-0.25,0.26-0.58,0.42-0.94,0.46c-0.48,0.11-0.97,0.13-1.46,0.05c-0.63-0.07-1-0.12-1.14-0.4c-0.08-0.21-0.12-0.43-0.11-0.66
	c0-0.28,0.04-0.47-0.06-0.56c-0.09-0.07-0.19,0-0.28-0.09c-0.08-0.08-0.09-0.2-0.04-0.3c0.08-0.09,0.27,0.05,0.33-0.03
	s-0.09-0.2-0.05-0.39c0.04-0.16,0.18-0.22,0.15-0.3c-0.03-0.05-0.08-0.08-0.14-0.07c-0.06,0.01-0.08,0.06-0.14,0.12
	c-0.09,0.1-0.24,0.19-0.29,0.15s0.05-0.18-0.02-0.3c-0.06-0.08-0.15-0.13-0.25-0.12c-0.16,0-0.2,0.12-0.32,0.1
	c-0.08-0.02-0.16-0.08-0.16-0.15c0-0.13,0.31-0.18,0.3-0.27c-0.01-0.08-0.29-0.16-0.58-0.12c-0.29,0.04-0.43,0.16-0.52,0.08
	c-0.05-0.05-0.06-0.14-0.02-0.2c0.04-0.05,0.12,0.02,0.2-0.03c0.09-0.06,0.09-0.24,0.08-0.3c-0.01-0.24-0.17-0.36-0.12-0.43
	c0.05-0.07,0.25,0.04,0.3-0.03c0.05-0.07-0.17-0.42-0.48-0.7c-0.37-0.33-0.55-0.29-0.79-0.61c-0.06-0.08-0.3-0.39-0.2-0.61
	c0.05-0.11,0.15-0.12,0.27-0.19c0.31-0.19,0.29-0.57,0.58-1.44c0.06-0.29,0.18-0.56,0.35-0.79c0.32-0.31,0.61-0.14,0.9-0.46
	c0.23-0.26,0.11-0.45,0.38-0.75c0.21-0.24,0.32-0.15,0.57-0.41c0.29-0.29,0.21-0.45,0.49-0.71c0.31-0.3,0.5-0.16,0.67-0.39
	c0.21-0.29-0.05-0.52,0.02-1.27c0.05-0.58,0.23-0.85,0.06-1.12c-0.08-0.13-0.13-0.08-0.31-0.26c-0.21-0.23-0.36-0.51-0.43-0.82
	c-0.07-0.33,0.01-0.47-0.1-0.56c-0.15-0.12-0.37,0.07-0.56-0.08c-0.08-0.06-0.05-0.1-0.14-0.17c-0.19-0.16-0.45-0.06-0.46-0.1
	c0.11-0.1,0.27-0.15,0.42-0.12c0.26,0.03,0.31,0.21,0.58,0.22c0.15,0.01,0.13-0.05,0.35-0.06c0.25-0.01,0.36,0.06,0.52-0.02
	c0.07-0.04,0.16-0.1,0.15-0.16s-0.12-0.08-0.15-0.08c-0.38-0.17-0.71-0.42-0.98-0.73c-0.73-0.66-1.11-0.99-1.05-1.31
	c0.07-0.2,0.07-0.41,0-0.61c-0.05-0.07-0.09-0.13-0.12-0.2c-0.04-0.09-0.07-0.19-0.09-0.29c-0.06-0.33,5.15-1.04,5.04-3.34
	c0-0.04-0.02-0.16-0.05-0.3c0,0.02,0.01,0.05,0.01,0.07c0.07,0.37-0.01,0.75-0.22,1.06c-0.27,0.32-0.53,0.17-1.24,0.56
	c-0.07,0.04-0.29,0.19-0.73,0.5c-0.34,0.27-0.7,0.52-1.07,0.74c-0.49,0.21-0.61,0.07-1.39,0.34c-0.33,0.12-0.35,0.16-0.59,0.23
	c-0.4,0.11-0.81,0.15-1.22,0.11l-3.3,4.46l-0.81-0.18l-4.77,4.77l0.01,0.76c-0.13,0.13-0.25,0.28-0.36,0.43
	c-0.45,0.62-0.66,1.39-0.6,2.16c0.07,0.5,0.24,0.48,0.42,1.07c0.23,0.86,0.2,1.77-0.08,2.62c-0.23,0.81-0.61,1.57-1.14,2.23
	c-0.21,0.27-0.44,0.54-0.68,0.78c-0.47,0.48-0.75,0.62-1.19,1.02c-0.03,0.03-0.1,0.09-0.09,0.16c0.02,0.16,0.42,0.3,0.75,0.32
	c0.63-0.06,1.25-0.23,1.84-0.49c0.14-0.06,0.31-0.08,0.46-0.03c0.32,0.13,0.23,0.57,0.53,0.7c0.28,0.12,0.51-0.19,0.93-0.04
	c0.11,0.03,0.21,0.1,0.27,0.21c0.06,0.13-0.02,0.22-0.02,0.36c0,0.26,0.23,0.36,0.45,0.66c0.18,0.28,0.29,0.6,0.33,0.93
	c0.1,0.51-0.02,0.61,0.12,0.9c0.11,0.23,0.18,0.17,0.51,0.56c0.29,0.34,0.29,0.45,0.65,0.9c0.11,0.15,0.22,0.28,0.35,0.41
	c0.49,0.43,0.88,0.33,1.06,0.68c0.07,0.17,0.11,0.35,0.12,0.54c-0.01,0.15,0.01,0.3,0.06,0.43c0.06,0.13,0.12,0.13,0.18,0.23
	c0.12,0.2,0,0.36,0,0.71c-0.01,0.47,0.2,0.55,0.1,0.77c-0.1,0.23-0.34,0.16-0.58,0.45c-0.14,0.2-0.23,0.43-0.25,0.68
	c-0.08,0.24-0.09,0.49-0.03,0.73c0.08,0.25,0.21,0.24,0.24,0.45c0.04,0.23-0.1,0.29-0.22,0.71c-0.08,0.22-0.11,0.45-0.07,0.68
	c0.06,0.26,0.19,0.29,0.25,0.58c0.06,0.3-0.04,0.31,0.02,0.49c0.14,0.36,0.74,0.54,0.98,0.61c0.19,0.06,0.27,0.05,0.35,0.14
	c0.16,0.18,0.02,0.4,0.09,0.67c0.06,0.23,0.3,0.39,0.76,0.69c0.35,0.18,0.68,0.38,0.99,0.61c0.3,0.28,0.29,0.43,0.51,0.68
	c0.37,0.38,0.87,0.62,1.41,0.66c0.46,0.07,0.92,0.01,1.34-0.18c0.11-0.09,0.26-0.14,0.4-0.12c0.16,0.03,0.21,0.16,0.32,0.14
	c0.11-0.02,0.1-0.18,0.24-0.28c0.27-0.12,0.59-0.07,0.81,0.12c0.17,0.13,0.2,0.27,0.35,0.29c0.12,0.01,0.15-0.07,0.32-0.09
	c0.23-0.02,0.28,0.11,0.45,0.09c0.24-0.04,0.26-0.33,0.47-0.35c0.21-0.02,0.28,0.25,0.49,0.22c0.15-0.02,0.14-0.18,0.31-0.23
	c0.22-0.07,0.33,0.14,0.58,0.11c0.24-0.04,0.26-0.3,0.49-0.35c0.23-0.05,0.33,0.21,0.79,0.38c0.32,0.12,0.78,0.17,0.94-0.03
	c0.08-0.1,0.01-0.17,0.1-0.28c0.14-0.19,0.38-0.08,0.67-0.21c0.39-0.17,0.31-0.51,0.67-0.64c0.2-0.07,0.24,0.03,0.74,0.08
	c0.66,0.06,0.82-0.1,1.04,0.06c0.26,0.19,0.17,0.51,0.41,0.59c0.18,0.06,0.28-0.11,0.52-0.05c0.18,0.05,0.17,0.15,0.38,0.24
	c0.22,0.09,0.25,0,0.54,0.06s0.34,0.17,0.48,0.14c0.19-0.05,0.18-0.26,0.39-0.36c0.16-0.07,0.33-0.08,0.5-0.02l6.19,6.71
	c0.19-0.05,0.38-0.05,0.57-0.01c0.34,0.07,0.39,0.24,0.59,0.28c0.47,0.08,0.66-0.76,1.41-1.01c0.41-0.14,0.38,0.11,1.49,0.15
	c0.95,0.04,1.27-0.13,1.72,0.14c0.24,0.15,0.35,0.31,0.57,0.3c0.31-0.02,0.33-0.33,0.69-0.47c0.44-0.16,0.65,0.22,1.23,0.09
	c0.33-0.07,0.33-0.21,0.66-0.24c0.38-0.05,0.49,0.12,0.83,0.14c0.63,0.03,0.74-0.54,1.39-0.57c0.56-0.03,0.67,0.38,1.2,0.31
	c0.47-0.06,0.46-0.39,1.02-0.59c0.57-0.08,1.15-0.06,1.71,0.05c0.41,0.01,0.82,0.08,1.21,0.22c0.34,0.1,0.64,0.3,0.85,0.58
	c0.23,0.37,0.06,0.62,0.34,1.02c0.21,0.3,0.4,0.29,0.41,0.45c0.02,0.3-0.57,0.42-1.2,0.98c-0.42,0.33-0.74,0.78-0.91,1.29
	c-0.2,0.72,0.19,0.98-0.09,1.64c-0.15,0.32-0.37,0.61-0.65,0.83c-0.49,0.36-0.87,0.3-1,0.61c-0.08,0.21,0.02,0.43,0.16,0.77
	c0.18,0.41,0.31,0.44,0.38,0.66c0.16,0.48-0.33,0.77-0.76,1.76c-0.32,0.75-0.11,0.73-0.49,1.68c-0.31,0.77-0.52,0.96-0.44,1.35
	c0.1,0.48,0.49,0.51,0.59,1.03c0.09,0.47-0.2,0.58-0.21,1.08c-0.01,0.36,0.33,0.85,1.01,1.79c0.65,0.91,0.83,1.04,0.88,1.46
	c0.03,0.25,0,0.49,0.18,0.65c0.21,0.2,0.44,0.03,0.83,0.18c0.38,0.17,0.67,0.49,0.82,0.87c0.14,0.36-0.01,0.44,0.15,0.79
	c0.18,0.4,0.41,0.38,0.59,0.75c0.17,0.32,0.19,0.7,0.07,1.03c-0.22,0.44-0.67,0.71-1.16,0.73l-3.28,3.29
	c-0.06,0.07-0.09,0.15-0.08,0.24c0.06,0.21,0.27,0.35,0.49,0.32c0.25-0.04,0.25-0.34,0.5-0.39c0.17-0.03,0.21,0.1,0.59,0.19
	c0.29,0.07,0.29,0.01,0.43,0.07c0.24,0.12,0.35,0.39,0.52,0.79c0.11,0.28,0.11,0.35,0.21,0.41c0.2,0.12,0.41-0.1,0.7-0.1
	c0.48-0.01,0.58,0.54,1.46,1.32c0.54,0.48,0.89,0.62,0.88,0.94c-0.01,0.25-0.23,0.34-0.21,0.65c0.01,0.17,0.08,0.24,0.35,0.67
	c0.17,0.23,0.31,0.48,0.42,0.74c0.11,0.49-0.24,0.65-0.1,1.02c0.13,0.35,0.5,0.37,0.57,0.77c0.03,0.16-0.03,0.17,0,0.35
	c0.06,0.36,0.34,0.38,0.52,0.76c0.2,0.42-0.03,0.62,0.23,0.97c0.12,0.16,0.22,0.18,0.26,0.33c0.02,0.26,0.08,0.51,0.18,0.76
	c0.15,0.17,0.03,0.36,0.12,0.61c0.1,0.25,0.29,0.19,0.43,0.47c0.09,0.18,0.02,0.23,0.06,0.92c0.01,0.23,0.02,0.26,0,0.31
	c-0.12,0.22-0.48,0.14-1.05,0.24c-0.94,0.5-1.82,1.12-2.62,1.82c0.16,0.1,0.32,0.2,0.49,0.28c0.98,0.46,1.64,0.34,1.88,0.89
	c0.13,0.3,0.04,0.59,0.25,0.71c0.21,0.13,0.45-0.11,0.91-0.13c0.55-0.02,0.64,0.32,1.07,0.34c0.59,0.03,0.76-0.59,2.01-1.5
	c0.38-0.35,0.85-0.58,1.35-0.65c0.52-0.03,1.19,0.16,1.27,0.53c0.1,0.42-0.66,0.75-0.54,1.2c0.11,0.31,0.42,0.5,0.75,0.46
	c0.42-0.08,0.35-0.67,0.95-1.25c0.48-0.46,0.73-0.3,1.27-0.77c0.57-0.51,0.43-0.82,0.84-1.23c0.8-0.79,1.7,0.05,2.98-0.62
	c0.61-0.32,0.46-0.54,1.95-1.68c0.34-0.26,1.03-0.77,1.23-0.6c0.11,0.1-0.03,0.32,0.08,0.44c0.21,0.24,1.29-0.04,1.96-0.76
	c1.07-1.14,0.29-2.46,1.25-3.2c0.58-0.44,0.93-0.02,2.11-0.64c0.67-0.35,0.67-0.55,1.29-0.77c0.78-0.28,1.1-0.09,1.55-0.44
	c0.4-0.27,0.61-0.75,0.55-1.23c-0.18-0.57-1.15-0.82-1.85-0.62c-0.73,0.21-0.77,0.78-1.5,1.01c-0.57,0.11-1.16,0.02-1.69-0.24
	c-1.14-0.37-2.17-0.71-2.62-1.64c-0.22-0.56-0.31-1.17-0.26-1.78c0-0.84,0.18-0.86,0.11-1.36c-0.14-1.11-1.03-1.23-1.07-2.09
	c-0.04-0.8,0.73-0.94,0.94-2.02c0.14-0.74,0-1.5-0.4-2.13c-0.77-1.16-1.98-0.71-3.14-1.98c-0.49-0.53-1.09-1.51-0.78-2.02
	c0.33-0.54,1.69-0.57,2.27,0.01c0.23,0.23,0.26,0.47,0.54,0.57c0.37,0.14,0.66-0.16,1.05-0.24c0.76-0.17,1.31,0.55,2.19,1.07
	c1.07,0.48,2.23,0.74,3.4,0.74c1.82,0.2,2.85,0.01,3.37,0.74c0.21,0.3,0.22,0.59,0.54,0.75c0.56,0.2,1.18,0.01,1.52-0.47
	c0.32-0.49-0.03-0.85,0.25-1.21c0.42-0.54,1.33,0.14,2.16-0.43c0.57-0.39,0.56-0.99,1.13-1.07c0.27-0.04,0.44,0.07,0.82-0.04
	c0.35-0.11,0.36-0.26,0.59-0.28c0.47-0.05,0.64,0.62,1.09,0.64c0.5,0.02,0.57-0.76,1.18-0.89c0.72-0.16,1.23,0.78,1.74,0.54
	c0.38-0.18,0.29-0.79,0.77-0.96c0.24-0.09,0.31,0.06,0.55-0.02c0.56-0.17,0.46-0.98,1.04-1.22c0.33-0.14,0.48,0.07,0.79-0.1
	c0.37-0.21,0.27-0.58,0.54-0.82c0.59-0.53,1.78,0.61,2.62,0.11c0.46-0.27,0.24-0.68,0.87-1.22c0.54-0.47,0.82-0.26,1.38-0.71
	c0.54-0.41,0.88-1.02,0.93-1.7c-0.05-0.76-0.75-1.1-0.58-1.55c0.1-0.26,0.42-0.35,0.79-0.46c0.02,0,0.04-0.01,0.06-0.01
	c0.25-0.07,0.51-0.1,0.77-0.1l-4.62-6.04c0.02-0.09,0.07-0.18,0.13-0.24c0.13-0.11,0.24-0.05,0.41-0.12
	c0.22-0.13,0.39-0.34,0.45-0.59c0.08-0.29-0.01-0.41,0.1-0.54c0.12-0.13,0.26-0.03,0.42-0.18s0.1-0.28,0.23-0.33
	c0.13-0.05,0.24,0.09,0.39,0.02c0.09-0.05,0.15-0.14,0.17-0.24c0.03-0.12,0-0.22-0.11-0.46c-0.22-0.52-0.28-0.56-0.26-0.69
	c0.03-0.18,0.16-0.17,0.25-0.41c0.06-0.17,0.07-0.36,0.03-0.54c-0.09-0.35-0.35-0.35-0.43-0.66c-0.02-0.21,0.02-0.42,0.11-0.62
	c0.06-0.33,0.23-0.62,0.48-0.83c0.12-0.08,0.26-0.13,0.4-0.14c0.34-0.02,0.44,0.22,0.7,0.16c0.17-0.06,0.32-0.18,0.42-0.34
	c0.19-0.23,0.17-0.34,0.31-0.45c0.18-0.11,0.4-0.14,0.61-0.08c0.42,0.1,0.47,0.42,0.86,0.47c0.15,0.02,0.31-0.01,0.45-0.07
	c0.29-0.12,0.32-0.3,0.57-0.5c0.43-0.33,0.67-0.04,1.02-0.36c0.26-0.24,0.23-0.51,0.51-0.61c0.16-0.06,0.25,0,0.38-0.11
	c0.13-0.11,0.11-0.22,0.2-0.42c0.19-0.42,0.49-0.45,0.47-0.65c-0.02-0.16-0.21-0.14-0.48-0.42c-0.27-0.28-0.21-0.45-0.4-0.53
	c-0.19-0.08-0.36,0.02-0.64,0.14c-0.4,0.19-0.5,0.37-0.65,0.32c-0.12-0.04-0.18-0.2-0.26-0.44c-0.08-0.18-0.11-0.37-0.09-0.57
	c0.06-0.33,0.32-0.43,0.28-0.64c-0.02-0.1-0.08-0.13-0.21-0.25c-0.25-0.24-0.45-0.54-0.55-0.88c-0.08-0.22-0.07-0.47,0.03-0.69
	c0.14-0.22,0.33-0.12,0.56-0.33c0.18-0.16,0.24-0.43,0.38-0.97c0.12-0.51,0.11-0.69,0.28-0.84c0.13-0.1,0.29-0.16,0.45-0.16
	c0.4-0.04,0.52,0.17,0.81,0.08c0.08-0.02,0.05-0.04,0.38-0.26c0.47-0.33,0.49-0.27,0.58-0.4c0.2-0.24,0.18-0.47,0.37-0.54
	c0.06-0.01,0.13-0.02,0.2-0.01c0.14-0.01,0.28-0.03,0.42-0.06c0.29-0.08,0.25-0.3,0.5-0.38c0.29-0.09,0.49,0.16,0.68,0.02
	c0.07-0.06,0.12-0.15,0.14-0.24c0.06-0.22-0.06-0.34,0.01-0.52c0.04-0.09,0.1-0.17,0.19-0.21c0.24-0.12,0.47,0.19,0.7,0.06
	c0.06-0.03,0.03-0.05,0.16-0.16c0.19-0.17,0.31-0.18,0.33-0.27C366.29,260.11,366.24,260.03,366.15,259.94z"/>
<g transform="matrix(1, 0, 0, 1, 35.35, 98.05)">
	<path id="Path_53-2" class="st1" d="M277.35,218.31c-0.04-0.7,0.03-0.74-0.06-0.92c-0.14-0.28-0.33-0.2-0.43-0.47
		s0.03-0.44-0.12-0.61c-0.1-0.24-0.16-0.5-0.18-0.76c-0.03-0.15-0.13-0.17-0.26-0.33c-0.26-0.35-0.03-0.55-0.23-0.97
		c-0.18-0.38-0.46-0.39-0.52-0.76c-0.03-0.17,0.03-0.18,0-0.35c-0.07-0.4-0.44-0.42-0.57-0.77c-0.14-0.38,0.22-0.53,0.1-1.02
		c-0.12-0.26-0.26-0.51-0.42-0.74c-0.27-0.43-0.34-0.5-0.35-0.67c-0.01-0.31,0.21-0.39,0.21-0.65c0.01-0.33-0.34-0.46-0.88-0.94
		c-0.88-0.78-0.98-1.33-1.46-1.32c-0.3,0.01-0.5,0.23-0.7,0.1c-0.1-0.06-0.09-0.13-0.21-0.41c-0.17-0.41-0.28-0.68-0.52-0.79
		c-0.14-0.06-0.14,0-0.43-0.07c-0.38-0.09-0.42-0.22-0.59-0.19c-0.25,0.04-0.25,0.35-0.5,0.39c-0.22,0.03-0.43-0.11-0.49-0.32
		c-0.01-0.09,0.02-0.18,0.08-0.24l3.28-3.29c0.49-0.01,0.93-0.29,1.16-0.73c0.12-0.34,0.1-0.71-0.07-1.03
		c-0.19-0.37-0.42-0.36-0.59-0.75c-0.15-0.35-0.01-0.43-0.15-0.79c-0.15-0.39-0.44-0.7-0.82-0.87c-0.39-0.15-0.62,0.02-0.83-0.18
		c-0.18-0.16-0.15-0.39-0.18-0.65c-0.05-0.41-0.23-0.54-0.88-1.46c-0.68-0.95-1.02-1.43-1.01-1.79c0.01-0.5,0.3-0.62,0.21-1.08
		c-0.1-0.51-0.49-0.55-0.59-1.03c-0.08-0.39,0.13-0.57,0.44-1.35c0.38-0.94,0.16-0.93,0.49-1.68c0.43-0.99,0.92-1.28,0.76-1.76
		c-0.07-0.21-0.2-0.24-0.38-0.66c-0.15-0.35-0.24-0.57-0.16-0.77c0.12-0.31,0.51-0.24,1-0.61c0.28-0.22,0.5-0.5,0.65-0.83
		c0.28-0.66-0.1-0.92,0.09-1.64c0.17-0.51,0.49-0.96,0.91-1.29c0.63-0.56,1.23-0.68,1.2-0.98c-0.01-0.17-0.2-0.16-0.41-0.45
		c-0.28-0.4-0.11-0.65-0.34-1.02c-0.21-0.28-0.51-0.48-0.85-0.58c-0.39-0.13-0.8-0.21-1.21-0.22c-0.56-0.11-1.14-0.13-1.71-0.05
		c-0.56,0.2-0.54,0.53-1.02,0.59c-0.54,0.07-0.65-0.34-1.2-0.31c-0.65,0.04-0.76,0.61-1.39,0.57c-0.34-0.02-0.44-0.19-0.83-0.14
		c-0.33,0.04-0.33,0.18-0.66,0.24c-0.58,0.13-0.8-0.25-1.23-0.09c-0.36,0.13-0.38,0.45-0.69,0.47c-0.23,0.01-0.33-0.16-0.57-0.3
		c-0.45-0.27-0.76-0.1-1.72-0.14c-1.12-0.04-1.08-0.29-1.49-0.15c-0.74,0.25-0.94,1.09-1.41,1.01c-0.2-0.04-0.26-0.2-0.6-0.28
		c-0.19-0.04-0.38-0.03-0.57,0.01l-6.19-6.71c-0.16-0.06-0.34-0.05-0.49,0.02c-0.21,0.11-0.21,0.32-0.39,0.36
		c-0.14,0.04-0.17-0.07-0.48-0.14c-0.31-0.07-0.33,0.02-0.54-0.06s-0.2-0.19-0.38-0.24c-0.24-0.06-0.34,0.1-0.52,0.05
		c-0.24-0.08-0.15-0.4-0.41-0.59c-0.22-0.16-0.39,0-1.04-0.06c-0.49-0.04-0.54-0.15-0.74-0.08c-0.35,0.12-0.28,0.47-0.67,0.64
		c-0.29,0.12-0.53,0.02-0.67,0.21c-0.08,0.11-0.02,0.19-0.1,0.28c-0.16,0.2-0.62,0.15-0.94,0.03c-0.45-0.16-0.54-0.43-0.79-0.38
		c-0.24,0.05-0.24,0.31-0.49,0.35c-0.26,0.04-0.36-0.18-0.58-0.11c-0.17,0.05-0.16,0.21-0.31,0.23c-0.2,0.03-0.28-0.24-0.49-0.22
		c-0.2,0.01-0.22,0.31-0.47,0.35c-0.17,0.03-0.22-0.11-0.45-0.09c-0.17,0.02-0.2,0.1-0.32,0.09c-0.15-0.02-0.18-0.15-0.35-0.29
		c-0.23-0.19-0.54-0.24-0.81-0.12c-0.14,0.1-0.12,0.26-0.24,0.28c-0.11,0.02-0.16-0.11-0.32-0.14c-0.15-0.01-0.29,0.03-0.4,0.12
		c-0.42,0.19-0.89,0.26-1.34,0.18c-0.53-0.05-1.03-0.28-1.41-0.66c-0.23-0.25-0.22-0.4-0.51-0.68c-0.31-0.23-0.65-0.43-0.99-0.61
		c-0.47-0.3-0.7-0.46-0.76-0.69c-0.08-0.28,0.07-0.5-0.09-0.67c-0.08-0.09-0.16-0.09-0.35-0.14c-0.24-0.07-0.84-0.24-0.98-0.61
		c-0.07-0.17,0.04-0.2-0.02-0.49c-0.06-0.29-0.19-0.32-0.25-0.58c-0.04-0.23-0.01-0.46,0.07-0.68c0.11-0.42,0.25-0.49,0.22-0.71
		c-0.04-0.21-0.16-0.2-0.24-0.45c-0.06-0.24-0.05-0.49,0.03-0.73c0.03-0.24,0.11-0.48,0.25-0.68c0.24-0.29,0.47-0.22,0.58-0.45
		c0.11-0.23-0.11-0.3-0.1-0.77c0.01-0.35,0.13-0.51,0-0.71c-0.06-0.1-0.12-0.11-0.18-0.23c-0.05-0.14-0.07-0.29-0.06-0.43
		c-0.01-0.19-0.05-0.37-0.12-0.54c-0.18-0.35-0.57-0.24-1.06-0.68c-0.13-0.13-0.25-0.26-0.35-0.41c-0.36-0.45-0.36-0.56-0.65-0.9
		c-0.33-0.39-0.4-0.33-0.51-0.56c-0.14-0.29-0.03-0.39-0.12-0.9c-0.03-0.33-0.15-0.65-0.33-0.93c-0.22-0.3-0.46-0.4-0.45-0.66
		c0-0.14,0.08-0.24,0.02-0.36c-0.06-0.1-0.16-0.18-0.27-0.21c-0.42-0.15-0.65,0.17-0.93,0.04c-0.3-0.13-0.2-0.57-0.53-0.7
		c-0.15-0.04-0.31-0.03-0.46,0.03c-0.58,0.26-1.2,0.42-1.84,0.49c-0.33-0.02-0.73-0.15-0.75-0.32c-0.01-0.07,0.06-0.13,0.09-0.16
		c0.45-0.4,0.73-0.54,1.19-1.02c0.24-0.25,0.47-0.51,0.68-0.78c0.53-0.66,0.91-1.42,1.14-2.23c0.28-0.85,0.31-1.76,0.08-2.62
		c-0.18-0.59-0.35-0.57-0.42-1.07c-0.07-0.77,0.14-1.54,0.6-2.16c0.11-0.15,0.23-0.3,0.36-0.43l-0.01-0.76l4.77-4.77l0.81,0.18
		l3.3-4.46c0.41,0.04,0.83,0,1.22-0.11c0.24-0.07,0.27-0.11,0.59-0.23c0.78-0.27,0.9-0.13,1.39-0.34c0.37-0.22,0.73-0.47,1.07-0.74
		c0.43-0.3,0.65-0.46,0.72-0.5c0.71-0.39,0.97-0.25,1.24-0.56c0.21-0.31,0.29-0.69,0.22-1.06c0-0.02-0.01-0.05-0.01-0.07
		c-0.01-0.05-0.02-0.11-0.03-0.16c-0.01-0.08-0.04-0.16-0.07-0.23l0,0c-0.05-0.14-0.12-0.27-0.2-0.4c-0.34-0.45-0.83-0.78-1.38-0.92
		c-0.41-0.05-0.81-0.16-1.19-0.34c-0.15-0.11-0.3-0.21-0.46-0.31c-0.33-0.18-0.71-0.22-1.07-0.13c-0.15,0.05-0.36,0.16-0.35,0.25
		c0.01,0.07,0.12,0.11,0.24,0.15c0.29,0.1,0.45,0.07,0.46,0.12c0.01,0.05-0.21,0.23-0.47,0.24c-0.28,0.01-0.47-0.15-0.54-0.08
		c-0.07,0.07,0.06,0.17,0,0.32c-0.07,0.15-0.23,0.23-0.39,0.2c-0.15-0.05-0.12-0.24-0.24-0.28c-0.2-0.07-0.63,0.31-0.58,0.59
		c0.05,0.25,0.47,0.26,0.48,0.46s-0.36,0.36-0.66,0.4c-0.08,0.01-0.36,0.04-0.45-0.1s0.15-0.33,0.08-0.48
		c-0.12-0.27-1.07-0.06-1.35,0c-0.4,0.09-0.65,0.14-0.69,0.3c-0.05,0.21,0.35,0.37,0.35,0.73c-0.02,0.18-0.1,0.34-0.22,0.46
		c-1.04,1.36-1.33,1.5-1.53,1.58c-0.24,0.09-0.24,0.04-0.45,0.13c-0.55,0.25-0.72,0.7-1.05,0.66c-0.13-0.02-0.2-0.1-0.32-0.06
		c-0.12,0.04-0.14,0.15-0.24,0.23c-0.18,0.14-0.47,0.05-0.57,0.03c-0.44-0.1-0.83,0.36-1.94,1.11c-1.03,0.7-1.54,0.88-1.57,1.33
		c-0.01,0.22,0.09,0.47-0.02,0.54c-0.16,0.1-0.52-0.27-0.65-0.17c-0.08,0.06,0.02,0.21-0.06,0.33c-0.1,0.15-0.35,0.04-0.6,0.1
		c-0.51,0.12-0.45,0.76-0.99,1.03c-0.31,0.1-0.65,0.11-0.97,0.03c-0.73-0.09-0.92-0.35-1.39-0.24c-0.29,0.07-0.29,0.19-0.61,0.24
		c-0.32,0.05-0.41-0.06-0.89-0.15c-0.71-0.13-0.83,0.05-1.08-0.13c-0.3-0.21-0.31-0.59-0.58-0.61c-0.07,0-0.14,0.02-0.2,0.05
		c-0.65,0.36-1.46,0.19-1.81,0.64c-0.28,0.36,0.1,0.62-0.13,1.35c-0.14,0.47-0.44,0.87-0.86,1.12c-0.54,0.26-1.16,0.28-1.71,0.04
		c-0.52-0.23-0.68-0.59-1.23-0.62c-0.16-0.01-0.26,0.02-0.55,0c-0.25-0.02-0.49-0.06-0.73-0.12c-0.58-0.12-1.07,0.7-2.18,1.57
		c-1.17,0.91-1.53,0.73-2.08,1.43c-0.29,0.38-0.45,0.77-0.92,0.97c-0.22,0.07-0.42,0.21-0.56,0.39c-0.08,0.1-0.12,0.23-0.11,0.36
		c0.02,0.11,0.09,0.15,0.15,0.23c0.14,0.19,0.02,0.42-0.06,0.83c-0.12,0.65,0.01,0.83-0.17,0.97s-0.36-0.03-0.65,0.13
		c-0.16,0.09-0.14,0.17-0.4,0.5c-0.33,0.43-0.53,0.52-0.49,0.68c0.05,0.14,0.18,0.23,0.33,0.23c0.15,0,0.22-0.14,0.56-0.55
		c0.35-0.44,0.43-0.47,0.48-0.46c0.09,0.03,0.15,0.25,0.09,0.44c-0.09,0.31-0.41,0.31-0.46,0.56s0.22,0.35,0.18,0.63
		c-0.03,0.21-0.18,0.23-0.34,0.47c-0.28,0.42-0.04,0.65-0.27,1.13c-0.22,0.46-0.62,0.63-0.56,0.75c0.06,0.1,0.32-0.05,0.58,0.07
		c0.36,0.17,0.45,0.76,0.4,1.17c-0.09,0.48-0.39,0.89-0.81,1.13c-0.36,0.23-0.81,0.3-1.22,0.18c-0.26-0.11-0.41-0.32-0.62-0.26
		c-0.13,0.03-0.19,0.15-0.26,0.24c-0.45,0.61-1.38,0.38-1.56,0.85c-0.07,0.2,0.08,0.26-0.02,0.45c-0.17,0.35-0.72,0.22-0.86,0.54
		c-0.09,0.21,0.1,0.37-0.03,0.69c-0.04,0.1-0.1,0.19-0.17,0.26c-0.58,0.65-0.57,1.22-1.16,1.55c-0.3,0.17-0.31,0.02-0.62,0.2
		c-0.52,0.3-0.5,0.72-1.01,0.94c-0.26,0.11-0.3,0.02-0.55,0.15c-0.38,0.2-0.34,0.45-0.66,0.74c-0.45,0.41-0.83,0.15-1.39,0.61
		c-0.06,0.05-0.47,0.39-0.38,0.61c0.08,0.22,0.56,0.05,0.88,0.36c0.14,0.14,0.05,0.17,0.32,0.8c0.18,0.42,0.24,0.49,0.24,0.68
		c-0.01,0.25-0.13,0.33-0.07,0.53s0.21,0.22,0.23,0.41c0.02,0.16-0.08,0.2-0.1,0.39c-0.04,0.27,0.14,0.36,0.18,0.64
		c0.04,0.3-0.08,0.59-0.31,0.78c-0.32,0.23-0.76,0.21-1.06-0.06c-0.14-0.17-0.18-0.48-0.06-0.58c0.12-0.1,0.31,0.07,0.47-0.04
		c0.14-0.14,0.19-0.34,0.12-0.52c-0.02-0.12-0.1-0.23-0.21-0.29c-0.18-0.09-0.39,0.06-0.47-0.03c-0.07-0.09,0.09-0.23,0.01-0.36
		c-0.06-0.1-0.17-0.06-0.27-0.16c-0.15-0.15-0.03-0.33-0.14-0.41c-0.17-0.12-0.54,0.17-0.68,0.03c-0.02-0.02-0.03-0.04-0.03-0.07
		c-0.02-0.06-0.13-0.29-0.36-0.74c-0.16-0.3-0.43-0.47-0.94-0.8c-0.52-0.33-0.68-0.31-0.77-0.53c-0.11-0.27,0.05-0.53-0.14-0.71
		c-0.09-0.08-0.15-0.05-0.27-0.16c-0.18-0.17-0.17-0.35-0.26-0.36c-0.09-0.02-0.17,0.14-0.28,0.34l-0.16,0.29
		c-0.29,0.53-0.3,0.57-0.28,0.64c0.07,0.31,0.46,0.26,0.56,0.63c0.06,0.24-0.07,0.38,0.06,0.65c0.07,0.14,0.12,0.12,0.2,0.27
		c0.15,0.28,0,0.44,0.1,0.66c0.14,0.32,0.54,0.22,0.69,0.53c0.14,0.27-0.15,0.42-0.08,0.8c0.09,0.49,0.61,0.61,0.56,0.97
		c-0.03,0.15-0.12,0.27-0.24,0.36c-0.42,0.35-0.93,0.1-1.13,0.4c-0.07,0.11,0,0.15-0.07,0.46c-0.04,0.24-0.13,0.46-0.26,0.66
		c-0.32,0.44-0.75,0.29-1.01,0.73c-0.12,0.19-0.05,0.26-0.2,0.47c-0.16,0.23-0.46,0.47-0.65,0.39c-0.09-0.04-0.08-0.12-0.2-0.4
		c-0.16-0.39-0.24-0.61-0.43-0.7c-0.16-0.09-0.35-0.07-0.49,0.04c-0.07,0.09-0.02,0.22,0.01,0.36c0.11,0.39,0.05,0.8-0.17,1.14
		c-0.23,0.22-0.55,0.04-0.77,0.2c-0.02,0.01-0.03,0.02-0.05,0.04c-0.16,0.18,0.02,0.35-0.07,0.75c-0.12,0.59-0.6,0.76-0.5,1.12
		c0.03,0.12,0.07,0.07,0.24,0.34c0.22,0.36,0.21,0.58,0.41,0.67c0.1,0.05,0.13,0,0.27,0.02c0.43,0.07,0.67,0.59,0.82,0.91
		c0.14,0.3,0.22,0.47,0.14,0.62s-0.28,0.14-0.41,0.35c-0.12,0.17-0.12,0.39,0,0.56c0.11,0.1,0.27,0.13,0.41,0.07
		c0.15-0.07,0.14-0.2,0.26-0.24c0.15-0.04,0.34,0.14,0.51,0.32c0.18,0.17,0.33,0.37,0.43,0.59c0.14,0.33,0.08,0.53,0.23,0.61
		c0.12,0.04,0.25,0.02,0.35-0.05c0.31-0.15,0.33-0.49,0.49-0.49c0.09,0,0.16,0.12,0.23,0.24c0.23,0.4,0.09,0.58,0.26,0.87
		c0.2,0.36,0.55,0.38,0.52,0.58c-0.02,0.16-0.27,0.17-0.32,0.41c-0.03,0.16,0.06,0.24-0.02,0.36c-0.08,0.12-0.17,0.08-0.2,0.17
		c-0.05,0.13,0.2,0.27,0.15,0.37s-0.33,0.03-0.38,0.14c-0.06,0.11,0.27,0.28,0.31,0.59c0.03,0.27-0.18,0.56-0.36,0.57
		c-0.18,0-0.27-0.34-0.39-0.32c-0.15,0.03-0.28,0.64-0.04,1.13c0.12,0.25,0.2,0.2,0.42,0.57c0.22,0.37,0.28,0.67,0.41,0.67
		c0.14,0,0.2-0.23,0.25-0.21c0.08,0.03-0.2,0.54,0.02,0.91c0.13,0.22,0.34,0.24,0.4,0.5c0.03,0.12-0.01,0.16,0.03,0.3
		c0.06,0.23,0.22,0.27,0.27,0.4c0.17,0.39-0.61,1.25-1.02,1.12c-0.08-0.02-0.08-0.07-0.19-0.12c-0.31-0.12-0.66-0.07-0.93,0.13
		c-0.4,0.28-0.58,0.83-0.43,0.97c0.1,0.09,0.25-0.06,0.55,0.01c0.24,0.07,0.44,0.22,0.58,0.43c0.19,0.29,0.04,0.41,0.24,0.74
		c0.13,0.22,0.29,0.33,0.24,0.42c-0.05,0.09-0.24,0.03-0.32,0.14c-0.07,0.11,0.11,0.26,0.18,0.61c0.06,0.34-0.07,0.42,0.04,0.63
		c0.1,0.19,0.24,0.17,0.27,0.31c0.04,0.23-0.33,0.36-0.3,0.6c0.02,0.19,0.28,0.22,0.29,0.43c0.01,0.15-0.13,0.18-0.14,0.34
		c-0.01,0.23,0.27,0.32,0.24,0.51c-0.02,0.16-0.23,0.17-0.23,0.29c-0.02,0.23,0.65,0.43,0.62,0.55c-0.02,0.06-0.2,0.01-0.28,0.12
		c-0.1,0.12,0.03,0.37,0.09,0.52c0.25,0.57,0.21,1.23-0.11,1.77c-0.23,0.31-0.54,0.32-0.53,0.53c0,0.15,0.19,0.29,0.57,0.56
		c0.38,0.28,0.56,0.35,0.55,0.49s-0.17,0.22-0.36,0.33c-0.52,0.29-0.88,0.22-1,0.46c-0.05,0.11,0.02,0.15-0.05,0.33
		c-0.08,0.24-0.24,0.26-0.28,0.41c-0.02,0.35,0.24,0.66,0.59,0.71c0.14,0,0.2-0.1,0.58-0.46c0.61-0.58,0.76-0.62,0.87-0.6
		c0.18,0.03,0.33,0.23,0.29,0.31c-0.03,0.08-0.15,0.03-0.22,0.11c-0.09,0.11,0.08,0.27,0.04,0.42c-0.08,0.28-0.8,0.16-0.92,0.43
		c-0.08,0.2,0.18,0.57,0.49,0.65c0.21,0.06,0.24-0.09,0.81-0.19c0.26-0.04,0.44-0.05,0.51-0.18c0.05-0.09-0.01-0.16,0.06-0.26
		c0.1-0.11,0.24-0.16,0.38-0.16c0.2-0.01,0.47,0.04,0.49,0.14c0.02,0.15-0.61,0.2-0.68,0.53c-0.05,0.21,0.17,0.42,0.1,0.47
		c-0.05,0.04-0.15-0.06-0.29-0.08c-0.35-0.03-0.77,0.44-0.69,0.68c0.06,0.18,0.39,0.2,0.38,0.29c-0.01,0.07-0.21,0.05-0.33,0.19
		c-0.09,0.11-0.02,0.19-0.08,0.33c-0.12,0.3-0.59,0.24-0.65,0.45c-0.05,0.18,0.29,0.29,0.29,0.57c0,0.3-0.36,0.59-0.5,0.53
		c-0.1-0.04-0.03-0.27-0.12-0.3c-0.09-0.03-0.34,0.18-0.43,0.45c-0.08,0.23-0.02,0.4-0.12,0.46s-0.16-0.07-0.29-0.04
		c-0.21,0.04-0.17,0.35-0.45,0.55c-0.18,0.12-0.3,0.07-0.41,0.21c-0.08,0.11-0.12,0.29-0.05,0.36c0.08,0.08,0.26-0.04,0.39,0.06
		c0.1,0.09,0.13,0.24,0.06,0.35c-0.12,0.15-0.46-0.08-0.65,0.09c-0.09,0.08-0.03,0.16-0.12,0.33c-0.15,0.29-0.42,0.25-0.52,0.49
		c-0.09,0.21,0.09,0.34-0.01,0.47c-0.14,0.19-0.56-0.01-0.71,0.19c-0.07,0.1-0.07,0.24,0.01,0.33c0.13,0.09,0.36-0.24,0.69-0.18
		c0.15,0.03,0.28,0.12,0.27,0.18c-0.02,0.11-0.59,0.07-0.62,0.21c-0.01,0.05,0.07,0.08,0.07,0.16c0,0.13-0.2,0.16-0.21,0.28
		c-0.02,0.15,0.26,0.24,0.23,0.35c-0.03,0.1-0.3,0.05-0.37,0.21c-0.04,0.08,0.02,0.15-0.02,0.2c-0.08,0.1-0.35-0.06-0.45,0.04
		c-0.1,0.1,0.08,0.32-0.02,0.44c-0.1,0.12-0.33-0.03-0.45,0.09c-0.13,0.12,0.02,0.36-0.1,0.46c-0.16,0.14-0.57-0.2-0.74-0.07
		c-0.17,0.13,0.08,0.6-0.06,0.69c-0.14,0.09-0.57-0.39-0.73-0.29c-0.12,0.08,0.11,0.4,0.01,0.78c-0.14,0.47-0.57,0.79-1.06,0.78
		c-0.4-0.07-0.51-0.58-0.84-0.53c-0.1,0.01-0.08,0.06-0.42,0.2c-0.23,0.1-0.28,0.09-0.33,0.16c-0.13,0.17,0.02,0.4-0.08,0.48
		c-0.05,0.04-0.14,0.02-0.31-0.08c-0.49-0.27-0.49-0.54-0.7-0.57c-0.32-0.04-0.37,0.58-1.07,0.92c-0.15,0.07-0.33,0.14-0.36,0.28
		c-0.03,0.17,0.2,0.28,0.17,0.44c-0.04,0.16-0.33,0.13-0.49,0.36c-0.11,0.16-0.01,0.23-0.08,0.58c-0.08,0.43-0.27,0.47-0.22,0.7
		c0.05,0.23,0.25,0.23,0.33,0.53c0.06,0.22-0.03,0.33,0.07,0.42c0.12,0.13,0.3,0,0.45,0.12c0.15,0.12,0.03,0.31,0.2,0.51
		c0.12,0.14,0.25,0.15,0.25,0.24c0,0.1-0.14,0.12-0.16,0.24c-0.02,0.16,0.22,0.25,0.18,0.38c-0.02,0.09-0.14,0.07-0.26,0.18
		c-0.2,0.18-0.12,0.44-0.24,0.49c-0.12,0.05-0.24-0.3-0.54-0.39c-0.49-0.16-1.07,0.47-1.32,0.27c-0.05-0.04-0.05-0.08-0.14-0.14
		c-0.13-0.07-0.27-0.09-0.41-0.05c-0.2,0.05-0.27,0.21-0.46,0.49c-0.44,0.64-0.77,0.84-0.69,1.08c0.04,0.1,0.12,0.15,0.1,0.25
		c-0.02,0.16-0.24,0.18-0.26,0.29c-0.01,0.16,0.41,0.43,0.79,0.37c0.23-0.04,0.36-0.18,0.46-0.11c0.1,0.06,0.06,0.19,0.07,0.32
		c0.03,0.29,0.26,0.42,0.61,0.68c0.21,0.16,0.42,0.34,0.6,0.53c0.27,0.28,0.33,0.42,0.56,0.49c0.23,0.07,0.39,0.01,0.56,0.14
		c0.17,0.13,0.1,0.24,0.21,0.39c0.26,0.36,0.78,0.08,1.26,0.43c0.29,0.22,0.21,0.4,0.56,0.61c0.21,0.09,0.42,0.16,0.64,0.21
		c0.3,0.1,0.59,0.24,0.87,0.41c0.57,0.37,0.48,0.62,0.85,0.73s0.57-0.12,0.96,0.05c0.22,0.1,0.2,0.2,0.49,0.33
		c0.23,0.13,0.49,0.18,0.75,0.15c0.34-0.07,0.36-0.33,0.7-0.36c0.17-0.02,0.34,0.03,0.46,0.14c0.1,0.12,0.02,0.24,0.08,0.45
		c0.07,0.23,0.23,0.43,0.43,0.56c0.09,0.05,0.16,0.08,0.92,0.14c0.42,0.04,0.55,0.04,0.62,0.14c0.09,0.12,0.01,0.28-0.03,0.49
		c-0.06,0.4,0.02,0.81,0.24,1.15c0.31,0.47,0.84,0.73,1.4,0.69c0.3-0.04,0.42-0.2,0.81-0.19c0.21-0.02,0.42,0.05,0.58,0.19
		c0.14,0.15,0.05,0.27,0.18,0.45c0.16,0.19,0.4,0.31,0.65,0.33c0.35,0.05,0.41-0.11,0.85-0.1c0.36,0.01,0.39,0.12,0.66,0.09
		c0.37-0.05,0.39-0.29,0.71-0.33c0.32-0.04,0.38,0.17,0.86,0.23c0.2,0.02,0.41,0.01,0.61-0.03c0.34-0.05,1-0.16,1.14-0.53
		c0.07-0.2-0.08-0.29,0.01-0.57c0.06-0.17,0.17-0.32,0.32-0.43c0.15-0.17,0.35-0.27,0.57-0.3c0.36,0.01,0.42,0.42,0.82,0.43
		c0.2,0,0.33-0.09,0.47,0c0.11,0.07,0.12,0.18,0.23,0.2c0.11,0.02,0.14-0.06,0.24-0.09c0.27-0.09,0.57,0.17,0.59,0.19
		c0.23,0.2,0.17,0.4,0.3,0.71c0.33,0.57,0.87,0.99,1.51,1.17c0.19,0.09,0.4,0.14,0.61,0.15c0.5,0.01,0.67-0.26,0.99-0.14
		c0.22,0.08,0.19,0.24,0.55,0.43c0.15,0.07,0.3,0.13,0.45,0.17c0.12,0.04,0.49,0.17,0.78,0.3c0.61,0.28,0.67,0.48,0.94,0.44
		c0.14-0.02,0.13-0.07,0.49-0.3c0.14-0.09,0.26-0.16,0.36-0.22c0.16-0.12,0.35-0.19,0.55-0.18c0.05,0.01,0.1,0.03,0.15,0.06
		l0.02,0.01c0.04,0.03,0.07,0.06,0.1,0.09c0.04,0.04,0.07,0.08,0.11,0.11l0.01,0.01c0.04,0.03,0.08,0.06,0.12,0.07
		c0.03,0.01,0.06,0.01,0.09,0.01c0.18,0,0.21-0.12,0.4-0.12c0.22,0.04,0.41,0.18,0.53,0.36c0.24,0.29,0.24,0.5,0.45,0.56
		c0.06,0.02,0.06,0,0.23,0c0.49,0,0.63,0.1,0.76,0c0.12-0.1,0.04-0.22,0.15-0.3c0.16-0.11,0.44,0.04,0.45,0.05
		c0.17,0.1,0.29,0.27,0.34,0.46c0.07,0.3-0.11,0.5,0,0.6c0.08,0.08,0.2-0.03,0.4,0.04c0.2,0.07,0.26,0.27,0.39,0.25
		c0.13-0.02,0.14-0.18,0.24-0.18c0.09,0,0.15,0.09,0.21,0.16c0.28,0.33,0.65,0.14,0.91,0.44c0.18,0.21,0.07,0.38,0.26,0.5
		c0.19,0.12,0.41,0,0.49,0.12c0.09,0.12-0.09,0.3,0.01,0.5c0.05,0.1,0.1,0.07,0.21,0.18c0.22,0.23,0.09,0.42,0.3,0.69
		c0.12,0.15,0.24,0.19,0.22,0.29c-0.02,0.1-0.16,0.1-0.18,0.18c-0.04,0.19,0.64,0.41,0.61,0.63c-0.02,0.14-0.31,0.15-0.33,0.32
		c-0.02,0.13,0.14,0.19,0.27,0.39c0.18,0.3,0,0.49,0.12,0.73c0.35,0.45,0.96,0.6,1.48,0.36c0.26-0.14,0.39-0.39,0.49-0.35
		c0.11,0.05-0.07,0.44,0.11,0.58c0.17,0.14,0.51-0.09,0.62,0.05c0.05,0.07,0,0.14,0.06,0.22s0.19,0.04,0.32,0.08
		c0.33,0.1,0.27,0.68,0.58,0.77c0.11,0.03,0.14-0.04,0.3,0.01c0.21,0.06,0.23,0.21,0.35,0.21c0.18,0,0.24-0.38,0.4-0.37
		c0.1,0,0.09,0.18,0.26,0.28c0.2,0.12,0.38-0.04,0.52,0.08c0.09,0.08,0.02,0.17,0.11,0.33c0.12,0.24,0.35,0.19,0.45,0.38
		c0.11,0.22-0.14,0.4-0.04,0.64c0.07,0.17,0.22,0.17,0.47,0.34c0.04,0.03,0.66,0.45,0.65,0.89c-0.02,0.42-0.6,0.54-0.55,0.9
		c0.02,0.12,0.15,0.23,0.42,0.44c0.36,0.29,0.88,0.69,1.12,0.54c0.12-0.07,0.11-0.24,0.24-0.27c0.11-0.02,0.17,0.07,0.31,0.05
		c0.11-0.02,0.14-0.1,0.22-0.13c0.22-0.11,0.69,0.23,0.94,0.61c0.02,0.04,0.44,0.71,0.19,1.13c-0.05,0.09-0.15,0.18-0.12,0.3
		c0.04,0.15,0.26,0.2,0.24,0.29c-0.01,0.05-0.08,0.08-0.1,0.08c-0.46,0.33-0.68,0.91-0.55,1.47c0.14,0.44,0.54,0.74,1,0.74
		c0.24-0.05,0.29-0.29,0.48-0.28c0.32,0.03,0.38,0.73,0.68,0.74c0.14,0.01,0.15-0.15,0.43-0.29c0.27-0.16,0.6-0.18,0.88-0.06
		c0.11,0.08,0.15,0.19,0.24,0.18c0.09-0.01,0.1-0.11,0.22-0.16c0.15-0.06,0.25,0.08,0.42,0.07c0.27-0.02,0.29-0.38,0.58-0.46
		c0.19-0.05,0.25,0.1,0.66,0.21c0.51,0.15,0.63-0.04,0.95,0.12c0.37,0.19,0.37,0.53,0.62,0.53s0.29-0.33,0.61-0.36
		s0.44,0.24,0.65,0.16c0.16-0.06,0.16-0.25,0.28-0.5c0.21-0.49,0.67-0.84,1.2-0.9c0.44,0.02,0.57,0.47,0.84,0.4
		c0.27-0.08,0.15-0.58,0.6-1.09c0.07-0.08,0.44-0.5,0.85-0.45c0.26,0.03,0.26,0.22,0.59,0.34c0.49,0.18,0.79-0.14,1.07,0.07
		c0.23,0.17,0.12,0.47,0.35,0.57s0.45-0.2,0.66-0.1c0.27,0.12,0.14,0.7,0.38,0.78c0.18,0.06,0.31-0.23,0.64-0.2
		c0.2,0.02,0.23,0.13,0.43,0.12s0.21-0.11,0.46-0.21c0.36-0.15,0.55-0.02,0.69-0.18c0.14-0.16,0.01-0.35,0.13-0.44
		c0.18-0.14,0.59,0.23,0.73,0.11c0.11-0.09-0.12-0.36-0.03-0.63c0.11-0.31,0.59-0.4,0.68-0.42c0.27-0.05,0.77,0.2,1.77,0.7
		c0.45,0.23,0.73,0.36,0.8,0.64c0.05,0.17-0.03,0.26,0.04,0.46c0.12,0.33,0.47,0.58,0.62,0.51c0.12-0.06,0.02-0.3,0.18-0.42
		c0.2-0.16,0.61,0.05,0.65,0.07c0.18,0.09,0.32,0.24,0.42,0.42l0.42-0.09l0.53,0.1l-0.24,0.57l0.59-0.05l0.4,0.56l0.36-0.14
		l0.45,0.51l0.11-0.22l0.33,0.11l0.27,0.52l0.08,0.23l2.09-12.41l-0.92-0.73l0.08-1.06l-1.61-1.39c0.14-0.33,0.2-0.7,0.16-1.06
		c-0.03-0.28-0.16-0.81-1.08-1.67c-0.73-0.68-1.58-1.23-2.51-1.61l-0.04-6.29c0.23,0.07,0.46,0.11,0.7,0.1
		c0.36-0.01,0.71-0.1,1.02-0.28c0.26-0.15,0.21-0.2,0.38-0.29c0.61-0.3,1.12,0.3,1.63,0.03c0.31-0.17,0.24-0.45,0.62-0.61
		c0.22-0.11,0.49-0.1,0.7,0.04c0.16,0.15,0.04,0.34,0.2,0.51c0.2,0.15,0.46,0.19,0.7,0.1c0.49-0.15,0.57-0.66,0.94-0.66
		c0.22,0,0.36,0.17,0.41,0.12c0.07-0.08-0.39-0.43-0.36-0.86c0.02-0.44,0.49-0.52,0.45-0.85c-0.03-0.31-0.45-0.29-0.86-0.81
		c-0.32-0.41-0.19-0.58-0.45-0.78c-0.49-0.37-1.31-0.07-1.49,0c-0.59,0.24-0.65,0.55-1,0.51c-0.45-0.04-0.56-0.58-0.98-0.55
		c-0.29,0.02-0.37,0.26-0.67,0.25c-0.22-0.02-0.41-0.13-0.55-0.31l-0.14-5.05c0.12-0.06,0.25-0.09,0.38-0.08
		c0.36,0.02,0.43,0.3,0.72,0.36c0.43,0.1,0.65-0.45,1.2-0.49c0.3,0,0.59,0.11,0.81,0.31h10.89c0.01-0.15-0.02-0.3-0.08-0.45
		c-0.17-0.39-0.52-0.41-0.86-0.9c-0.12-0.18-0.19-0.29-0.17-0.42c0.07-0.31,0.69-0.56,1.14-0.39c0.43,0.16,0.36,0.58,0.8,0.87
		c0.47,0.24,1.02,0.26,1.51,0.06c0.81-0.33,0.82-1.05,1.69-1.8c0.44-0.37,0.95-0.64,1.5-0.8l2.93,4.1
		c-0.11,0.39-0.19,0.72-0.25,0.94c-0.3,1.16-0.35,1.35-0.26,1.62c0.14,0.41,0.47,0.73,0.89,0.85c0.04,0.01,0.08,0.02,0.11,0.02l0,0
		c0.07,0.01,0.14,0.01,0.21,0l0,0c0.08-0.01,0.16-0.03,0.23-0.06l0.13-0.04l0.03-0.01c0.07-0.02,0.14-0.03,0.22-0.04
		c0.68-0.05,0.9,0.49,1.7,1c0.8-0.7,1.68-1.32,2.62-1.82c0.57-0.11,0.93-0.03,1.05-0.24C277.38,218.57,277.37,218.54,277.35,218.31z
		"/>
</g>
<g id="Group_24" transform="translate(73.569 158.091)">
	<path id="Path_100" class="st2" d="M170.89,141.32c-0.32,0.11-0.65,0.17-0.98,0.16c-0.58,0.01-1.14-0.13-1.65-0.41
		c-0.46-0.26-0.84-0.65-1.09-1.11c-0.26-0.47-0.39-1-0.38-1.54c-0.01-0.56,0.12-1.12,0.39-1.62c0.25-0.47,0.62-0.86,1.07-1.13
		c0.47-0.28,1.01-0.42,1.55-0.41c0.32,0,0.65,0.04,0.96,0.13c0.28,0.08,0.55,0.2,0.8,0.35l-0.33,0.77c-0.41-0.3-0.9-0.46-1.41-0.47
		c-0.39,0-0.77,0.11-1.09,0.31c-0.34,0.21-0.61,0.5-0.8,0.85c-0.2,0.36-0.3,0.76-0.3,1.17c-0.01,0.41,0.09,0.82,0.27,1.19
		c0.18,0.35,0.45,0.63,0.78,0.83c0.82,0.45,1.84,0.39,2.6-0.16l0.35,0.73C171.4,141.11,171.15,141.23,170.89,141.32z"/>
	<path id="Path_101" class="st2" d="M172.76,138.7c0.16-0.28,0.4-0.51,0.69-0.67c0.31-0.17,0.65-0.25,1-0.24
		c0.35-0.01,0.69,0.08,0.99,0.24c0.28,0.16,0.51,0.39,0.67,0.66c0.16,0.29,0.25,0.61,0.24,0.94c0,0.33-0.08,0.66-0.24,0.95
		c-0.16,0.28-0.39,0.51-0.68,0.67c-0.31,0.17-0.65,0.25-1,0.24c-0.34,0.01-0.68-0.07-0.99-0.23c-0.29-0.15-0.52-0.37-0.69-0.65
		c-0.17-0.3-0.25-0.63-0.24-0.97C172.51,139.32,172.59,138.99,172.76,138.7z M173.45,140.26c0.09,0.18,0.23,0.33,0.4,0.44
		c0.45,0.27,1.02,0.19,1.38-0.19c0.21-0.23,0.33-0.54,0.32-0.86c0.01-0.32-0.11-0.63-0.32-0.86c-0.21-0.23-0.5-0.36-0.81-0.35
		c-0.2,0-0.4,0.05-0.57,0.16c-0.17,0.11-0.31,0.26-0.4,0.44C173.25,139.42,173.25,139.88,173.45,140.26L173.45,140.26z"/>
	<path id="Path_102" class="st2" d="M178.19,134.89v6.52h-0.78v-6.52H178.19z"/>
	<path id="Path_103" class="st2" d="M179.5,138.7c0.16-0.28,0.4-0.51,0.69-0.67c0.31-0.17,0.65-0.25,1-0.24
		c0.35-0.01,0.69,0.08,0.99,0.24c0.28,0.16,0.51,0.39,0.67,0.66c0.16,0.29,0.25,0.61,0.24,0.94c0,0.33-0.08,0.66-0.24,0.95
		c-0.16,0.28-0.39,0.51-0.68,0.67c-0.31,0.17-0.65,0.25-1,0.24c-0.34,0.01-0.68-0.07-0.99-0.23c-0.29-0.15-0.52-0.37-0.69-0.65
		c-0.17-0.3-0.25-0.63-0.24-0.97C179.25,139.32,179.33,138.99,179.5,138.7z M180.19,140.26c0.09,0.18,0.23,0.33,0.4,0.44
		c0.45,0.27,1.02,0.19,1.38-0.19c0.21-0.23,0.33-0.54,0.32-0.86c0.01-0.32-0.11-0.63-0.32-0.86c-0.21-0.23-0.5-0.36-0.81-0.35
		c-0.2,0-0.4,0.05-0.57,0.16c-0.17,0.11-0.31,0.26-0.4,0.44C179.99,139.42,179.99,139.88,180.19,140.26z"/>
	<path id="Path_104" class="st2" d="M189.41,138.08c0.2,0.2,0.32,0.47,0.32,0.76v2.59h-0.78v-2.3c-0.02-0.41-0.2-0.63-0.56-0.65
		c-0.2,0-0.39,0.06-0.54,0.18c-0.16,0.12-0.29,0.29-0.37,0.48c-0.09,0.2-0.14,0.41-0.14,0.63v1.66h-0.79v-2.3
		c-0.02-0.41-0.21-0.63-0.57-0.65c-0.19,0-0.38,0.06-0.54,0.18c-0.16,0.13-0.29,0.29-0.37,0.49c-0.09,0.2-0.14,0.42-0.13,0.64v1.65
		h-0.78v-3.5h0.71l0.06,0.66c0.13-0.24,0.32-0.45,0.55-0.59c0.24-0.14,0.52-0.22,0.8-0.21c0.25-0.01,0.5,0.06,0.71,0.2
		c0.19,0.13,0.32,0.32,0.37,0.54c0.14-0.22,0.33-0.41,0.56-0.54c0.22-0.13,0.47-0.2,0.73-0.2
		C188.91,137.78,189.19,137.88,189.41,138.08z"/>
	<path id="Path_105" class="st2" d="M194.18,138.02c0.26,0.15,0.48,0.37,0.62,0.64c0.16,0.3,0.24,0.63,0.23,0.96
		c0.01,0.35-0.08,0.7-0.24,1c-0.15,0.28-0.38,0.5-0.66,0.66c-0.28,0.15-0.59,0.23-0.91,0.23c-0.27,0-0.54-0.05-0.78-0.17
		c-0.22-0.1-0.42-0.26-0.57-0.45v0.54h-0.78v-6.52h0.78v3.5c0.16-0.2,0.37-0.35,0.61-0.44c0.27-0.11,0.56-0.17,0.85-0.16
		C193.63,137.79,193.92,137.87,194.18,138.02z M193.89,140.48c0.37-0.41,0.44-1,0.18-1.48c-0.1-0.18-0.25-0.33-0.42-0.43
		c-0.18-0.11-0.39-0.16-0.6-0.16c-0.27-0.01-0.53,0.08-0.75,0.23c-0.21,0.15-0.36,0.36-0.43,0.61v0.71
		c0.07,0.25,0.21,0.47,0.42,0.62c0.22,0.16,0.48,0.25,0.76,0.24C193.36,140.83,193.67,140.71,193.89,140.48L193.89,140.48z"/>
	<path id="Path_106" class="st2" d="M196.16,136.37c0.09-0.08,0.21-0.12,0.33-0.12s0.24,0.04,0.32,0.12
		c0.17,0.16,0.19,0.42,0.03,0.59c-0.01,0.01-0.02,0.02-0.03,0.03c-0.09,0.08-0.2,0.12-0.32,0.12c-0.12,0-0.24-0.04-0.33-0.12
		c-0.17-0.15-0.19-0.41-0.05-0.58C196.13,136.4,196.15,136.39,196.16,136.37z M196.86,137.94v3.49h-0.78v-3.49H196.86z"/>
	<path id="Path_107" class="st2" d="M201.8,137.93v3.49h-0.78v-0.57c-0.15,0.18-0.33,0.34-0.54,0.45c-0.24,0.14-0.52,0.21-0.8,0.21
		c-0.31,0-0.62-0.07-0.9-0.21c-0.27-0.14-0.49-0.36-0.63-0.63c-0.31-0.63-0.31-1.36,0.01-1.98c0.15-0.27,0.38-0.5,0.65-0.66
		c0.28-0.16,0.59-0.24,0.91-0.23c0.27-0.01,0.54,0.06,0.77,0.19c0.21,0.12,0.4,0.3,0.53,0.5l0.06-0.56H201.8z M200.63,140.62
		c0.21-0.16,0.35-0.39,0.39-0.65v-0.69c-0.06-0.25-0.21-0.46-0.42-0.61c-0.21-0.15-0.47-0.23-0.73-0.23c-0.2,0-0.4,0.05-0.58,0.15
		c-0.18,0.1-0.32,0.25-0.42,0.42c-0.11,0.19-0.16,0.4-0.16,0.62c0,0.43,0.22,0.83,0.59,1.06c0.18,0.11,0.38,0.17,0.59,0.16
		C200.16,140.86,200.42,140.77,200.63,140.62z"/>
</g>
<g id="Group_36" transform="translate(62.388 166.705)">
	<path id="Path_174" class="st3" d="M173.62,136.73c-5.09,0-9.22,4.13-9.22,9.22c0,5.09,4.13,9.22,9.22,9.22s9.22-4.13,9.22-9.22
		l0,0C182.84,140.86,178.71,136.73,173.62,136.73z M173.62,152.88c-3.83,0-6.93-3.1-6.93-6.93s3.1-6.93,6.93-6.93
		c3.83,0,6.93,3.1,6.93,6.93S177.45,152.88,173.62,152.88L173.62,152.88z"/>
	<circle id="Ellipse_2" class="st3" cx="173.62" cy="145.95" r="5.51"/>
</g>
</svg>
