<?xml version="1.0" encoding="utf-8"?>
<!-- Generator: Adobe Illustrator 24.0.3, SVG Export Plug-In . SVG Version: 6.00 Build 0)  -->
<svg version="1.1" id="Layer_1" xmlns="http://www.w3.org/2000/svg" xmlns:xlink="http://www.w3.org/1999/xlink" x="0px" y="0px"
	 viewBox="0 0 576 576" style="enable-background:new 0 0 576 576;" xml:space="preserve">
<style type="text/css">
	.st0{fill:#DDDDDD;}
	.st1{fill:#66AAC4;stroke:#FFFFFF;stroke-width:2.336;stroke-miterlimit:10;}
	.st2{opacity:0.36;fill:#CCCCCB;stroke:#FFFFFF;stroke-width:3.249;stroke-miterlimit:10;enable-background:new    ;}
	.st3{fill:#DAA764;}
	.st4{fill:#191919;}
	.st5{fill:#C87854;}
</style>
<path id="Path_59" class="st0" d="M282.03,217.72c-0.03-0.16-0.06-0.31-0.1-0.48c-0.05-0.19-0.07-0.39-0.04-0.59
	c0.02-0.13,0.06-0.26,0.11-0.38l-0.02-0.2v-0.01c-0.11-0.21-0.49-0.3-0.83-0.39c-0.22-0.06-0.31-0.05-0.7-0.15
	c-0.12-0.03-0.24-0.06-0.36-0.1c-0.5-0.28,0.05-1.41-0.52-2.05c-0.31-0.3-0.7-0.51-1.12-0.59c-0.21-0.04-0.42-0.05-0.44-0.14
	c-0.04-0.14,0.39-0.24,0.59-0.62c0.12-0.29,0.13-0.62,0.02-0.91c-0.18-0.46-0.51-0.85-0.92-1.12c-0.28-0.21-0.36-0.22-0.4-0.35
	c-0.08-0.29,0.27-0.63,0.95-1.25c0.53-0.42,1.04-0.88,1.52-1.36c0.7-0.88,0.48-1.35,1.15-1.81c0.35-0.24,0.75-0.34,0.78-0.64
	c0.03-0.28-0.29-0.47-0.21-0.61c0.08-0.15,0.35-0.04,0.92-0.1c0.34-0.04,0.55-0.06,0.58-0.17c0.09-0.25-0.82-0.7-0.73-0.93
	s1.18,0.09,1.44-0.36c0.06-0.1,0.08-0.26,0.22-0.32c0.16-0.07,0.31,0.05,0.36-0.01c0.06-0.08-0.17-0.31-0.12-0.4
	c0.05-0.09,0.38,0.14,0.58,0.02c0.15-0.14,0.19-0.36,0.09-0.54c-0.09-0.16-0.24-0.08-0.6-0.29c-0.21-0.12-0.26-0.21-0.43-0.24
	c-0.17-0.02-0.21,0.06-0.36,0.06c-0.25-0.01-0.42-0.23-0.71-0.61c-0.19-0.24-0.33-0.43-0.27-0.54c0.06-0.11,0.2-0.02,0.4-0.15
	c0.14-0.09,0.14-0.18,0.27-0.27c0.21-0.15,0.39,0.01,0.5-0.11c0.13-0.22,0.06-0.5-0.15-0.65c-0.12-0.08-0.28-0.09-0.41-0.02
	c-0.17,0.09-0.17,0.29-0.26,0.29c-0.11,0-0.13-0.28-0.28-0.32s-0.21,0.19-0.46,0.28s-0.57,0.01-0.64-0.15
	c-0.06-0.14,0.13-0.24,0.08-0.42c-0.06-0.22-0.38-0.17-0.53-0.45c-0.1-0.18,0-0.27-0.1-0.38c-0.18-0.21-0.61,0-0.68-0.15
	c-0.06-0.12,0.15-0.32,0.1-0.39c-0.06-0.07-0.25,0.11-0.53,0.09c-0.28-0.04-0.52-0.22-0.62-0.49c-0.08-0.21,0.03-0.27-0.04-0.45
	c-0.15-0.36-0.7-0.31-0.74-0.55c-0.04-0.2,0.32-0.46,0.53-0.57c0.28-0.15,0.45-0.11,0.54-0.26s-0.07-0.28-0.06-0.53
	c0.02-0.5,0.67-0.64,0.64-1.01c-0.01-0.12-0.09-0.16-0.61-0.59c-0.28-0.2-0.54-0.44-0.77-0.69c-0.15-0.23-0.11-0.32-0.27-1.17
	c-0.19-1.03-0.29-1.11-0.18-1.31c0.23-0.45,0.85-0.34,0.99-0.8c0.09-0.29-0.12-0.45,0-0.65c0.21-0.35,0.96-0.04,1.14-0.36
	c0.15-0.26-0.31-0.55-0.21-0.95c0.13-0.48,0.86-0.36,1.08-0.93c0.15-0.39-0.08-0.74,0.14-0.93c0.15-0.13,0.29-0.01,0.46-0.14
	c0.28-0.31,0.32-0.77,0.09-1.12c-0.2-0.31-0.47-0.2-0.77-0.54c-0.2-0.24-0.32-0.54-0.32-0.86c0.02-0.67,0.71-0.85,0.65-1.3
	c-0.07-0.52-0.99-0.62-0.98-1.06c0.01-0.31,0.49-0.38,0.52-0.83c0.03-0.27-0.13-0.36-0.04-0.61c0.09-0.26,0.32-0.23,0.38-0.46
	c0.08-0.27-0.19-0.42-0.11-0.73c0.06-0.2,0.2-0.22,0.19-0.36c-0.01-0.23-0.37-0.29-0.37-0.49c0-0.16,0.24-0.17,0.38-0.38
	c0.1-0.15,0.11-0.33-0.09-1.24c-0.14-0.65-0.21-0.86-0.08-1c0.12-0.14,0.34-0.04,0.49-0.21c0.16-0.18,0-0.36,0.15-0.69
	c0.13-0.29,0.3-0.28,0.35-0.5c0.06-0.29-0.21-0.38-0.2-0.66c0.03-0.49,0.9-0.66,0.88-1.12c-0.01-0.07-0.03-0.14-0.07-0.2
	c-0.3-0.55-5.31-8.55-7.34-11.79c-0.18-0.01-0.38-0.02-0.59-0.04c-1.3-0.14-1.82-0.44-2.39-0.04c-0.49,0.34-0.46,0.8-1.07,1.1
	c-0.47,0.21-1,0.24-1.49,0.09c-0.66-0.22-0.68-0.65-1.24-0.73c-0.6-0.09-0.82,0.37-1.2,0.21c-0.48-0.2-0.54-1.13-0.58-1.81
	c-0.03-0.51-0.01-1.03,0.06-1.53c0.04-1.02,0.01-2.03-0.09-3.04c-0.13-2.06-0.3-3.11,0.21-3.6c0.17-0.13,0.29-0.32,0.33-0.53
	c0.04-0.35-0.25-0.49-0.28-0.83c-0.04-0.56,0.67-0.86,0.57-1.14c-0.08-0.24-0.71-0.34-1.25-0.17c-0.77,0.24-0.87,0.87-1.78,2.09
	c-0.73,1.02-1.65,1.87-2.72,2.52c-0.32,0.2-0.67,0.37-1.03,0.49c-1.14,0.35-1.7-0.04-2.97-0.08c-1.94-0.07-2.94,0.73-3.35,0.2
	c-0.31-0.4,0.17-0.97-0.24-1.48c-0.35-0.45-0.9-0.24-1.15-0.67c-0.27-0.46,0.24-0.91,0.08-1.42c-0.07-0.23-0.38-0.78-2.69-1.03
	c-2.58-0.27-4.05,0.22-4.25-0.26c-0.18-0.43,1.02-0.86,1.29-2.19c0.26-1.11-0.18-2.26-1.11-2.91c-0.49-0.23-0.69,0.05-1.21-0.26
	c-0.55-0.33-0.94-0.89-1.05-1.53c-0.05-0.33,0.03-0.42-0.08-0.59c-0.26-0.4-0.86-0.14-1.33-0.5c-0.39-0.29-0.2-0.62-0.53-1.25
	c-0.59-1.12-1.72-1.11-1.77-1.83c-0.04-0.51,0.51-0.65,0.43-1.08c-0.14-0.76-1.87-0.79-1.95-1.51c-0.04-0.38,0.42-0.6,0.31-1.06
	c-0.09-0.38-0.48-0.5-0.43-0.66c0.07-0.22,0.75,0.04,1.35-0.33c0.41-0.23,0.67-0.67,0.66-1.14c-0.1-0.55-0.9-0.61-0.94-1.11
	c-0.02-0.28,0.22-0.4,0.49-0.85c0.4-0.68,0.24-1.06,0.44-1.56c0.58-1.49,3.49-1.83,3.67-1.85c0.88-0.1,1.61,0.01,1.96-0.5
	c0.15-0.25,0.21-0.54,0.16-0.82c-0.12-1.25-1.47-1.4-1.96-2.81c-0.28-0.63-0.23-1.35,0.12-1.94c0.34-0.35,0.73-0.14,1.7-0.65
	c0.44-0.23,0.75-0.4,0.89-0.75c0.13-0.35-0.06-0.53,0.05-1.03c0.12-0.54,0.4-0.54,0.45-0.91c0.1-0.73-0.95-1.03-0.93-1.82
	c0.08-0.45,0.35-0.85,0.75-1.08c0.55-0.35,0.86-0.06,1.52-0.24c1.11-0.29,1.02-1.32,2.48-2.14c0.67-0.37,0.71-0.17,1.38-0.57
	c1.25-0.74,1-1.4,1.9-1.8c1.01-0.45,1.77,0.2,2.92-0.48c0.15-0.11,0.3-0.21,0.47-0.29c0.86-0.33,1.59,0.31,2.07-0.08
	c0.16-0.14,0.19-0.3,0.41-0.38c0.23-0.07,0.32,0.04,0.55,0.01c0.31-0.04,0.38-0.24,0.65-0.4c0.58-0.33,1.08,0.18,1.4-0.09
	c0.36-0.3-0.12-1.08,0.23-1.41s0.91,0.28,1.78,0.06c0.82-0.21,0.88-0.9,1.53-0.89c0.57,0.06,1.06,0.44,1.26,0.97
	c0.12,0.34,0,0.54,0.19,0.71c0.33,0.22,0.77,0.18,1.05-0.1c0.11-0.12,0.09-0.21,0.21-0.29c0.22-0.11,0.48-0.1,0.7,0.01l0.63-3.75
	l1.52-9l0.01-0.07l-0.07-0.22l-0.27-0.52l-0.33-0.11l-0.11,0.22l-0.45-0.51l-0.36,0.14l-0.4-0.56l-0.59,0.05l0.24-0.57l-0.53-0.1
	l-0.42,0.09c-0.09-0.18-0.24-0.32-0.42-0.42c-0.04-0.02-0.44-0.23-0.65-0.07c-0.16,0.12-0.05,0.36-0.18,0.42
	c-0.15,0.07-0.5-0.18-0.62-0.51c-0.07-0.2,0-0.28-0.04-0.46c-0.07-0.28-0.34-0.42-0.8-0.64c-1-0.5-1.5-0.74-1.77-0.7
	c-0.08,0.01-0.56,0.11-0.68,0.42c-0.1,0.27,0.14,0.54,0.03,0.63c-0.13,0.12-0.54-0.24-0.73-0.11c-0.12,0.09,0.01,0.29-0.13,0.44
	c-0.14,0.16-0.32,0.03-0.69,0.18c-0.25,0.1-0.28,0.21-0.46,0.21s-0.23-0.11-0.43-0.12c-0.33-0.03-0.46,0.26-0.64,0.2
	c-0.24-0.08-0.11-0.66-0.38-0.78c-0.22-0.1-0.43,0.21-0.66,0.1s-0.12-0.39-0.35-0.57c-0.28-0.21-0.58,0.1-1.07-0.07
	c-0.33-0.12-0.32-0.31-0.59-0.34c-0.41-0.05-0.78,0.37-0.85,0.45c-0.45,0.51-0.32,1.01-0.6,1.09s-0.4-0.38-0.84-0.4
	c-0.53,0.06-0.99,0.41-1.2,0.9c-0.11,0.24-0.12,0.44-0.28,0.5c-0.21,0.08-0.36-0.2-0.65-0.16s-0.36,0.37-0.61,0.36
	c-0.24-0.01-0.24-0.34-0.62-0.53c-0.32-0.16-0.43,0.02-0.95-0.12c-0.4-0.12-0.46-0.27-0.66-0.21c-0.29,0.08-0.31,0.44-0.58,0.46
	c-0.17,0.01-0.27-0.14-0.42-0.07c-0.11,0.05-0.12,0.15-0.22,0.16c-0.09,0.01-0.13-0.1-0.24-0.18c-0.29-0.13-0.62-0.1-0.88,0.06
	c-0.29,0.15-0.29,0.3-0.43,0.29c-0.3-0.02-0.36-0.71-0.68-0.74c-0.19-0.02-0.23,0.22-0.48,0.28c-0.46,0-0.86-0.3-1-0.74
	c-0.13-0.56,0.09-1.13,0.55-1.47c0.02-0.01,0.09-0.03,0.1-0.08c0.02-0.09-0.2-0.14-0.24-0.29c-0.03-0.11,0.06-0.21,0.12-0.3
	c0.25-0.42-0.17-1.09-0.19-1.13c-0.24-0.38-0.72-0.72-0.94-0.61c-0.07,0.04-0.1,0.11-0.22,0.13c-0.14,0.02-0.2-0.07-0.31-0.05
	c-0.14,0.03-0.12,0.19-0.24,0.27c-0.24,0.15-0.76-0.26-1.12-0.54c-0.27-0.21-0.4-0.32-0.42-0.44c-0.04-0.35,0.54-0.49,0.56-0.9
	c0.02-0.44-0.61-0.86-0.65-0.89c-0.25-0.16-0.41-0.17-0.47-0.34c-0.1-0.24,0.16-0.42,0.04-0.64c-0.09-0.19-0.32-0.14-0.45-0.38
	c-0.08-0.16-0.02-0.24-0.11-0.33c-0.13-0.12-0.32,0.04-0.52-0.08c-0.17-0.1-0.16-0.27-0.26-0.28c-0.15-0.01-0.21,0.36-0.4,0.37
	c-0.12,0-0.14-0.15-0.35-0.21c-0.15-0.05-0.18,0.02-0.3-0.01c-0.31-0.09-0.25-0.66-0.58-0.77c-0.13-0.04-0.24,0.01-0.32-0.08
	s-0.01-0.16-0.06-0.22c-0.11-0.14-0.46,0.08-0.62-0.05c-0.17-0.13,0.01-0.52-0.11-0.58c-0.09-0.04-0.22,0.21-0.49,0.35
	c-0.52,0.24-1.13,0.09-1.48-0.36c-0.12-0.24,0.06-0.43-0.12-0.73c-0.12-0.2-0.28-0.26-0.27-0.39c0.02-0.17,0.31-0.17,0.33-0.32
	c0.03-0.23-0.66-0.45-0.61-0.63c0.02-0.08,0.16-0.08,0.18-0.18s-0.11-0.14-0.22-0.29c-0.21-0.27-0.08-0.46-0.3-0.69
	c-0.11-0.11-0.16-0.09-0.21-0.18c-0.1-0.2,0.08-0.37-0.01-0.5c-0.09-0.12-0.3,0-0.49-0.12s-0.08-0.29-0.26-0.5
	c-0.26-0.3-0.63-0.11-0.91-0.44c-0.06-0.07-0.12-0.16-0.21-0.16c-0.11,0-0.13,0.16-0.24,0.18s-0.17-0.17-0.39-0.25
	s-0.32,0.04-0.4-0.04c-0.11-0.1,0.07-0.3,0-0.6c-0.05-0.19-0.17-0.36-0.34-0.46c-0.02-0.01-0.29-0.16-0.45-0.05
	c-0.12,0.08-0.04,0.21-0.15,0.3s-0.27,0-0.76,0c-0.17,0-0.17,0.01-0.23,0c-0.21-0.06-0.21-0.27-0.45-0.56
	c-0.12-0.19-0.31-0.32-0.53-0.36c-0.19-0.01-0.22,0.12-0.4,0.11c-0.03,0-0.06-0.01-0.09-0.01c-0.2-0.06-0.26-0.31-0.51-0.36
	c-0.2-0.01-0.39,0.05-0.55,0.18l0.99,1.59l1.41,0.77l0.11,0.77l-0.39,0.8l0.85,1.92l-0.95,0.2l-0.7-0.44l-1.36,5.3l-3.62,4.84
	l-4.65,4.16l-10.52,4.15l-2.47,3.22l0.35,0.9l-0.59,0.35l-0.34-0.78l-0.68-0.13l-0.42,1.14l-0.18,2.25l-1.74,4.26l0.62,1.05
	l-0.81,1.77c-0.28,0.08-0.54,0.2-0.78,0.37c-0.38,0.21-0.67,0.56-0.81,0.97c-0.1,0.48,0.19,0.77,0,0.99
	c-0.17,0.19-0.42,0.02-0.64,0.21c-0.3,0.27-0.09,0.87-0.24,0.92c-0.09,0.03-0.16-0.16-0.35-0.3c-0.45-0.32-0.99,0.09-1.68-0.05
	c-0.37-0.1-0.7-0.3-0.95-0.58c-0.51-0.56-0.88-1.24-1.08-1.97c-0.36-0.94-0.36-1.19-0.67-1.36c-0.44-0.16-0.92-0.15-1.35,0.02
	c-0.53,0.16-0.54,0.35-0.85,0.35c-0.46,0.01-0.59-0.38-1.43-0.96c-0.53-0.36-1.04-0.71-1.54-0.57c-0.21,0.09-0.39,0.23-0.54,0.4
	c-0.86,0.79-0.94,1.21-1.38,1.27c-0.29,0.05-0.59-0.08-0.74-0.34c-0.04-0.14,0.05-0.27,0.29-0.62c0.63-0.91,0.72-1.04,0.67-1.14
	c-0.12-0.22-0.78,0.14-1.15-0.19c-0.34-0.3-0.16-0.95-0.15-1c0.1-0.34,0.38-0.78,0.69-0.77c0.22,0,0.28,0.24,0.54,0.24
	c0.2,0.01,0.34-0.13,0.57-0.34c0.56-0.52,0.84-0.79,0.86-0.83c0.25-0.43-0.08-1.34-0.76-3.15c-0.04-0.14-0.12-0.27-0.22-0.38
	c-0.04-0.03-0.08-0.06-0.13-0.07c-0.24-0.04-0.33,0.38-0.79,0.63c-0.58,0.31-0.83,0.18-1.28,0.45c-0.59,0.34-0.38,0.7-0.99,1.2
	c-0.68,0.56-1.2,0.34-1.52,0.87c-0.23,0.39,0,0.58-0.27,0.94c-0.31,0.43-0.76,0.34-0.98,0.75c-0.15,0.28,0,0.43-0.04,0.78
	c-0.12,0.92-1.36,0.9-1.84,2.01c-0.18,0.5-0.25,1.03-0.21,1.56c0.07,0.32,0.09,0.64,0.06,0.96c-0.13,0.67-0.61,0.77-0.58,1.15
	c0.04,0.45,0.7,0.49,1.56,1.24c0.58,0.5,1.18,1.27,0.99,1.59c-0.16,0.27-0.74,0.01-1.05,0.36c-0.3,0.35-0.07,0.96-0.04,1.03
	c0.32,0.87,1.19,0.78,2.17,1.65c0.78,0.69,1.56,1.91,1.22,2.82c-0.15,0.41-0.57,0.88-0.99,0.88c-0.36,0-0.5-0.35-0.94-0.35
	c-0.33,0-0.63,0.18-0.8,0.46c-0.24,0.47,0.2,1.1,0.44,1.43c0.95,1.11,2.21,1.91,3.61,2.31c0.53,0.21,1.33,0.49,2.92,1.04
	c1.65,0.57,2.59,0.87,3.32,1.79c0.34,0.43,0.16,0.4,0.56,0.93c1.06,1.43,2.06,1.26,2.5,2.36c0.23,0.56,0.09,0.91,0.5,1.36
	c0.23,0.26,0.49,0.38,0.59,0.74c0.09,0.31-0.04,0.45-0.02,0.71c0.05,0.57,0.75,0.69,1.36,1.27c0.88,0.83,0.41,1.51,1.33,2.5
	c0.41,0.44,0.4,0.19,1.39,0.95c0.9,0.51,1.59,1.33,1.93,2.31c0.1,0.46-0.06,0.47,0.07,0.81c0.36,0.97,1.63,1.04,1.65,1.68
	c0.01,0.36-0.39,0.46-0.34,0.84s0.5,0.42,0.91,0.91s0.19,0.7,0.54,1.36c0.49,0.91,0.99,0.65,1.38,1.48c0.26,0.56,0.15,0.92,0.6,1.53
	c0.19,0.27,0.25,0.24,0.38,0.47c0.36,0.63,0.01,0.98,0.24,1.51c0.31,0.71,1.16,0.59,1.32,1.25c0.09,0.36-0.16,0.43-0.05,0.86
	c0.11,0.49,0.44,0.52,0.64,1.1c0.14,0.42-0.01,0.47,0.14,0.79c0.22,0.46,0.6,0.45,0.86,0.89c0.14,0.27,0.21,0.58,0.19,0.89
	c0.06,0.9,0.77,1.23,2.12,2.83c0.56,0.69,1.07,1.42,1.53,2.18c0.61,0.94,0.89,1.51,0.69,2.02c-0.15,0.41-0.53,0.59-0.45,0.85
	c0.08,0.23,0.45,0.26,0.83,0.36c0.78,0.24,1.49,0.68,2.06,1.27c0.7,0.62,1.21,1.07,1.26,1.7c-0.01,0.31,0.04,0.62,0.12,0.92
	c0.12,0.39,0.24,0.41,0.28,0.69c0.08,0.54-0.28,0.76-0.13,1.04s0.58,0.14,0.88,0.49c0.24,0.27,0.09,0.48,0.23,0.82
	c0.34,0.85,1.67,0.59,2.12,1.48c0.19,0.37,0,0.5,0.26,0.95s0.47,0.4,0.86,0.89c0.39,0.5,0.24,0.62,0.64,1.1
	c0.39,0.48,0.62,0.44,0.81,0.81c0.29,0.54-0.09,0.81,0.06,1.37c0.24,0.85,1.23,0.73,2.17,1.95c0.27,0.33,0.48,0.71,0.62,1.12
	c0.24,0.75-0.02,0.87,0.16,2.16c0.07,0.5,0.14,0.75-0.02,1.01c-0.08,0.13-0.18,0.2-0.77,0.52c-0.77,0.42-0.88,0.47-0.88,0.57
	c-0.01,0.3,0.92,0.29,1.26,0.93c0.27,0.51,0,1.15,0.16,1.19c0.1,0.03,0.17-0.27,0.4-0.3c0.36-0.06,0.82,0.61,1.03,1.18
	c0.14,0.36,0.06,0.4,0.19,0.65c0.26,0.52,0.65,0.55,1.02,0.95c0.51,0.55,0.14,0.87,0.6,1.51c0.09,0.13,0.24,0.32,1.88,1.19
	c0.43,0.19,0.85,0.42,1.24,0.67c0.87,0.72,0.64,1.28,1.39,1.7c0.54,0.3,0.98,0.19,1.28,0.63c0.16,0.23,0.12,0.39,0.19,0.65
	c0.2,0.73,0.93,1.14,1.85,1.63c0.67,0.39,1.39,0.69,2.15,0.88c0.98,0.23,1.65,0.18,2.2,0.74c0.2,0.2,0.18,0.28,0.45,0.53
	c0.4,0.35,0.87,0.6,1.38,0.75c0.63,0.15,1.24,0.36,1.83,0.62c0.09,0.05,0.34,0.26,0.83,0.68c1.04,0.89,1.28,1.13,1.76,1.27
	c0.3,0.04,0.6,0.07,0.9,0.07c1.76,0.15,2.08,0.31,2.28,0.55c0.18,0.21,0.14,0.36,0.36,0.49c0.32,0.21,0.57-0.01,1.01,0.09
	c0.56,0.12,0.54,0.55,1.14,0.77c0.49,0.18,0.58-0.07,1.14,0.04c0.79,0.15,0.81,0.7,1.68,1.06c0.67,0.27,0.76-0.01,1.61,0.24
	c0.63,0.21,1.22,0.55,1.72,0.99c1.03,0.83,0.89,1.19,1.62,1.49c0.7,0.29,1.11,0.06,1.51,0.49c0.28,0.29,0.28,0.62,0.66,0.82
	c0.2,0.1,0.42,0.13,0.64,0.11c1.09,0,2.14,0.44,2.91,1.21c0.42,0.42,0.65,1,0.64,1.59c-0.06,0.56-0.41,0.81-0.26,1.09
	c0.18,0.34,0.77,0.11,1.43,0.53c0.35,0.23,0.35,0.4,0.66,0.72c0-0.08,0.02-0.16,0.05-0.23
	C272.31,216.95,281.24,217.51,282.03,217.72z"/>
<g id="Group_15" transform="translate(36.952 178.954)">
	<path id="Path_49" class="st1" d="M153.54-82.19c0.15,0.07,0.3,0.14,0.42,0.09c0.09-0.04,0.1-0.12,0.2-0.35
		c0.07-0.21,0.19-0.4,0.36-0.54c0.2-0.14,0.32-0.06,0.51-0.22c0.01-0.01,0.23-0.21,0.18-0.36c-0.04-0.12-0.21-0.1-0.49-0.21
		c-0.41-0.16-0.37-0.3-0.61-0.34c-0.24-0.03-0.26,0.13-0.86,0.31c-0.28,0.09-0.42,0.09-0.57,0.23c-0.1,0.1-0.18,0.21-0.24,0.34
		c-0.11,0.16-0.2,0.33-0.28,0.5c-0.15,0.41-0.17,0.85-0.07,1.28c0.01,0.17,0.07,0.33,0.18,0.45c0.18,0.18,0.5,0.22,0.58,0.11
		c0.05-0.06,0-0.16,0.06-0.2c0.06-0.03,0.09,0.02,0.16,0.04c0.14,0.01,0.28-0.04,0.39-0.14c0.18-0.12,0.33-0.21,0.32-0.32
		c-0.02-0.13-0.29-0.14-0.36-0.36c-0.02-0.06,0-0.07-0.02-0.12c-0.06-0.13-0.2-0.13-0.23-0.24c-0.01-0.03-0.02-0.1,0.01-0.12
		C153.23-82.4,153.33-82.28,153.54-82.19z"/>
	<path id="Path_50" class="st0" d="M190.13-106.01c-0.27,0.04-0.33-0.16-0.94-0.44c-0.3-0.14-0.66-0.26-0.78-0.3
		c-0.16-0.04-0.31-0.1-0.45-0.17c-0.36-0.19-0.33-0.35-0.55-0.43c-0.32-0.11-0.49,0.16-0.99,0.14c-0.21-0.01-0.42-0.07-0.61-0.15
		c-0.64-0.18-1.18-0.6-1.51-1.17c-0.13-0.31-0.08-0.52-0.3-0.71c-0.02-0.02-0.33-0.28-0.59-0.19c-0.11,0.04-0.15,0.11-0.24,0.09
		c-0.09-0.02-0.12-0.13-0.23-0.2c-0.15-0.09-0.27,0.01-0.47,0c-0.4-0.01-0.46-0.42-0.82-0.43c-0.22,0.02-0.43,0.13-0.57,0.3
		c-0.14,0.11-0.25,0.26-0.32,0.43c-0.09,0.28,0.06,0.37-0.01,0.57c-0.13,0.37-0.8,0.49-1.14,0.53c-0.2,0.04-0.41,0.05-0.61,0.03
		c-0.47-0.06-0.55-0.27-0.86-0.23s-0.34,0.28-0.71,0.33c-0.26,0.04-0.29-0.08-0.66-0.09c-0.44-0.01-0.5,0.15-0.85,0.1
		c-0.25-0.02-0.49-0.14-0.65-0.33c-0.12-0.19-0.04-0.3-0.18-0.45c-0.16-0.14-0.37-0.21-0.58-0.19c-0.39-0.01-0.51,0.15-0.81,0.19
		c-0.56,0.04-1.09-0.22-1.4-0.69c-0.22-0.34-0.31-0.75-0.24-1.15c0.04-0.21,0.12-0.36,0.03-0.49c-0.07-0.1-0.2-0.11-0.62-0.15
		c-0.75-0.06-0.83-0.09-0.92-0.14c-0.21-0.13-0.36-0.33-0.43-0.56c-0.05-0.21,0.02-0.33-0.08-0.45c-0.13-0.11-0.29-0.17-0.46-0.14
		c-0.34,0.03-0.36,0.28-0.7,0.36c-0.26,0.04-0.52-0.02-0.75-0.15c-0.28-0.14-0.25-0.23-0.49-0.33c-0.39-0.17-0.57,0.07-0.96-0.05
		c-0.39-0.12-0.28-0.35-0.85-0.73c-0.27-0.17-0.56-0.31-0.87-0.41c-0.22-0.04-0.44-0.11-0.64-0.21c-0.35-0.21-0.26-0.39-0.56-0.61
		c-0.49-0.35-1-0.07-1.26-0.43c-0.11-0.16-0.06-0.27-0.21-0.39c-0.15-0.12-0.33-0.07-0.56-0.14s-0.29-0.21-0.56-0.49
		c-0.18-0.19-0.38-0.37-0.6-0.53h-0.02c-0.5,0.09-0.81,0.15-1.06-0.01c-0.07-0.06-0.16-0.1-0.26-0.1c-0.12,0.02-0.24,0.08-0.31,0.18
		c-0.31,0.27-0.69,0.47-1.09,0.57c-0.34,0.16-0.71,0.23-1.08,0.21c-0.11-0.03-0.23-0.02-0.34,0.02c-0.14,0.06-0.17,0.15-0.35,0.37
		c-0.14,0.21-0.33,0.37-0.56,0.48c-0.16,0.06-0.16,0-0.34,0.05c-0.33,0.09-0.31,0.28-0.65,0.41c-0.16,0.08-0.33,0.11-0.51,0.08
		c-0.07-0.02-0.15-0.03-0.23-0.02c-0.04,0.01-0.08,0.02-0.12,0.04c-0.04,0.02-0.43,0.21-0.44,0.49c0,0.08,0.03,0.08,0.06,0.2
		c0.09,0.36-0.11,0.56,0.01,0.7c0.09,0.11,0.24,0.03,0.41,0.18c0.06,0.06,0.1,0.12,0.13,0.19c0.14,0.24,0.18,0.53,0.1,0.8
		c-0.08,0.2-0.21,0.18-0.23,0.35c-0.01,0.19,0.07,0.38,0.22,0.5c0.16,0.13,0.26,0.08,0.34,0.2c0.06,0.08,0.03,0.14,0.03,0.49
		c-0.01,0.14,0,0.28,0.04,0.42c0.08,0.17,0.18,0.15,0.26,0.33c0.02,0.05,0.11,0.24,0.01,0.36c-0.06,0.06-0.16,0.09-0.24,0.06
		c-0.07-0.03-0.13-0.09-0.16-0.16c-0.03-0.05-0.05-0.1-0.06-0.15c-0.05-0.24,0.05-0.36,0.02-0.6c-0.02-0.14-0.09-0.28-0.18-0.38
		c-0.01-0.02-0.19-0.2-0.27-0.15c-0.04,0.02-0.05,0.11,0.04,0.59c0.09,0.28,0.14,0.58,0.13,0.88c-0.03,0.22-0.08,0.16-0.14,0.46
		c-0.09,0.42,0,0.62-0.16,0.78c-0.09,0.09-0.16,0.07-0.24,0.17c-0.07,0.11-0.11,0.25-0.1,0.38c-0.03,0.35-0.38,0.36-0.98,0.99
		c-0.27,0.29-0.41,0.51-0.7,0.56c-0.08,0-0.16,0.01-0.24,0.03c-0.27,0.09-0.47,0.31-0.54,0.58c-0.03,0.14,0.02,0.16-0.02,0.28
		c-0.05,0.14-0.12,0.15-0.29,0.34c-0.19,0.22-0.17,0.32-0.32,0.39c-0.12,0.07-0.18,0.02-0.24,0.09c-0.1,0.11-0.05,0.35,0.04,0.51
		c0.13,0.23,0.29,0.21,0.36,0.41c0.06,0.16-0.03,0.19,0.03,0.41s0.18,0.28,0.16,0.43c-0.05,0.11-0.11,0.21-0.19,0.3
		c-0.16,0.23-0.19,0.24-0.2,0.32c-0.02,0.12,0.03,0.16,0,0.29c-0.02,0.07-0.06,0.14-0.11,0.19c-0.19,0.27-0.31,0.58-0.37,0.9
		c-0.09,0.37,0.02,0.35-0.06,0.6c-0.14,0.4-0.52,0.73-0.78,0.67c-0.09-0.02-0.08-0.07-0.21-0.1c-0.19-0.05-0.24,0.03-0.45,0.01
		c-0.2-0.02-0.25-0.1-0.36-0.05c-0.08,0.03-0.06,0.07-0.16,0.12c-0.09,0.06-0.21,0.08-0.31,0.06c-0.12-0.03-0.17-0.12-0.23-0.09
		s-0.05,0.09-0.07,0.16c-0.05,0.16-0.14,0.3-0.25,0.41c-0.16,0.2-0.24,0.19-0.31,0.34c-0.03,0.08-0.04,0.17-0.04,0.25
		c0.01,0.27,0.19,0.39,0.36,0.69c0.17,0.3,0.08,0.29,0.22,0.54c0.23,0.38,0.45,0.36,0.74,0.82c0.15,0.23,0.17,0.37,0.12,0.46
		c-0.05,0.09-0.14,0.1-0.14,0.17c0,0.08,0.07,0.09,0.07,0.16c0,0.08-0.06,0.1-0.11,0.19c-0.08,0.15,0.03,0.23-0.01,0.36
		c-0.06,0.19-0.3,0.13-0.4,0.33c-0.09,0.18,0.03,0.36-0.07,0.43c-0.06,0.04-0.12-0.02-0.19,0.02c-0.09,0.06-0.05,0.29,0,0.44
		c0.07,0.21,0.15,0.21,0.24,0.41c0.09,0.21,0.03,0.28,0.11,0.48c0.09,0.24,0.22,0.24,0.36,0.46c0.12,0.18,0.06,0.21,0.2,0.85
		c0.11,0.47,0.18,0.63,0.08,0.78c-0.08,0.11-0.19,0.12-0.21,0.24s0.11,0.18,0.17,0.33c0.04,0.19,0,0.38-0.1,0.54
		c-0.13,0.28-0.31,0.53-0.53,0.74c-0.3,0.29-0.59,0.56-0.88,0.5c-0.13-0.03-0.14-0.1-0.42-0.2c-0.16-0.06-0.42-0.14-0.45-0.09
		c-0.01,0.03,0.05,0.08,0.41,0.36c0.45,0.35,0.54,0.41,0.58,0.56c0.02,0.1,0.01,0.23,0.08,0.26c0.04,0.01,0.07-0.03,0.14-0.03
		c0.09,0,0.18,0.05,0.24,0.12c0.14,0.14,0.29,0.26,0.46,0.36c0.18,0.04,0.31-0.08,0.42,0.02c0.05,0.04,0.08,0.1,0.12,0.09
		c0.04-0.01,0.05-0.07,0.08-0.09c0.11-0.09,0.42,0.15,0.42,0.15c0.3,0.23,0.58,0.48,0.85,0.75c0.63,0.63,0.61,0.49,0.81,0.77
		c0.18,0.24,0.28,0.48,0.51,0.53c0.15,0.03,0.23-0.04,0.38,0.03c0.15,0.06,0.2,0.21,0.32,0.37c0.27,0.37,0.75,0.56,0.85,0.47
		c0.03-0.02,0.01-0.15-0.02-0.39c-0.03-0.25-0.05-0.31,0-0.38s0.09-0.05,0.21-0.17c0.12-0.12,0.09-0.17,0.19-0.23
		c0.12-0.08,0.22-0.03,0.28-0.11c0.03-0.04,0.02-0.08,0.03-0.13c0.04-0.16,0.25-0.24,0.33-0.27c0.43-0.27,0.71-0.71,0.78-1.21
		c0.04-0.26-0.01-0.46,0.12-0.54c0.13-0.08,0.29,0.03,0.36-0.07c0.07-0.09-0.02-0.23,0.05-0.27c0.03-0.02,0.05,0,0.1,0
		c0.2,0.02,0.3-0.16,0.39-0.11c0.06,0.05,0.08,0.13,0.05,0.2c-0.05,0.08-0.16,0.03-0.3,0.12c-0.14,0.09-0.1,0.18-0.24,0.26
		s-0.21,0.03-0.26,0.1c-0.05,0.08,0.01,0.14-0.02,0.28c-0.03,0.08-0.07,0.15-0.12,0.21c-0.12,0.18-0.14,0.41-0.05,0.61
		c0.02,0,0.02-0.08,0.11-0.16c0.09-0.08,0.24-0.16,0.32-0.11c0.04,0.03,0.03,0.07,0.09,0.15c0.03,0.04,0.12,0.13,0.16,0.12
		c0.04-0.01-0.01-0.18,0.09-0.31c0.05-0.07,0.13-0.11,0.22-0.1c0.08,0.03,0.12,0.13,0.1,0.16c-0.03,0.03-0.11-0.04-0.18,0
		c-0.11,0.05-0.03,0.27-0.16,0.4c-0.05,0.06-0.13,0.09-0.21,0.07c-0.08-0.04-0.05-0.18-0.14-0.23c-0.07-0.03-0.16-0.02-0.22,0.03
		c-0.08,0.09,0.02,0.23-0.06,0.32c-0.05,0.06-0.12,0.02-0.25,0.07c-0.17,0.07-0.33,0.24-0.29,0.38c0.02,0.08,0.11,0.12,0.21,0.18
		c0.14,0.07,0.18,0.04,0.3,0.11c0.12,0.06,0.11,0.12,0.21,0.19c0.15,0.1,0.39,0.15,0.49,0.05c0.11-0.11-0.08-0.35,0.04-0.48
		c0.09-0.1,0.25,0,0.35-0.11c0.07-0.07,0.04-0.17,0.04-0.31c0-0.3,0.12-0.3,0.19-0.66c0-0.26,0.02-0.53,0.05-0.79
		c0.01-0.05,0.07-0.3,0.12-0.3s0.07,0.45,0.05,0.78c-0.01,0.29-0.06,0.57-0.13,0.85c-0.17,0.6-0.41,0.81-0.3,0.96
		c0.13,0.12,0.34,0.13,0.48,0.02c0.06-0.06,0.05-0.12,0.07-0.27c0.01-0.26,0.09-0.52,0.24-0.74c0.02-0.02,0.18-0.21,0.31-0.17
		c0.04,0.01,0.09,0.05,0.09,0.1c0,0.12-0.31,0.11-0.43,0.33c-0.06,0.16-0.06,0.33,0,0.49c0.03,0.15,0.07,0.18,0.09,0.18
		c0.06,0.01,0.09-0.11,0.2-0.14c0.11-0.04,0.24,0.02,0.24,0.06c0,0.07-0.3,0.06-0.43,0.27c-0.04,0.07-0.06,0.16-0.05,0.24
		c-0.02,0.28-0.07,0.56-0.14,0.84c-0.12,0.59-0.36,0.54-0.37,0.96c-0.01,0.24,0.07,0.25,0.1,0.77c0.04,0.21-0.01,0.43-0.12,0.61
		c-0.02,0.03-0.09,0.12-0.17,0.1c-0.08-0.01-0.12-0.15-0.15-0.14s-0.04,0.17-0.03,0.52c0.01,0.27,0.02,0.4-0.06,0.45
		c-0.05,0.03-0.09-0.01-0.17,0.02c-0.12,0.04-0.16,0.17-0.24,0.31c-0.16,0.26-0.44,0.43-0.51,0.38c-0.08-0.05,0.04-0.28-0.03-0.32
		c-0.07-0.04-0.19,0.09-0.27,0.22c-0.05,0.1-0.09,0.2-0.11,0.31c-0.04,0.18-0.14,0.35-0.29,0.46c-0.14,0.08-0.19-0.01-0.4,0.09
		c-0.14,0.06-0.18,0.13-0.25,0.11c-0.1-0.03-0.1-0.21-0.18-0.22c-0.06-0.01-0.13,0.08-0.16,0.17c-0.04,0.18,0.15,0.34,0.11,0.37
		c-0.04,0.04-0.13-0.01-0.19-0.09c-0.08-0.12-0.01-0.24-0.09-0.31c-0.05-0.04-0.12-0.05-0.17-0.02c-0.06,0.06,0.07,0.23,0,0.33
		c-0.03,0.03-0.07,0.05-0.11,0.05c-0.09-0.02-0.07-0.22-0.12-0.23c-0.05-0.01-0.17,0.15-0.14,0.29c0.05,0.22,0.46,0.29,0.51,0.29
		c0.21,0.03,0.43,0.01,0.64-0.05c0.11-0.05,0.23-0.06,0.34-0.02c0.06,0.03,0.13,0.09,0.12,0.13c-0.02,0.08-0.3,0.11-0.54,0.07
		c-0.13-0.02-0.21-0.06-0.29-0.02c-0.02,0.01-0.04,0.04-0.14,0.18c-0.01,0.02-0.01,0.03-0.02,0.04c-0.1,0.03-0.2,0.07-0.29,0.11
		c0.1,0.11,0.18,0.24,0.22,0.38c0.68,1.81,1.02,2.72,0.76,3.15c-0.02,0.04-0.3,0.3-0.86,0.83c-0.22,0.21-0.36,0.34-0.57,0.34
		c-0.26-0.01-0.31-0.24-0.54-0.24c-0.31,0-0.6,0.43-0.69,0.77c-0.02,0.05-0.19,0.7,0.15,1c0.36,0.33,1.03-0.03,1.15,0.19
		c0.05,0.09-0.04,0.23-0.67,1.14c-0.24,0.35-0.33,0.48-0.29,0.62c0.15,0.26,0.45,0.39,0.74,0.34c0.44-0.06,0.52-0.49,1.38-1.27
		c0.15-0.17,0.33-0.31,0.54-0.4c0.49-0.14,1.01,0.2,1.54,0.57c0.85,0.58,0.98,0.97,1.43,0.96c0.31-0.01,0.32-0.19,0.85-0.35
		c0.43-0.17,0.91-0.18,1.35-0.02c0.31,0.17,0.31,0.41,0.67,1.36c0.2,0.73,0.57,1.41,1.08,1.97c0.25,0.28,0.58,0.49,0.95,0.58
		c0.69,0.14,1.23-0.28,1.68,0.05c0.19,0.14,0.26,0.33,0.35,0.3c0.16-0.05-0.06-0.65,0.24-0.92c0.22-0.19,0.47-0.03,0.64-0.21
		c0.2-0.22-0.1-0.51,0-0.99c0.14-0.41,0.43-0.76,0.81-0.97c0.24-0.17,0.5-0.29,0.78-0.37l0.81-1.77l-0.62-1.05l1.74-4.26l0.18-2.25
		l0.42-1.14l0.68,0.13l0.34,0.78l0.59-0.35l-0.35-0.9l2.47-3.22l10.52-4.15l4.65-4.16l3.62-4.84l1.36-5.3l0.7,0.44l0.95-0.2
		l-0.85-1.92l0.39-0.8l-0.11-0.77l-1.41-0.77l-0.99-1.59c-0.1,0.06-0.22,0.13-0.36,0.22C190.26-106.08,190.26-106.02,190.13-106.01z
		"/>
</g>
<g id="Group_16" transform="translate(158.097 310.843)">
	<path id="Path_54" class="st0" d="M232.34-47.18c0.01,0.11,0.01,0.22,0.01,0.33C232.35-46.96,232.35-47.07,232.34-47.18v-0.02
		c-0.01-0.11-0.03-0.22-0.06-0.33c-0.02-0.09-0.05-0.18-0.09-0.27l-0.04-0.08c-0.05-0.1-0.09-0.19-0.12-0.3
		c-0.07-0.19-0.1-0.4-0.08-0.61c0.04-0.22,0.1-0.44,0.18-0.64c0-0.03,0-0.06,0-0.09c0-0.06-0.01-0.12-0.03-0.17
		c0-0.02-0.01-0.03-0.02-0.05c-0.02-0.04-0.03-0.08-0.06-0.12c-0.01-0.02-0.02-0.03-0.03-0.05c-0.03-0.05-0.07-0.1-0.11-0.15
		c-0.05-0.05-0.1-0.11-0.16-0.15c-0.09-0.08-0.19-0.15-0.29-0.22c-0.06-0.04-0.13-0.08-0.19-0.12c-0.09-0.05-0.17-0.1-0.25-0.15
		c-0.18-0.1-0.38-0.21-0.59-0.32c-0.51-0.31-1.11-0.45-1.71-0.38c-0.11,0.03-0.21,0.07-0.31,0.12c-0.06,0.03-0.12,0.07-0.17,0.12
		c-0.09,0.08-0.16,0.17-0.22,0.28c-0.14,0.24-0.21,0.49-0.56,0.61c-0.1,0.04-0.21,0.06-0.32,0.05c-0.1-0.01-0.21-0.02-0.31-0.04
		c-0.05-0.01-0.11-0.02-0.17-0.03c-0.1-0.01-0.2-0.02-0.3-0.02c-0.13,0-0.26,0.01-0.38,0.04c-0.08,0.02-0.16,0.04-0.24,0.06
		c-0.05,0.02-0.1,0.03-0.13,0.05c-0.08,0.04-0.15,0.07-0.21,0.1c-0.05,0.02-0.1,0.04-0.16,0.04l0,0c-0.03,0-0.07,0-0.1,0
		c-0.18-0.02-0.34-0.08-0.49-0.19c-0.47-0.39-0.8-0.93-0.94-1.52c-0.05-0.18-0.07-0.36-0.08-0.54c0-0.06-0.01-0.12-0.01-0.19
		c0-0.01,0-0.02,0-0.03c-0.02-0.18-0.06-0.36-0.12-0.54c-0.02-0.08-0.05-0.14-0.07-0.2c-0.06-0.17-0.15-0.33-0.24-0.49
		c-0.06-0.1-0.11-0.21-0.14-0.33c-0.02-0.06-0.03-0.12-0.04-0.18c-0.01-0.11-0.01-0.22,0-0.33c0.1-0.41,0.26-0.81,0.47-1.19
		c0.13-0.29,0.18-0.6,0.17-0.92c0-0.12-0.02-0.24-0.05-0.35c-0.01-0.04-0.03-0.08-0.04-0.12c-0.1-0.19-0.22-0.37-0.34-0.55
		c-0.02-0.04-0.04-0.08-0.07-0.12l-0.03-0.07c-0.02-0.05-0.04-0.1-0.06-0.16c-0.01-0.03-0.02-0.05-0.03-0.08
		c-0.03-0.1-0.05-0.2-0.07-0.3c-0.04-0.23-0.06-0.47-0.05-0.71c0.01-0.13,0.02-0.27,0.04-0.4c0.02-0.12,0.05-0.24,0.08-0.35
		s0.05-0.21,0.08-0.32c0.07-0.23,0.08-0.48,0.03-0.71c-0.03-0.1-0.07-0.2-0.12-0.29c-0.07-0.12-0.16-0.22-0.26-0.31
		c-0.05-0.04-0.1-0.09-0.14-0.13c-0.14-0.11-0.27-0.24-0.38-0.39c-0.07-0.11-0.11-0.23-0.12-0.36c-0.01-0.1,0-0.2,0.03-0.3
		c0.03-0.1,0.04-0.21,0.04-0.32c-0.01-0.23-0.07-0.45-0.17-0.66c-0.07-0.14-0.15-0.27-0.25-0.39l-0.04-0.05
		c-0.06-0.07-0.1-0.12-0.15-0.16c-0.04-0.04-0.08-0.08-0.1-0.09c-0.19-0.17-0.42-0.28-0.67-0.33c-0.13-0.02-0.26-0.04-0.39-0.05
		c-0.09-0.01-0.17-0.01-0.26-0.03c-0.07-0.01-0.13-0.02-0.21-0.04c-0.24-0.05-0.47-0.16-0.67-0.3c-0.01-0.01-0.02-0.02-0.04-0.03
		c-0.12-0.09-0.24-0.2-0.33-0.32c-0.08-0.1-0.15-0.21-0.22-0.31c-0.05-0.08-0.11-0.16-0.18-0.23c-0.06-0.06-0.15-0.1-0.23-0.1
		c-0.07-0.01-0.14,0.01-0.2,0.03c-0.13,0.07-0.25,0.17-0.33,0.29c-0.11,0.13-0.22,0.29-0.35,0.45c-0.22,0.28-0.51,0.5-0.83,0.64
		c-0.06,0.03-0.13,0.05-0.2,0.06c-0.03,0.01-0.07,0.01-0.1,0.01h-0.12c-0.19,0-0.49-0.01-1.07,0.02c-0.65,0.03-1.08,0.08-1.39,0.11
		l-0.28,0.03c-0.08,0.01-0.15,0.01-0.22,0.02h-0.1h-0.09c-0.13-0.01-0.25-0.04-0.37-0.09c-0.16-0.06-0.31-0.14-0.44-0.24
		c-0.1-0.08-0.19-0.16-0.28-0.26c-0.14-0.16-0.33-0.28-0.54-0.35c-0.04-0.02-0.09-0.03-0.13-0.04c-0.08-0.02-0.16-0.03-0.24-0.03
		h-0.04c-0.16,0-0.32,0.02-0.47,0.07c-0.19,0.07-0.39,0.13-0.59,0.17c-0.15,0.02-0.3,0-0.43-0.06c-0.2-0.08-0.36-0.22-0.49-0.39
		c-0.04-0.05-0.07-0.1-0.11-0.15c-0.06-0.1-0.14-0.18-0.22-0.26l-0.01-0.01c-0.01-0.01-0.03-0.02-0.05-0.03
		c-0.05-0.03-0.1-0.06-0.16-0.08c-0.04-0.02-0.09-0.03-0.13-0.04c-0.11-0.02-0.22-0.01-0.32,0.04c-0.1,0.04-0.21,0.09-0.37,0.15
		c-0.14,0.04-0.28,0.07-0.42,0.09c-0.43,0.06-0.86,0.12-1.13-0.14c-0.06-0.06-0.11-0.13-0.15-0.21c-0.07-0.16-0.1-0.33-0.1-0.5
		c0-0.08,0.01-0.16,0.03-0.24c0.02-0.11,0.07-0.22,0.14-0.32c0.06-0.08,0.12-0.14,0.19-0.21c0.03-0.03,0.07-0.06,0.1-0.09
		c0.1-0.09,0.17-0.21,0.2-0.35c0.06-0.36-0.22-0.64-0.4-0.92c-0.05-0.08-0.09-0.17-0.12-0.26c-0.03-0.09-0.03-0.19,0-0.28
		c0.03-0.1,0.09-0.19,0.17-0.25c0.02-0.02,0.05-0.04,0.08-0.05c0.05-0.04,0.1-0.08,0.15-0.12c0.05-0.05,0.09-0.12,0.11-0.19
		c0.12-0.41-0.3-0.74-0.46-1.12c-0.02-0.05-0.04-0.11-0.05-0.17c-0.01-0.07-0.01-0.14,0-0.2c0.03-0.14,0.11-0.26,0.23-0.33
		c0.04-0.03,0.08-0.05,0.12-0.08l0.09-0.06c0.14-0.09,0.26-0.19,0.36-0.32c-0.01,0.02-0.02,0.04-0.04,0.05
		c0.01-0.01,0.02-0.03,0.04-0.05l0.03-0.04c0.04-0.05,0.07-0.11,0.09-0.17c0.05-0.11,0.08-0.24,0.08-0.36c0-0.04,0-0.07,0-0.11
		c0-0.07-0.01-0.15-0.01-0.24c0-0.01,0-0.03,0-0.04c0-0.04,0-0.07,0.01-0.11c0-0.02,0-0.04,0-0.05c0.01-0.06,0.02-0.12,0.03-0.19
		l0,0c0.02-0.1,0.05-0.21,0.08-0.31c0.01-0.03,0.02-0.06,0.03-0.08c0.02-0.06,0.04-0.11,0.07-0.16c0.01-0.03,0.02-0.05,0.04-0.08
		c0.01-0.02,0.03-0.07,0.05-0.1c0.11-0.16,0.19-0.34,0.22-0.54c0-0.05-0.01-0.1-0.02-0.14c-0.03-0.09-0.08-0.18-0.15-0.24
		l-0.01-0.02c-0.08-0.07-0.16-0.12-0.24-0.18c-0.09-0.05-0.17-0.12-0.24-0.19c-0.08-0.08-0.14-0.19-0.17-0.3
		c-0.02-0.07-0.03-0.15-0.02-0.23c0.01-0.07,0.02-0.12,0.04-0.19c0.01-0.04,0.01-0.07,0.01-0.11s0-0.07,0-0.11s-0.01-0.09-0.02-0.13
		c-0.02-0.09-0.05-0.18-0.1-0.26c-0.11-0.21-0.24-0.41-0.38-0.61c-0.11-0.16-0.2-0.27-0.27-0.36c-0.11-0.11-0.2-0.23-0.29-0.35
		c-0.01-0.02-0.02-0.04-0.03-0.07c-0.03-0.06-0.05-0.13-0.06-0.19c-0.02-0.08-0.02-0.17-0.01-0.26c0.01-0.16,0.06-0.32,0.1-0.49
		c0.02-0.1,0.03-0.19,0.03-0.29v-0.01c0-0.08-0.01-0.15-0.02-0.23c-0.02-0.09-0.04-0.18-0.07-0.27c-0.05-0.14-0.13-0.27-0.23-0.39
		c-0.13-0.16-0.27-0.28-0.35-0.41c-0.06-0.09-0.09-0.2-0.08-0.3c0.01-0.05,0.02-0.09,0.04-0.13l0,0c-0.09-0.02-0.18-0.03-0.26-0.03
		c-0.03,0-0.05-0.01-0.08-0.01l-0.02-0.01c-0.03-0.01-0.06-0.03-0.07-0.06c-0.01-0.02-0.02-0.04-0.02-0.06l0,0
		c0-0.05,0.01-0.1,0.03-0.14c0.01-0.03,0.03-0.07,0.04-0.11c0.07-0.15,0.12-0.31,0.14-0.48c0.01-0.09,0.01-0.18,0-0.27
		c-0.01-0.09-0.03-0.2-0.06-0.34c-0.02-0.09-0.03-0.17-0.05-0.26c-0.03-0.13-0.07-0.27-0.11-0.4c-0.05-0.14-0.12-0.28-0.2-0.4
		c-0.12-0.19-0.27-0.36-0.45-0.5c-0.06-0.05-0.12-0.1-0.18-0.13c-0.06-0.04-0.13-0.08-0.19-0.12l-6.11-3.9l-3.43,0.01l-3.44,0.01
		l-5.58,1.34l-6.92,1.67l-0.73,1.84l-0.73,1.84l-1.2,2.08l-0.76,1.32l0.13,4.61l-1.37,4.04l0,0l-1.8,5.3
		c0.14,0.04,0.27,0.11,0.39,0.2c0.07,0.06,0.13,0.12,0.18,0.2c0.01,0.02,0.02,0.03,0.03,0.05l0.03,0.05l0,0
		c0.06,0.11,0.1,0.21,0.21,0.24s0.2-0.05,0.3,0s0.06,0.22,0.17,0.32s0.26-0.01,0.45,0.05c0.32,0.1,0.24,0.52,0.6,0.68
		c0.2,0.09,0.36,0.03,0.48,0.18c0.07,0.09,0.03,0.14,0.1,0.23c0.13,0.18,0.35,0.11,0.41,0.24s-0.14,0.24-0.09,0.41
		c0.05,0.18,0.33,0.14,0.42,0.34c0.08,0.18-0.09,0.3-0.02,0.49c0.08,0.2,0.34,0.13,0.54,0.36c0.15,0.18,0.05,0.27,0.19,0.52
		c0.22,0.41,0.61,0.35,0.74,0.72c0.06,0.18-0.02,0.2,0.05,0.45c0.06,0.24,0.2,0.45,0.39,0.61c0.3,0.21,0.51,0.06,0.69,0.28
		c0.14,0.16,0.03,0.26,0.19,0.5s0.29,0.2,0.38,0.41c0.08,0.21-0.02,0.29,0.07,0.4s0.23,0.03,0.51,0.07
		c0.24,0.02,0.47,0.13,0.63,0.31c0.18,0.23,0.15,0.49,0.27,0.53c0.12,0.05,0.22-0.12,0.33-0.03c0.24,0.23,0.51,0.41,0.82,0.54
		c0.43,0.21,0.77,0.06,0.87,0.27c0.07,0.15-0.07,0.25,0.01,0.41s0.29,0.15,0.66,0.29c0.28,0.1,0.29,0.22,0.39,0.32
		c0.41,0.42,0.2,1.23,0.52,1.38c0.11,0.05,0.22-0.02,0.35,0.09c0.12,0.09,0.09,0.18,0.2,0.24c0.14,0.08,0.24-0.04,0.4,0.02
		c0.16,0.06,0.14,0.24,0.3,0.31c0.22,0.09,0.45-0.17,0.57-0.07c0.08,0.06,0,0.18,0.06,0.3c0.12,0.24,0.53,0.03,1.02,0.26
		c0.29,0.14,0.34,0.29,0.66,0.36c0.19,0.04,0.2-0.01,0.4,0.02c0.47,0.07,0.57,0.36,0.98,0.45c0.27,0.05,0.3-0.06,0.65-0.07
		c0.34-0.01,0.53,0.11,1.29,0.49c0.73,0.36,1.1,0.54,1.39,0.65c0.61,0.22,0.73,0.19,0.93,0.4c0.25,0.26,0.32,0.61,0.64,0.69
		c0.08,0.02,0.17,0.02,0.25,0c0.57-0.08,1.14,0.06,1.61,0.39c0.2,0.22,0.14,0.38,0.39,0.54c0.21,0.14,0.3,0.05,0.49,0.2
		c0.21,0.17,0.16,0.34,0.4,0.52c0.12,0.09,0.12,0.04,0.31,0.15c0.34,0.2,0.35,0.39,0.62,0.48c0.12,0.04,0.11,0,0.29,0.04
		c0.18,0.06,0.35,0.14,0.5,0.24c0.37,0.16,0.53,0.05,0.64,0.2c0.11,0.16,0,0.27,0.11,0.41c0.09,0.11,0.16,0.06,0.35,0.16
		c0.32,0.17,0.37,0.44,0.55,0.42c0.1-0.01,0.11-0.11,0.21-0.1c0.15,0.01,0.2,0.27,0.34,0.26c0.09,0,0.14-0.11,0.17-0.09
		c0.03,0.02-0.05,0.14-0.01,0.21c0.06,0.12,0.31,0.04,0.64,0.09c0.2,0.01,0.39,0.08,0.56,0.19c0.27,0.2,0.24,0.41,0.54,0.58
		c0.09,0.04,0.18,0.08,0.26,0.13c0.22,0.14,0.23,0.24,0.33,0.24c0.2,0.01,0.29-0.39,0.5-0.38c0.1,0,0.1,0.1,0.3,0.2
		c0.2,0.09,0.25,0.03,0.33,0.11c0.15,0.14,0.05,0.41,0.16,0.46c0.11,0.05,0.22-0.15,0.33-0.11c0.11,0.05,0.1,0.3,0.17,0.3
		c0.04,0,0.06-0.11,0.12-0.12s0.09,0.11,0.19,0.13c0.12,0.03,0.2-0.14,0.31-0.11c0.1,0.03,0.1,0.24,0.19,0.26
		c0.09,0.02,0.14-0.17,0.23-0.16c0.07,0.01,0.06,0.11,0.15,0.15s0.16-0.06,0.26-0.03c0.07,0.02,0.08,0.09,0.15,0.2
		c0.11,0.16,0.18,0.13,0.39,0.34c0.13,0.14,0.2,0.21,0.2,0.31c0,0.12-0.09,0.16-0.07,0.25c0.03,0.11,0.18,0.1,0.3,0.24
		c0.07,0.09,0.1,0.2,0.1,0.31c0.07,0.49,0.83,0.56,1.11,1.19c0.15,0.33,0.14,0.74-0.02,0.85c-0.08,0.05-0.17,0.01-0.24,0.09
		c-0.1,0.11-0.03,0.28-0.09,0.32c-0.08,0.04-0.24-0.22-0.35-0.18s-0.02,0.24-0.15,0.38s-0.31,0.04-0.39,0.16
		c-0.11,0.15,0.12,0.35,0.04,0.57c-0.08,0.19-0.32,0.12-0.45,0.35c-0.12,0.2,0.03,0.3-0.08,0.52c-0.13,0.26-0.42,0.25-0.46,0.49
		c-0.02,0.1,0.03,0.11,0.02,0.25c-0.02,0.17-0.09,0.19-0.13,0.36c-0.04,0.22,0.07,0.3,0,0.43c-0.04,0.08-0.1,0.07-0.25,0.17
		c-0.23,0.15-0.2,0.24-0.39,0.35c-0.21,0.12-0.25,0.02-0.45,0.15c-0.2,0.12-0.2,0.25-0.38,0.3c-0.14,0.04-0.2-0.04-0.28,0.01
		c-0.13,0.08-0.04,0.33-0.07,0.64c-0.07,0.57-0.49,0.67-0.49,1.22c0.02,0.13,0.03,0.26,0.03,0.39c-0.02,0.34-0.16,0.44-0.15,0.71
		c0.01,0.27,0.14,0.24,0.13,0.44c-0.01,0.4-0.52,0.5-0.52,0.89c0,0.22,0.16,0.28,0.1,0.45c-0.04,0.12-0.18,0.2-0.45,0.35
		c-0.24,0.13-0.33,0.15-0.35,0.23c-0.04,0.16,0.2,0.31,0.16,0.39c-0.04,0.06-0.17-0.03-0.34,0.03c-0.1,0.05-0.19,0.12-0.25,0.22
		c-0.4,0.49-0.41,0.41-0.46,0.53c-0.14,0.36,0.1,0.66-0.06,0.8c-0.1,0.09-0.25-0.01-0.33,0.1c-0.08,0.1,0.05,0.24,0,0.4
		c-0.09,0.24-0.46,0.18-0.56,0.43c-0.04,0.13-0.02,0.26,0.04,0.38c0.12,0.24,0.37,0.26,0.39,0.46c0,0.04,0,0.12,0,0.2
		c0,0.12-0.01,0.13,0,0.16c0.05,0.11,0.28,0.17,0.44,0.09c0.08-0.04,0.08-0.08,0.16-0.15c0.14-0.09,0.3-0.14,0.47-0.12
		c0.34,0.01,0.39,0.21,0.63,0.18c0.18-0.03,0.18-0.15,0.39-0.24c0.18-0.07,0.28-0.02,0.85,0.08c0.28,0.07,0.56,0.1,0.85,0.09
		c0.26-0.05,0.34-0.16,0.5-0.11c0.21,0.07,0.2,0.3,0.42,0.36c0.15,0.04,0.21-0.05,0.37,0.02c0.12,0.05,0.12,0.11,0.22,0.14
		c0.13,0.03,0.19-0.05,0.32-0.04c0.16,0.01,0.21,0.15,0.36,0.24c0.31,0.19,0.54-0.12,0.92,0.03c0.26,0.1,0.2,0.25,0.61,0.46
		c0.15,0.1,0.32,0.15,0.5,0.15c0.23-0.01,0.28-0.12,0.51-0.16c0.21-0.02,0.42,0.02,0.61,0.12c0.37,0.18,0.35,0.4,0.79,0.63
		c0.14,0.08,0.34,0.18,0.49,0.09c0.11-0.06,0.1-0.17,0.23-0.23c0.14-0.07,0.22,0.04,0.38,0c0.23-0.05,0.22-0.33,0.49-0.5
		c0.15-0.09,0.33-0.13,0.51-0.11c0.49,0.1,0.69,0.88,0.88,0.82c0.04-0.01,0.02-0.04,0.12-0.16c0.08-0.13,0.2-0.24,0.34-0.32
		c0.06-0.02,0.1-0.02,0.47,0.06c0.45,0.1,0.51,0.12,0.56,0.18c0.12,0.12,0.06,0.21,0.16,0.41c0.13,0.27,0.39,0.45,0.69,0.47
		c0.07-0.01,0.06-0.03,0.45-0.3c0.28-0.2,0.36-0.24,0.4-0.36s-0.03-0.15,0-0.35c0.01-0.09,0.05-0.34,0.19-0.39
		c0.1-0.04,0.21,0.05,0.27,0c0.02-0.03,0.03-0.06,0.03-0.09c0-0.19,0.36-0.62,0.87-0.73c0.24-0.07,0.51-0.05,0.73,0.08
		c0.18,0.12,0.2,0.29,0.4,0.36c0.21,0.08,0.25-0.05,0.42,0.02c0.2,0.08,0.17,0.27,0.42,0.49c0.05,0.04,0.31,0.27,0.51,0.19
		c0.11-0.04,0.11-0.14,0.27-0.27c0.1-0.07,0.21-0.12,0.32-0.15c0.36-0.15,0.6-0.49,0.61-0.88c-0.03-0.14-0.12-0.15-0.15-0.32
		c-0.01-0.16,0.03-0.32,0.11-0.46c0.12-0.27,0.18-0.41,0.31-0.46c0.19-0.08,0.32,0.08,0.52-0.01c0.09-0.05,0.16-0.13,0.21-0.22
		c0.16-0.29-0.03-0.47,0.11-0.74c0.08-0.14,0.21-0.25,0.36-0.3c0.1-0.02,0.14,0.01,0.25-0.02c0.18-0.06,0.19-0.17,0.3-0.18
		c0.16,0,0.21,0.27,0.4,0.27c0.1,0,0.19-0.05,0.24-0.13c0.14-0.2-0.07-0.42,0.04-0.62s0.4-0.08,0.61-0.33
		c0.15-0.18,0.07-0.33,0.24-0.46c0.15-0.11,0.25-0.04,0.35-0.15c0.12-0.14,0-0.29,0.11-0.46c0.1-0.14,0.28-0.2,0.44-0.15
		c0.18,0.07,0.15,0.31,0.34,0.38c0.14,0.04,0.29,0.01,0.4-0.08c0.23-0.18,0.08-0.45,0.28-0.73c0.21-0.31,0.51-0.18,0.65-0.46
		c0.15-0.3-0.12-0.59,0.06-0.78c0.12-0.13,0.32-0.04,0.41-0.19c0.08-0.12-0.01-0.23,0.08-0.38c0.05-0.08,0.13-0.14,0.22-0.17
		c0.26-0.08,0.47,0.22,0.62,0.13c0.08-0.07,0.11-0.19,0.07-0.29s-0.13-0.09-0.15-0.17c-0.03-0.12,0.18-0.2,0.17-0.34
		c-0.01-0.08-0.08-0.09-0.11-0.18c-0.04-0.11,0.03-0.22,0.12-0.39c0.2-0.36,0.29-0.55,0.24-0.67c-0.04-0.09-0.11-0.07-0.22-0.2
		c-0.01-0.01-0.2-0.27-0.13-0.47c0.07-0.2,0.3-0.14,0.35-0.31s-0.16-0.24-0.19-0.57c0.01-0.13,0.02-0.27,0.01-0.4
		c-0.02-0.11-0.06-0.22-0.12-0.32c-0.18-0.35-0.33-0.35-0.34-0.53c-0.01-0.16,0.1-0.19,0.1-0.43c-0.01-0.08-0.02-0.17-0.01-0.25
		c0.03-0.12,0.08-0.22,0.17-0.31c0.01-0.02,0.02-0.03,0.03-0.05c0.05,0,0.09-0.01,0.14-0.02c-0.04-0.07-0.07-0.14-0.09-0.21
		c-0.03-0.07-0.05-0.15-0.06-0.22c-0.03-0.15-0.03-0.31,0-0.46c0.03-0.16,0.1-0.31,0.2-0.44c0.06-0.08,0.14-0.15,0.22-0.21
		c0.06-0.04,0.12-0.09,0.18-0.12c0.16-0.1,0.33-0.2,0.49-0.3c0.09-0.05,0.17-0.12,0.24-0.18c0.15-0.13,0.26-0.31,0.31-0.51
		c0.1-0.49-0.27-0.73-0.51-1.2c-0.09-0.17-0.14-0.36-0.16-0.56c-0.03-0.21,0-0.42,0.08-0.61c0.06-0.14,0.13-0.27,0.22-0.39
		c0.09-0.13,0.2-0.28,0.32-0.44c0.04-0.06,0.08-0.11,0.12-0.18c0.09-0.14,0.19-0.31,0.29-0.5c0.04-0.07,0.07-0.14,0.1-0.21l0,0
		c0.08-0.16,0.15-0.34,0.23-0.54c0.07-0.2,0.17-0.45,0.24-0.7c0.04-0.13,0.08-0.26,0.12-0.39c0.02-0.08,0.04-0.17,0.06-0.25l0,0
		c0.03-0.11,0.04-0.22,0.06-0.33l0.01-0.07c0.01-0.05,0.01-0.1,0.01-0.15c0,0.05-0.01,0.1-0.01,0.15
		C232.37-46.73,232.37-46.96,232.34-47.18z"/>
	<path id="Path_55" class="st2" d="M232.35-46.85c0,0.06-0.01,0.12-0.02,0.19C232.33-46.73,232.35-46.79,232.35-46.85z"/>
</g>
<path id="Path_58" class="st0" d="M368.12,214.55c-0.04-0.35-0.08-0.23-0.58-1.58c-0.84-2.27-0.78-2.83-1.51-3.75
	c-0.31-0.42-0.68-0.77-1.12-1.05c-1.23-0.77-2.09-0.33-2.49-0.96s0.32-1.3-0.19-2.37c-0.15-0.23-0.26-0.48-0.34-0.74
	c-0.12-0.5,0.05-0.67-0.01-1.27c-0.07-0.69-0.31-0.75-0.21-1.07c0.17-0.53,0.9-0.48,1.01-0.99c0.07-0.34-0.23-0.48-0.13-0.86
	c0.1-0.38,0.45-0.42,0.45-0.7s-0.4-0.62-0.78-0.63s-0.61,0.28-0.88,0.46c-0.78,0.51-1.9,0.02-2.59-0.23
	c-1.69-0.31-3.4-0.47-5.12-0.49c-1.41-0.17-2.83-0.2-4.25-0.08c-0.36,0.17-0.77,0.19-1.14,0.04c-0.32-0.24-0.52-0.59-0.57-0.99
	c-0.41-1.84-0.04-2.44-0.37-3.64c-0.27-0.9-0.72-1.73-1.33-2.45c-0.49-0.55-1.06-0.98-0.94-1.32c0.11-0.3,0.63-0.15,0.85-0.49
	c0.36-0.54-0.75-1.35-0.6-2.37s1.37-1.08,1.43-1.95c0.07-1-1.53-1.42-1.47-2.48c0.05-0.85,1.11-1.15,0.96-1.78
	c-0.13-0.55-0.95-0.5-1.32-1.32c-0.22-0.49-0.01-0.68-0.24-0.98c-0.39-0.5-1.05-0.12-1.88-0.51c-0.75-0.35-0.55-0.82-1.49-1.53
	c-0.56-0.53-1.32-0.81-2.08-0.75c-0.69,0.16-0.78,0.74-1.35,0.71c-0.55-0.03-0.61-0.56-1.3-0.7c-0.65-0.13-0.9,0.28-1.31,0.06
	c-0.45-0.23-0.22-0.76-0.73-1.4c-0.38-0.48-0.61-0.31-1.44-0.94c-0.81-0.62-0.73-0.88-1.2-1.03c-0.7-0.21-1.07,0.3-1.63,0
	c-0.43-0.23-0.34-0.59-0.77-0.75c-0.49-0.19-0.73,0.23-1.25,0.07c-0.49-0.15-0.43-0.55-0.95-0.76c-0.58-0.23-0.89,0.17-1.22-0.05
	c-0.55-0.36,0.03-1.67-0.49-1.99c-0.28-0.17-0.74,0.01-1.32,0.24c-0.53,0.21-0.6,0.36-0.85,0.34c-0.45-0.04-0.54-0.53-1.06-0.99
	c-0.62-0.59-1.49-0.83-2.32-0.63c-0.7,0.25-0.63,0.88-1.24,1.01c-0.66,0.14-0.88-0.56-2.02-0.89c-1.16-0.34-1.72,0.17-2.21-0.31
	s-0.06-1.04-0.55-1.64c-0.43-0.51-0.88-0.23-1.97-0.72c-0.85-0.29-1.56-0.9-1.98-1.69c-0.24-0.6-0.05-0.94-0.39-1.21
	c-0.48-0.39-1.23,0.01-1.46-0.35c-0.16-0.26,0.16-0.57-0.04-0.89c-0.16-0.26-0.44-0.16-0.58-0.39c-0.18-0.31,0.23-0.61,0.19-1.09
	c-0.05-0.64-0.84-0.69-0.94-1.26c-0.13-0.75,1.16-1.16,1.14-2.1c-0.01-0.52-0.4-0.58-0.79-1.31c-0.47-1.01-0.57-2.15-0.29-3.22
	c0.32-1.42,1.05-1.72,0.86-2.73c-0.1-0.51-0.29-0.49-0.45-1.22c-0.2-0.93,0.04-1.38-0.32-1.75c-0.25-0.23-0.59-0.34-0.93-0.28
	c-0.68,0.1-0.73,0.81-1.33,0.89c-0.55,0.07-0.72-0.5-1.42-0.47c-0.39,0.02-0.44,0.21-0.94,0.36c-0.81,0.26-1.06-0.12-1.83,0
	c-0.97,0.14-0.93,0.79-2.06,1.08c-0.89,0.23-1.01-0.14-1.66,0.12c-0.96,0.38-0.69,1.2-1.84,1.97c-0.77,0.52-1.18,0.34-1.71,0.97
	c-0.29,0.36-0.36,0.66-0.74,0.81c-0.43,0.18-0.59-0.11-1.08,0.01c-0.44,0.11-0.43,0.37-1.33,1.09c-0.54,0.43-0.62,0.4-0.71,0.61
	c-0.25,0.57,0.28,1.07,0,1.48c-0.22,0.24-0.56,0.35-0.88,0.28c-0.55-0.08-0.61-0.58-1.09-0.73c-0.49-0.15-0.99,0.17-1.7,0.65
	c-0.65,0.49-1.26,1.02-1.83,1.59c-0.34,0.37-0.74,0.68-1.18,0.92c-0.15,0.07-0.31,0.14-0.47,0.2c-0.09,0.03-0.17,0.06-0.26,0.08
	c-0.05,0.01-0.1,0.02-0.15,0.03h-0.03h-0.03c-0.06,0-0.12,0-0.18,0h-0.03c-0.08-0.01-0.16-0.02-0.24-0.04
	c-0.08-0.02-0.16-0.06-0.23-0.1c-0.02-0.01-0.05-0.03-0.07-0.04c-0.04-0.02-0.07-0.05-0.11-0.08c-0.13-0.11-0.23-0.22-0.35-0.31l0,0
	c-0.02-0.02-0.05-0.04-0.08-0.06c-0.09-0.06-0.19-0.09-0.3-0.09c-0.06,0-0.11,0.01-0.17,0.02l-0.04,0.01
	c-0.05,0.01-0.09,0.03-0.14,0.06c-0.03,0.02-0.06,0.04-0.1,0.06l-0.07,0.05c-0.12,0.09-0.26,0.17-0.4,0.22
	c-0.08,0.03-0.15,0.05-0.23,0.06c-0.08,0.01-0.15,0.01-0.23,0.01c-0.1-0.01-0.2-0.02-0.3-0.05l-0.08-0.02
	c-0.05-0.01-0.09-0.03-0.14-0.04l-0.09-0.03l-0.15-0.06l-0.08-0.04l-0.2-0.09c-0.08-0.03-0.15-0.07-0.23-0.1
	c-0.22-0.09-0.44-0.15-0.67-0.18c-0.06-0.01-0.12-0.01-0.17-0.02c-0.08,0-0.16,0-0.24,0h-0.06c-0.08,0.01-0.16,0.01-0.24,0.03
	c-0.08,0.01-0.17,0.03-0.26,0.04c-0.19,0.04-0.4,0.08-0.63,0.11l-0.05,0.01c-0.25,0.03-0.5,0.05-0.75,0.06h-0.1
	c-0.14,0-0.29,0-0.45-0.01c2.03,3.24,7.04,11.24,7.34,11.79c0.04,0.06,0.06,0.13,0.07,0.2c0.02,0.46-0.85,0.63-0.88,1.12
	c-0.02,0.28,0.26,0.36,0.2,0.66c-0.05,0.23-0.22,0.21-0.35,0.5c-0.14,0.33,0.01,0.51-0.15,0.69s-0.36,0.06-0.49,0.21
	c-0.14,0.16-0.06,0.35,0.08,1c0.2,0.9,0.19,1.09,0.09,1.24c-0.14,0.22-0.38,0.23-0.38,0.38c0,0.19,0.36,0.25,0.37,0.49
	c0.01,0.15-0.13,0.16-0.19,0.36c-0.08,0.3,0.19,0.45,0.11,0.73c-0.07,0.23-0.29,0.2-0.38,0.46c-0.08,0.23,0.07,0.33,0.04,0.61
	c-0.04,0.45-0.51,0.52-0.52,0.83c-0.01,0.44,0.91,0.54,0.98,1.06c0.06,0.46-0.63,0.63-0.65,1.3c0.01,0.32,0.12,0.62,0.32,0.86
	c0.3,0.34,0.57,0.23,0.77,0.54c0.22,0.35,0.19,0.81-0.09,1.12c-0.17,0.12-0.31,0.01-0.46,0.14c-0.23,0.2,0.01,0.55-0.14,0.93
	c-0.22,0.56-0.95,0.45-1.08,0.93c-0.11,0.4,0.35,0.7,0.21,0.95c-0.18,0.31-0.93,0.01-1.14,0.36c-0.12,0.2,0.09,0.36,0,0.65
	c-0.15,0.46-0.77,0.35-0.99,0.8c-0.1,0.2-0.01,0.28,0.18,1.31c0.16,0.85,0.12,0.94,0.27,1.17c0.23,0.26,0.49,0.49,0.77,0.69
	c0.51,0.42,0.59,0.46,0.61,0.59c0.03,0.36-0.62,0.51-0.64,1.01c-0.01,0.24,0.15,0.36,0.06,0.53c-0.09,0.16-0.25,0.11-0.54,0.26
	c-0.21,0.11-0.56,0.36-0.53,0.57c0.04,0.24,0.59,0.19,0.74,0.55c0.07,0.18-0.04,0.24,0.04,0.45c0.1,0.26,0.34,0.45,0.62,0.49
	c0.27,0.02,0.47-0.16,0.53-0.09s-0.16,0.27-0.1,0.39c0.08,0.15,0.5-0.05,0.68,0.15c0.1,0.11,0,0.2,0.1,0.38
	c0.15,0.28,0.47,0.23,0.53,0.45c0.05,0.18-0.14,0.28-0.08,0.42c0.07,0.16,0.39,0.24,0.64,0.15s0.32-0.31,0.46-0.28
	c0.14,0.03,0.17,0.32,0.28,0.32c0.09,0,0.1-0.19,0.26-0.29c0.13-0.06,0.29-0.06,0.41,0.02c0.21,0.14,0.28,0.42,0.15,0.65
	c-0.11,0.11-0.29-0.05-0.5,0.11c-0.12,0.09-0.12,0.18-0.27,0.27c-0.2,0.13-0.35,0.06-0.4,0.15s0.08,0.29,0.27,0.54
	c0.29,0.37,0.46,0.59,0.71,0.61c0.16,0,0.19-0.08,0.36-0.06c0.18,0.02,0.21,0.11,0.43,0.24c0.36,0.21,0.5,0.13,0.6,0.29
	c0.1,0.18,0.06,0.4-0.09,0.54c-0.19,0.13-0.51-0.11-0.58-0.02c-0.07,0.09,0.18,0.32,0.12,0.4s-0.21-0.06-0.36,0.01
	c-0.14,0.06-0.16,0.21-0.22,0.32c-0.26,0.45-1.35,0.12-1.44,0.36s0.82,0.67,0.73,0.93c-0.04,0.11-0.24,0.13-0.58,0.17
	c-0.57,0.06-0.85-0.03-0.92,0.1s0.24,0.33,0.21,0.61c-0.03,0.3-0.43,0.4-0.78,0.64c-0.67,0.46-0.45,0.93-1.15,1.81
	c-0.48,0.48-0.99,0.93-1.52,1.36c-0.69,0.62-1.04,0.96-0.95,1.25c0.04,0.12,0.12,0.13,0.4,0.35c0.41,0.27,0.74,0.66,0.92,1.12
	c0.11,0.3,0.1,0.62-0.02,0.91c-0.2,0.38-0.62,0.48-0.59,0.62c0.02,0.1,0.23,0.1,0.44,0.14c0.42,0.08,0.81,0.29,1.12,0.59
	c0.57,0.63,0.02,1.77,0.52,2.05c0.12,0.04,0.24,0.07,0.36,0.1c0.39,0.1,0.49,0.1,0.7,0.15c0.35,0.09,0.73,0.18,0.83,0.39v0.01
	l0.02,0.2c-0.05,0.12-0.09,0.25-0.11,0.38c-0.02,0.2-0.01,0.4,0.04,0.59c0.04,0.17,0.07,0.32,0.1,0.48h0.02
	c0.36,0.11,1.47,4.05,1.98,4.46s-0.26,0.84,0.08,2.29c0.17,0.64,0.37,1.27,0.61,1.89c0.21,0.75,0.5,1.47,0.88,2.14
	c1.17,1.23,3.4,0.9,3.55,1.71c0.04,0.22-0.14,0.46-0.5,0.95c-0.66,0.89-1.32,1.11-1.23,1.45c0.1,0.36,0.9,0.26,1.09,0.71
	c0.18,0.43-0.33,0.96-0.42,1.06c-0.5,0.52-1.02,0.49-1.08,0.78c-0.1,0.45,0.97,0.77,0.82,1.19c-0.08,0.22-0.44,0.26-0.48,0.53
	c-0.02,0.12,0.03,0.26,0.22,0.43c0.74,0.69,2.25,0.73,2.24,0.96c0,0.12-0.37,0.1-0.6,0.34c-0.34,0.35-0.12,0.99,0.17,1.39
	c0.47,0.65,0.98,0.5,1.88,1.22c0.52,0.34,0.91,0.83,1.13,1.41c0.24,0.88-0.36,1.4,0.08,1.88c0.34,0.36,0.77,0.15,1.11,0.51
	c0.52,0.55-0.25,1.27,0.3,1.92c0.29,0.34,0.54,0.19,0.79,0.54c0.35,0.5-0.08,0.91,0.17,1.68c0.14,0.44,0.28,0.31,0.46,0.77
	c0.37,0.95-0.21,1.56,0.3,2.28c0.1,0.14,0.22,0.26,0.35,0.36l2.99-0.35l1.71-0.82l0.37,0.25l0,0c0.33-0.38,0.66-0.33,0.79-0.69
	c0.1-0.28-0.07-0.41,0.07-0.67c0.03-0.05,0.07-0.12,0.47-0.38c0.21-0.16,0.43-0.29,0.67-0.41c0.38-0.14,0.45-0.02,0.68-0.17
	c0.25-0.17,0.24-0.36,0.49-0.46c0.19-0.07,0.26,0.02,0.42-0.04c0.26-0.1,0.36-0.45,0.45-0.75c0.18-0.65,0.01-0.83,0.2-1.06
	c0.3-0.36,0.95-0.24,1.01-0.23c0.28,0.06,0.27,0.15,0.77,0.4c0.63,0.31,0.86,0.26,1.03,0.53s0.01,0.39,0.15,0.62
	c0.31,0.5,1.39,0.33,1.73,0.28c0.84-0.13,0.77-0.34,1.49-0.46c1.05-0.17,1.16,0.29,2.31,0.12c0.38-0.09,0.77-0.1,1.15-0.03
	c0.3,0.07,0.34,0.14,0.64,0.18c0.57,0.08,0.67-0.14,1.01-0.01c0.4,0.15,0.39,0.51,0.77,0.57c0.26,0.04,0.38-0.12,0.56-0.01
	c0.07,0.04,0.09,0.09,0.28,0.49c0.22,0.47,0.24,0.5,0.24,0.58c0.02,0.29-0.14,0.35-0.09,0.56c0.03,0.15,0.13,0.19,0.5,0.51
	c0.34,0.3,0.51,0.45,0.54,0.62c0.02,0.17,0.03,0.35,0.03,0.53c0.01,0.21,0,0.21,0.01,0.26c0.03,0.44,0.36,0.51,0.46,0.93
	c0.07,0.32-0.09,0.43,0.03,0.7c0.02,0.05,0.17,0.34,0.4,0.33c0.23-0.04,0.39-0.25,0.36-0.49c-0.03-0.1-0.11-0.09-0.19-0.23
	c-0.1-0.2-0.11-0.43-0.03-0.63c0.09-0.26,0.22-0.22,0.26-0.41c0.05-0.26-0.17-0.39-0.17-0.77c0-0.09,0.01-0.19,0.04-0.28l0.97-1.25
	c-0.04-0.14-0.06-0.33,0.04-0.42c0.06-0.05,0.1-0.02,0.16-0.07c0.16-0.12-0.01-0.43,0.15-0.65c0.11-0.15,0.23-0.08,0.3-0.22
	c0.08-0.17-0.08-0.32,0-0.51c0.05-0.11,0.12-0.1,0.27-0.22c0.17-0.16,0.19-0.29,0.39-0.71c0.05-0.11,0.13-0.27,0.24-0.45l0.79,0.03
	c0.08,0.1,0.19,0.18,0.32,0.21c0.19,0.04,0.39-0.01,0.53-0.15c0.04-0.05,0.08-0.1,0.1-0.16l6.71-0.13c0.02,0.05,0.03,0.11,0.02,0.17
	c-0.04,0.22-0.34,0.25-0.35,0.43c-0.01,0.09,0.08,0.1,0.12,0.26c0.07,0.24-0.06,0.39,0.03,0.49c0.07,0.07,0.16-0.01,0.3,0.05
	s0.14,0.22,0.28,0.35c0.12,0.1,0.27,0.15,0.43,0.14l0.06-0.19l0,0l-0.03-0.05c-0.01-0.02-0.02-0.03-0.03-0.05
	c-0.05-0.08-0.11-0.14-0.18-0.2c-0.12-0.09-0.25-0.16-0.39-0.2l1.8-5.3l0,0l1.37-4.04l-0.13-4.61l0.76-1.32l1.2-2.08l0.73-1.84
	l0.73-1.84l6.92-1.67l5.58-1.34l3.44-0.01l3.43-0.01l6.11,3.9c0.06,0.03,0.12,0.07,0.19,0.12c0.25,0.17,0.46,0.39,0.63,0.64
	c0.15,0.25,0.26,0.52,0.31,0.8c0.02,0.09,0.04,0.17,0.05,0.26c0.03,0.14,0.05,0.24,0.06,0.34c0.01,0.09,0.01,0.18,0,0.27
	c-0.03,0.2-0.1,0.4-0.18,0.59c-0.02,0.04-0.03,0.09-0.03,0.14l0,0c0,0.02,0.01,0.04,0.02,0.06c0.02,0.03,0.04,0.05,0.07,0.06
	l0.02,0.01c0.03,0.01,0.05,0.01,0.08,0.01c0.09,0,0.18,0.01,0.26,0.03c0.15-0.42,0.82-0.63,1.32-0.89c0.3-0.15,0.54-0.32,0.56-0.56
	c0.06-0.69-1.76-0.89-1.94-1.96c-0.11-0.61,0.45-0.78,1.3-2.55c0.47-0.97,0.36-1.04,0.79-1.82c0.63-1.13,0.95-1.16,1.29-1.93
	c0.42-0.97,0-1.17,0.25-2.59C367.47,216.24,368.26,215.87,368.12,214.55z"/>
<path id="Path_60" class="st0" d="M394.4,276.63c0.13-0.74,0.45-0.78,0.43-1.23c-0.04-0.75-0.9-0.81-1.25-1.77
	c-0.27-0.74,0.16-0.94-0.06-1.77c-0.2-0.87-0.84-1.58-1.69-1.86c-0.86,0.05-1.7,0.22-2.51,0.49c-0.22,0.08-0.46,0.07-0.67-0.01
	c-0.16-0.09-0.29-0.23-0.38-0.39c-0.05,0-0.09,0.01-0.14,0.02c-0.01,0.02-0.02,0.03-0.03,0.05c-0.09,0.08-0.14,0.19-0.17,0.31
	c0,0.09,0,0.17,0.01,0.25c0,0.24-0.11,0.27-0.1,0.43c0.01,0.18,0.16,0.18,0.34,0.53c0.06,0.1,0.1,0.21,0.12,0.32
	c0.03,0.19-0.02,0.23-0.01,0.4c0.02,0.32,0.24,0.41,0.19,0.57s-0.29,0.12-0.35,0.31c-0.07,0.19,0.12,0.46,0.13,0.47
	c0.11,0.14,0.18,0.11,0.22,0.2c0.05,0.12-0.05,0.3-0.24,0.67c-0.09,0.17-0.16,0.28-0.12,0.39c0.03,0.09,0.1,0.1,0.11,0.18
	c0.02,0.15-0.19,0.22-0.17,0.34c0.02,0.08,0.11,0.07,0.15,0.17s0.01,0.22-0.07,0.29c-0.15,0.09-0.36-0.21-0.62-0.13
	c-0.09,0.03-0.17,0.09-0.22,0.17c-0.09,0.15,0,0.26-0.08,0.38c-0.09,0.15-0.29,0.06-0.41,0.19c-0.17,0.18,0.09,0.49-0.06,0.78
	c-0.14,0.28-0.43,0.15-0.65,0.46c-0.2,0.29-0.05,0.55-0.28,0.73c-0.11,0.09-0.26,0.12-0.4,0.08c-0.19-0.07-0.16-0.31-0.34-0.38
	c-0.16-0.05-0.34,0.01-0.44,0.15c-0.11,0.16,0.01,0.32-0.11,0.46c-0.1,0.11-0.2,0.04-0.35,0.15c-0.17,0.12-0.09,0.28-0.24,0.46
	c-0.21,0.26-0.49,0.12-0.61,0.33s0.1,0.43-0.04,0.62c-0.06,0.08-0.15,0.13-0.24,0.13c-0.19-0.01-0.24-0.28-0.4-0.27
	c-0.11,0-0.12,0.12-0.3,0.18c-0.11,0.03-0.15,0-0.25,0.02c-0.16,0.05-0.29,0.16-0.36,0.3c-0.14,0.27,0.04,0.45-0.11,0.74
	c-0.04,0.09-0.12,0.17-0.21,0.22c-0.2,0.09-0.33-0.07-0.52,0.01c-0.13,0.05-0.19,0.19-0.31,0.46c-0.08,0.14-0.12,0.3-0.11,0.46
	c0.03,0.17,0.12,0.18,0.15,0.32c-0.01,0.39-0.25,0.74-0.61,0.88c-0.11,0.03-0.22,0.08-0.32,0.15c-0.16,0.12-0.16,0.23-0.27,0.27
	c-0.2,0.08-0.46-0.14-0.51-0.19c-0.25-0.21-0.21-0.4-0.42-0.49c-0.17-0.07-0.23,0.04-0.42-0.02s-0.22-0.23-0.41-0.36
	c-0.22-0.12-0.48-0.15-0.73-0.08c-0.51,0.11-0.87,0.53-0.87,0.73c0,0.03,0,0.07-0.03,0.09c-0.06,0.06-0.16-0.03-0.27,0
	c-0.14,0.05-0.17,0.31-0.19,0.39c-0.03,0.2,0.04,0.23,0,0.35s-0.12,0.16-0.4,0.36c-0.39,0.28-0.38,0.29-0.45,0.3
	c-0.3-0.01-0.57-0.19-0.69-0.47c-0.11-0.2-0.04-0.29-0.17-0.41c-0.05-0.05-0.11-0.08-0.56-0.18c-0.37-0.08-0.41-0.08-0.47-0.06
	c-0.14,0.08-0.25,0.19-0.34,0.32c-0.09,0.12-0.08,0.15-0.12,0.16c-0.19,0.06-0.38-0.73-0.88-0.82c-0.18-0.02-0.35,0.01-0.51,0.11
	c-0.26,0.17-0.26,0.45-0.49,0.5c-0.16,0.04-0.24-0.07-0.38,0c-0.12,0.06-0.12,0.17-0.23,0.23c-0.15,0.08-0.35-0.02-0.49-0.09
	c-0.44-0.23-0.42-0.45-0.79-0.63c-0.18-0.1-0.4-0.15-0.61-0.12c-0.23,0.04-0.29,0.15-0.51,0.16c-0.18,0-0.35-0.05-0.5-0.15
	c-0.4-0.21-0.34-0.36-0.61-0.46c-0.39-0.14-0.61,0.17-0.92-0.03c-0.16-0.1-0.2-0.24-0.36-0.24c-0.13,0-0.19,0.08-0.32,0.04
	c-0.11-0.03-0.11-0.09-0.22-0.14c-0.16-0.07-0.22,0.02-0.37-0.02c-0.22-0.06-0.21-0.29-0.42-0.36c-0.16-0.06-0.24,0.05-0.5,0.11
	c-0.29,0.01-0.57-0.01-0.85-0.09c-0.57-0.1-0.67-0.15-0.85-0.08c-0.21,0.08-0.21,0.21-0.39,0.24c-0.24,0.04-0.3-0.16-0.63-0.18
	c-0.17-0.02-0.33,0.03-0.47,0.12c-0.08,0.06-0.08,0.11-0.16,0.15c-0.16,0.08-0.39,0.02-0.44-0.09c-0.01-0.03,0-0.04,0-0.16
	c0-0.08,0-0.17,0-0.2c-0.02-0.2-0.27-0.22-0.39-0.46c-0.06-0.11-0.08-0.25-0.04-0.38c0.1-0.25,0.47-0.19,0.56-0.43
	c0.06-0.17-0.08-0.3,0-0.4c0.08-0.11,0.23-0.01,0.33-0.09c0.16-0.14-0.08-0.44,0.06-0.8c0.05-0.12,0.05-0.04,0.46-0.53
	c0.06-0.1,0.15-0.17,0.25-0.22c0.17-0.06,0.31,0.02,0.34-0.03c0.05-0.08-0.19-0.23-0.16-0.39c0.02-0.09,0.11-0.1,0.35-0.23
	c0.27-0.15,0.41-0.23,0.45-0.35c0.06-0.17-0.1-0.23-0.1-0.45c0.01-0.39,0.52-0.5,0.52-0.89c0-0.2-0.12-0.18-0.13-0.44
	s0.12-0.37,0.15-0.71c0-0.13-0.01-0.26-0.03-0.39c0-0.55,0.41-0.65,0.49-1.22c0.04-0.32-0.06-0.57,0.07-0.64
	c0.08-0.05,0.14,0.03,0.28-0.01c0.17-0.04,0.18-0.17,0.38-0.3c0.2-0.12,0.24-0.02,0.45-0.15c0.19-0.11,0.16-0.2,0.39-0.35
	c0.16-0.1,0.21-0.09,0.26-0.17c0.07-0.13-0.04-0.21,0-0.43c0.03-0.16,0.11-0.18,0.13-0.36c0.02-0.14-0.03-0.16-0.02-0.25
	c0.04-0.23,0.33-0.22,0.46-0.49c0.11-0.22-0.04-0.32,0.08-0.52c0.13-0.22,0.36-0.16,0.45-0.35c0.09-0.21-0.14-0.42-0.04-0.57
	c0.08-0.12,0.26-0.02,0.39-0.16s0.06-0.35,0.15-0.38s0.26,0.22,0.35,0.18c0.07-0.03-0.01-0.21,0.09-0.32
	c0.08-0.08,0.17-0.04,0.24-0.09c0.16-0.1,0.17-0.52,0.02-0.85c-0.28-0.63-1.04-0.7-1.11-1.19c0-0.11-0.04-0.22-0.1-0.31
	c-0.12-0.14-0.27-0.13-0.3-0.24c-0.02-0.09,0.07-0.13,0.07-0.25c0-0.1-0.07-0.18-0.2-0.31c-0.21-0.21-0.28-0.18-0.39-0.34
	c-0.07-0.11-0.08-0.18-0.15-0.2c-0.1-0.03-0.16,0.07-0.26,0.03s-0.08-0.14-0.15-0.15c-0.09-0.01-0.15,0.17-0.23,0.16
	c-0.08-0.01-0.08-0.23-0.19-0.26c-0.11-0.03-0.18,0.14-0.31,0.11c-0.1-0.02-0.12-0.14-0.19-0.13s-0.08,0.12-0.12,0.12
	c-0.07,0-0.05-0.25-0.17-0.3c-0.11-0.05-0.23,0.15-0.33,0.11c-0.1-0.04,0-0.32-0.16-0.46c-0.08-0.08-0.15-0.02-0.33-0.11
	s-0.2-0.19-0.3-0.2c-0.21-0.01-0.3,0.39-0.5,0.38c-0.1-0.01-0.1-0.1-0.33-0.24c-0.08-0.05-0.17-0.09-0.26-0.13
	c-0.31-0.17-0.27-0.38-0.54-0.58c-0.17-0.11-0.36-0.17-0.56-0.19c-0.34-0.05-0.59,0.03-0.64-0.09c-0.04-0.08,0.04-0.19,0.01-0.21
	s-0.08,0.09-0.17,0.09c-0.14,0-0.19-0.25-0.34-0.26c-0.09,0-0.1,0.09-0.21,0.1c-0.18,0.02-0.23-0.25-0.55-0.42
	c-0.19-0.1-0.27-0.05-0.35-0.16c-0.12-0.15-0.01-0.27-0.11-0.41c-0.1-0.14-0.27-0.04-0.64-0.2c-0.16-0.1-0.33-0.18-0.5-0.24
	c-0.17-0.04-0.17,0-0.29-0.04c-0.27-0.08-0.28-0.27-0.62-0.48c-0.18-0.11-0.19-0.06-0.31-0.15c-0.24-0.18-0.19-0.35-0.4-0.52
	c-0.18-0.15-0.28-0.06-0.49-0.2c-0.24-0.16-0.19-0.32-0.39-0.54c-0.46-0.33-1.04-0.47-1.61-0.39c-0.08,0.02-0.17,0.02-0.25,0
	c-0.32-0.08-0.39-0.42-0.64-0.69c-0.2-0.21-0.32-0.17-0.93-0.4c-0.29-0.11-0.66-0.29-1.39-0.65c-0.77-0.38-0.94-0.5-1.29-0.49
	s-0.37,0.12-0.65,0.07c-0.41-0.08-0.51-0.38-0.98-0.45c-0.2-0.03-0.21,0.02-0.4-0.02c-0.33-0.07-0.37-0.23-0.66-0.36
	c-0.5-0.23-0.9-0.03-1.02-0.26c-0.06-0.12,0.02-0.24-0.06-0.3c-0.12-0.1-0.35,0.16-0.57,0.07c-0.16-0.07-0.12-0.24-0.3-0.31
	c-0.18-0.06-0.26,0.06-0.4-0.02c-0.11-0.06-0.08-0.15-0.2-0.24c-0.14-0.11-0.24-0.04-0.35-0.09c-0.32-0.15-0.1-0.96-0.52-1.38
	c-0.11-0.11-0.12-0.22-0.39-0.32c-0.37-0.14-0.58-0.12-0.66-0.29s0.06-0.26-0.01-0.41c-0.1-0.22-0.44-0.06-0.87-0.27
	c-0.3-0.13-0.58-0.31-0.82-0.54c-0.12-0.1-0.22,0.07-0.33,0.03c-0.11-0.05-0.09-0.31-0.27-0.53c-0.17-0.18-0.39-0.28-0.63-0.31
	c-0.28-0.04-0.41,0.03-0.51-0.07c-0.09-0.11,0-0.2-0.07-0.4c-0.07-0.19-0.23-0.18-0.38-0.41c-0.15-0.22-0.05-0.33-0.19-0.5
	c-0.18-0.21-0.39-0.06-0.69-0.28c-0.19-0.15-0.33-0.37-0.39-0.61c-0.07-0.25,0.02-0.27-0.05-0.45c-0.13-0.37-0.51-0.31-0.74-0.72
	c-0.14-0.25-0.03-0.34-0.19-0.52c-0.2-0.23-0.46-0.16-0.54-0.36c-0.08-0.18,0.1-0.3,0.02-0.49c-0.09-0.2-0.37-0.16-0.42-0.34
	c-0.05-0.16,0.15-0.28,0.09-0.41s-0.28-0.06-0.41-0.24c-0.07-0.1-0.03-0.14-0.1-0.23c-0.11-0.15-0.28-0.09-0.47-0.18
	c-0.36-0.16-0.28-0.58-0.6-0.68c-0.2-0.06-0.33,0.07-0.45-0.05c-0.12-0.11-0.06-0.25-0.17-0.32c-0.11-0.06-0.17,0.04-0.3,0
	s-0.15-0.13-0.21-0.24l-0.06,0.19c-0.16,0.01-0.31-0.04-0.43-0.14c-0.14-0.13-0.13-0.28-0.28-0.35s-0.23,0.02-0.3-0.05
	c-0.09-0.09,0.05-0.24-0.03-0.49c-0.05-0.16-0.14-0.17-0.12-0.26c0.02-0.18,0.31-0.21,0.35-0.43c0.01-0.06,0-0.12-0.02-0.17
	l-6.71,0.13c-0.02,0.06-0.06,0.11-0.1,0.16c-0.14,0.14-0.34,0.2-0.53,0.15c-0.13-0.03-0.24-0.11-0.32-0.21l-0.79-0.03
	c-0.11,0.19-0.19,0.35-0.24,0.45c-0.21,0.42-0.22,0.55-0.39,0.71c-0.14,0.13-0.22,0.11-0.27,0.22c-0.08,0.19,0.08,0.34,0,0.51
	c-0.07,0.14-0.19,0.08-0.3,0.22c-0.16,0.22,0.01,0.54-0.15,0.65c-0.06,0.05-0.11,0.01-0.16,0.07c-0.1,0.09-0.07,0.28-0.04,0.42
	l-0.97,1.25c-0.03,0.09-0.04,0.19-0.04,0.28c0,0.38,0.22,0.51,0.17,0.77c-0.04,0.19-0.17,0.15-0.26,0.41
	c-0.08,0.21-0.07,0.44,0.03,0.63c0.08,0.13,0.16,0.12,0.19,0.23c0.02,0.23-0.13,0.44-0.36,0.49c-0.23,0.01-0.38-0.28-0.4-0.33
	c-0.12-0.27,0.04-0.37-0.03-0.7c-0.09-0.42-0.43-0.49-0.46-0.93c0-0.05,0-0.05-0.01-0.26c0-0.18-0.01-0.35-0.03-0.53
	c-0.04-0.17-0.21-0.32-0.54-0.62c-0.36-0.33-0.46-0.36-0.5-0.51c-0.05-0.21,0.11-0.27,0.09-0.56c0-0.08-0.02-0.12-0.24-0.58
	c-0.19-0.4-0.21-0.45-0.28-0.49c-0.18-0.1-0.3,0.05-0.56,0.01c-0.38-0.05-0.36-0.42-0.77-0.57c-0.34-0.12-0.44,0.1-1.01,0.01
	c-0.3-0.04-0.34-0.12-0.64-0.18c-0.38-0.07-0.77-0.06-1.15,0.03c-1.14,0.17-1.25-0.3-2.31-0.12c-0.71,0.12-0.65,0.33-1.49,0.46
	c-0.34,0.05-1.42,0.22-1.73-0.28c-0.14-0.22,0.01-0.36-0.15-0.62c-0.16-0.25-0.39-0.22-1.03-0.53c-0.5-0.24-0.49-0.34-0.77-0.4
	c-0.05-0.01-0.71-0.13-1.01,0.23c-0.19,0.23-0.02,0.41-0.2,1.06c-0.08,0.3-0.19,0.65-0.45,0.75c-0.16,0.07-0.23-0.03-0.42,0.04
	c-0.25,0.09-0.24,0.29-0.49,0.46c-0.23,0.15-0.29,0.03-0.68,0.17c-0.24,0.11-0.46,0.25-0.67,0.4c-0.4,0.27-0.45,0.33-0.47,0.38
	c-0.14,0.26,0.03,0.39-0.07,0.67c-0.13,0.35-0.46,0.31-0.79,0.69l1.48,1l-1.76,7.12c-0.36,0.17-0.91,0.42-1.58,0.72
	c-3.74,1.67-4.53,1.82-5.71,2.74s-2.26,2.21-1.84,2.78c0.25,0.34,0.91,0.22,1.27,0.75c0.25,0.33,0.24,0.79-0.03,1.1
	c-0.16,0.14-0.3,0.12-0.47,0.22c-0.66,0.35-0.41,1.61-0.33,1.98c0.31,0.94,0.73,1.85,1.25,2.7c0.94,2.04,0.62,2.46,0.47,2.61
	c-0.36,0.36-0.93,0.24-1.24,0.66c-0.19,0.39-0.16,0.85,0.08,1.2c0.49,1.04,1.3,1.07,2.08,2.19c0.09,0.13,0.8,1.16,0.4,1.51
	c-0.24,0.21-0.62-0.02-1.17,0.23c-0.53,0.24-0.58,0.64-0.95,0.66c-0.3,0.02-0.35-0.24-0.7-0.27c-0.57,0.02-1.08,0.35-1.32,0.87
	c-0.19,0.43,0.08,0.61,0.08,1.12c-0.01,0.92-0.92,1.02-1.3,2.1c-0.38,1.06,0.24,1.68-0.41,2.24c-0.3,0.26-0.46,0.15-0.83,0.45
	c-0.62,0.49-0.42,0.96-0.89,1.64c-0.43,0.62-0.8,0.53-1.33,1.09c-0.26,0.27-0.5,0.63-0.78,2.45c-0.34,2.24-0.08,2.47-0.57,3.13
	c-0.57,0.78-1.19,0.84-1.3,1.48c-0.08,0.49,0.25,0.58,0.84,1.72c0.53,1.02,0.97,1.91,0.5,2.57c-0.18,0.25-0.39,0.34-0.36,0.54
	c0.06,0.47,1.33,0.59,1.29,0.92c-0.02,0.15-0.28,0.14-0.49,0.39c-0.33,0.4,0.05,0.78-0.21,1.07c-0.26,0.28-0.83,0.01-1.38,0.25
	c-0.85,0.36-0.95,1.63-1.02,2.47c-0.01,0.68-0.07,1.35-0.19,2.02c-0.06,0.32-0.19,0.89-0.57,0.99c-0.23,0.06-0.38-0.1-0.61-0.03
	c-0.26,0.08-0.35,0.4-0.42,0.77c-0.33,0.91-0.2,1.93,0.34,2.73c0.12,0.11,0.22,0.23,0.32,0.36c0.34,0.51,0.18,0.82,0.33,1.18
	c0.33,0.82,1.87,0.95,1.78,1.24c-0.06,0.19-0.71,0.12-0.81,0.36c-0.09,0.22,0.42,0.36,0.79,0.88c0.4,0.56,0.08,0.78,0.49,1.33
	c0.36,0.5,0.7,0.41,0.86,0.85c0.09,0.25,0,0.34,0.03,1.01c0,0.23,0.02,0.47,0.07,0.7c0.24,0.92,1.28,1.18,1.12,1.72
	c-0.05,0.18-0.17,0.15-0.24,0.36c-0.21,0.58,0.42,1.4,1.17,1.49c0.42,0.05,0.58-0.16,0.91-0.06c0.53,0.16,0.79,0.93,0.48,1.25
	c-0.2,0.21-0.52,0.1-0.74,0.3c-0.32,0.28-0.07,0.8,0.09,1.29c0.5,1.52-0.21,1.68,0.29,3.25c0.23,0.73,0.53,1.15,0.24,1.41
	c-0.29,0.27-0.85,0.04-1.27,0.35c-0.4,0.3-0.08,0.66-0.36,1.28c-0.39,0.83-1.23,0.76-1.47,1.47c-0.2,0.58,0.33,0.71,0.18,1.51
	c-0.11,0.58-0.4,0.56-0.61,1.3s0.03,0.96-0.29,1.33c-0.39,0.45-1.09,0.51-1.06,0.67s0.82,0.02,1.06,0.35
	c0.2,0.28-0.2,0.63,0.06,0.93c0.12,0.14,0.23,0.09,0.37,0.22c0.33,0.3-0.1,0.7,0.03,1.35c0.11,0.59,0.52,0.58,0.5,1.11
	c-0.02,0.31-0.17,0.47-0.09,0.83c0.05,0.26,0.15,0.26,0.23,0.51c0.12,0.39,0.09,1-0.3,1.21c-0.27,0.14-0.43-0.04-0.87,0.09
	c-0.4,0.09-0.74,0.37-0.91,0.74c-0.14,0.46,0.38,0.63,0.25,1.1c-0.14,0.41-0.51,0.7-0.95,0.74c-0.43,0.02-0.64-0.36-0.87-0.28
	c-0.28,0.1-0.09,0.7-0.41,0.83c-0.23,0.09-0.47-0.16-0.64-0.08c-0.25,0.12,0.21,0.69-0.01,1.36c-0.2,0.63-0.78,0.71-0.73,1.17
	c0.04,0.36,0.42,0.5,0.33,0.84c-0.06,0.22-0.24,0.22-0.34,0.43c-0.28,0.53,0.68,0.95,0.55,1.67c-0.08,0.45-0.49,0.46-0.51,0.87
	c-0.03,0.56,0.74,0.61,1.01,1.28c0.25,0.65-0.34,0.93-0.3,1.98c0.03,0.46,0.16,0.91,0.38,1.32c0.6,1.24,1.32,1.18,1.47,2.06
	c0.11,0.63-0.22,0.98,0.15,1.51c0.21,0.3,0.34,0.24,0.62,0.59c0.36,0.45,0.49,1.05,0.33,1.6c-0.02,0.06-0.23,0.67-0.6,0.71
	c-0.17,0.02-0.24-0.1-0.4-0.16c-0.61-0.21-1.89,0.65-2.55,1.64c-0.31,0.47-0.58,0.87-0.46,1.34c0.15,0.61,0.8,0.78,0.69,1.26
	c-0.07,0.3-0.36,0.36-0.52,0.81c-0.06,0.21-0.07,0.43-0.04,0.65c0.06,1.18,0.21,1.46-0.05,1.67c-0.21,0.14-0.47,0.21-0.72,0.18
	c-0.53-0.04-0.8-0.45-0.92-0.39s0.18,0.36,0.19,0.86c0.01,0.49-0.27,0.6-0.16,0.89c0.16,0.41,0.77,0.39,0.81,0.74
	c0.03,0.23-0.24,0.28-0.33,0.62c-0.09,0.43,0.27,0.63,0.12,0.83c-0.19,0.25-0.81,0-1.13,0.28c-0.26,0.33-0.23,0.8,0.07,1.09
	c0.4,0.44,1.05,0.29,1.23,0.67c0.09,0.32-0.05,0.66-0.34,0.82c-0.39,0.26-0.83,0.08-1.03,0.3c-0.15,0.17,0.03,0.38,0.15,0.78
	c0.24,0.78-0.18,0.91,0,1.75c0.14,0.65,0.42,0.73,0.33,1.2c-0.06,0.32-0.22,0.47-0.15,0.76c0.07,0.32,0.31,0.38,0.47,0.63
	c0.37,0.58-0.46,1-0.38,1.87s0.95,1.08,0.72,1.75c-0.11,0.31-0.38,0.5-0.26,0.72s0.49,0.17,0.69,0.41c0.21,0.24,0.06,0.49,0.01,0.82
	c-0.12,0.78,0.38,0.87,0.48,1.96c0.04,0.45,0.08,1.02-0.33,1.26c-0.22,0.1-0.47,0.13-0.71,0.1c-1.21,0-1.66-0.27-1.91-0.09
	c-0.33,0.24,0.05,0.98,0.11,1.1c0.36,0.69,0.88,0.75,1.06,1.31c0.1,0.3,0.02,0.51-0.14,1.06c-0.35,0.82-0.54,1.7-0.55,2.6
	c0.19,0.52,0.59,0.41,2.27,1.64c1.57,1.14,1.55,1.47,1.48,1.62c-0.18,0.4-1.1,0.25-1.33,0.7c-0.26,0.49,0.52,1.28,1.17,1.7
	c0.71,0.46,1.23,0.45,1.31,0.8c0.1,0.42-0.58,0.58-0.69,1.2c-0.13,0.72,0.73,0.93,0.64,1.69c-0.06,0.51-0.46,0.52-0.86,1.3
	c-0.06,0.12-0.73,1.47-0.09,1.91c0.43,0.31,1.32,0.09,1.6,0.02c0.72-0.17,0.94-0.46,1.42-0.4c0.37,0.05,0.34,0.23,0.81,0.37
	c0.66,0.19,0.99-0.09,1.35,0.12c0.36,0.24,0.46,0.72,0.23,1.09c-0.18,0.29-0.44,0.24-0.61,0.5c-0.29,0.46,0.38,0.88,0.12,1.26
	c-0.37,0.33-0.88,0.43-1.35,0.26c-0.33-0.14-0.35-0.41-0.62-0.42c-0.22-0.01-0.31,0.18-0.64,0.32c-0.32,0.11-0.66,0.15-0.99,0.11
	c-1.09,0.01-1.66,0.02-2.05,0.3c-0.21,0.16-0.35,0.4-0.37,0.66c0.01,0.37,0.27,0.69,0.64,0.75c0.23,0.03,0.36-0.1,0.63-0.19
	c0.63-0.14,1.28-0.07,1.87,0.2c0.62,0.22,1.17,0.58,1.62,1.05c0.73,0.78,1.1,1.86,0.74,2.09c-0.17,0.11-0.41-0.04-0.76,0.13
	c-0.04,0.02-0.39,0.2-0.41,0.45c-0.03,0.35,0.61,0.51,0.54,0.78c-0.04,0.15-0.27,0.24-0.41,0.27c-0.29,0.06-0.44-0.11-0.7-0.14
	c-0.64-0.07-1.6,0.72-1.49,1.28c0.04,0.2,0.19,0.19,0.33,0.49c0.23,0.48-0.05,0.7,0.09,1.06c0.23,0.61,1.21,0.47,1.4,1
	c0.19,0.54-0.61,1.24-0.74,1.36c-0.52,0.45-1.03,0.56-1,0.76s0.63,0.12,1.01,0.45c0.43,0.36,0.06,0.79,0.24,1.71
	c0.18,0.89,0.61,0.88,0.68,1.74c0.12,0.51-0.03,1.05-0.4,1.42c-0.32,0.24-0.57,0.15-1.04,0.5c-0.16,0.12-0.57,0.42-0.54,0.76
	c0.02,0.2,0.16,0.21,0.31,0.46c0.09,0.16,0.13,0.34,0.11,0.52c-0.01,0.1-0.02,0.19-0.03,0.28c-0.04,0.17,0,0.35,0.12,0.49
	c0.21,0.21,0.45,0.15,0.55,0.36c0.09,0.26-0.03,0.54-0.27,0.68c-0.3,0.18-0.6,0-0.81,0.16s0,0.42-0.08,0.76
	c-0.19,0.74-1.62,0.78-1.85,1.54c-0.1,0.33,0.15,0.36,0.1,0.81c-0.07,0.59-0.52,0.76-1,1.44c-0.59,0.84-0.86,1.97-0.36,2.31
	c0.18,0.12,0.35,0.06,0.53,0.24c0.28,0.27,0.04,0.56,0.29,0.82c0.24,0.24,0.54,0.09,0.75,0.31c0.29,0.3-0.16,0.66,0.11,1.09
	c0.19,0.3,0.5,0.26,0.69,0.59c0.1,0.19,0.13,0.41,0.08,0.63l-1.3,0.17l0.1,1.01l-1.54,0.12l0.39,0.83l0.26,2.18l-1.62,1.65
	l-0.83-0.14l-1.6,2.53l1.58,1.46l0.45,4.25l-3.88,0.35c-0.72,0.61-0.81,1-0.74,1.26c0.12,0.47,0.83,0.74,0.69,1.08
	c-0.06,0.15-0.21,0.12-0.3,0.29c-0.2,0.37,0.32,0.88,0.5,1.06c0.41,0.4,0.62,0.39,0.88,0.63c0.85,0.77-0.25,1.88,0.49,2.6
	c0.56,0.54,1.47,0.21,1.84,0.8c0.31,0.49-0.09,1.07,0.19,1.19c0.09,0.04,0.25,0.02,0.77-0.32c1.15-0.77,1.36-1.39,1.83-1.39
	c0.45,0,0.61,0.56,0.96,0.49c0.3-0.06,0.24-0.45,0.7-0.71c0.33-0.17,0.71-0.21,1.07-0.12c0.34,0.07,0.62,0.3,0.76,0.61
	c0.07,0.23,0.05,0.48-0.05,0.7c-0.32,1.13,0.97,1.7,0.58,2.58c-0.24,0.54-0.81,0.51-0.85,0.93c-0.06,0.7,1.49,1.2,1.29,1.6
	c-0.1,0.19-0.54,0.24-0.52,0.41c0.01,0.1,0.18,0.11,0.24,0.24c0.07,0.18-0.2,0.29-0.3,0.56c-0.16,0.43,0.36,0.73,0.15,1
	c-0.11,0.14-0.28,0.09-0.42,0.27c-0.15,0.17-0.16,0.43-0.01,0.61c0.22,0.21,0.68,0.05,0.85,0.25c0.07,0.11,0.07,0.24,0.01,0.36
	l2.71,1.8l0.03,1.28l15.38-1.38c1.02,0.49,2.12,0.77,3.25,0.83c0.71,0.03,0.87-0.05,1.8-0.03c1.16,0.03,2.32,0.19,3.45,0.47
	c0.78,0.18,1.55,0.41,2.31,0.68c-3.11-2.72-9.14-8.27-8.58-12.07c0.45-3.05,2.87-3.15,4.97-7.6c1.52-3.23,0.49-3.69,1.73-7
	c2.57-6.87,8.71-9.46,7.76-11.52c-0.31-0.67-0.96-0.41-3.01-1.28c-1.42-0.61-5.56-2.36-6.78-6.1c-0.51-1.71-0.43-3.54,0.23-5.2
	c0.77-1.86,1.83-2.18,5.12-5.04c3.32-2.89,4.97-4.33,5.98-6.59c1.28-2.86,0.09-3.46,1.3-5.7c2.18-4.04,6.82-3.49,7.4-6.44
	c0.38-1.92-1.18-4.26-2.54-4.4c-1.11-0.12-1.46,1.28-2.65,1.36c-2.34,0.14-5.79-4.95-4.52-8.92c0.24-1.13,0.96-2.1,1.98-2.65
	c2.25-0.89,3.87,2.48,7.4,2.65c3.78,0.18,7.84-3.42,7.68-5.93c-0.07-1.15-1.01-1.86-0.62-2.99c0.3-0.88,1.04-0.93,2.09-1.81
	c2.22-1.87,1.37-3.71,3.16-4.74c1.43-0.83,2.27,0.17,3.95-0.85c1.2-0.73,1.01-1.39,2.09-1.98c1.43-0.78,2.27,0.12,4.57-0.06
	c2.01-0.2,3.91-0.99,5.48-2.26c1.71-1.37,1.43-2.14,2.82-2.88c2.01-1.08,3.2,0.18,5.31-0.34c3.65-0.91,6.31-6.24,5.87-10.45
	c-0.15-1.34-0.55-2.65-1.19-3.84c-0.96-1.66-1.73-1.7-2.31-2.94c-1.07-2.26,0.84-3.49,0.28-5.87c-0.79-3.39-5.27-3.51-5.76-6.66
	c-0.09-0.71,0.05-1.44,0.38-2.07c-0.04-0.03-0.07-0.07-0.09-0.12c-0.04-0.16,0.09-0.23,0.05-0.41c-0.03-0.14-0.12-0.14-0.16-0.29
	c-0.02-0.09,0-0.12,0.06-0.38c0.08-0.4,0.05-0.49,0.04-0.52c-0.06-0.12-0.13-0.11-0.16-0.21c-0.02-0.1,0.05-0.16,0.12-0.35
	c0.04-0.12,0.06-0.25,0.05-0.37c-0.01-0.2-0.08-0.21-0.11-0.45c-0.04-0.16-0.02-0.33,0.05-0.49c0.06-0.1,0.1-0.09,0.15-0.2
	c0.07-0.13,0.08-0.28,0.03-0.42c-0.08-0.16-0.26-0.12-0.28-0.24c-0.04-0.2,0.46-0.52,0.5-0.55c0.03-0.02,0.06-0.04,0.09-0.06
	c0.11-0.13,0.02-0.32-0.05-0.7c-0.06-0.19-0.07-0.39-0.02-0.59c0.05-0.16,0.16-0.29,0.31-0.36c0.14-0.06,0.19,0,0.43-0.02
	c0.25-0.01,0.48-0.11,0.67-0.27c0.14-0.14,0.08-0.19,0.27-0.38c0.18-0.19,0.26-0.16,0.32-0.31c0.08-0.14,0.06-0.31-0.04-0.44
	c-0.06-0.06-0.11-0.02-0.17-0.07c-0.1-0.09,0.03-0.24-0.04-0.47c-0.04-0.14-0.11-0.15-0.1-0.26s0.07-0.16,0.06-0.25
	c-0.02-0.1-0.1-0.1-0.16-0.2c-0.1-0.19,0.1-0.35,0.02-0.65c-0.02-0.09-0.04-0.07-0.09-0.21c-0.04-0.15-0.07-0.3-0.08-0.46
	c-0.02-0.21-0.01-0.21-0.03-0.37c0-0.23-0.05-0.46-0.15-0.67c-0.08-0.12-0.12-0.11-0.16-0.21c-0.02-0.05-0.04-0.15,0.12-0.58
	c0.05-0.16,0.12-0.31,0.21-0.45c0.15-0.18,0.24-0.16,0.32-0.32c0.01-0.02,0.03-0.15,0.08-0.39c0.03-0.19,0.03-0.2,0.03-0.22
	c-0.04-0.15-0.21-0.16-0.28-0.35c-0.03-0.08,0-0.09-0.04-0.17c-0.07-0.14-0.17-0.12-0.24-0.22c-0.09-0.14,0.09-0.26,0.07-0.61
	c-0.02-0.12-0.03-0.23-0.02-0.35c0.03-0.08,0.06-0.16,0.1-0.24c0.06-0.23,0.03-0.47-0.08-0.67c-0.09-0.17-0.15-0.14-0.2-0.29
	c-0.05-0.17-0.03-0.36,0.07-0.52c0.03-0.05,0.07-0.09,0.12-0.12c0.17-0.12,0.3-0.03,0.45-0.09c0.1-0.04,0.14-0.1,0.4-0.69
	c0.14-0.32,0.2-0.45,0.24-0.58c0.2-0.49,0.21-0.59,0.2-0.71c-0.01-0.15-0.07-0.3-0.17-0.42c-0.18-0.19-0.38-0.13-0.49-0.31
	c-0.06-0.13-0.06-0.28,0-0.41c0.13-0.28,0.45-0.22,0.57-0.49c0.07-0.15-0.02-0.18,0.02-0.43s0.14-0.27,0.35-0.68
	c0.1-0.17,0.18-0.35,0.22-0.54c0.05-0.32-0.08-0.36-0.02-0.63c0.06-0.31,0.24-0.31,0.3-0.66c0.04-0.15,0.03-0.3-0.04-0.44
	c-0.08-0.15-0.19-0.17-0.22-0.31c-0.02-0.1,0.01-0.21,0.08-0.29c0.1-0.11,0.26,0.03,0.42-0.06c0.1-0.08,0.17-0.19,0.18-0.32
	c0.04-0.2-0.07-0.24-0.04-0.44s0.14-0.2,0.13-0.36c0-0.16-0.1-0.19-0.09-0.35c0.01-0.13,0.07-0.14,0.06-0.22
	c-0.02-0.16-0.24-0.15-0.32-0.35c-0.06-0.14,0.04-0.18-0.03-0.32c-0.06-0.14-0.21-0.15-0.24-0.3c-0.02-0.09,0.02-0.11,0-0.24
	c-0.02-0.12-0.08-0.16-0.1-0.23c-0.08-0.23,0.3-0.56,0.4-0.65c0.31-0.27,0.41-0.21,0.76-0.49c0.2-0.15,0.37-0.33,0.52-0.54
	c0.16-0.19,0.26-0.42,0.32-0.66c0.01-0.06,0.01-0.12,0.01-0.18c-0.21-0.09-0.39-0.19-0.41-0.34c-0.06-0.44,1.21-0.59,1.48-1.48
	c0.18-0.61-0.31-0.93-0.09-1.48c0.21-0.53,0.79-0.55,1.53-0.95c0.98-0.59,1.78-1.43,2.31-2.44c0.85-1.3,1.09-2.43,1.76-2.45
	c0.28-0.01,0.41,0.18,0.64,0.07c0.41-0.19,0.24-0.9,0.78-1.26c0.14-0.09,0.23-0.1,0.32-0.23c0.17-0.25,0.05-0.55,0.04-0.77
	c-0.02-0.64,0.97-0.83,1.84-1.71c0.97-0.99,0.89-1.96,1.55-2.04c0.51-0.06,0.91,0.49,1.13,0.32c0.25-0.19-0.21-0.9,0.14-1.3
	c0.2-0.23,0.49-0.13,0.68-0.43c0.15-0.23,0.06-0.4,0.21-0.53c0.19-0.16,0.39,0.04,0.64-0.05c0.47-0.17,0.25-1.07,0.75-1.34
	c0.35-0.19,0.63,0.16,1.02-0.1c0.24-0.15,0.26-0.36,0.56-0.46c0.22-0.08,0.26,0.02,0.44-0.05c0.34-0.14,0.28-0.55,0.66-0.82
	c0.18-0.12,0.23-0.06,0.47-0.17c0.58-0.27,0.5-0.76,1.04-1.13c0.37-0.26,0.47-0.06,1.08-0.36c0.5-0.25,0.5-0.42,0.88-0.61
	c0.64-0.31,1.01-0.02,1.6-0.15c0.7-0.15,0.76-0.68,1.63-1.57c1.42-1.44,2.58-1.4,2.66-2.25c0.06-0.59-0.49-0.7-0.44-1.43
	c0.05-0.82,0.77-0.92,0.91-1.87C394.55,277.45,394.27,277.35,394.4,276.63z"/>
<g id="Group_18" transform="translate(95.214 302.484)">
	<path id="Path_63" class="st3" d="M173.51,110.65c-0.22,0.19-0.14,0.61,0.09,0.88c0.44,0.52,1.46,0.49,1.43,0.62
		c-0.02,0.13-0.98,0.1-1.06,0.34c-0.05,0.16,0.3,0.42,0.68,0.49c0.17,0.03,0.58,0.06,1.52-0.5c0.38-0.23,1.94-1.17,1.68-1.7
		c-0.16-0.33-0.96-0.36-0.93-0.47c0.03-0.11,0.66,0.02,1.13-0.28c0.3-0.19,0.49-0.53,0.37-0.66c-0.09-0.1-0.29,0.02-0.64-0.05
		c-0.45-0.08-0.46-0.35-1-0.54c-0.29-0.1-0.64-0.14-0.71-0.06c-0.08,0.11,0.37,0.36,0.27,0.55c-0.09,0.1-0.22,0.16-0.36,0.15
		c-0.43-0.02-0.5-0.65-0.87-0.66c-0.24,0.01-0.45,0.17-0.52,0.41c-0.06,0.33,0.63,0.62,0.53,0.77c-0.07,0.11-0.45,0-0.57,0.14
		c-0.09,0.12,0.09,0.24,0.02,0.36C174.45,110.64,173.79,110.42,173.51,110.65z"/>
	<g id="Group_17">
		<g transform="matrix(1, 0, 0, 1, -59.87, -204.43)">
			<path id="Path_64-2" class="st3" d="M250.1,399.74c-0.08-0.18,0.01-0.28-0.11-0.38c-0.29-0.24-1.01,0.2-1.39-0.01
				c-0.37-0.22,0.02-0.94-0.29-1.08c-0.33-0.14-0.95,0.59-1.43,0.49c-0.41-0.1,0-1.04-0.5-1.27c-0.16-0.07-0.35-0.07-0.51,0.01
				c-0.33,0.22,0.18,0.94-0.1,1.1c-0.15,0.05-0.32,0.02-0.45-0.07c-0.31-0.18-0.17-0.51-0.35-0.92c-0.21-0.47-0.76-0.9-1.09-0.81
				c-0.25,0.1-0.4,0.35-0.36,0.62c0.04,0.3,0.36,0.46,0.29,0.54c-0.07,0.08-0.5-0.15-0.82,0c-0.2,0.09-0.19,0.24-0.33,0.26
				c-0.24,0.02-0.36-0.47-0.54-0.45c-0.08,0.01-0.17,0.12-0.22,0.25c-0.24,0.01-0.55,0.17-0.73,0.07c-0.28-0.16,0.05-0.7-0.2-0.83
				c-0.24-0.04-0.49,0.04-0.66,0.22c-0.38,0.36-0.02,0.91-0.27,1.02c-0.21,0.1-0.51-0.28-1.05-0.21c-0.06,0.01-0.39,0.05-0.47,0.22
				c-0.12,0.23,0.31,0.63,0.7,0.63c0.2,0,0.24-0.11,0.5-0.22c0.55-0.23,0.85,0.05,1.63-0.11c0.23-0.04,0.46-0.12,0.66-0.23
				c0.21,0.13,0.54,0,0.82,0.2c0.27,0.19,0.15,0.42,0.34,0.49c0.35,0.12,0.82-0.66,1.43-0.61c0.42,0.03,0.79,0.44,0.69,0.64
				c-0.17,0.33-1.6,0.08-1.74,0.42c-0.05,0.12,0.1,0.26,0.12,0.28c0.49,0.42,1.84-0.25,2.12,0.07c0.08,0.14,0.05,0.32-0.09,0.42
				c-0.33,0.27-1.22-0.1-1.32,0.05c-0.07,0.1,0.35,0.25,0.35,0.55c0,0.2-0.2,0.24-0.3,0.55c-0.08,0.24-0.08,0.56,0.06,0.6
				c0.11,0.03,0.25-0.14,0.87-0.61c0.34-0.26,0.45-0.32,0.59-0.32c0.26,0,0.56,0.21,0.54,0.41c-0.02,0.32-0.8,0.47-0.76,0.7
				c0.03,0.18,0.53,0.18,0.55,0.35c0.02,0.21-0.7,0.3-0.85,0.71c-0.06,0.15-0.02,0.32,0.1,0.43c0.26,0.18,0.92-0.01,1.33-0.32
				c0.36-0.27,0.38-0.53,0.61-0.55c0.31-0.02,0.46,0.49,0.7,0.46c0.31-0.04,0.35-0.92,0.66-0.95c0.16-0.01,0.24,0.22,0.44,0.2
				c0.2-0.02,0.31-0.24,0.35-0.3c0.35-0.62-0.29-1.1-0.03-1.48c0.35-0.52,1.98-0.33,1.99-0.49
				C251.57,400.31,250.33,400.29,250.1,399.74z"/>
		</g>
		<g transform="matrix(1, 0, 0, 1, -59.87, -204.43)">
			<path id="Path_65-2" class="st3" d="M245.63,395.13c-1.26-0.15-1.66-0.57-2.25-0.44c-0.32,0.07-0.71,0.32-0.72,0.56
				c-0.01,0.51,1.7,0.47,3.76,1.51c1.19,0.6,1.81,1.21,2.05,1.06c0.18-0.11,0.06-0.62-0.26-0.95c-0.36-0.38-0.95-0.47-0.91-0.62
				c0.03-0.1,0.3-0.06,0.49-0.25c0.17-0.17,0.05-0.29,0.19-0.49c0.2-0.31,0.62-0.27,0.68-0.46c0.08-0.26-0.67-0.48-0.61-0.69
				c0.09-0.3,1.6-0.24,1.64-0.46c0.03-0.16-0.73-0.28-0.71-0.51c0.01-0.11,0.21-0.21,0.37-0.24c0.47-0.09,0.69,0.44,1.12,0.42
				c1.02-0.07,1.08-1.36,2.68-2.32c1.2-0.71,2.33-0.69,2.45-1.28c0.01-0.3-0.1-0.59-0.31-0.8c-0.23-0.39-0.62-0.67-1.06-0.78
				c-0.87-0.1-1.38,0.97-2.24,0.86c-0.53-0.07-0.5-0.49-1.07-0.57c-0.8,0.03-1.55,0.4-2.06,1.01c-0.67,0.71-0.67,1.37-1.08,1.41
				c-0.36,0.03-0.51-0.49-0.99-0.49c-0.54,0.01-0.93,0.7-1.04,0.65c-0.13-0.06,0.5-1,0.36-1.07c-0.72,0.31-1.26,0.92-1.48,1.67
				c-0.15,0.61-0.05,1.25,0.27,1.78c0.52,0.89,1.47,1.29,1.32,1.49C246.24,395.13,246.17,395.19,245.63,395.13z"/>
		</g>
		<path id="Path_66" class="st3" d="M164.53,99.48c0.12,0.54,0.52,0.97,1.05,1.12c0.73,0.21,1.13-0.28,2.17-0.14
			c0.78,0.11,1.21,0.47,1.39,0.33c0.21-0.16-0.32-0.67-0.05-0.97s1.02-0.11,1.09-0.3c0.06-0.14-0.37-0.24-0.58-0.66
			c-0.05-0.1-0.22-0.44-0.04-0.64c0.26-0.29,0.97,0.04,1.36-0.27c0.25-0.23,0.28-0.61,0.08-0.87c-0.22-0.27-0.58-0.16-0.89-0.46
			c-0.28-0.26-0.35-0.69-0.17-0.81c0.22-0.15,0.73,0.24,0.99,0.07c0.18-0.12,0.17-0.45,0.03-0.68c-0.24-0.39-0.73-0.31-1.28-0.61
			c-0.7-0.31-1.1-1.06-0.96-1.82c0.23-0.49,0.65-0.86,1.17-1.02c0.49-0.16,0.71-0.04,1.08-0.26c0.33-0.19,0.65-0.59,0.56-0.94
			c-0.12-0.5-0.96-0.52-0.99-0.97c-0.02-0.31,0.35-0.44,0.26-0.72c-0.08-0.22-0.33-0.2-0.61-0.45c-0.45-0.4-0.14-0.8-0.5-1
			c-0.4-0.23-1.19,0.03-1.55,0.19c-0.42,0.19-0.72,0.46-0.85,0.39c-0.1-0.05,0.03-0.23-0.11-0.36c-0.22-0.15-0.5-0.16-0.73-0.02
			c-0.15,0.13,0.03,0.31-0.05,0.64c-0.08,0.34-0.28,0.32-0.41,0.62c-0.18,0.45,0.19,0.65,0.1,1.23c-0.04,0.28-0.14,0.31-0.29,0.67
			c-0.16,0.56-0.2,1.15-0.11,1.72c0.05,0.87,0.08,1.32,0.27,1.55c0.36,0.34,0.78,0.61,1.25,0.78c-0.03,0.05-0.83-0.41-1.26-0.2
			c-0.59,0.29,0.34,1.43-0.26,2.85C165.26,98.51,164.42,98.73,164.53,99.48z"/>
		<path id="Path_67" class="st3" d="M169.4,159.52c0.35-0.38,0.71-0.25,0.9-0.54c0.29-0.45-0.54-0.83-0.37-1.63
			c0.07-0.34,0.28-0.51,0.14-0.69c-0.17-0.23-0.61-0.1-0.88-0.31c-0.21-0.16-0.23-0.45-0.02-1.24c0.36-1.35,0.65-1.43,0.61-2.01
			c-0.04-0.52-0.27-0.45-0.56-1.38c-0.24-0.78-0.07-0.78-0.3-1.63c-0.29-1.04-0.59-1.2-0.46-1.76c0.1-0.43,0.34-0.56,0.26-0.9
			c-0.09-0.4-0.46-0.39-0.82-0.85c-0.38-0.49-0.1-0.68-0.49-1.76c-0.15-0.3-0.27-0.61-0.37-0.92c-0.15-0.66,0-1.09-0.22-1.16
			c-0.16-0.05-0.45,0.12-0.61,0.31c-0.37,0.49,0,1.23,0.28,1.78c0.18,0.36,0.38,0.64,0.28,0.71c-0.1,0.07-0.4-0.24-0.79-0.2
			c-0.46,0.07-0.81,0.44-0.86,0.9c-0.01,0.59,0.85,0.95,0.94,0.98c0.44,0.17,0.71,0.09,0.84,0.28c0.2,0.29-0.18,0.83-0.41,0.83
			c-0.21,0-0.19-0.42-0.58-0.54c-0.19-0.06-0.39-0.03-0.56,0.08c-0.13,0.14,0.08,0.3,0.06,0.62c-0.02,0.34-0.27,0.39-0.32,0.68
			c-0.04,0.2,0.04,0.4,0.79,1.19c0.63,0.67,0.6,0.55,0.7,0.72c0.33,0.66,0.32,1.44-0.04,2.09c-0.12,0.31-0.22,0.44-0.34,0.46
			c-0.3,0.04-0.49-0.58-0.83-0.57c-0.44,0.02-0.63,1.11-0.98,1.11c-0.31,0-0.36-0.86-0.76-0.88c-0.22,0.02-0.41,0.16-0.49,0.36
			c-0.19,0.51,0.87,0.94,0.66,1.37c-0.1,0.18-0.3,0.29-0.5,0.28c-0.5-0.08-0.22-1.47-0.72-1.57c-0.24-0.05-0.61,0.24-0.73,0.52
			c-0.26,0.62,0.66,1.26,0.8,1.36c0.5,0.33,0.71,0.22,1.04,0.52c0.42,0.38,0.24,0.74,0.45,1.39c0.32,0.95,1.21,1.73,1.53,1.63
			c0.16-0.05,0.17-0.31,0.2-0.84c0.04-0.46-0.02-0.93-0.17-1.37c-0.16-0.47-0.26-0.43-0.32-0.73c-0.11-0.61,0.18-1.35,0.6-1.41
			c0.3-0.05,0.42,0.45,0.75,0.43c0.52-0.03,0.71-1.3,1.14-1.3c0.23,0.04,0.39,0.24,0.4,0.47c0.02,0.54-1.04,0.65-1.51,1.5
			c-0.29,0.46-0.27,1.05,0.04,1.49c0.17,0.19,0.3,0.16,0.38,0.33c0.23,0.44-0.53,0.8-0.49,1.43c0.04,0.66,0.94,1.05,1.02,1.08
			c0.12,0.05,0.82,0.34,1.21,0.11C169.25,160.18,169.06,159.89,169.4,159.52z"/>
		<g transform="matrix(1, 0, 0, 1, -59.87, -204.43)">
			<path id="Path_68-2" class="st3" d="M276.84,382.4c-0.75-0.27-1.52-0.5-2.31-0.68c-1.13-0.28-2.29-0.44-3.45-0.47
				c-0.93-0.02-1.09,0.06-1.8,0.03c-1.13-0.06-2.23-0.34-3.25-0.83l-15.38,1.38l-0.03-1.28l-2.71-1.8c0.06-0.11,0.06-0.25-0.01-0.36
				c-0.17-0.21-0.62-0.04-0.85-0.25c-0.15-0.18-0.14-0.44,0.01-0.61c0.14-0.17,0.31-0.12,0.42-0.27c0.21-0.27-0.3-0.57-0.15-1
				c0.1-0.26,0.36-0.38,0.3-0.56c-0.05-0.13-0.23-0.14-0.24-0.24c-0.01-0.17,0.43-0.22,0.52-0.41c0.2-0.4-1.34-0.9-1.29-1.6
				c0.03-0.42,0.61-0.39,0.85-0.93c0.39-0.88-0.9-1.44-0.58-2.58c0.1-0.22,0.12-0.47,0.05-0.7c-0.15-0.31-0.43-0.54-0.76-0.61
				c-0.36-0.09-0.74-0.05-1.07,0.12c-0.46,0.26-0.4,0.65-0.7,0.71c-0.36,0.07-0.51-0.49-0.96-0.49c-0.48,0-0.69,0.62-1.83,1.39
				c-0.52,0.34-0.68,0.36-0.77,0.32c-0.28-0.11,0.12-0.7-0.19-1.19c-0.37-0.59-1.28-0.26-1.84-0.8c-0.75-0.72,0.36-1.84-0.49-2.6
				c-0.26-0.24-0.47-0.23-0.88-0.63c-0.19-0.18-0.71-0.69-0.5-1.06c0.09-0.17,0.24-0.15,0.3-0.29c0.14-0.34-0.57-0.61-0.69-1.08
				c-0.07-0.26,0.02-0.66,0.74-1.26l3.88-0.35l-0.45-4.25l-1.58-1.46l1.6-2.53l0.84,0.14l1.62-1.65l-0.26-2.18l-0.39-0.83l1.54-0.12
				l-0.1-1.01l1.3-0.17c0.05-0.21,0.02-0.44-0.09-0.63c-0.2-0.34-0.5-0.3-0.69-0.59c-0.27-0.43,0.19-0.79-0.11-1.09
				c-0.22-0.22-0.52-0.07-0.75-0.31c-0.26-0.26-0.01-0.55-0.29-0.82c-0.18-0.18-0.35-0.12-0.53-0.24c-0.49-0.34-0.22-1.47,0.36-2.31
				c0.48-0.68,0.93-0.85,1-1.44c0.05-0.45-0.2-0.49-0.1-0.81c0.24-0.76,1.66-0.8,1.85-1.54c0.09-0.34-0.14-0.59,0.08-0.76
				c0.22-0.16,0.51,0.01,0.81-0.16c0.24-0.13,0.35-0.42,0.27-0.68c-0.1-0.22-0.34-0.16-0.55-0.36c-0.12-0.13-0.17-0.31-0.12-0.49
				c0.01-0.09,0.03-0.18,0.03-0.28c0.02-0.18-0.02-0.36-0.11-0.52c-0.15-0.26-0.29-0.26-0.31-0.46c-0.03-0.34,0.38-0.64,0.54-0.76
				c0.47-0.35,0.73-0.26,1.04-0.5c0.37-0.37,0.53-0.91,0.4-1.42c-0.08-0.86-0.51-0.85-0.68-1.74c-0.18-0.92,0.19-1.35-0.24-1.71
				c-0.39-0.33-0.98-0.23-1.01-0.45c-0.04-0.22,0.48-0.31,1-0.76c0.13-0.12,0.94-0.82,0.74-1.36c-0.19-0.54-1.17-0.4-1.4-1
				c-0.13-0.36,0.15-0.59-0.09-1.06c-0.15-0.3-0.29-0.29-0.33-0.49c-0.11-0.56,0.85-1.35,1.49-1.28c0.26,0.03,0.41,0.2,0.7,0.14
				c0.15-0.03,0.37-0.12,0.41-0.27c0.08-0.27-0.56-0.43-0.54-0.78c0.02-0.25,0.37-0.43,0.41-0.45c0.35-0.17,0.59-0.02,0.76-0.13
				c0.36-0.23-0.01-1.31-0.74-2.09c-0.45-0.48-1-0.84-1.62-1.05c-0.58-0.27-1.24-0.34-1.87-0.2c-0.27,0.09-0.4,0.22-0.63,0.19
				c-0.37-0.07-0.63-0.38-0.64-0.75c0.03-0.26,0.16-0.5,0.37-0.66c0.39-0.28,0.96-0.29,2.05-0.3c0.34,0.03,0.67,0,0.99-0.11
				c0.33-0.14,0.41-0.32,0.64-0.32c0.27,0.01,0.29,0.28,0.62,0.42c0.46,0.17,0.98,0.07,1.35-0.26c0.26-0.37-0.41-0.79-0.12-1.26
				c0.16-0.26,0.42-0.21,0.61-0.5c0.23-0.37,0.12-0.85-0.23-1.09c-0.36-0.21-0.69,0.07-1.35-0.12c-0.47-0.14-0.44-0.32-0.81-0.37
				c-0.49-0.07-0.71,0.22-1.42,0.39c-0.28,0.07-1.17,0.28-1.6-0.02c-0.63-0.45,0.03-1.79,0.09-1.91c0.4-0.78,0.8-0.79,0.86-1.3
				c0.08-0.75-0.77-0.97-0.64-1.69c0.11-0.62,0.79-0.78,0.69-1.2c-0.09-0.35-0.6-0.34-1.31-0.8c-0.65-0.42-1.43-1.21-1.17-1.7
				c0.24-0.44,1.16-0.3,1.33-0.7c0.07-0.14,0.09-0.47-1.48-1.62c-1.68-1.22-2.08-1.11-2.27-1.64c0.01-0.89,0.2-1.77,0.55-2.6
				c0.16-0.54,0.24-0.76,0.14-1.06c-0.18-0.56-0.7-0.62-1.06-1.31c-0.06-0.12-0.44-0.87-0.11-1.1c0.25-0.18,0.7,0.09,1.91,0.09
				c0.24,0.03,0.49,0,0.71-0.1c0.41-0.24,0.36-0.81,0.33-1.26c-0.09-1.08-0.59-1.17-0.48-1.96c0.05-0.34,0.19-0.59-0.01-0.82
				c-0.2-0.22-0.57-0.19-0.69-0.41s0.15-0.41,0.26-0.72c0.23-0.67-0.64-0.89-0.72-1.75s0.75-1.29,0.38-1.87
				c-0.16-0.24-0.4-0.31-0.47-0.63c-0.07-0.3,0.09-0.45,0.15-0.76c0.09-0.47-0.19-0.54-0.33-1.2c-0.18-0.85,0.24-0.97,0-1.75
				c-0.12-0.4-0.3-0.61-0.15-0.78c0.2-0.22,0.64-0.04,1.03-0.3c0.29-0.16,0.43-0.5,0.34-0.82c-0.17-0.38-0.83-0.23-1.23-0.67
				c-0.3-0.29-0.34-0.76-0.07-1.09c0.32-0.28,0.94-0.03,1.13-0.28c0.15-0.2-0.21-0.4-0.12-0.83c0.08-0.35,0.35-0.39,0.33-0.62
				c-0.04-0.34-0.65-0.33-0.81-0.74c-0.11-0.29,0.17-0.4,0.16-0.89s-0.29-0.8-0.19-0.86s0.39,0.35,0.92,0.39
				c0.25,0.02,0.51-0.04,0.72-0.18c0.25-0.21,0.11-0.49,0.05-1.67c-0.03-0.22-0.02-0.44,0.04-0.65c0.15-0.46,0.45-0.51,0.52-0.81
				c0.11-0.48-0.54-0.66-0.69-1.26c-0.04-0.49,0.13-0.98,0.46-1.34c0.66-0.99,1.94-1.85,2.55-1.64c0.16,0.06,0.23,0.17,0.4,0.16
				c0.36-0.04,0.58-0.64,0.6-0.71c0.15-0.56,0.03-1.15-0.33-1.6c-0.28-0.35-0.41-0.29-0.62-0.59c-0.36-0.53-0.04-0.88-0.15-1.51
				c-0.15-0.87-0.87-0.82-1.47-2.06c-0.22-0.41-0.35-0.86-0.38-1.32c-0.04-1.05,0.55-1.33,0.3-1.98c-0.26-0.67-1.03-0.73-1.01-1.28
				c0.02-0.41,0.43-0.42,0.51-0.87c0.12-0.71-0.83-1.13-0.55-1.67c0.11-0.21,0.28-0.2,0.34-0.43c0.09-0.34-0.29-0.49-0.33-0.84
				c-0.05-0.46,0.53-0.55,0.73-1.17c0.21-0.67-0.24-1.23,0.01-1.36c0.17-0.08,0.41,0.17,0.64,0.08c0.32-0.13,0.13-0.73,0.41-0.83
				c0.23-0.08,0.44,0.3,0.87,0.28c0.43-0.04,0.8-0.33,0.95-0.74c0.12-0.47-0.39-0.65-0.25-1.1c0.17-0.37,0.51-0.65,0.91-0.74
				c0.44-0.12,0.61,0.06,0.87-0.09c0.39-0.21,0.43-0.82,0.3-1.21c-0.08-0.25-0.17-0.26-0.23-0.51c-0.08-0.36,0.08-0.52,0.09-0.83
				c0.03-0.52-0.38-0.52-0.5-1.11c-0.12-0.65,0.3-1.06-0.03-1.35c-0.14-0.13-0.25-0.08-0.37-0.22c-0.26-0.3,0.14-0.65-0.06-0.93
				c-0.23-0.33-1.02-0.18-1.06-0.35s0.67-0.22,1.06-0.67c0.32-0.36,0.08-0.59,0.29-1.33c0.21-0.74,0.5-0.72,0.61-1.3
				c0.15-0.79-0.38-0.93-0.18-1.51c0.24-0.71,1.08-0.65,1.47-1.47c0.29-0.62-0.03-0.98,0.36-1.28c0.42-0.32,0.97-0.07,1.27-0.35
				s-0.01-0.69-0.24-1.41c-0.5-1.56,0.21-1.73-0.29-3.25c-0.16-0.49-0.41-1.01-0.09-1.29c0.23-0.2,0.54-0.09,0.74-0.3
				c0.32-0.32,0.05-1.09-0.48-1.25c-0.33-0.1-0.49,0.11-0.91,0.06c-0.75-0.09-1.38-0.92-1.17-1.49c0.08-0.21,0.19-0.18,0.24-0.36
				c0.16-0.54-0.87-0.8-1.12-1.72c-0.05-0.23-0.07-0.46-0.07-0.7c-0.03-0.67,0.06-0.76-0.03-1.01c-0.16-0.43-0.49-0.35-0.86-0.85
				c-0.41-0.55-0.08-0.77-0.49-1.33c-0.36-0.52-0.88-0.66-0.79-0.88c0.1-0.24,0.75-0.18,0.81-0.36c0.09-0.29-1.44-0.42-1.78-1.24
				c-0.15-0.36,0.01-0.67-0.33-1.18c-0.09-0.13-0.2-0.25-0.32-0.36c-0.54-0.8-0.67-1.82-0.34-2.73c0.07-0.38,0.16-0.69,0.42-0.78
				c0.22-0.07,0.37,0.08,0.61,0.03c0.38-0.09,0.51-0.66,0.57-0.99c0.11-0.67,0.18-1.34,0.19-2.02c0.07-0.84,0.17-2.11,1.02-2.47
				c0.56-0.24,1.11,0.05,1.38-0.25s-0.12-0.67,0.21-1.07c0.21-0.25,0.47-0.24,0.49-0.39c0.04-0.33-1.23-0.44-1.29-0.92
				c-0.03-0.2,0.19-0.29,0.36-0.54c0.47-0.66,0.03-1.55-0.5-2.57c-0.59-1.14-0.92-1.24-0.84-1.72c0.11-0.64,0.73-0.7,1.3-1.48
				c0.49-0.67,0.23-0.9,0.57-3.13c0.28-1.82,0.52-2.18,0.78-2.45c0.54-0.56,0.91-0.48,1.33-1.09c0.47-0.68,0.28-1.15,0.89-1.64
				c0.38-0.3,0.53-0.19,0.83-0.45c0.65-0.56,0.03-1.18,0.41-2.24c0.39-1.08,1.29-1.18,1.3-2.1c0-0.51-0.27-0.69-0.08-1.12
				c0.24-0.51,0.75-0.85,1.32-0.87c0.35,0.04,0.39,0.29,0.7,0.27c0.38-0.02,0.42-0.41,0.95-0.66c0.55-0.25,0.94-0.02,1.17-0.23
				c0.41-0.35-0.3-1.38-0.4-1.51c-0.78-1.12-1.59-1.15-2.08-2.19c-0.25-0.36-0.28-0.82-0.08-1.2c0.3-0.42,0.87-0.3,1.24-0.66
				c0.15-0.14,0.47-0.57-0.47-2.61c-0.52-0.85-0.94-1.75-1.25-2.7c-0.08-0.36-0.33-1.63,0.33-1.98c0.17-0.09,0.32-0.07,0.47-0.22
				c0.27-0.31,0.29-0.78,0.03-1.1c-0.36-0.53-1.02-0.4-1.27-0.75c-0.42-0.57,0.66-1.86,1.84-2.78c1.18-0.91,1.98-1.07,5.71-2.74
				c0.67-0.3,1.22-0.56,1.58-0.72l1.76-7.12l-1.48-1l-0.37-0.25l-1.71,0.82l-2.99,0.35c-0.14-0.1-0.26-0.22-0.35-0.36
				c-0.51-0.73,0.07-1.33-0.3-2.28c-0.18-0.46-0.32-0.34-0.46-0.77c-0.24-0.76,0.19-1.18-0.17-1.68c-0.24-0.35-0.5-0.2-0.79-0.54
				c-0.55-0.65,0.22-1.37-0.3-1.92c-0.34-0.36-0.77-0.15-1.11-0.51c-0.45-0.49,0.16-1-0.08-1.88c-0.21-0.58-0.61-1.07-1.13-1.41
				c-0.9-0.72-1.41-0.58-1.88-1.22c-0.29-0.4-0.51-1.04-0.17-1.39c0.23-0.24,0.59-0.23,0.6-0.34c0.01-0.24-1.5-0.27-2.24-0.96
				c-0.19-0.17-0.24-0.31-0.22-0.43c0.04-0.26,0.4-0.3,0.48-0.53c0.15-0.42-0.92-0.74-0.82-1.19c0.07-0.3,0.59-0.27,1.08-0.78
				c0.09-0.09,0.61-0.63,0.42-1.06c-0.2-0.45-0.99-0.35-1.09-0.71c-0.09-0.33,0.57-0.56,1.23-1.45c0.36-0.49,0.54-0.73,0.5-0.95
				c-0.15-0.81-2.38-0.49-3.55-1.71c-0.38-0.68-0.68-1.4-0.88-2.14c-0.24-0.62-0.44-1.25-0.61-1.89c-0.34-1.46,0.43-1.88-0.08-2.29
				s-1.61-4.35-1.98-4.46h-0.02c-0.8-0.21-9.72-0.76-10.19-0.22c-0.04,0.07-0.05,0.15-0.05,0.23c0.17,3.15,0.56,6.28,1.18,9.37
				c0.42,1.16,0.99,2.26,1.7,3.28c0.66,1.65,1.01,3.41,1.02,5.2c0.04,1.43-0.74,1.92-0.68,3.61c-0.01,1.35,0.34,2.67,1.02,3.84
				c0.56,0.75,0.98,1.59,1.24,2.48c0.12,1.05-0.91,1.17-1.36,2.37c-0.51,1.4,1.7,5.89,0.91,7.63c-0.3,0.21-0.65,0.36-1.02,0.41
				c-0.21-0.02-0.61-0.4-0.82-0.42s-0.56,0.57-0.71,1.19c-0.16,0.62,0.01,1.28,0.45,1.75c0.38,0.28,1.07,0.03,1.41,0.2
				c0.83,0.41-0.19,2.03-0.42,4.07c-0.07,0.57-0.89,3.58,0.28,5.65c0.44,0.49,0.76,1.07,0.96,1.7c0.12,0.62,0.05,1.26-0.23,1.83
				c-0.39,0.8-1.35,1.05-1.72,1.67c-0.42,0.7-0.29,0.85,0.14,2.85c0.66,3.12,0.87,3.58,0.65,3.84c-0.21,0.3-0.35,0.63-0.42,0.99
				c-0.18,0.73,0.83,1.15,0.54,1.7c-0.18,0.33-0.91,0.3-1.21,0.65c-0.48,0.63-0.6,1.46-0.31,2.2c0.19,0.7,0.62,0.93,0.49,1.3
				c-0.17,0.46-0.51,0.45-0.87,0.76c-0.74,0.64-0.58,1.31-0.76,3.95c-0.11,1.63,0.07,2.34-0.25,2.79c-0.43,0.6-0.61,0.47-0.9,1.02
				c-0.57,0.81-0.59,1.88-0.06,2.71c0.44,0.53,0.81,0.47,1.16,0.96c0.49,0.68,0.18,1.17,0.2,2.54c0.11,0.8,0.09,1.61-0.08,2.4
				c-0.26,0.96-0.47,2.02-1.13,2.03c-0.35,0.01-1-0.2-1.19-0.14c-0.46,0.15,0.1,2.53,0.2,2.94c0.97,3.9,1,3.82,1.27,5.25
				c0.4,2.07,1.23,3.63,1.04,4.77c-0.12,0.46-0.12,0.95,0,1.41c0.22,0.53,0.71,0.63,0.96,0.99c0.56,0.8-0.12,1.39-0.25,3.05
				c0.01,0.58,0.06,1.15,0.14,1.72c-0.17,1.17-0.46,2.31-0.87,3.42c-0.28,1.02-0.64,2.01-1.07,2.96c-0.52,1.33-0.83,2.73-0.9,4.15
				c-0.23,2.06,0.17,2.5-0.54,4c-0.34,0.46-0.7,0.89-1.1,1.3c-0.78,0.75-1.33,1.7-1.58,2.75c-0.1,0.54-0.04,1.1,0.16,1.61
				c0.17,0.38,0.36,0.55,0.32,0.87c-0.07,0.46-0.54,0.65-0.87,1c-0.65,0.7,0.01,1.22-0.21,2.5c-0.39,1.38-1.15,2.63-2.21,3.61
				c-0.22,0.17-0.39,0.38-0.52,0.62c-0.4,0.94,0.83,1.58,0.48,2.48c-0.21,0.48-0.65,0.81-1.16,0.89c-0.49,0.04-0.63-0.29-1.25-0.31
				c-0.51-0.04-1.02,0.16-1.37,0.53c-0.31,0.48,0.36,0.9,0.71,2.03c0.27,0.88-0.06,0.88,0.16,1.75c0.36,1.46,1.33,1.59,1.44,2.81
				c0.07,0.78-0.32,0.68-0.35,1.77c0.06,0.94,0.31,1.86,0.74,2.71c0.26,0.67,0.46,1.03,0.87,1.13c0.41,0.09,0.78-0.15,0.95-0.01
				c0.2,0.16-0.19,0.57-0.35,1.08c-0.26,0.85,0.33,1.3,0.62,2.39c0.16,0.73,0.17,1.49,0.03,2.23c-0.36,1.81-1.72,1.87-2.51,3.62
				c-0.87,1.92,0.56,2.3-0.29,5.01c-0.4,0.85-0.67,1.76-0.81,2.69c-0.04,0.86,0.08,1.72,0.34,2.53c0.39,1.49,0.66,2.56,1.58,2.85
				c0.24,0.07,0.63,0.13,0.7,0.35c0.09,0.29-0.43,0.54-0.34,0.81c0.02,0.05,0.11,0.24,0.83,0.33c1.11,0.17,2.25-0.06,3.21-0.66
				c1.07-0.78,0.83-1.69,1.51-1.82c0.79-0.15,1.2,1.06,2.32,1.01c1.01-0.04,1.67-1.09,2.2-0.88c0.16,0.06,0.27,0.21,0.27,0.38
				c-0.06,0.51-1.61,0.46-2.57,1.44c-0.17,0.17-0.64,0.65-0.47,1.13c0.19,0.42,0.62,0.68,1.08,0.64c0.35-0.05,0.41-0.33,0.62-0.32
				c0.36,0.02,0.2,0.82,0.82,1.88c0.25,0.33,0.41,0.73,0.46,1.14c0.02,0.22,0,0.58-0.13,0.61s-0.31-0.34-0.89-0.96
				c-0.5-0.53-0.7-0.6-0.84-0.62c-0.36-0.08-0.73,0.01-1.01,0.24c-0.37,0.41,0.15,1.24,0.71,1.7c0.4,0.32,0.86,0.48,0.81,0.55
				c-0.06,0.1-0.82-0.24-1.28,0.01c-0.42,0.24-0.42,0.89-0.29,1.3c0.17,0.56,0.51,0.52,0.57,0.97c0.08,0.6-0.49,0.97-0.22,1.33
				c0.14,0.2,0.41,0.23,0.39,0.36c-0.02,0.15-0.39,0.14-0.64,0.33c-0.45,0.36,0.13,0.97-0.15,1.71c-0.27,0.71-0.99,0.62-1.15,1.2
				c-0.21,0.78,1.03,1.14,0.92,2.19c-0.04,0.43-0.24,0.37-0.41,0.99c-0.27,1.01,0.24,1.28,0.01,2.02c-0.3,0.92-1.27,0.99-1.23,1.58
				c0.03,0.45,0.59,0.47,2.1,1.49c1.01,0.68,1.33,1.05,1.8,0.96c0.61-0.12,0.81-0.87,1.06-0.83c0.23,0.04,0.27,0.69,0.15,1.33
				c-0.18,1.19-0.85,2.25-1.84,2.93c-1.49,1.02-3.18,0.92-3.34,1.66c-0.07,0.33,0.25,0.49,0.16,0.96c-0.12,0.66-1.02,0.85-0.93,1.12
				c0.1,0.29,1.17,0.32,1.79,0.27c0.52-0.04,0.83-0.14,0.85-0.08c0.05,0.11-1.16,0.63-1.59,0.82c-0.55,0.24-0.55,0.22-0.64,0.29
				c-0.31,0.26-0.31,0.84-0.31,2.01c0,0.57,0,0.85,0.12,0.88c0.27,0.05,0.6-1.07,1.3-1.13c0.35-0.03,0.78,0.22,0.81,0.49
				c0.05,0.5-1.32,0.66-2.24,1.56c-1.28,1.26-1,3.3-0.51,3.41c0.39,0.08,1.05-1,1.19-0.94c0.12,0.05-0.39,0.83-0.95,1.98
				c-0.73,1.54-0.89,2.41-1.32,2.43c-0.22-0.02-0.42-0.16-0.51-0.36c-0.38-0.7,0.94-1.4,0.64-2.26c-0.1-0.28-0.32-0.5-0.61-0.59
				c-0.49-0.12-0.9,0.31-1.2,0.19c-0.33-0.14,0-0.73-0.14-1.62c-0.12-0.7-0.49-1.33-1.04-1.77c-0.3-0.24-0.79-0.64-1.2-0.53
				c-0.66,0.18-0.47,1.52-1.08,1.66c-0.28,0.06-0.38-0.2-0.97-0.4c-0.78-0.2-1.59-0.17-2.35,0.11c-0.53,0.17-1.09,0.36-1.28,0.8
				c-0.15,0.37-0.02,0.8,0.31,1.01c0.51,0.3,1.23-0.1,1.44,0.14s-0.25,0.8-0.64,1.15c-0.61,0.54-0.9,0.4-1.53,0.87
				c-0.75,0.55-0.5,0.87-1.41,1.71c-0.29,0.27-0.26,0.19-1.11,0.87c-0.73,0.58-1.09,0.88-1.16,1.07c-0.23,0.6,0.22,1.18,0.73,1.83
				c0.38,0.49,0.65,0.84,1.03,0.81c0.5-0.08,0.87-0.5,0.89-1c-0.06-0.78-1.61-1.02-1.5-1.46c0.07-0.27,0.67-0.24,1.52-0.61
				c0.8-0.41,1.55-0.92,2.21-1.53c0.09,0.06-0.8,0.77-0.58,1.43c0.14,0.41,0.66,0.65,0.9,0.76c0.58,0.26,0.75,0.09,1.35,0.32
				c0.79,0.3,0.77,0.7,1.46,0.83c0.49,0.09,1.06-0.02,1.12-0.2c0.09-0.24-0.76-0.47-0.69-0.76c0.06-0.23,0.68-0.46,1.23-0.39
				c0.76,0.1,0.72,0.67,1.78,1.14c0.55,0.24,1,0.27,0.99,0.44c-0.01,0.18-0.59,0.18-0.95,0.57c-0.33,0.31-0.36,0.82-0.06,1.16
				c0.32,0.24,0.96,0.06,0.98,0.13s-0.66,0.16-1.26,0.48c-0.06,0.03-1.38,0.76-1.28,1.78c0.09,0.57,0.47,1.05,1.01,1.27
				c0.4,0.17,0.73,0.12,0.82,0.31c0.14,0.28-0.3,0.8-0.61,0.78c-0.36-0.02-0.32-0.78-0.86-0.89c-0.32-0.01-0.63,0.09-0.89,0.29
				c-0.22,0.12-1.05,0.59-0.94,1.12c0.06,0.34,0.48,0.52,0.49,0.53c0.56,0.24,1.02-0.13,2.21-0.09c0.29-0.02,0.57,0.03,0.84,0.13
				c-0.33,0.04-0.66,0.1-0.99,0.18c-0.44,0.15-1,0.49-0.95,0.73c0.05,0.22,0.59,0.27,1.53,0.37c0.87,0.09,1.09,0,1.19-0.1
				c0.15-0.16,0.01-0.36,0.13-0.42c0.17-0.09,0.45,0.26,1.04,0.36c0.1,0.02,0.68,0.12,0.95-0.14c0.17-0.14,0.21-0.37,0.1-0.56
				c-0.29-0.35-1.31,0.16-2.03-0.28c-0.26-0.16-0.45-0.42-0.36-0.53c0.18-0.22,1.35,0.44,2.1,0.06c0.59-0.3,0.51-1.03,0.85-1.06
				c0.24-0.02,0.3,0.36,0.76,0.78c0.77,0.71,1.78,0.76,1.72,1.03c-0.03,0.13-0.31,0.24-0.52,0.25c-0.4,0.01-0.61-0.35-0.8-0.29
				c-0.13,0.04-0.18,0.26-0.15,0.42c0.1,0.7,1.47,0.67,1.84,1.5c0.18,0.4,0.07,0.88-0.15,0.96c-0.21,0.07-0.45-0.22-1.29-0.79
				c-1.01-0.68-1.24-0.66-1.35-0.63c-0.49,0.12-0.6,0.91-0.74,0.89c-0.1-0.01,0.06-0.43-0.22-0.75c-0.23-0.22-0.53-0.35-0.85-0.36
				c-0.42,0.01-0.83,0.08-1.23,0.21c-0.65,0.14-0.74,0.15-0.79,0.23c-0.19,0.32,0.75,0.86,0.63,1c-0.08,0.09-0.6-0.01-0.95-0.3
				c-0.39-0.32-0.24-0.61-0.56-0.82c-0.47-0.32-1.52-0.13-1.65,0.18c-0.14,0.34,0.92,0.91,1.49,1.15c0.59,0.24,0.74,0.18,1.08,0.43
				c0.38,0.29,0.65,0.69,0.77,1.15c0.1,0.26,0.15,0.54,0.12,0.82c-0.12,0.9-1.01,1.13-0.92,1.73c0.08,0.49,0.75,0.64,0.62,0.97
				c-0.11,0.29-0.67,0.21-0.88,0.54c-0.25,0.41,0.47,0.75,0.36,1.5c-0.07,0.44-0.33,0.43-0.31,0.79c0.03,0.58,0.69,0.81,0.53,1.21
				c-0.09,0.22-0.34,0.31-0.29,0.49c0.04,0.12,0.18,0.12,0.32,0.24c0.22,0.26,0.3,0.61,0.2,0.94c-0.06,0.43-0.22,0.45-0.18,0.67
				c0.26,0.55,0.85,0.85,1.44,0.73c0.25-0.16-0.16-0.58,0.12-1.23c0.18-0.41,0.58-0.77,0.74-0.73c0.24,0.07-0.33,0.95,0.18,1.48
				c0.35,0.36,0.86,0.18,1.4,0.65c0.33,0.28,0.55,0.7,0.4,0.83c-0.15,0.14-0.53-0.13-1.25-0.16c-0.69-0.08-1.38,0.15-1.87,0.64
				c-0.02,0.03-0.22,0.35-0.05,0.57c0.2,0.26,0.72,0.13,0.81,0.32c0.12,0.25-0.82,0.59-0.78,1.01c0.02,0.26,0.4,0.33,1.42,0.85
				c0.45,0.18,0.87,0.43,1.24,0.75c-0.79-0.33-1.65-0.48-2.51-0.43c-0.29,0.04-0.39,0.09-0.44,0.16c-0.32,0.36,0.4,1.36,1.36,1.95
				c0.56,0.35,1.04,0.45,1,0.55c-0.45,0.16-0.94,0.14-1.38-0.06c-1.02-0.41-0.85-1.36-1.56-1.48c-0.71-0.13-1.79,0.69-1.68,1.15
				c0.1,0.42,1.13,0.42,1.26,0.97c0.07,0.3-0.18,0.5-0.04,0.62c0.27,0.23,1.32-0.36,1.53-0.15c0.13,0.13-0.23,0.4-0.12,0.61
				c0.22,0.4,1.9,0.03,1.96,0.23c0.05,0.14-0.86,0.28-1.16,0.76c-0.55,0.89,1.1,2.69,1.97,2.51c0.42-0.09,0.85-0.77,1.69-2.14
				c0.15-0.24,0.28-0.46,0.55-0.53c0.65-0.17,1.69,0.66,1.51,1.03c-0.18,0.37-1.33,0-1.78,0.52c-0.33,0.38-0.03,0.93-0.24,2.14
				c-0.02,0.1-0.06,0.31-0.21,0.36c-0.22,0.07-0.4-0.3-0.89-0.48c-0.51-0.18-1.08-0.12-1.53,0.18c-0.22,0.18-0.35,0.45-0.35,0.74
				c0,0.19,0.05,0.57,0.3,0.63c0.2,0.05,0.38-0.17,0.53-0.11c0.12,0.05,0.12,0.23,0.1,0.55c-0.03,0.63-0.04,0.95,0.05,0.99
				c0.21,0.09,0.62-0.45,1.02-0.36c0.32,0.07,0.29,0.47,0.57,0.51c0.4,0.06,0.74-0.72,1.08-0.67c0.41,0.05,0.55,1.23,0.23,1.35
				c-0.23,0.08-0.57-0.38-0.83-0.28c-0.18,0.07-0.19,0.38-0.13,0.58c0.13,0.36,0.48,0.59,0.86,0.59c0.27-0.01,0.32-0.15,0.5-0.12
				c0.14,0.02,0.32,0.13,0.64,1.21c0.09,0.26,0.15,0.52,0.17,0.79c-0.04,0.01-0.17-0.36-0.53-0.89c-0.39-0.56-0.61-0.65-0.7-0.68
				c-0.29-0.1-0.77-0.12-0.93,0.05c-0.26,0.28,0.53,0.75,0.31,1.46c-0.08,0.24-0.22,0.36-0.14,0.52c0.13,0.24,0.58,0.12,0.76,0.36
				c0.23,0.29-0.31,0.69-0.09,1.01c0.25,0.25,0.63,0.32,0.96,0.19c0.37-0.17,0.29-0.65,0.5-0.67c0.18-0.02,0.45,0.33,0.47,0.71
				c-0.02,0.24-0.09,0.46-0.22,0.66c-0.35,0.91,0.8,2.31,1.8,2.32c0.22-0.04,0.44-0.01,0.64,0.07c0.24,0.15,0.34,0.51,0.18,0.64
				c-0.38,0.3-2.08-0.86-2.47-0.54c-0.13,0.1-0.06,0.33,0.01,0.58c0.14,0.49,0.41,0.52,0.53,0.87c0.2,0.56-0.36,0.8-0.17,1.37
				c0.14,0.41,0.46,0.34,0.61,0.75c0.14,0.36-0.03,0.77-0.38,1.56c-0.31,0.71-0.51,0.94-0.39,1.04c0.2,0.16,1.05-0.23,1.5-0.49
				c0.56-0.32,0.64-0.5,0.87-0.49c0.54,0.04,1.02,1.17,0.58,1.56c-0.46,0.41-1.87-0.04-1.92,0.08c-0.04,0.12,1.31,0.39,1.73,1.13
				c0.08,0.1,0.1,0.24,0.06,0.37c-0.14,0.31-0.8,0.3-0.85,0.48c-0.04,0.16,0.45,0.36,0.87,0.48c0.37,0.1,1.58,0.42,2.14,0
				c0.66-0.51-0.44-1.45,0.2-2.47c0.57-0.91,1.99-1.02,1.96-1.57c-0.03-0.44-0.94-0.51-0.91-0.87c0.04-0.49,1.73-1.02,2.29-0.62
				c0.26,0.18,0.14,0.46,0.36,0.53c0.36,0.11,0.78-0.65,1.71-0.98c0.64-0.23,0.85-0.01,2.32,0c1.77,0,1.81-0.31,2.59-0.12
				c0.52,0.12,0.51,0.26,2.26,1.51c1.12,0.8,1.33,0.89,1.44,1.21c0.29,0.88-0.68,1.81-0.84,1.96c-1.05,1.02-2.02,0.72-2.59,1.56
				c-0.61,0.88-0.01,1.94-0.54,2.12c-0.17,0.04-0.35,0.02-0.5-0.06c-0.55-0.28-0.14-1.1-0.6-1.31c-0.32-0.1-0.67-0.03-0.92,0.19
				c-0.36,0.33,0.07,0.81-0.31,1.14c-0.18,0.17-0.45,0.23-0.69,0.16c-0.24-0.16,0.35-0.73,0.09-1.02c-0.21-0.24-0.92-0.21-1.38,0.02
				c-0.44,0.25-0.72,0.7-0.75,1.2c-0.15,1.28,1.44,2.24,1.77,2.43c1.04,0.61,1.33,0.28,3.85,0.99c1.76,0.5,2.17,0.81,3.12,0.71
				c0.84-0.1,1.63-0.45,2.27-1c1.34-1.33-0.22-2.85,0-6.4c0.12-1.87,0.19-3.16,1.38-4.11c1.12-0.89,2.22-0.67,3.72-1.99
				c0.46-0.47,1.02-0.83,1.63-1.07c0.83-0.29,1.07-0.08,1.66-0.3c1.39-0.5,0.95-2.02,2.31-2.79c0.99-0.35,2.06-0.44,3.1-0.25
				c2.62,0.12,4.27,0.68,4.33,0.57C277.94,382.85,277.51,382.65,276.84,382.4z"/>
		</g>
	</g>
	<path id="Path_69" class="st3" d="M212.95,182.61c-0.87-0.04-1.39,0.81-2.04,0.62c-0.28-0.08-0.21-0.25-0.76-0.71
		c-0.45-0.38-0.85-0.71-1.2-0.65c-0.46,0.09-0.35,0.78-1.02,1.55c-0.5,0.6-1.22,0.98-1.99,1.06c-1.03,0.03-1.66-0.79-1.86-0.62
		c-0.17,0.14,0.1,0.85,0.64,1.28c0.41,0.33,0.79,0.37,0.79,0.57c0,0.16-0.29,0.31-0.85,0.61c-0.52,0.27-0.67,0.29-0.8,0.47
		c-0.16,0.22-0.12,0.44-0.1,0.78c0.07,1.18-0.32,1.34-0.06,1.75c0.42,0.47,1.03,0.7,1.65,0.62c0.47-0.03,0.52-0.19,1.36-0.47
		c0.68-0.34,1.46-0.44,2.2-0.28c0.33,0.12,0.77,0.4,0.78,0.77c0,0.2-0.12,0.38-0.58,0.76c-0.58,0.57-1.28,1.01-2.04,1.29
		c-0.88,0.29-1.28,0.14-1.64,0.52c-0.22,0.28-0.33,0.63-0.3,0.99c-0.04,0.7,0.14,1.39,0.52,1.97c0.51,0.76,1.44,1.16,3.29,1.92
		c1.43,0.59,2.23,0.8,2.31,1.35c0,0.34-0.14,0.67-0.39,0.9c-0.42,0.5-1.19,0.86-1.46,0.68c-0.09-0.09-0.13-0.21-0.11-0.34
		c0-0.43,0.42-0.56,0.45-0.89c0.04-0.45-0.66-0.99-1.17-0.91c-0.27,0.04-0.31,0.23-0.55,0.24c-0.49,0.02-0.75-0.73-0.97-0.66
		s-0.15,0.96-0.14,1.01c0.04,0.38,0.12,0.56,0.04,0.61c-0.12,0.07-0.49-0.16-0.73-0.48c-0.42-0.57-0.12-1.05-0.52-1.33
		c-0.25-0.18-0.58-0.19-0.85-0.03c-0.28,0.26,0.19,0.9,0,1.02c-0.15,0.1-0.56-0.23-1.04-0.59c-1.89-1.39-2.43-1.46-2.79-1.39
		c-0.17,0.04-0.42,0.13-0.43,0.25c-0.02,0.23,0.78,0.31,1.85,0.88c0.48,0.27,0.92,0.61,1.3,1.01c0.16,0.17,0.55,0.58,0.44,0.72
		c-0.09,0.11-0.49-0.01-0.64-0.06c-0.69-0.22-0.79-0.56-1.09-0.53c-0.49,0.05-0.69,1-0.94,0.95c-0.1-0.02-0.18-0.2-0.17-0.35
		c0.03-0.38,0.59-0.45,0.7-0.89c0.05-0.19,0.01-0.38-0.12-0.53c-0.38-0.25-0.87-0.22-1.21,0.06c-0.32,0.26-0.14,0.56-0.46,0.82
		c-0.33,0.22-0.74,0.27-1.11,0.15c-0.56-0.18-0.7-0.73-0.96-0.67c-0.18,0.04-0.12,0.32-0.36,0.43c-0.27,0.12-0.48-0.15-0.82-0.06
		c-0.35,0.09-0.4,0.45-0.62,0.43c-0.22-0.01-0.21-0.34-0.52-0.45c-0.25-0.09-0.61,0-0.66,0.13c-0.08,0.24,0.86,0.54,0.78,0.79
		c-0.05,0.18-0.64,0.3-0.96,0.1c-0.29-0.19-0.24-0.59-0.41-0.6c-0.12-0.01-0.24,0.17-0.3,0.31c-0.12,0.49,0.17,0.99,0.66,1.14
		c0.48,0.1,0.77-0.42,1.21-0.28c0.36,0.11,0.36,0.52,0.73,0.56c0.2,0.01,0.4-0.06,0.56-0.18c0.36-0.26,0.24-0.57,0.55-0.75
		c0.25-0.14,0.56-0.13,0.8,0.03c0.28,0.27-0.04,0.88,0.11,0.94c0.13,0.05,0.33-0.36,0.74-0.39c0.04,0,0.26-0.01,0.36,0.11
		c0.17,0.21-0.24,0.64-0.11,0.76c0.08,0.08,0.26-0.07,0.57,0c0.11,0.02,0.21,0.07,0.3,0.13c0.18,0.14,0.13,0.28,0.26,0.43
		c0.24,0.21,0.57,0.29,0.87,0.21c0.34-0.07,0.37-0.27,0.65-0.34c0.38-0.1,0.66,0.2,1.11,0.41c1,0.39,2.11,0.41,3.12,0.04
		c0.36-0.14,0.63-0.32,0.94-0.22s0.33,0.36,0.79,0.55c0.18,0.06,0.37,0.11,0.56,0.14c0.31,0.07,0.56,0.11,0.77,0.14
		c0.47,0.07,0.85,0.12,1.17,0.16c1.19,0.15,1.36,0.16,1.52,0.04c0.22-0.17,0.88,0.24,1.08,0.3v-0.01l0.49-20.14
		C214.1,183.34,213.46,182.63,212.95,182.61z"/>
	<g transform="matrix(1, 0, 0, 1, -59.87, -204.43)">
		<path id="Path_70-2" class="st3" d="M279.81,412.03c0.14,0.09,0.45-0.05,0.59-0.11c0.41-0.19,0.46-0.38,0.75-0.4
			c0.13-0.02,0.26,0.01,0.37,0.09c0.19,0.2-0.28,0.58-0.1,0.78c0.14,0.09,0.32,0.12,0.48,0.07c0.15-0.04,0.16-0.11,0.33-0.16
			c0.19-0.05,0.29,0.03,0.44-0.01c0.29-0.09,0.4-0.33,0.52-0.59c0.18-0.29,0.24-0.64,0.16-0.97c-0.12-0.36-0.4-0.65-0.75-0.8
			c-0.39-0.17-0.55-0.02-1.54-0.09c-0.41-0.01-0.82-0.06-1.21-0.16c-0.35-0.16-0.73-0.24-1.11-0.23c-0.19,0.02-0.16,0.06-0.39,0.09
			c-0.51,0.07-0.74-0.1-0.95,0.03c-0.14,0.09-0.22,0.28-0.14,0.38c0.15,0.19,0.76,0,0.89,0.18c0.1,0.15-0.24,0.36-0.1,0.59
			c0.06,0.09,0.14,0.09,0.19,0.2c0.07,0.14-0.04,0.22-0.03,0.36c0.07,0.26,0.32,0.44,0.59,0.44c0.11-0.03,0.08-0.12,0.23-0.21
			c0.22-0.11,0.48-0.1,0.69,0.03C279.85,411.7,279.66,411.94,279.81,412.03z"/>
	</g>
	<g transform="matrix(1, 0, 0, 1, -59.87, -204.43)">
		<path id="Path_71-2" class="st3" d="M262.27,397.13c-0.51-0.08-0.6-0.2-0.74-0.16c-0.39,0.1-0.67,1.21-0.05,1.85
			c0.14,0.15,0.23,0.17,0.8,0.45c1.58,0.76,2.04,1.15,2.36,0.99c0.15-0.08,0.24-0.25,0.21-0.42c-0.09-0.47-1.21-0.36-1.82-1.06
			c-0.26-0.3-0.43-0.75-0.24-0.91c0.3-0.24,1.46,0.24,1.4,0.48c-0.03,0.14-0.48,0.14-0.53,0.33c-0.04,0.15,0.2,0.32,0.39,0.39
			c0.36,0.13,0.86,0.04,0.92-0.12c0.06-0.16-0.35-0.24-0.47-0.62c-0.08-0.28,0.1-0.4-0.04-0.54c-0.22-0.23-0.68-0.07-0.85-0.27
			s0.26-0.49,0.21-0.98c-0.04-0.36-0.28-0.36-0.48-0.87c-0.23-0.58-0.04-0.92-0.19-0.96c-0.25-0.06-1.14,0.76-0.98,1.49
			c0.11,0.51,0.71,0.83,0.58,0.96C262.69,397.2,262.54,397.17,262.27,397.13z"/>
	</g>
	<g transform="matrix(1, 0, 0, 1, -59.87, -204.43)">
		<path id="Path_72-2" class="st3" d="M277.24,414.98c-0.04-0.19,0.04-0.21,0.05-0.46c0.02-0.38-0.13-0.81-0.33-0.85
			c-0.06-0.01-0.06,0.02-0.15,0.03c-0.23-0.01-0.43-0.13-0.55-0.33c-0.09-0.17,0.02-0.23-0.07-0.34c-0.1-0.14-0.32-0.16-0.87-0.26
			c-0.74-0.14-0.83-0.2-0.88-0.26c-0.24-0.24-0.12-0.69,0.02-0.71c0.17-0.02,0.34,0.58,0.69,0.6c0.17,0.01,0.2-0.12,0.41-0.11
			c0.22,0.01,0.3,0.17,0.54,0.28c0.34,0.15,0.85,0.1,0.94-0.07c0.12-0.22-0.39-0.73-0.96-0.99c-0.45-0.14-0.91-0.25-1.38-0.33
			c-0.56-0.15-1.08-0.42-1.53-0.79c-0.3-0.26-0.67-0.68-0.56-0.8c0.07-0.08,0.33-0.01,0.49,0.05c0.58,0.22,0.52,0.69,1.11,1.02
			c0.41,0.23,0.92,0.28,1,0.16c0.08-0.12-0.19-0.3-0.12-0.37c0.11-0.11,0.74,0.3,1.02,0.14c0.18-0.11,0.12-0.41,0.17-0.41
			c0.05,0,0.05,0.38,0.2,0.42c0.15,0.04,0.35-0.15,0.4-0.34c0.09-0.35-0.32-0.81-0.78-1c-0.27-0.09-0.55-0.13-0.83-0.12
			c-0.83-0.05-1.56-0.08-2.31-0.11c-0.21-0.01-0.32-0.01-0.38-0.02c-0.8-0.08-0.92-0.3-1.45-0.31c-0.42-0.01-0.46,0.14-0.94,0.09
			c-0.24-0.02-0.3-0.07-0.57-0.1c-0.3-0.02-0.6-0.01-0.89,0.03c-0.73,0.01-0.87-0.34-1.46-0.3c-0.55,0.04-0.98,0.39-0.92,0.54
			c0.04,0.11,0.3,0.05,0.53,0.25c0.2,0.17,0.29,0.45,0.18,0.56c-0.09,0.09-0.27,0.03-0.31,0.1s0.14,0.24,0.32,0.33
			c0.26,0.1,0.54,0.12,0.81,0.06c0.49-0.08,0.76-0.27,0.84-0.2c0.05,0.05-0.05,0.19-0.06,0.2c-0.28,0.38-1.01,0.27-1.04,0.49
			c-0.02,0.1,0.15,0.21,0.19,0.24c0.27,0.18,0.61,0.07,0.68,0.19c0.06,0.1-0.15,0.21-0.09,0.33c0.06,0.11,0.28,0.16,0.45,0.15
			c0.24-0.02,0.33-0.19,0.41-0.15c0.08,0.03-0.03,0.28,0,0.61c0.04,0.36,0.25,0.7,0.36,0.7c0.14,0,0.1-0.58,0.26-0.58
			c0.06,0,0.12,0.08,0.15,0.14c0.12,0.24-0.2,0.4-0.1,0.56c0.07,0.11,0.24,0.05,0.69,0.22c0.28,0.1,0.42,0.19,0.49,0.15
			c0.07-0.05,0.01-0.2,0-0.23c-0.12-0.29-0.46-0.3-0.57-0.53s0.19-0.29,0.12-0.56s-0.39-0.33-0.54-0.73
			c-0.04-0.12-0.05-0.21-0.01-0.23c0.04-0.01,0.16,0.15,0.34,0.17c0.14,0.02,0.31-0.07,0.31-0.16c0-0.14-0.39-0.28-0.37-0.32
			c0.02-0.03,0.4,0.16,0.52,0.08s0.01-0.39-0.22-0.58c-0.21-0.14-0.45-0.22-0.7-0.25c0.36-0.11,0.74-0.07,1.06,0.12
			c0.45,0.31,0.38,0.91,0.58,0.93c0.16,0.02,0.3-0.35,0.36-0.33c0.06,0.02-0.09,0.24,0.04,0.46c0.09,0.15,0.25,0.25,0.43,0.26
			c0.16-0.03,0.12-0.24,0.32-0.31c0.17-0.04,0.34-0.01,0.47,0.1c0.24,0.22-0.07,0.67-0.1,0.73c-0.22,0.32-0.57,0.46-0.54,0.5
			s0.59-0.24,0.77-0.1c0.08,0.06,0.09,0.18,0.03,0.25c0,0.01-0.01,0.01-0.01,0.01c-0.08,0.06-0.21,0-0.44-0.01
			c-0.17,0-0.49,0.03-0.58,0.17c-0.18,0.25,0.32,0.88,0.65,0.87c0.24,0,0.24-0.32,0.53-0.33c0.28-0.01,0.46,0.31,0.74,0.28
			c0.19-0.03,0.19-0.19,0.33-0.18c0.26,0.01,0.31,0.57,0.75,0.71c0.19,0.06,0.26-0.01,0.43,0.08c0.18,0.08,0.3,0.26,0.31,0.46
			c-0.02,0.2-0.26,0.22-0.29,0.45c0,0.02-0.02,0.22,0.1,0.3c0.17,0.1,0.44-0.11,0.56-0.02c0.07,0.05,0.01,0.16,0,0.31
			c-0.01,0.28,0.15,0.63,0.34,0.68c0.27,0.07,0.79-0.43,0.67-0.83C277.47,415.3,277.3,415.24,277.24,414.98z"/>
	</g>
</g>
<g id="Group_23" transform="translate(115.523 333.985)">
	<path id="Path_95" class="st4" d="M166.41-77.28c-0.32,0.11-0.65,0.17-0.98,0.16c-0.58,0.01-1.14-0.13-1.65-0.41
		c-0.46-0.26-0.84-0.65-1.09-1.11c-0.26-0.47-0.39-1-0.38-1.54c-0.01-0.56,0.12-1.12,0.39-1.62c0.25-0.47,0.62-0.86,1.07-1.13
		c0.47-0.28,1.01-0.42,1.55-0.41c0.32,0,0.65,0.04,0.96,0.13c0.28,0.08,0.55,0.2,0.8,0.35l-0.33,0.77c-0.41-0.3-0.9-0.46-1.41-0.47
		c-0.39,0-0.77,0.11-1.09,0.31c-0.34,0.21-0.61,0.5-0.8,0.85c-0.2,0.36-0.3,0.76-0.3,1.17c-0.01,0.41,0.09,0.82,0.27,1.19
		c0.18,0.35,0.45,0.63,0.78,0.83c0.82,0.45,1.84,0.39,2.6-0.16l0.34,0.73C166.92-77.49,166.67-77.37,166.41-77.28z"/>
	<path id="Path_96" class="st4" d="M171.3-80.5c0.21,0.19,0.33,0.47,0.33,0.75v2.58h-0.79v-2.31c0-0.17-0.06-0.34-0.18-0.46
		c-0.13-0.12-0.31-0.19-0.49-0.18c-0.2,0-0.39,0.06-0.55,0.17c-0.17,0.12-0.3,0.28-0.38,0.47c-0.09,0.21-0.14,0.44-0.14,0.67v1.63
		h-0.78v-6.52h0.77v3.67c0.13-0.23,0.33-0.43,0.56-0.56c0.26-0.14,0.55-0.22,0.84-0.21C170.79-80.8,171.08-80.7,171.3-80.5z"/>
	<path id="Path_97" class="st4" d="M173.07-82.23c0.09-0.08,0.21-0.12,0.33-0.12s0.24,0.04,0.32,0.12c0.17,0.15,0.19,0.42,0.03,0.59
		c-0.01,0.01-0.02,0.02-0.03,0.03c-0.09,0.08-0.2,0.12-0.32,0.12c-0.12,0-0.24-0.04-0.33-0.12c-0.17-0.15-0.19-0.41-0.05-0.58
		C173.04-82.2,173.06-82.22,173.07-82.23z M173.77-80.67v3.49h-0.79v-3.49H173.77z"/>
	<path id="Path_98" class="st4" d="M175.92-83.7v6.52h-0.78v-6.52C175.14-83.7,175.92-83.7,175.92-83.7z"/>
	<path id="Path_99" class="st4" d="M179.77-78.07l0.36,0.58c-0.19,0.12-0.39,0.22-0.61,0.29c-0.2,0.07-0.41,0.1-0.63,0.11
		c-0.35,0.01-0.7-0.08-1.01-0.24c-0.28-0.15-0.51-0.38-0.67-0.66c-0.16-0.29-0.24-0.62-0.24-0.95c0-0.33,0.09-0.66,0.26-0.94
		c0.17-0.28,0.41-0.52,0.7-0.67c0.3-0.16,0.63-0.25,0.97-0.24c0.42-0.01,0.82,0.13,1.14,0.4c0.32,0.3,0.54,0.69,0.63,1.11
		l-2.76,0.97c0.1,0.17,0.24,0.31,0.41,0.41c0.18,0.1,0.38,0.15,0.58,0.15C179.22-77.77,179.52-77.88,179.77-78.07z M178.07-79.85
		c-0.21,0.23-0.32,0.54-0.31,0.86c0,0.06,0,0.13,0.01,0.19l2.03-0.75c-0.08-0.18-0.2-0.34-0.36-0.46c-0.17-0.12-0.37-0.18-0.58-0.18
		C178.56-80.19,178.27-80.07,178.07-79.85L178.07-79.85z"/>
</g>
<g id="Group_37" transform="translate(99.723 411.993)">
	<path id="Path_175" class="st5" d="M168.15-67.07c-5.09,0-9.22,4.13-9.22,9.22s4.13,9.22,9.22,9.22s9.22-4.13,9.22-9.22l0,0
		C177.37-62.94,173.24-67.07,168.15-67.07z M168.15-50.92c-3.83,0-6.93-3.1-6.93-6.93s3.1-6.93,6.93-6.93c3.83,0,6.93,3.1,6.93,6.93
		l0,0C175.08-54.02,171.98-50.92,168.15-50.92z"/>
	<circle id="Ellipse_3" class="st5" cx="168.15" cy="-57.85" r="5.51"/>
</g>
</svg>
