<?xml version="1.0" encoding="utf-8"?>
<!-- Generator: Adobe Illustrator 24.0.3, SVG Export Plug-In . SVG Version: 6.00 Build 0)  -->
<svg version="1.1" id="Layer_1" xmlns="http://www.w3.org/2000/svg" xmlns:xlink="http://www.w3.org/1999/xlink" x="0px" y="0px"
	 viewBox="0 0 576 288" style="enable-background:new 0 0 576 288;" xml:space="preserve">
<style type="text/css">
	.st0{fill:#F79429;}
	.st1{fill:#A77D65;}
	.st2{fill:#F9F5E1;}
	.st3{fill:#282827;}
	.st4{fill:#282827;stroke:#282827;stroke-miterlimit:10;}
	.st5{fill:#313131;}
	.st6{fill:#FFFFFF;}
	.st7{fill:#1E1E1E;}
	.st8{clip-path:url(#SVGID_2_);}
	.st9{clip-path:url(#SVGID_4_);}
</style>
<g id="Group_135" transform="translate(-98.211 -270.083)">
	<g id="Group_119" transform="translate(98.211 270.083)">
		<g id="Group_112" transform="translate(71.497 14.385)">
			<path id="Path_215" class="st0" d="M122.2,162.6c-1.9,0.9-1.9,3.8-0.7,5.4c1.5,1.5,3.3,2.5,5.4,2.9
				c43.8,13.2,91.8,13.9,135.1-0.9c2.2-0.5,4.1-1.7,5.7-3.3c1.4-1.7,1.5-4.7-0.3-5.9c-1.6-1.1-3.8-0.4-5.7,0.3
				c-21.6,8-44.8,10.9-67.8,10.5s-45.8-4.1-68.3-9C124.5,162.2,123.3,162.2,122.2,162.6z"/>
			<path id="Path_216" class="st0" d="M263.8,183.9c-1.1-3.1-5.5-3.1-8.7-2.3c-84.2,20.2-125-5.7-131.3,0c-1.8,1.7-1.6,4.6-1,7
				c2.2,8.8,6.5,17.8,14.4,22.3c4.1,2.1,8.5,3.4,13.1,4c21,3.9,42.4,6.4,63.7,5c10.9-0.7,24.8-2,34.3-7.3s14.4-15.2,15.6-26
				C264.1,185.7,264,184.8,263.8,183.9z"/>
			<path id="Path_217" class="st1" d="M112.2,133.6c-0.1-2,0.7-3.9,2-5.4c2.6-2.4,6.7-1.8,10.2-1c47.1,10.6,96,11.1,143.3,1.5
				c1.4-0.4,2.9-0.4,4.2,0.1c1.2,0.9,2,2.4,2,4c0.6,8.2-3.4,16.1-10.4,20.4c-4.8,2.9-10.5,3.9-16.1,4.9c-8.5,1.5-16.9,2.9-25.5,3.9
				c-26.5,2.7-53.2,1.3-79.2-4.3c-7-1.4-14.1-3.2-20.1-7C116.7,146.9,112,140.5,112.2,133.6z"/>
			<path id="Path_218" class="st1" d="M276.5,111.3c-1.4-2.2-4.7-1.2-7-0.2c-24.8,11.6-53.5,10.4-80.9,8.7
				c-23.7-1.4-47.9-3.1-70-11.9c-2.2-0.9-5.1-1.7-6.7,0c-1.2,1.6-1,3.9,0.4,5.3c1.4,1.3,3.2,2.2,5.1,2.7c15.2,5,30.9,8.7,46.7,11
				c30.2,4.4,61,3.2,90.8-3.3c6.4-1.2,12.6-3.3,18.4-6.3C275.5,116,277.8,113.4,276.5,111.3z"/>
			<path id="Path_219" class="st2" d="M235.6,24.2c14.4,1.2,28.9,3.1,42.1,8.7c4.5,1.9,9.5,5.3,9.2,10c-0.3,4.5-5,7.2-9.2,9
				c-29.9,12.3-63.4,13-95.8,10.9c-21.4-1.4-42.8-4-63.4-9.6c-3.2-0.7-6.3-1.9-9-3.7c-2.8-1.8-4.4-4.9-4.4-8.2
				c0.4-5.3,6.2-8.4,11.2-10.1c22.5-7.8,46.8-9.3,70.8-9.2C203.2,22.1,219.4,22.8,235.6,24.2z"/>
			<path id="Path_220" class="st2" d="M105.4,61.2c2.2-0.6,4.5-0.6,6.6,0.1c52.4,11.2,106.6,11.6,159.2,1.2c3.6-0.7,7.8-1.4,10.7,1
				c2.3,1.9,2.9,5.1,3,8c0.2,12.2-7.7,23.6-17.9,30.3s-22.6,9.3-34.8,10.8c-28.2,3.3-56.9,0.4-84.8-5.5
				c-10.4-2.2-20.8-4.8-29.7-10.6s-16-15.1-16.7-25.6C100.8,67.1,101.9,62.6,105.4,61.2z"/>
			<path id="Path_221" class="st3" d="M251.1,22.1c-0.1,0-0.2,0-0.2,0c-1-0.4-1.9-0.9-2.9-1.5c-0.7-0.4-1.4-0.8-2.1-1.2
				c-2.9-1.4-6.1-1.9-9.3-1.3c-0.5,0.1-1,0.2-1.4,0.3c-2.1,0.5-4.4,1-6.4-0.2c-0.8-0.5-1.4-1-2-1.7c-0.4-0.4-0.7-0.7-1.1-1
				c-0.8-0.7-2-1.1-2.8-0.5c-0.4,0.3-0.7,0.7-0.9,1.1c-0.2,0.3-0.4,0.6-0.6,0.9c-1.5,1.5-3.6,2.2-5.7,1.9l-9.6,0l0-0.6l0-0.6l9.6,0
				c1.7,0.3,3.5-0.3,4.8-1.4c0.2-0.2,0.4-0.5,0.6-0.8c0.3-0.6,0.7-1.1,1.2-1.5c1.4-0.8,3.2-0.6,4.3,0.6c0.4,0.3,0.8,0.7,1.2,1.1
				c0.5,0.6,1.1,1.1,1.8,1.5c1.6,0.9,3.5,0.5,5.5,0c0.5-0.1,1-0.2,1.5-0.3c3.4-0.6,6.9-0.1,10,1.4c0.8,0.4,1.5,0.8,2.2,1.2
				c0.9,0.5,1.8,1,2.7,1.4c0.3,0.1,0.4,0.5,0.3,0.8C251.5,21.9,251.3,22.1,251.1,22.1L251.1,22.1z"/>
			<path id="Path_222" class="st4" d="M120.5,26.5c-0.2,0-0.4,0-0.6,0c-0.3,0-0.6-0.3-0.6-0.7c0-0.3,0.3-0.6,0.7-0.6
				c2.2,0.1,4.4-0.7,5.9-2.3c0.3-0.3,0.6-0.6,0.9-1c0.9-1.4,2.3-2.3,3.9-2.6c0.9,0,1.9,0.3,2.7,0.8l0.5,0.2
				c4.5,2.1,11.4,0.4,16.4-0.9l0.4-0.1c0.3-0.1,0.7,0.1,0.7,0.4s-0.1,0.7-0.4,0.7l0,0l-0.4,0.1c-5.2,1.3-12.3,3.2-17.2,0.8l-0.5-0.2
				c-0.6-0.4-1.3-0.6-2.1-0.7c-1.1,0-2.1,1.1-3.1,2.2c-0.3,0.4-0.6,0.7-1,1C125.2,25.5,122.9,26.5,120.5,26.5z"/>
			<path id="Path_223" class="st5" d="M137.1,42.3c-0.3,0-0.6-0.3-0.6-0.6c0-0.1,0-0.2,0.1-0.3c1.4-2.3,3.8-3.8,6.5-4
				c2.7-0.2,5.4,0.9,7.2,3c0.2,0.2,0.1,0.6-0.1,0.8c-0.2,0.2-0.6,0.2-0.8-0.1c-1.5-1.8-3.8-2.8-6.2-2.6c-2.3,0.1-4.4,1.4-5.6,3.4
				C137.5,42.2,137.3,42.3,137.1,42.3z"/>
			<path id="Path_224" class="st5" d="M196.2,41.4c-0.3,0-0.6-0.3-0.6-0.6c0-0.2,0.1-0.3,0.2-0.5c7.4-5.3,17.2-5.4,24.7-0.3
				c0.3,0.2,0.3,0.5,0.1,0.8c-0.2,0.3-0.5,0.3-0.8,0.2c0,0,0,0,0,0c-7.1-4.7-16.4-4.6-23.3,0.3C196.4,41.4,196.3,41.4,196.2,41.4z"
				/>
			<path id="Path_225" class="st5" d="M232.3,47.9c-0.3,0-0.6-0.3-0.6-0.6c0-0.2,0.1-0.3,0.2-0.5c5.1-3.9,12-4.3,17.6-1.1
				c0.3,0.2,0.3,0.5,0.1,0.8c-0.2,0.2-0.5,0.3-0.8,0.2c-5.1-2.9-11.5-2.5-16.2,1C232.6,47.8,232.4,47.9,232.3,47.9z"/>
			<path id="Path_226" class="st5" d="M162,34c-0.3,0-0.6-0.2-0.6-0.6c0-0.2,0.1-0.3,0.2-0.4c3.2-2.9,8-3.1,11.5-0.5
				c0.2,0.2,0.3,0.6,0.1,0.8c-0.2,0.2-0.6,0.3-0.8,0.1c-3-2.2-7.1-2-9.9,0.4C162.3,33.9,162.1,34,162,34z"/>
			<g id="Group_110" transform="translate(11.672 84.78)">
				<path id="Path_227" class="st3" d="M261.8,82.2c-0.6,7-1.8,14-3.5,20.8c-0.8,3.4-1.7,6.8-2.8,10.2c-1,3.4-2.3,6.7-3.9,9.9l0-0.1
					c-0.9,1.9-2.2,3.6-4,4.8c-1.6,1.2-3.4,2.2-5.2,3.1c-3.6,1.7-7.4,3-11.3,4.1c-7.7,2-15.6,3.5-23.5,4.4
					c-7.9,0.9-15.9,1.4-23.8,1.6c-8,0.2-16-0.2-23.9-1.2c-7.9-1-15.8-2.7-23.4-5.1c-3.8-1.2-7.5-2.7-11.1-4.5c-3.7-1.8-7-4-10-6.7
					c-1.5-1.4-2.8-3.1-3.8-4.9c-0.9-1.8-1.6-3.7-2.3-5.6c-1.3-3.8-2.3-7.6-3.1-11.5c-1.7-7.8-2.6-15.7-2.7-23.7
					c0.4,7.9,1.5,15.8,3.4,23.5c0.9,3.8,2.1,7.6,3.4,11.3c0.7,1.8,1.5,3.7,2.3,5.4c0.9,1.7,2.2,3.2,3.6,4.4c2.9,2.6,6.2,4.7,9.8,6.3
					c3.6,1.7,7.2,3.1,11,4.2c7.5,2.3,15.3,4,23.1,4.9c3.9,0.5,7.8,0.8,11.8,1c3.9,0.2,7.9,0.2,11.8,0.1c7.9-0.1,15.8-0.6,23.6-1.5
					c7.9-0.8,15.6-2.2,23.3-4.1c3.8-0.9,7.5-2.2,11.1-3.8c3.5-1.6,7.2-3.6,8.7-7l0-0.1l0,0c1.6-3.1,2.9-6.4,3.9-9.7
					c1.1-3.3,2.2-6.7,3.1-10.1C259.5,96.1,260.9,89.2,261.8,82.2z"/>
				<path id="Path_228" class="st3" d="M107.2,71.9c-0.7,0.2-1.3,0.6-1.8,1c-1.4,1.5-2,3.5-1.7,5.5c0.3,3.1,1.8,5.9,4.1,7.9
					c3.1,2.5,6.6,4.4,10.4,5.7c8.2,3.2,18.4,4.8,29.4,6.1c11.4,1.4,22.9,1.9,34.5,1.8c11.5-0.1,23-1,34.4-2.7
					c10-1.3,19.8-3.5,29.3-6.7c3.8-1.3,7.3-3.1,10.6-5.4c2.8-2.1,4.7-4.8,4.6-7.4c-0.2-2-1-3.8-2.3-5.4c-0.4-0.6-1-1-1.5-1.4
					c0.6,0.4,1.1,0.8,1.6,1.4c1.4,1.5,2.3,3.4,2.6,5.4c0.2,2.7-1.7,5.8-4.5,8c-3.2,2.5-6.8,4.5-10.6,5.9c-9.5,3.5-19.4,5.9-29.4,7.4
					c-11.5,1.8-23.1,2.8-34.7,3c-11.6,0.1-23.2-0.6-34.7-2.1c-11-1.4-21.3-3.4-29.6-6.8c-3.8-1.4-7.4-3.5-10.5-6.2
					c-2.4-2.2-3.8-5.2-3.9-8.4c-0.2-2.1,0.5-4.1,1.9-5.6C105.8,72.5,106.5,72.1,107.2,71.9z"/>
				<path id="Path_229" class="st3" d="M192.8,100.6c-4.1,0-8.1-0.1-12.2-0.2c-21.6-0.5-44.6-1.7-66.1-10c-3.8-1.5-7.6-3.3-9.9-6.9
					c-2.4-3.7-2.5-9.8,1-12.5c0.3-0.2,0.7-0.2,0.9,0.1c0.2,0.3,0.2,0.7-0.1,0.9c-2.9,2.2-2.7,7.6-0.7,10.7c2.2,3.4,6,5.1,9.3,6.4
					c21.3,8.2,44.1,9.4,65.7,9.9c23.7,0.6,48.8,0.2,71.3-10.2c2.5-1,4.7-2.5,6.6-4.3c1.9-2,2.9-4.7,2.6-7.5c-0.5-2-1.8-3.7-3.5-4.9
					c-0.8-0.7-1.8-1-2.8-0.9c-0.4,0.1-0.7-0.2-0.8-0.5c-0.1-0.4,0.2-0.7,0.5-0.8l0,0c1.4-0.1,2.8,0.3,3.9,1.2c2,1.4,3.5,3.4,4.1,5.8
					c0.4,3.2-0.7,6.3-2.9,8.6c-2,2-4.4,3.6-7,4.6C233.6,98.9,212.9,100.6,192.8,100.6z"/>
				<path id="Path_230" class="st3" d="M185.4,139.5c-17.9,0-35.7-2.4-53-7.1l-0.7-0.2c-6.1-1.6-13.6-3.6-18.1-8.3
					c-4.6-4.8-10.9-38.1-10.7-44.6c0-0.4,0.3-0.7,0.7-0.7h0c0.4,0,0.7,0.3,0.7,0.7c-0.1,6.7,6.4,39.5,10.4,43.6
					c4.3,4.4,11.6,6.4,17.5,7.9l0.7,0.2c32.9,8.8,66.5,9.3,97.2,1.6c5.4-1.3,10.4-3.6,14.9-6.8c9.3-6.8,15.8-39.6,16.3-46.5
					c0-0.4,0.3-0.6,0.7-0.6c0,0,0,0,0,0c0.4,0,0.6,0.3,0.6,0.7c-0.5,7.3-7,40.4-16.8,47.5c-4.6,3.3-9.9,5.7-15.4,7
					C215.6,137.7,200.5,139.6,185.4,139.5z"/>
			</g>
			<path id="Path_231" class="st3" d="M278.1,104.4c1,0.3,1.9,0.7,2.7,1.3c0.8,0.7,1.4,1.5,1.7,2.5c0.5,2,0.2,4.2-0.8,6l0,0
				c-2.8,3.1-6.2,5.5-10,7.2c-3.7,1.8-7.6,3.2-11.6,4.2c-4,1.1-8,2-12,2.8c-4,0.8-8.1,1.4-12.2,1.9c-4.1,0.5-8.1,0.9-12.2,1.2
				s-8.2,0.6-12.3,0.8c-4.1,0.2-8.2,0.3-12.3,0.4c-4.1,0-8.2-0.1-12.3-0.3c-8.2-0.4-16.4-1.1-24.5-2c-8.1-0.9-16.2-2.2-24.2-4
				c-4-0.9-8-1.9-11.9-3.2c-3.9-1.2-7.8-2.8-11.4-4.7c-1.8-1-3.6-2.1-5.2-3.4c-0.8-0.7-1.6-1.4-2.2-2.2c-0.8-0.8-1.3-1.7-1.6-2.7
				c-0.5-2.1,0.1-4.3,1.6-5.8c1.4-1.6,3.4-2.4,5.5-2.4c-2.1,0.1-4,1-5.3,2.6c-2.1,2.3-2,5.8,0.2,8c0,0,0,0,0.1,0.1
				c0.7,0.7,1.4,1.4,2.2,2c1.6,1.2,3.3,2.2,5.2,3.1c7.4,3.4,15.2,5.8,23.2,7.2c16,3.1,32.2,4.9,48.5,5.5c4.1,0.2,8.1,0.3,12.2,0.3
				c4.1,0,8.1-0.1,12.2-0.3c4.1-0.1,8.1-0.4,12.2-0.7c4.1-0.3,8.1-0.7,12.2-1.1c4-0.5,8.1-1,12.1-1.7c4-0.6,8-1.5,11.9-2.5
				c3.9-1,7.8-2.3,11.5-3.9c3.8-1.5,7.2-3.7,10-6.6l0,0c1-1.7,1.4-3.7,1-5.7c-0.2-1-0.8-1.8-1.5-2.5
				C279.9,105.2,279.1,104.7,278.1,104.4z"/>
			<path id="Path_232" class="st3" d="M105.8,108.2c1.2,6.6,2.6,13.2,4.1,19.7c0.8,3.3,1.5,6.5,2.4,9.8c0.8,3.2,1.7,6.5,2.7,9.7l0,0
				c1.5,3,3.9,5.6,6.9,7.2c3,1.8,6.1,3.1,9.4,4.2c6.6,2,13.4,3.5,20.3,4.3c6.9,1,13.8,1.6,20.8,2c7,0.4,13.9,0.8,20.9,0.9
				c7,0.1,13.9,0,20.9-0.4c6.9-0.4,13.8-1.4,20.7-2.6c6.9-1,13.7-2.4,20.4-4.1c3.3-0.9,6.6-2.1,9.7-3.6c3.1-1.3,5.8-3.6,7.4-6.6
				c0,0,0-0.1,0.1-0.1c1.7-2.5,3.1-5.2,4-8.1c1-2.9,1.9-5.8,2.6-8.8c1.5-6,2.6-12,3.3-18.1c-0.6,6.1-1.6,12.2-2.8,18.2
				c-0.7,3-1.4,6-2.4,8.9c-0.9,3-2.2,5.9-3.9,8.5l0.1-0.1c-1.7,3.2-4.5,5.8-7.8,7.2c-3.2,1.6-6.5,2.9-9.9,3.8
				c-6.8,1.9-13.6,3.4-20.5,4.5c-6.9,1.1-13.8,2.2-20.8,2.7c-7,0.5-14,0.7-21,0.6c-7-0.1-14-0.5-21-1s-14-1.1-20.9-2.1
				c-7-0.9-13.9-2.5-20.5-4.7c-3.4-1.1-6.6-2.6-9.6-4.5c-3.1-1.8-5.6-4.6-7.2-7.9l0,0c-1-3.2-1.7-6.5-2.5-9.8s-1.4-6.6-2.1-9.9
				C108,121.5,106.8,114.9,105.8,108.2z"/>
			<path id="Path_233" class="st3" d="M197.1,132.9c-19.8,0-39.5-1.9-58.9-5.7c-8.2-1.6-17.7-3.8-26.2-9c-4.1-2.5-6.4-5.3-7-8.6
				c-0.5-2.7,1.3-5.7,3.4-7.3c1.3-1.2,3.1-1.6,4.8-1c0.3,0.2,0.4,0.6,0.2,0.9c-0.2,0.3-0.5,0.4-0.8,0.3c-1.2-0.4-2.5,0-3.4,0.9
				c-1.9,1.4-3,3.7-2.9,6c0.6,2.9,2.6,5.4,6.4,7.8c8.3,5.1,17.6,7.2,25.8,8.8c37.8,7.4,76.7,7.6,114.6,0.5
				c6.3-1.1,12.6-2.7,18.7-4.6c3.8-1.2,7.8-3.1,9.6-7.2c0.9-3.1,0.2-6.4-1.8-8.9c-0.7-1-1.9-1.6-3.1-1.4c-0.4,0.1-0.7-0.1-0.8-0.5v0
				c-0.1-0.3,0.1-0.7,0.5-0.8c1.7-0.3,3.4,0.4,4.4,1.8c2,2.4,3.4,7,2,10.2c-2,4.6-6.4,6.6-10.4,7.9c-6.2,2-12.5,3.5-18.9,4.6
				C234.7,131.1,215.9,132.9,197.1,132.9z"/>
			<path id="Path_234" class="st3" d="M206,167.9c-20,0-39.9-2-59.5-3.9c-11.6-1.1-23.6-3.1-31-13.1c-5.8-7.9-9.5-33.3-10.5-40.9
				c-0.1-0.4,0.2-0.7,0.6-0.7c0.4-0.1,0.7,0.2,0.7,0.6l0,0c2.6,20.1,6.4,35.2,10.2,40.3c7.1,9.5,18.7,11.4,30.1,12.5
				c28,2.8,56.9,5.6,85.3,2.6c11.5-1.2,24.7-3.7,35.1-12.5c6.2-5.3,11.8-20.4,14.5-39.3c0-0.4,0.4-0.6,0.7-0.6
				c0.4,0.1,0.6,0.4,0.5,0.7l0,0c-2.7,19.3-8.4,34.7-14.9,40.1c-10.7,9.1-24.1,11.6-35.9,12.8C223.5,167.5,214.8,167.9,206,167.9z"
				/>
			<path id="Path_235" class="st6" d="M192.9,67.8c0,0-0.1,0-0.1,0c-7.6-1.7-15.4-2.6-23.1-2.7h-0.2c-1.5,0.1-3-0.1-4.4-0.5
				c-0.8-0.3-1.6-0.7-2.4-1.1c-0.9-0.5-1.8-0.9-2.7-1.2c-1.6-0.2-3.3,0-4.9,0.5c-1.9,0.7-4,0.8-6,0.3c-0.9-0.3-1.7-0.8-2.5-1.4
				c-0.6-0.4-1.3-0.8-2-1.1c-1.9-0.6-3.9-0.6-5.8-0.2l-0.9,0.1c-4.8,0.6-9.8,0.2-14.4-1.2c-0.3-0.1-0.6-0.4-0.5-0.7
				c0.1-0.3,0.4-0.5,0.7-0.5c0,0,0.1,0,0.1,0c4.5,1.3,9.3,1.7,13.9,1.1l0.9-0.1c2.1-0.5,4.3-0.4,6.4,0.2c0.8,0.3,1.5,0.8,2.2,1.2
				c0.7,0.5,1.4,0.9,2.2,1.2c1.8,0.4,3.6,0.3,5.3-0.3c1.8-0.6,3.6-0.8,5.4-0.5c1.1,0.3,2.1,0.7,3,1.3c0.7,0.4,1.4,0.8,2.2,1
				c1.3,0.3,2.7,0.5,4.1,0.4h0.2c7.9,0.1,15.7,1,23.4,2.7c0.3,0.1,0.5,0.4,0.5,0.7C193.4,67.6,193.2,67.8,192.9,67.8L192.9,67.8z"/>
			<path id="Path_236" class="st4" d="M200.9,68.4c-22.5-0.2-44.9-1.9-67.2-5c-11.5-1.5-22.5-3.5-30.6-10.8
				c-5.3-4.8-7.5-9.1-6.6-13.1c1.1-4.9,6.1-8.8,14.8-11.7c27-8.9,55.6-9.9,82.6-10.1c2.7,0,5.4,0,8.1,0c26.1,0,53.7,1.5,78.7,12
				c3.3,1.2,6.3,3,9,5.3c2.8,2.4,4.3,6,4.1,9.6c-0.5,5.5-5.3,9.7-14.4,12.6C256.1,64.7,230.4,68.4,200.9,68.4z M202,19
				c-2.7,0-5.4,0-8.1,0c-26.9,0.2-55.4,1.2-82.2,10C106,30.9,99,34.3,97.8,39.8C97,43.3,99,47.1,104,51.6c7.8,7,18.6,8.9,29.9,10.4
				c22.2,3.1,44.6,4.8,67.1,5c29.4,0,54.9-3.6,78-11.1c8.5-2.7,13-6.6,13.4-11.5c0.1-3.2-1.2-6.4-3.7-8.5c-2.5-2.2-5.4-3.9-8.5-5
				C255.3,20.4,227.9,19,202,19L202,19z"/>
			<path id="Path_237" class="st3" d="M201.9,117.4c-7.2,0-13.9-0.2-20.1-0.3c-29.9-1-52.5-6.1-71.1-16.1
				C99,94.6,94.8,61.2,96.5,40.5l1.3,0.1c-1.7,20.8,2.7,53.3,13.6,59.2c18.4,9.9,40.8,15,70.5,15.9c24.9,0.8,61.1,0.9,87.2-7.3
				c14.8-4.7,18.9-28.9,23-62.7l1.3,0.2c-4.2,34.2-8.3,58.8-23.9,63.8C249.6,115.9,224,117.4,201.9,117.4z"/>
			<path id="Path_238" class="st4" d="M262.1,22.8c0,0,1.6,0.4,4.6,1.2c7.4,2.2,14.4,5.6,20.8,9.9c1.5,1,2.9,2.2,4.1,3.6
				c1.3,1.6,1.9,3.6,1.7,5.6c-0.2,2.1-1.1,4.1-2.5,5.7c-1.5,1.7-3.3,3-5.3,4c-4.4,1.9-8.8,3.6-13.4,5.1c-10.2,3.2-20.7,5.6-31.3,7.2
				c-11.9,1.7-23.8,2.6-35.8,2.6c-12.8,0-25.6-0.6-38.3-1.9c-13-1.3-26.2-3-39.3-5.2c-6.6-1.2-13-3-19.3-5.4
				c-3.2-1.2-6.2-2.8-8.9-4.8c-2.9-2.2-4.4-5.8-3.9-9.4c0.3-1.8,1.2-3.4,2.3-4.7c1.1-1.3,2.4-2.4,3.8-3.3c2.8-1.8,5.7-3.3,8.7-4.4
				c5.9-2.3,12-4.1,18.2-5.4c11.7-2.8,23.6-4.1,35.6-3.8l32.1,0.2l27.1,0.1c8.1,0,15.1,0.1,20.9,0.5c4.5,0.3,8.9,0.8,13.4,1.6
				C260.5,22.4,262.1,22.8,262.1,22.8z M262.1,22.8c0,0-1.6-0.4-4.7-1c-4.4-0.8-8.9-1.2-13.4-1.5c-5.8-0.3-12.8-0.3-20.9-0.3
				l-27.1,0.1L164,20.4c-11.9-0.2-23.8,1.2-35.4,4.1c-6.1,1.4-12.1,3.2-18,5.5c-2.9,1.2-5.8,2.6-8.4,4.4c-2.6,1.8-5,4-5.4,7
				c-0.3,3,0.9,6,3.4,7.8c2.6,1.9,5.5,3.3,8.5,4.4c6.1,2.3,12.5,4,19,5.1c13,2.3,26.1,4.2,39.1,5.6c12.7,1.4,25.4,2.1,38.2,2.2
				c11.9,0.1,23.8-0.7,35.6-2.3c10.6-1.4,21-3.7,31.2-6.8c4.5-1.4,9-3,13.4-4.9c2-0.9,3.8-2.2,5.2-3.8c1.4-1.5,2.2-3.5,2.5-5.5
				c0.2-1.9-0.4-3.8-1.5-5.4c-1.1-1.4-2.5-2.6-4-3.6c-6.3-4.4-13.3-7.8-20.6-10.1C263.8,23.2,262.1,22.8,262.1,22.8z"/>
			<path id="Path_239" class="st3" d="M95.9,41.9c0,0-0.1,1.2-0.1,3.3s0,5.3,0.3,9.4s0.8,8.9,1.7,14.4c0.8,6.2,2.4,12.3,4.8,18.1
				c2.8,6.8,7.9,12.4,14.5,15.9c7,3.5,15.3,4.8,23.7,6.7c17.6,3.7,35.6,6,53.6,6.9c18,1,36,0.3,53.9-2.2c8.5-1.2,16.7-3.2,23.2-7.5
				c6.5-4.3,10.3-11.1,12.9-17.4c2.4-5.8,4.2-11.8,5.5-17.9c1.1-5.5,1.7-10.4,2.1-14.4c0.8-8,1.2-12.6,1.2-12.6l-0.9,12.7
				c-0.3,4-0.8,8.9-1.7,14.5c-1.1,6.2-2.8,12.3-5.2,18.2c-1.3,3.4-3,6.7-4.9,9.7c-2.2,3.3-4.9,6.2-8.2,8.4c-6.7,4.7-15.2,6.8-23.8,8
				c-18,2.6-36.1,3.4-54.2,2.5c-18.1-1-36.1-3.4-53.8-7.2c-8.4-1.9-16.8-3.4-24-7.1c-6.7-3.7-12-9.6-14.8-16.7
				c-2.4-5.9-3.9-12.1-4.5-18.4c-0.7-5.6-1.1-10.5-1.3-14.5c-0.2-4-0.1-7.2,0-9.4C95.8,43.1,95.9,41.9,95.9,41.9z"/>
			<g id="Group_111" transform="translate(3.742 4.909)">
				<path id="Path_240" class="st7" d="M123.2,36.8c-0.4,0-0.8-0.1-1.1-0.3c-0.7-0.5-0.9-1.4-0.4-2.1c0.1-0.1,0.2-0.2,0.3-0.3
					c0.1-0.1,0.3-0.1,0.4,0c0.4-0.2,0.8-0.2,1.2-0.2c0.5,0.1,1,0.5,1.2,1c0.2,0.4,0.1,0.9-0.1,1.2c-0.3,0.4-0.7,0.6-1.2,0.7
					C123.5,36.8,123.4,36.8,123.2,36.8z M122.4,35.6c0.1,0.1,0.1,0.2,0.2,0.2c0.3,0.2,0.6,0.2,0.9,0.1c0.2,0,0.5-0.2,0.6-0.3
					c0.1-0.1,0.1-0.3,0-0.5c-0.1-0.2-0.3-0.4-0.6-0.5c-0.3-0.1-0.7,0-0.9,0.3c-0.1,0.1-0.2,0.2-0.2,0.4
					C122.5,35.4,122.5,35.5,122.4,35.6L122.4,35.6z"/>
				<path id="Path_241" class="st7" d="M131.8,44.4c-0.4,0-0.8-0.1-1.1-0.3c-0.7-0.5-0.9-1.4-0.4-2.1c0.1-0.1,0.2-0.2,0.3-0.3
					s0.3-0.1,0.4,0c0.4-0.2,0.8-0.2,1.2-0.2c0.5,0.1,1,0.5,1.2,1c0.2,0.4,0.1,0.9-0.1,1.2c-0.3,0.4-0.7,0.6-1.1,0.7
					C132.1,44.4,131.9,44.4,131.8,44.4z M130.9,43.2c0.1,0.1,0.1,0.2,0.2,0.2c0.3,0.2,0.6,0.2,0.9,0.1c0.2,0,0.5-0.2,0.6-0.3
					c0.1-0.1,0.1-0.3,0-0.5c-0.1-0.2-0.3-0.4-0.6-0.5c-0.3-0.1-0.7,0-0.9,0.3c-0.1,0.1-0.2,0.2-0.2,0.4C131,43,131,43.1,130.9,43.2
					L130.9,43.2z"/>
				<path id="Path_242" class="st7" d="M143,47.9c-0.1,0-0.2,0-0.3,0c-0.5,0-0.9-0.4-1-0.9c0-0.2,0.1-0.4,0.3-0.5
					c0.2,0,0.4,0.1,0.5,0.3c0,0.1,0.2,0.2,0.3,0.2c0.2,0.1,0.5,0,0.7-0.2c0.1-0.1,0.1-0.3,0-0.4c-0.1-0.3-0.4-0.5-0.7-0.5
					c-0.6-0.1-1.2,0.2-1.5,0.7c-0.1,0.2-0.4,0.2-0.6,0.1c-0.2-0.1-0.2-0.4-0.1-0.5l0,0c0.5-0.8,1.4-1.2,2.3-1.1c0.6,0.1,1,0.4,1.3,1
					c0.2,0.4,0.2,0.8,0,1.2C143.9,47.7,143.4,48,143,47.9z"/>
				<path id="Path_243" class="st7" d="M144.3,47c-0.1,0-0.2,0-0.2,0c-0.6-0.1-1.1-0.5-1.3-1c-0.2-0.5-0.2-1,0.1-1.4
					c0.1-0.2,0.4-0.2,0.6-0.1c0,0,0,0,0.1,0c0.3-0.2,0.6-0.3,1-0.3l0,0c0.6,0,1.1,0.3,1.4,0.8c0.2,0.4,0.1,1-0.2,1.3
					C145.4,46.7,144.9,47,144.3,47z M143.5,45.5c0,0.1,0,0.1,0.1,0.2c0.1,0.3,0.4,0.5,0.7,0.5c0.3,0,0.7-0.1,0.9-0.4
					c0.1-0.1,0.2-0.3,0.1-0.5c-0.2-0.2-0.4-0.4-0.7-0.3l0,0c-0.2,0-0.5,0.1-0.6,0.3C143.8,45.4,143.6,45.5,143.5,45.5L143.5,45.5z"
					/>
				<path id="Path_244" class="st7" d="M140.1,29.4c-0.2,0-0.3-0.1-0.4-0.2c-0.1-0.3-0.2-0.7,0-1c0.2-0.4,0.5-0.6,0.8-0.7
					c0.5-0.1,1,0,1.4,0.3c0.2,0.2,0.4,0.5,0.3,0.8c-0.1,0.4-0.6,0.7-1,0.7c-0.2,0-0.5,0-0.7-0.2c0,0.1-0.1,0.2-0.2,0.2
					C140.3,29.4,140.2,29.4,140.1,29.4z"/>
				<path id="Path_245" class="st7" d="M127.6,28.6c-0.3,0-0.7-0.1-1-0.3c-0.1-0.3-0.2-0.6-0.5-0.8c0-0.3,0.1-0.7,0.3-0.9
					c0.4-0.4,0.9-0.5,1.4-0.5c0.5,0.1,0.9,0.4,1.1,0.8c0.1,0.3,0.1,0.7-0.1,1c-0.2,0.3-0.6,0.5-1,0.6
					C127.8,28.5,127.7,28.6,127.6,28.6z M127,27.5c0.1,0,0.1,0,0.1,0.1c0.2,0.1,0.4,0.1,0.6,0.1c0.2,0,0.3-0.1,0.4-0.2
					c0,0,0-0.1,0-0.2c-0.1-0.2-0.3-0.3-0.5-0.3c-0.2,0-0.5,0-0.7,0.2c-0.1,0-0.1,0.1-0.1,0.2C127,27.4,127,27.5,127,27.5L127,27.5z"
					/>
				<path id="Path_246" class="st7" d="M114.9,49.6c-0.1,0-0.1,0-0.2-0.1l-0.3-0.3c-0.1-0.1-0.2-0.3-0.1-0.4c0.1-0.1,0.3-0.2,0.4,0
					l0.3,0.3c0.1,0.1,0.2,0.3,0.1,0.4C115.1,49.6,115,49.6,114.9,49.6z"/>
				<path id="Path_247" class="st7" d="M114.8,49.6C114.7,49.6,114.7,49.6,114.8,49.6c-0.4-0.1-0.7-0.3-0.9-0.7
					c-0.1-0.3-0.1-0.6,0.1-0.9c0.2-0.3,0.6-0.4,0.9-0.4c0.4,0,0.7,0.1,1,0.3c0.2,0.2,0.3,0.6,0.2,0.9c-0.1,0.4-0.4,0.6-0.7,0.8
					C115.2,49.4,114.9,49.5,114.8,49.6L114.8,49.6z M115,48.2L115,48.2c-0.2,0-0.4,0.1-0.5,0.2c-0.1,0.1-0.1,0.2,0,0.3
					c0.1,0.2,0.2,0.3,0.4,0.3c0.1,0,0.1,0,0.2,0.1c0-0.1,0.1-0.1,0.2-0.1c0.2,0,0.3-0.2,0.3-0.3c0-0.1,0-0.2-0.1-0.3
					C115.3,48.3,115.1,48.2,115,48.2L115,48.2z"/>
				<path id="Path_248" class="st7" d="M100.4,36.9c-0.1,0-0.2,0-0.3-0.1c-0.4-0.3-0.5-0.8-0.4-1.3c0.1-0.5,0.6-1,1.1-1.1
					c0.7-0.2,1.4,0.1,1.8,0.7c0.2,0.3,0.3,0.8,0.1,1.1c-0.4,0.5-1.1,0.7-1.7,0.5c-0.1,0-0.1,0-0.2,0c0,0,0,0,0,0.1
					C100.6,36.8,100.5,36.9,100.4,36.9z M100.7,35.4c0.1,0.1,0.1,0.2,0.2,0.3c0,0,0.1,0.1,0.3,0.2c0.3,0.1,0.6,0,0.8-0.1
					c0,0,0-0.1,0-0.2c-0.2-0.3-0.6-0.4-0.9-0.3C100.9,35.3,100.8,35.3,100.7,35.4L100.7,35.4z"/>
				<path id="Path_249" class="st7" d="M109,30.4c-0.2,0-0.4,0-0.6-0.1c-0.5-0.3-0.9-0.7-1.1-1.2c-0.1-0.2,0-0.4,0.2-0.5
					c0.2-0.1,0.4,0,0.5,0.2c0,0.1,0.1,0.1,0.1,0.2c0-0.1,0.1-0.1,0.1-0.2c0.2-0.5,0.8-0.8,1.3-0.6c0.2,0.1,0.4,0.2,0.5,0.5
					c0.2,0.4,0.3,0.8,0.1,1.2C109.9,30.1,109.4,30.4,109,30.4z M108.9,29.6c0.2,0,0.4,0,0.6-0.2c0.1-0.1,0-0.3-0.1-0.4
					c-0.1-0.1-0.2-0.2-0.3-0.2c-0.1,0-0.2,0.1-0.3,0.2c-0.1,0.1-0.1,0.3,0,0.4C108.9,29.5,108.9,29.6,108.9,29.6L108.9,29.6z"/>
				<path id="Path_250" class="st7" d="M121.8,43.3c-0.2,0-0.5,0-0.7-0.2c-0.4-0.2-0.7-0.5-0.8-0.9c0.1-0.2,0.1-0.5,0-0.8
					c0.2-0.4,0.5-0.7,0.9-0.8c0.5-0.2,1-0.1,1.5,0.2c0.4,0.2,0.6,0.7,0.6,1.2c0,0.5-0.3,0.9-0.7,1.1C122.3,43.3,122,43.3,121.8,43.3
					z M120.9,42c0,0,0.1,0.1,0.1,0.1c0.1,0.2,0.2,0.3,0.4,0.3c0.3,0.1,0.6,0.1,0.8,0c0.2-0.1,0.3-0.2,0.3-0.4c0-0.2-0.1-0.3-0.2-0.4
					c-0.2-0.1-0.5-0.2-0.8-0.1c-0.2,0-0.3,0.2-0.4,0.3C121,41.9,120.9,41.9,120.9,42z"/>
				<path id="Path_251" class="st7" d="M168.7,53.1c-0.3,0-0.6-0.1-0.8-0.3c0-0.1-0.1-0.3-0.2-0.3c-0.1-0.3,0-0.5,0.2-0.7
					c0.2-0.3,0.6-0.4,1-0.3c0.4,0.1,0.6,0.3,0.8,0.6c0.1,0.3,0.1,0.6-0.1,0.8C169.3,53,169,53.1,168.7,53.1L168.7,53.1z M168.1,52.4
					C168.2,52.4,168.2,52.4,168.1,52.4c0.2,0.2,0.4,0.2,0.5,0.2c0.2,0,0.3-0.1,0.4-0.2c0.1-0.1,0.1-0.2,0-0.3
					c-0.1-0.2-0.2-0.3-0.4-0.3c-0.2,0-0.4,0-0.5,0.2C168.2,52.1,168.1,52.2,168.1,52.4C168.1,52.3,168.1,52.4,168.1,52.4L168.1,52.4
					z"/>
				<path id="Path_252" class="st7" d="M275.2,47.7c-0.3,0-0.6-0.1-0.8-0.3c0-0.1-0.1-0.3-0.2-0.3c0-0.3,0-0.5,0.2-0.7
					c0.2-0.3,0.6-0.4,1-0.3c0.4,0,0.6,0.3,0.8,0.6c0.1,0.3,0.1,0.6-0.1,0.8C275.8,47.6,275.5,47.7,275.2,47.7L275.2,47.7z
					 M274.6,46.9C274.7,47,274.7,47,274.6,46.9c0.2,0.2,0.4,0.2,0.5,0.2c0.2,0,0.3-0.1,0.5-0.2c0.1-0.1,0.1-0.2,0-0.3
					c-0.1-0.2-0.2-0.3-0.4-0.3c-0.2,0-0.4,0-0.5,0.2C274.7,46.7,274.6,46.8,274.6,46.9C274.6,46.9,274.6,46.9,274.6,46.9z"/>
				<path id="Path_253" class="st7" d="M117.7,52.8c-0.5,0-0.9-0.2-1.3-0.4c0,0-0.1-0.1-0.1-0.1c-0.1,0.1-0.3,0.1-0.4,0
					c-0.2-0.1-0.2-0.3-0.1-0.4l0,0c0.3-0.5,0.9-0.7,1.5-0.6c0.6,0.1,1,0.5,1.1,1.1c0,0.2-0.1,0.3-0.2,0.3
					C118,52.8,117.8,52.8,117.7,52.8z"/>
				<path id="Path_254" class="st7" d="M157.9,44.5c-0.4,0-0.9-0.2-1.2-0.4c-0.3-0.2-0.5-0.6-0.5-1c0-0.2,0.1-0.3,0.3-0.3
					c0.2,0,0.3,0.1,0.3,0.2c0,0,0,0,0,0.1c0,0.2,0.1,0.4,0.3,0.5c0.2,0.2,0.6,0.3,0.9,0.3c0.3,0,0.6-0.2,0.7-0.5
					c0.1-0.1,0-0.3-0.1-0.4c-0.2-0.2-0.6-0.2-0.9-0.1c-0.2,0.1-0.3,0.2-0.3,0.3c0,0.2-0.1,0.3-0.3,0.3c0,0,0,0-0.1,0
					c-0.2,0-0.3-0.2-0.3-0.3l0,0c0.1-0.4,0.4-0.7,0.8-0.8c0.5-0.2,1.1,0,1.5,0.3c0.2,0.3,0.3,0.7,0.2,1c-0.2,0.5-0.7,0.8-1.2,0.9
					C158,44.5,158,44.5,157.9,44.5z"/>
				<path id="Path_255" class="st7" d="M156.8,51.5c-0.4,0-0.8-0.1-1.1-0.5c0,0-0.1-0.1-0.1-0.1c0,0-0.1-0.1-0.1-0.1
					c-0.1-0.3-0.1-0.7,0.1-0.9c0.3-0.4,0.8-0.6,1.3-0.6c0.5,0,0.9,0.3,1.1,0.8c0.1,0.3,0.1,0.7-0.1,1
					C157.7,51.4,157.3,51.6,156.8,51.5L156.8,51.5z M156.1,50.7C156.1,50.7,156.1,50.7,156.1,50.7c0.2,0.2,0.5,0.3,0.8,0.3
					c0.3,0,0.5-0.1,0.7-0.2c0.1-0.1,0.1-0.2,0-0.4c-0.1-0.2-0.4-0.4-0.6-0.4c-0.3,0-0.6,0.1-0.8,0.3C156,50.3,156,50.5,156.1,50.7
					C156,50.6,156,50.6,156.1,50.7L156.1,50.7z"/>
				<path id="Path_256" class="st7" d="M163.6,35.6c-0.5,0-1-0.2-1.3-0.6c-0.2,0.1-0.5,0.1-0.6-0.1c-0.1-0.1-0.1-0.3,0-0.4
					c0.4-0.6,1.1-0.8,1.7-0.6c0.4,0.1,0.7,0.4,0.8,0.7c0.1,0.3,0.1,0.6,0,0.8c-0.1,0.1-0.2,0.2-0.3,0.2
					C163.8,35.6,163.7,35.6,163.6,35.6z"/>
				<path id="Path_257" class="st7" d="M177.5,24L177.5,24c-0.6,0-1-0.4-1.1-0.8c0,0-0.1,0-0.1,0c-0.2-0.1-0.3-0.4-0.2-0.6l0,0
					c0.2-0.4,0.6-0.6,1-0.7c0.5-0.1,1,0,1.4,0.3c0.3,0.3,0.4,0.7,0.3,1.1C178.5,23.7,178,24,177.5,24z"/>
				<path id="Path_258" class="st7" d="M177.5,31.8L177.5,31.8c-0.6,0-1-0.4-1.1-0.8c0,0-0.1,0-0.1,0c-0.2-0.1-0.3-0.4-0.2-0.6
					c0.2-0.4,0.6-0.6,1-0.7c0.5-0.1,1,0,1.4,0.3c0.3,0.3,0.4,0.7,0.3,1.1C178.5,31.5,178,31.8,177.5,31.8z"/>
				<path id="Path_259" class="st7" d="M157.6,29.7L157.6,29.7c-0.6,0-1-0.4-1.1-0.8c0,0-0.1,0-0.1,0c-0.2-0.1-0.3-0.4-0.2-0.6
					c0.2-0.4,0.6-0.6,1-0.7c0.5-0.1,1,0,1.4,0.3c0.3,0.3,0.4,0.7,0.3,1.1C158.5,29.4,158.1,29.7,157.6,29.7z"/>
				<path id="Path_260" class="st7" d="M193.4,28.7L193.4,28.7c-0.4,0-0.8-0.1-1-0.4l0,0c-0.2,0.1-0.5,0.1-0.6-0.1
					c-0.2-0.3-0.3-0.7-0.1-1.1c0.2-0.5,0.5-0.8,1-1c0.9-0.4,1.9,0,2.3,0.8c0.1,0.4,0.1,0.8-0.1,1C194.4,28.5,193.9,28.8,193.4,28.7z
					 M192.8,27c0,0.1,0,0.3-0.1,0.4c0,0-0.1,0.1,0,0.2c0.1,0.2,0.4,0.3,0.6,0.3l0,0c0.2,0,0.5-0.1,0.6-0.3c0.1-0.1,0.1-0.2,0.1-0.2
					C193.7,27,193.2,26.8,192.8,27L192.8,27z"/>
				<path id="Path_261" class="st7" d="M203.6,25.7c-0.1,0-0.2,0-0.3,0c-0.7-0.1-1.2-0.7-1.2-1.5c0-0.2,0.1-0.3,0.3-0.3l0,0
					c0.1,0,0.1,0,0.2,0c0.1-0.2,0.1-0.3,0.3-0.4c0.5-0.5,1.3-0.5,1.8,0c0.1,0.1,0.1,0.2,0.2,0.2c0.2,0.3,0.3,0.6,0.2,1
					C204.8,25.3,204.2,25.7,203.6,25.7z M202.8,24.7c0.1,0.2,0.4,0.3,0.6,0.4c0.4,0.1,0.8-0.1,1-0.5c0-0.2,0-0.3-0.1-0.5
					c-0.2-0.3-0.6-0.4-0.9-0.2c-0.1,0-0.1,0.1-0.1,0.1c-0.1,0.1-0.2,0.2-0.2,0.4C203.1,24.5,203,24.7,202.8,24.7L202.8,24.7z"/>
				<path id="Path_262" class="st7" d="M224,39.7c-0.4,0-0.9-0.1-1.2-0.4c-0.4-0.2-0.6-0.6-0.6-1v0c0.1-0.4,0.3-0.8,0.7-1
					c0.6-0.3,1.3-0.4,1.9-0.1c0.5,0.2,0.8,0.7,0.8,1.2c0,0.5-0.4,1-0.9,1.2C224.4,39.7,224.2,39.7,224,39.7z M223.1,38.4
					c0,0.1,0.1,0.2,0.2,0.3c0.3,0.2,0.7,0.3,1.1,0.2c0.2-0.1,0.3-0.2,0.4-0.4c0-0.2-0.1-0.4-0.3-0.4c-0.4-0.1-0.7-0.1-1.1,0.1
					C223.2,38.1,223.1,38.2,223.1,38.4C223.1,38.3,223.1,38.3,223.1,38.4z"/>
				<path id="Path_263" class="st7" d="M226,21.9c-0.4,0-0.9-0.1-1.2-0.4c-0.4-0.2-0.6-0.6-0.6-1c0,0,0,0,0,0c0.1-0.4,0.3-0.8,0.7-1
					c0.6-0.3,1.3-0.4,1.9-0.1c0.5,0.2,0.8,0.7,0.8,1.2c0,0.5-0.4,1-0.9,1.2C226.5,21.9,226.3,21.9,226,21.9z M225.1,20.5L225.1,20.5
					c0,0.1,0.1,0.2,0.2,0.3c0.3,0.2,0.7,0.3,1.1,0.2c0.2-0.1,0.3-0.2,0.4-0.4c0-0.2-0.1-0.4-0.3-0.4c-0.4-0.1-0.7-0.1-1.1,0.1
					C225.2,20.3,225.1,20.4,225.1,20.5L225.1,20.5z"/>
				<path id="Path_264" class="st7" d="M236.7,34.5c-0.4,0-0.8-0.1-1.1-0.3c-0.3-0.2-0.6-0.5-0.6-0.9c0,0,0-0.1,0-0.2
					c0,0,0-0.1,0-0.2c0.1-0.4,0.4-0.7,0.8-0.8c0.5-0.2,1.1-0.2,1.7,0c0.4,0.2,0.7,0.7,0.6,1.2c0,0.5-0.4,0.9-0.8,1.1
					C237.1,34.5,236.9,34.5,236.7,34.5z M235.9,33.2L235.9,33.2c0,0.1,0.1,0.2,0.2,0.3c0.3,0.2,0.6,0.2,0.9,0.1
					c0.2,0,0.3-0.2,0.3-0.4c0-0.2-0.1-0.3-0.2-0.3c-0.3-0.1-0.6-0.1-0.9,0C236.1,33,235.9,33.1,235.9,33.2
					C235.9,33.2,235.9,33.2,235.9,33.2z"/>
				<path id="Path_265" class="st7" d="M235.8,27.9c-0.7,0-1.3-0.4-1.6-0.9c-0.1-0.3-0.2-0.6-0.1-0.9c-0.2,0.1-0.5,0.1-0.6-0.1
					s-0.1-0.4,0.1-0.6c0.9-0.8,2.3-0.9,3.3-0.2c0.5,0.3,0.7,0.9,0.6,1.5c-0.1,0.6-0.6,1.1-1.3,1.2C236,27.9,235.9,27.9,235.8,27.9z
					 M235,25.7L235,25.7c0.2,0.2,0.2,0.5,0,0.6c0,0-0.1,0.1,0,0.3c0.2,0.3,0.6,0.5,1,0.5c0.3,0,0.5-0.3,0.6-0.5
					c0.1-0.2,0-0.5-0.2-0.6C235.9,25.6,235.4,25.5,235,25.7L235,25.7z"/>
				<path id="Path_266" class="st7" d="M260.4,39.1c-0.5,0-1-0.2-1.3-0.5c-0.1-0.1-0.2-0.3-0.3-0.4c0,0.2-0.2,0.3-0.4,0.4
					c-0.2,0-0.4-0.1-0.5-0.3c0,0,0,0,0,0c-0.1-0.9,0.5-1.8,1.3-2c0.9-0.3,1.9,0,2.5,0.8c0.2,0.4,0.2,0.8,0,1.2
					c-0.2,0.5-0.7,0.8-1.2,0.9C260.6,39.1,260.5,39.1,260.4,39.1z M259.2,37.1L259.2,37.1c0.3,0.1,0.4,0.3,0.4,0.5
					c0,0.1,0,0.2,0.1,0.3c0.2,0.2,0.5,0.3,0.9,0.3c0.2,0,0.5-0.2,0.6-0.4c0.1-0.2,0.1-0.3,0-0.5c-0.4-0.4-1-0.6-1.5-0.4
					C259.4,37,259.3,37,259.2,37.1L259.2,37.1z"/>
				<path id="Path_267" class="st7" d="M270.3,34.3c-0.2,0-0.4,0-0.6-0.1c-0.6-0.1-1-0.5-1.3-1c0,0,0-0.1,0-0.1c0,0,0-0.1,0-0.1
					c-0.1-0.5,0.1-1,0.4-1.3c0.5-0.5,1.3-0.8,2-0.6c0.6,0.1,1.2,0.7,1.3,1.3c0.1,0.5,0,1.1-0.5,1.5
					C271.3,34.2,270.8,34.4,270.3,34.3z M269.2,32.9C269.2,33,269.2,33,269.2,32.9c0.2,0.3,0.5,0.5,0.8,0.5c0.4,0.1,0.8,0,1.2-0.2
					c0.2-0.2,0.3-0.4,0.2-0.6c-0.1-0.3-0.4-0.6-0.7-0.7c-0.5-0.1-0.9,0-1.2,0.4C269.2,32.5,269.2,32.7,269.2,32.9
					C269.2,32.9,269.2,32.9,269.2,32.9L269.2,32.9z"/>
				<path id="Path_268" class="st7" d="M260,50.2c-0.4,0-0.7-0.1-1-0.4c0,0-0.1-0.1-0.1-0.1c0,0-0.1-0.1-0.1-0.1
					c-0.2-0.3-0.2-0.7,0-1c0.2-0.4,0.7-0.7,1.2-0.7s0.9,0.2,1.2,0.7c0.2,0.3,0.2,0.7,0,1c-0.2,0.3-0.6,0.6-1,0.6
					C260.1,50.2,260,50.2,260,50.2z M259.5,49.2L259.5,49.2c0.2,0.1,0.4,0.2,0.6,0.1c0.1,0,0.3-0.1,0.4-0.2c0-0.1,0-0.1,0-0.2
					c-0.1-0.2-0.3-0.3-0.5-0.3c-0.2,0-0.4,0.1-0.5,0.3C259.5,49,259.5,49.1,259.5,49.2C259.5,49.2,259.5,49.2,259.5,49.2L259.5,49.2
					z"/>
				<path id="Path_269" class="st7" d="M172.6,19.8c-0.4,0-0.7-0.1-1-0.4c0,0-0.1-0.1-0.1-0.1c0,0-0.1-0.1-0.1-0.1
					c-0.2-0.3-0.2-0.7,0-1c0.2-0.4,0.7-0.7,1.2-0.7h0c0.5,0,0.9,0.2,1.2,0.7c0.2,0.3,0.2,0.7,0,1c-0.2,0.3-0.6,0.6-1,0.6
					C172.7,19.8,172.6,19.8,172.6,19.8z M172.1,18.8L172.1,18.8c0.2,0.1,0.4,0.2,0.6,0.2c0.1,0,0.3-0.1,0.4-0.2c0-0.1,0-0.1,0-0.2
					c-0.1-0.2-0.3-0.2-0.5-0.3c-0.2,0-0.4,0.1-0.4,0.3C172.1,18.6,172.1,18.7,172.1,18.8L172.1,18.8z"/>
				<path id="Path_270" class="st7" d="M252.6,46.5c-0.1,0-0.2,0-0.4-0.1c-0.4-0.1-0.7-0.5-0.7-0.9c0-0.4,0.2-0.8,0.6-1
					c0.2-0.1,0.4,0,0.5,0.2c0.3,0,0.7,0.1,0.9,0.3c0.2,0.3,0.2,0.7,0,1C253.3,46.3,252.9,46.5,252.6,46.5z"/>
				<path id="Path_271" class="st7" d="M173.7,58.4c-0.5,0-0.9-0.2-1.3-0.5c0,0-0.1-0.1-0.1-0.1c-0.2,0-0.4-0.1-0.5-0.3
					c-0.1-0.4-0.1-0.9,0.2-1.2c0.5-0.5,1.2-0.8,1.8-0.6c0.6,0.1,1.1,0.6,1.2,1.2c0.1,0.5-0.2,1-0.7,1.2
					C174.3,58.3,174,58.4,173.7,58.4z M172.9,56.8c0,0.1,0,0.2,0,0.2c0,0.1,0.1,0.2,0.1,0.2c0.3,0.2,0.7,0.3,1.1,0.2
					c0.1-0.1,0.2-0.2,0.2-0.4c-0.1-0.2-0.2-0.4-0.5-0.5C173.5,56.5,173.2,56.6,172.9,56.8z"/>
				<path id="Path_272" class="st7" d="M180.7,53.9c-0.5,0-1-0.2-1.4-0.6c-0.2-0.2-0.3-0.5-0.3-0.8c0.1-1,1.6-1.4,2.4-1
					c0.4,0.2,0.7,0.7,0.7,1.2c0,0.5-0.4,1-0.9,1.1C181.1,53.8,180.9,53.9,180.7,53.9z M180.7,52.2c-0.4,0-0.8,0.2-0.8,0.4
					c0,0.1,0,0.1,0.1,0.2c0.3,0.2,0.6,0.3,1,0.2c0.2,0,0.3-0.2,0.3-0.4c0-0.2-0.1-0.3-0.2-0.3C181,52.2,180.8,52.2,180.7,52.2
					L180.7,52.2z"/>
				<path id="Path_273" class="st7" d="M184.7,47.2c-0.6,0-1.1-0.2-1.6-0.6c-0.4-0.3-0.6-0.8-0.6-1.3c0,0,0-0.1,0-0.1
					c0,0,0-0.1,0-0.1c0.2-0.5,0.6-0.9,1.2-1c0.7-0.3,1.5-0.2,2.1,0.2c0.5,0.3,0.8,0.9,0.7,1.5c-0.1,0.7-0.6,1.2-1.3,1.4
					C185.1,47.2,184.9,47.2,184.7,47.2z M183.4,45.4C183.4,45.5,183.4,45.5,183.4,45.4c0,0.2,0.1,0.4,0.3,0.5
					c0.4,0.3,0.9,0.4,1.4,0.3c0.3-0.1,0.6-0.3,0.7-0.7c0-0.2-0.1-0.5-0.3-0.6c-0.4-0.2-0.9-0.3-1.4-0.1
					C183.8,45,183.5,45.1,183.4,45.4C183.4,45.4,183.4,45.4,183.4,45.4z"/>
				<path id="Path_274" class="st7" d="M222.2,31.6c-0.6,0-1.1-0.2-1.6-0.6c-0.4-0.3-0.6-0.8-0.6-1.3c0,0,0-0.1,0-0.1
					c0,0,0-0.1,0-0.1c0.2-0.5,0.6-0.9,1.2-1c0.7-0.3,1.5-0.2,2.1,0.2c0.5,0.3,0.8,0.9,0.7,1.5c-0.1,0.7-0.6,1.2-1.3,1.4
					C222.7,31.6,222.5,31.6,222.2,31.6z M220.9,29.9C220.9,29.9,220.9,29.9,220.9,29.9c0,0.2,0.1,0.4,0.3,0.5
					c0.4,0.3,0.9,0.4,1.4,0.3c0.3-0.1,0.6-0.3,0.7-0.7c0-0.2-0.1-0.5-0.3-0.6c-0.4-0.2-0.9-0.3-1.4-0.1
					C221.3,29.4,221.1,29.6,220.9,29.9C221,29.8,221,29.8,220.9,29.9L220.9,29.9z"/>
				<path id="Path_275" class="st7" d="M99.7,55.2c-0.6,0-1.2-0.2-1.6-0.6c-0.4-0.3-0.6-0.8-0.6-1.3c0,0,0-0.1,0-0.1
					c0,0,0-0.1,0-0.1c0.2-0.5,0.6-0.9,1.2-1c0.7-0.3,1.5-0.2,2.2,0.2c0.5,0.3,0.8,0.9,0.7,1.5c-0.1,0.7-0.6,1.2-1.3,1.4
					C100.2,55.2,99.9,55.2,99.7,55.2z M98.4,53.4C98.4,53.4,98.4,53.5,98.4,53.4c0,0.2,0.1,0.4,0.3,0.5c0.4,0.3,0.9,0.4,1.4,0.3
					c0.3-0.1,0.6-0.3,0.7-0.7c0-0.2-0.1-0.5-0.3-0.6c-0.4-0.2-0.9-0.3-1.4-0.1C98.8,53,98.6,53.1,98.4,53.4
					C98.5,53.4,98.4,53.4,98.4,53.4L98.4,53.4z"/>
				<path id="Path_276" class="st7" d="M163.8,59c-0.2,0-0.4,0-0.6-0.1c-0.4-0.1-0.7-0.4-0.9-0.8c0,0,0-0.1,0-0.1c0,0,0-0.1,0-0.1
					c0-0.4,0.1-0.7,0.4-1c0.4-0.4,1.1-0.5,1.6-0.3c0.5,0.1,0.9,0.5,0.9,1c0.1,0.4-0.1,0.9-0.5,1.1C164.5,58.9,164.1,59,163.8,59z
					 M163.1,57.8C163.1,57.8,163.1,57.8,163.1,57.8c0.1,0.2,0.2,0.2,0.4,0.3c0.3,0.1,0.6,0.1,0.8,0c0.1-0.1,0.1-0.2,0.1-0.3
					c0-0.2-0.2-0.3-0.4-0.3c-0.3-0.1-0.6,0-0.8,0.2C163.1,57.6,163.1,57.7,163.1,57.8C163.1,57.8,163.1,57.8,163.1,57.8L163.1,57.8z
					"/>
				<path id="Path_277" class="st7" d="M189.9,57.7c-0.2,0-0.3,0-0.5-0.1c-0.3-0.1-0.6-0.3-0.8-0.6c0,0-0.1,0-0.1,0
					c-0.2,0-0.4-0.1-0.4-0.3c0,0,0,0,0,0c-0.1-0.6,0.1-1.1,0.6-1.5c0.3-0.3,0.8-0.5,1.2-0.4c0.5,0.1,0.9,0.5,1.1,1
					c0.2,0.5,0.1,1.1-0.2,1.5C190.6,57.6,190.2,57.7,189.9,57.7z M188.9,56.1c0.1,0,0.3,0.2,0.3,0.3c0,0.2,0.2,0.5,0.4,0.5
					c0.2,0.1,0.5,0,0.6-0.1c0.2-0.2,0.2-0.5,0.1-0.8c-0.1-0.3-0.3-0.5-0.5-0.5c-0.2,0-0.5,0.1-0.6,0.2
					C189.1,55.8,189,55.9,188.9,56.1z"/>
				<path id="Path_278" class="st7" d="M282,35.2c-0.2,0-0.3,0-0.5-0.1c-0.3-0.1-0.6-0.3-0.8-0.6c0,0-0.1,0-0.1,0
					c-0.2,0-0.4-0.1-0.4-0.3l0,0c-0.1-0.6,0.1-1.1,0.5-1.5c0.3-0.3,0.8-0.5,1.2-0.4c0.5,0.1,0.9,0.5,1.1,1c0.2,0.5,0.1,1.1-0.2,1.5
					C282.7,35,282.4,35.2,282,35.2z M281.1,33.5c0.1,0,0.3,0.2,0.3,0.3c0,0.3,0.2,0.5,0.4,0.5c0.2,0.1,0.5,0,0.6-0.1
					c0.2-0.2,0.2-0.5,0.1-0.8c-0.1-0.3-0.3-0.5-0.5-0.5c-0.2,0-0.5,0.1-0.6,0.2C281.2,33.3,281.1,33.4,281.1,33.5z"/>
				<path id="Path_279" class="st7" d="M283.2,56.3c-0.2,0-0.3,0-0.5-0.1c-0.3-0.1-0.6-0.3-0.8-0.6c0,0-0.1,0-0.1,0
					c-0.2,0-0.4-0.1-0.4-0.3c0,0,0,0,0,0c-0.1-0.6,0.1-1.1,0.5-1.5c0.3-0.3,0.8-0.5,1.2-0.4c0.5,0.1,0.9,0.5,1.1,1
					c0.2,0.5,0.1,1.1-0.2,1.5C283.9,56.2,283.5,56.3,283.2,56.3z M282.2,54.7c0.1,0,0.3,0.2,0.3,0.3c0,0.3,0.2,0.5,0.4,0.5
					c0.2,0.1,0.5,0,0.6-0.1c0.2-0.2,0.2-0.5,0.1-0.8c-0.1-0.3-0.3-0.5-0.5-0.5c-0.2,0-0.5,0.1-0.6,0.2
					C282.4,54.4,282.3,54.5,282.2,54.7z"/>
				<path id="Path_280" class="st7" d="M190.9,51.5c-0.1,0-0.1,0-0.1,0c-0.6-0.1-1.1-0.7-1.1-1.3c0-0.2,0.1-0.3,0.3-0.4
					c0,0,0,0,0.1,0c0.1,0,0.3,0.1,0.3,0.2c0.2-0.2,0.4-0.3,0.7-0.3c0.4,0,0.8,0.1,1,0.5c0.1,0.1,0.1,0.2,0.1,0.3
					C192,51.1,191.5,51.5,190.9,51.5z"/>
				<path id="Path_281" class="st7" d="M271.7,28.3c0,0-0.1,0-0.1,0c-0.6-0.1-1.1-0.7-1.1-1.3c0-0.2,0.1-0.4,0.4-0.4
					c0.1,0,0.3,0.1,0.3,0.2c0.2-0.2,0.4-0.3,0.7-0.3c0.4,0,0.8,0.1,1,0.5c0.1,0.1,0.1,0.2,0,0.3C272.8,27.9,272.3,28.3,271.7,28.3z"
					/>
				<path id="Path_282" class="st7" d="M197.3,44c-0.3,0-0.5-0.1-0.7-0.2c-0.4-0.2-0.6-0.6-0.7-1c0-0.1,0-0.2,0.1-0.2
					c0-0.1,0-0.2,0-0.2c0.1-0.4,0.4-0.8,0.9-0.9c0.4-0.2,0.9-0.1,1.3,0.2c0.4,0.3,0.6,0.7,0.5,1.2C198.6,43.5,198,44,197.3,44
					L197.3,44z M196.6,42.6C196.6,42.6,196.6,42.7,196.6,42.6c0.1,0.3,0.2,0.4,0.3,0.5c0.2,0.1,0.4,0.1,0.6,0
					c0.2-0.1,0.3-0.3,0.3-0.5c0-0.2-0.1-0.4-0.2-0.5c-0.2-0.1-0.4-0.1-0.6,0C196.9,42.2,196.7,42.3,196.6,42.6
					C196.7,42.5,196.6,42.6,196.6,42.6L196.6,42.6z"/>
				<path id="Path_283" class="st7" d="M204.6,46C204.6,46,204.6,46,204.6,46c-0.2,0-0.3-0.1-0.4-0.2l-0.2-0.3c0,0-0.1,0-0.1,0
					c-0.2,0-0.4-0.3-0.3-0.5c0,0,0-0.1,0-0.1c-0.1-0.2,0-0.5,0.3-0.5c0.1,0,0.2,0,0.3,0l0.1,0c0.4-0.2,0.8-0.1,1.2,0.2
					c0.2,0.2,0.3,0.6,0.2,0.9C205.4,45.7,205,46,204.6,46z"/>
				<path id="Path_284" class="st7" d="M209,27.2C209,27.2,209,27.2,209,27.2c-0.2,0-0.3-0.1-0.4-0.2l-0.2-0.3c0,0-0.1,0-0.1,0
					c-0.2,0-0.4-0.3-0.3-0.5c0,0,0-0.1,0-0.1c-0.1-0.2,0-0.4,0.2-0.5c0.1-0.1,0.3-0.1,0.4,0l0.1,0c0.4-0.1,0.8-0.1,1.2,0.2
					c0.2,0.2,0.3,0.6,0.2,0.9C209.8,27,209.4,27.2,209,27.2z"/>
				<path id="Path_285" class="st7" d="M208.4,37.8L208.4,37.8c-0.2,0-0.3-0.1-0.4-0.2l-0.2-0.3c0,0-0.1,0-0.1,0
					c-0.2,0-0.4-0.3-0.3-0.5c0,0,0-0.1,0-0.1c-0.1-0.2,0-0.4,0.2-0.5c0.1-0.1,0.3-0.1,0.4,0l0.1,0c0.4-0.2,0.8-0.1,1.2,0.2
					c0.2,0.2,0.3,0.6,0.2,0.9C209.2,37.6,208.8,37.8,208.4,37.8z"/>
				<path id="Path_286" class="st7" d="M196,38.7L196,38.7c-0.5-0.1-0.8-0.4-0.9-0.8c-0.1-0.3,0.1-0.7,0.4-0.9
					c0.2-0.1,0.5-0.1,0.6,0.1l0,0c0,0.1,0.1,0.1,0.1,0.2c0.1,0,0.1,0,0.2,0c0.3,0.1,0.5,0.4,0.4,0.8C196.6,38.4,196.3,38.7,196,38.7
					z"/>
				<path id="Path_287" class="st7" d="M200.5,55.6c-0.6,0-1.3-0.3-1.6-0.8c-0.3-0.4-0.4-0.9-0.2-1.3c0-0.1,0.1-0.1,0.1-0.2
					c0-0.1,0-0.1,0.1-0.2c0.4-0.4,1-0.7,1.6-0.6h0c0.6,0,1.2,0.2,1.6,0.7c0.3,0.4,0.4,0.9,0.1,1.3c-0.3,0.6-0.9,1-1.6,1.1
					C200.6,55.6,200.6,55.6,200.5,55.6z M199.5,53.7C199.5,53.8,199.5,53.8,199.5,53.7c-0.1,0.2-0.1,0.4,0.1,0.5
					c0.2,0.3,0.6,0.5,1,0.5c0.4,0,0.7-0.2,0.8-0.6c0.1-0.2,0.1-0.4,0-0.5c-0.2-0.2-0.6-0.3-0.9-0.3h0
					C200.1,53.3,199.8,53.5,199.5,53.7C199.6,53.7,199.5,53.7,199.5,53.7L199.5,53.7z"/>
				<path id="Path_288" class="st7" d="M208.5,49.6c-0.5,0-1-0.2-1.3-0.5c-0.3-0.3-0.5-0.7-0.5-1.1c0,0,0-0.1,0-0.1c0,0,0-0.1,0-0.1
					c0.2-0.4,0.6-0.8,1-0.9c0.6-0.2,1.2-0.1,1.8,0.2c0.4,0.3,0.6,0.8,0.5,1.3c-0.1,0.6-0.5,1-1.1,1.2
					C208.9,49.5,208.7,49.6,208.5,49.6z M207.4,48C207.4,48,207.4,48.1,207.4,48c0,0.2,0.1,0.4,0.2,0.5c0.3,0.3,0.8,0.4,1.2,0.3
					c0.3-0.1,0.5-0.3,0.6-0.6c0-0.2-0.1-0.5-0.2-0.6c-0.4-0.2-0.8-0.2-1.2-0.1C207.7,47.6,207.5,47.7,207.4,48
					C207.4,48,207.4,48,207.4,48L207.4,48z"/>
				<path id="Path_289" class="st7" d="M173.7,39.6c-0.1,0-0.2,0-0.3-0.1c-0.1,0.1-0.2,0.1-0.4,0.1c-0.6-0.1-0.9-0.6-0.8-1.2
					c0.1-0.6,0.6-1.1,1.2-1h0c0.6,0,1.1,0.5,1.2,1.1C174.7,39,174.3,39.5,173.7,39.6C173.7,39.6,173.7,39.6,173.7,39.6z"/>
				<path id="Path_290" class="st7" d="M152.5,35.2c-0.1,0-0.2,0-0.2-0.1c-0.1,0.1-0.2,0.1-0.3,0c-0.5-0.1-0.8-0.5-0.7-1
					c0.1-0.5,0.5-0.9,1.1-0.9c0.5,0,1,0.4,1,0.9C153.4,34.7,153,35.1,152.5,35.2C152.5,35.2,152.5,35.2,152.5,35.2z"/>
				<path id="Path_291" class="st7" d="M114.8,29.9c-0.1,0-0.2,0-0.2-0.1c-0.2-0.2-0.3-0.4-0.3-0.7c0-0.3,0.2-0.5,0.5-0.6
					c0.3-0.1,0.6-0.1,0.9,0.1c0.2,0.1,0.3,0.3,0.4,0.5c0,0.2-0.1,0.5-0.3,0.5c0,0,0,0,0,0l-0.5,0.1c0,0,0,0,0,0.1
					C115.1,29.9,114.9,29.9,114.8,29.9z"/>
				<path id="Path_292" class="st7" d="M116.3,33.8c-0.1,0-0.2,0-0.2-0.1l-0.9-0.7c-0.2-0.1-0.3-0.4-0.2-0.6
					c0.1-0.2,0.4-0.3,0.6-0.2c0,0,0,0,0,0l0.4,0.2c0.3,0,0.5,0.1,0.7,0.3c0.2,0.2,0.2,0.5,0,0.7C116.6,33.7,116.5,33.8,116.3,33.8z"
					/>
				<path id="Path_293" class="st7" d="M147.5,23.5c-0.4,0-0.7-0.2-0.9-0.5c-0.1-0.4,0.1-0.7,0.4-0.8c0.4-0.2,0.9-0.1,1.2,0.2
					c0.1,0.1,0.1,0.3,0.1,0.4c0,0.4-0.4,0.7-0.8,0.7C147.6,23.5,147.6,23.5,147.5,23.5z"/>
				<path id="Path_294" class="st7" d="M263.1,28.2c-0.4,0-0.7-0.2-0.9-0.5c-0.1-0.4,0.1-0.7,0.5-0.8c0.4-0.2,0.9-0.1,1.2,0.2
					c0,0.1,0.1,0.3,0.1,0.4c0,0.4-0.4,0.7-0.8,0.7C263.2,28.2,263.1,28.2,263.1,28.2z"/>
				<path id="Path_295" class="st7" d="M202.9,19c-0.8,0-1.4-0.4-1.7-1.2c0-0.2,0.1-0.5,0.3-0.5c0.1,0,0.2,0,0.3,0.1l0,0
					c0.2-0.5,0.8-0.8,1.3-0.7h0c0.5,0,1.1,0.2,1.3,0.7c0,0,0,0.1,0,0.1c0,0.3-0.1,0.6-0.3,0.9c-0.3,0.4-0.7,0.6-1.2,0.6
					C203,19,202.9,19,202.9,19z M202.4,18c0.2,0.1,0.4,0.2,0.6,0.1c0.2,0,0.4-0.1,0.6-0.3c0,0,0.1-0.1,0.1-0.2
					c-0.1-0.1-0.3-0.1-0.5-0.1h0c-0.3,0-0.5,0.1-0.5,0.2C202.6,17.9,202.5,18,202.4,18L202.4,18z"/>
				<path id="Path_296" class="st7" d="M190.8,22.6c-0.4,0-0.8-0.1-1.1-0.4c-0.3-0.2-0.5-0.6-0.5-0.9c0-0.1,0.1-0.2,0.1-0.4l0,0l0,0
					l0.1-0.4c0.1-0.2,0.3-0.3,0.5-0.3c0.1,0,0.2-0.1,0.3-0.1c0.5-0.2,1.1-0.1,1.5,0.2c0.4,0.2,0.6,0.7,0.5,1.1
					c-0.1,0.5-0.4,0.9-0.9,1C191.2,22.6,191,22.6,190.8,22.6z M190.1,21.3L190.1,21.3c0,0.1,0.1,0.2,0.1,0.3
					c0.2,0.2,0.5,0.2,0.8,0.2c0.2,0,0.3-0.2,0.3-0.4c0-0.1,0-0.2-0.1-0.3c-0.2-0.1-0.5-0.2-0.8-0.1
					C190.3,21.1,190.2,21.2,190.1,21.3L190.1,21.3z"/>
				<path id="Path_297" class="st7" d="M242.4,23.7c-0.4,0-0.9-0.1-1.3-0.3c-0.6-0.4-1.1-1-1.1-1.8c0-0.2,0.2-0.4,0.4-0.4l0,0
					c0.2,0,0.4,0.2,0.4,0.4c0,0.4,0.2,0.8,0.6,1c0.5,0.3,1.1,0.3,1.6,0.1c0.2-0.1,0.3-0.2,0.3-0.4c0-0.1,0-0.2-0.1-0.3
					c-0.2-0.1-0.5-0.2-0.8-0.1c-0.1,0-0.2,0.1-0.3,0.2c-0.1,0.2-0.4,0.3-0.6,0.2c-0.2-0.1-0.3-0.3-0.2-0.5c0.2-0.4,0.5-0.6,0.9-0.7
					c0.5-0.1,1.1,0,1.5,0.3c0.3,0.2,0.5,0.6,0.4,1c-0.1,0.5-0.3,0.9-0.7,1.1C243.1,23.6,242.8,23.7,242.4,23.7z"/>
				<path id="Path_298" class="st7" d="M184,36.3c-0.1,0-0.2,0-0.3-0.1l0,0c-0.3-0.1-0.6-0.2-0.8-0.4c-0.2-0.2-0.2-0.4,0-0.6
					c0.1-0.2,0.4-0.2,0.6-0.1c0,0,0,0,0,0c0.2-0.5,0.6-0.9,1.1-1c0.6-0.1,1.2,0,1.6,0.4c0.3,0.2,0.5,0.6,0.5,0.9
					c0,0.1-0.1,0.2-0.1,0.3c-0.6,0.5-1.5,0.7-2.3,0.6C184.1,36.3,184,36.3,184,36.3z M184.2,35.4c0.5,0.1,1,0,1.5-0.2
					c0,0-0.1-0.1-0.1-0.1c-0.2-0.2-0.6-0.3-0.9-0.2c-0.2,0-0.4,0.2-0.5,0.4C184.2,35.3,184.2,35.4,184.2,35.4L184.2,35.4z"/>
				<path id="Path_299" class="st7" d="M136.5,23.1C136.5,23.1,136.4,23.1,136.5,23.1c-0.2,0-0.4-0.1-0.5-0.2
					c-0.2,0.1-0.5,0-0.6-0.1c0,0,0-0.1,0-0.1c-0.1-0.5,0.2-1,0.7-1.2c0.5-0.2,1-0.1,1.4,0.3c0.1,0.1,0.2,0.3,0.1,0.5
					c-0.2,0.4-0.5,0.7-0.9,0.8C136.6,23.1,136.5,23.1,136.5,23.1z"/>
				<path id="Path_300" class="st7" d="M225.1,55.1c-0.5,0-0.9-0.2-1.2-0.6c-0.2-0.3-0.2-0.7-0.1-1c0.1-0.2,0.3-0.3,0.5-0.2
					c0.4-0.3,1.1-0.3,1.5-0.1c0.3,0.2,0.5,0.6,0.4,1c-0.1,0.5-0.6,0.8-1.1,0.9L225.1,55.1z"/>
				<path id="Path_301" class="st7" d="M262.7,44c-0.5,0-0.9-0.2-1.2-0.6c-0.2-0.3-0.2-0.7-0.1-1c0.1-0.2,0.3-0.3,0.5-0.2
					c0.5-0.3,1-0.3,1.5-0.1c0.3,0.2,0.5,0.6,0.4,1c-0.1,0.5-0.6,0.8-1.1,0.9C262.8,44,262.7,44,262.7,44z"/>
				<path id="Path_302" class="st7" d="M219.4,24.3c-0.5,0-0.9-0.2-1.2-0.6c-0.2-0.3-0.2-0.7-0.1-1c0.1-0.2,0.3-0.3,0.5-0.2
					c0.4-0.3,1.1-0.4,1.5-0.1c0.3,0.2,0.5,0.6,0.4,1C220.5,23.9,220,24.3,219.4,24.3L219.4,24.3z"/>
				<path id="Path_303" class="st7" d="M229.2,50.9c-0.4,0-0.7-0.2-1-0.4c-0.2-0.2-0.3-0.5-0.2-0.8c0,0,0,0,0-0.1s0,0,0-0.1
					c0.2-0.3,0.5-0.5,0.8-0.5c0.4-0.1,0.8,0,1.1,0.3c0.3,0.2,0.4,0.6,0.3,0.9c-0.1,0.4-0.5,0.7-0.9,0.8
					C229.4,50.9,229.3,50.9,229.2,50.9z"/>
				<path id="Path_304" class="st7" d="M216.4,53.5c-0.6,0-1.2-0.4-1.4-1c0-0.2,0.1-0.3,0.2-0.4c0,0,0-0.1,0-0.1
					c0.1-0.4,0.5-0.6,0.9-0.7c0.4-0.1,0.8,0,1.1,0.2c0.2,0.2,0.4,0.4,0.5,0.7c0.1,0.3,0,0.5-0.2,0.8c-0.2,0.3-0.6,0.5-1,0.5
					C216.5,53.5,216.4,53.5,216.4,53.5z M215.9,52.8c0.2,0.1,0.4,0.1,0.5,0.1c0.2,0,0.4-0.1,0.5-0.3c0.1-0.1,0.1-0.2,0.1-0.2
					c0-0.1-0.1-0.2-0.2-0.2c-0.2-0.1-0.4-0.2-0.6-0.1c-0.2,0-0.3,0.2-0.4,0.3c0,0.1,0,0.2,0,0.2C215.9,52.6,215.9,52.7,215.9,52.8
					L215.9,52.8z"/>
				<path id="Path_305" class="st7" d="M207.8,59.2c-0.6,0-1.2-0.4-1.4-1c0-0.2,0.1-0.3,0.2-0.4c0,0,0-0.1,0-0.1
					c0.1-0.4,0.5-0.6,0.9-0.7c0.4-0.1,0.8,0,1.1,0.2c0.2,0.2,0.4,0.4,0.5,0.7c0.1,0.3,0,0.5-0.2,0.8c-0.2,0.3-0.6,0.5-1,0.5
					C207.9,59.2,207.9,59.2,207.8,59.2z M207.3,58.5c0.2,0.1,0.4,0.1,0.5,0.1c0.2,0,0.4-0.1,0.5-0.3c0.1-0.1,0.1-0.2,0.1-0.2
					c0-0.1-0.1-0.2-0.2-0.2c-0.2-0.1-0.4-0.2-0.6-0.1c-0.2,0-0.3,0.2-0.4,0.3c0,0.1,0,0.2,0,0.2C207.3,58.3,207.4,58.4,207.3,58.5z"
					/>
				<path id="Path_306" class="st7" d="M277.6,41.9c-0.6,0-1.2-0.4-1.4-1c0-0.2,0.1-0.3,0.2-0.4c0,0,0-0.1,0-0.1
					c0.1-0.3,0.5-0.6,0.9-0.7c0.4-0.1,0.8,0,1.1,0.2c0.2,0.2,0.4,0.4,0.5,0.7c0,0.3,0,0.5-0.2,0.8c-0.2,0.3-0.6,0.5-1,0.5
					C277.7,41.9,277.7,41.9,277.6,41.9z M277.2,41.1c0.2,0.1,0.4,0.1,0.5,0.1c0.2,0,0.4-0.1,0.5-0.3c0.1-0.1,0.1-0.2,0.1-0.2
					c0-0.1-0.1-0.2-0.2-0.2c-0.2-0.1-0.4-0.2-0.6-0.1c-0.2,0-0.3,0.2-0.4,0.3c0,0.1,0,0.2,0,0.2C277.2,41,277.2,41,277.2,41.1
					L277.2,41.1z"/>
				<path id="Path_307" class="st7" d="M256.3,26.3c-0.6,0-1.2-0.4-1.4-1c0-0.2,0.1-0.3,0.2-0.4c0,0,0-0.1,0-0.1
					c0.1-0.4,0.5-0.6,0.9-0.7c0.4-0.1,0.8,0,1.1,0.2c0.2,0.1,0.4,0.4,0.5,0.7c0,0.3,0,0.5-0.2,0.8c-0.2,0.3-0.6,0.5-1,0.5
					C256.4,26.3,256.4,26.3,256.3,26.3z M255.8,25.5c0.2,0.1,0.4,0.1,0.5,0.1c0.2,0,0.4-0.1,0.5-0.3c0.1-0.1,0.1-0.1,0.1-0.2
					c0-0.1-0.1-0.2-0.2-0.2c-0.2-0.1-0.4-0.2-0.6-0.1c-0.2,0-0.3,0.1-0.4,0.3c0,0.1,0,0.2,0,0.2C255.8,25.3,255.9,25.4,255.8,25.5
					L255.8,25.5z"/>
				<path id="Path_308" class="st7" d="M233.9,56.3c-0.3,0-0.5-0.1-0.7-0.2c-0.1,0-0.1-0.1-0.2-0.1c0,0,0,0,0,0
					c-0.2,0-0.4-0.2-0.4-0.4c0-0.3,0.1-0.6,0.4-0.8c0.3-0.3,0.7-0.4,1.1-0.3c0.4,0.1,0.7,0.4,0.8,0.8c0.1,0.3-0.1,0.7-0.4,0.9
					C234.3,56.2,234.1,56.3,233.9,56.3z"/>
				<path id="Path_309" class="st7" d="M237.2,46.6c-0.3,0-0.6-0.1-0.9-0.2c-0.4-0.2-0.7-0.5-0.9-0.9c-0.1-0.2,0-0.5,0.3-0.5
					c0,0,0,0,0.1,0c0.1-0.4,0.4-0.8,0.7-0.9c0.5-0.3,1.2-0.3,1.7,0c0.4,0.2,0.6,0.7,0.6,1.2c-0.1,0.5-0.4,1-0.9,1.2
					C237.7,46.6,237.4,46.6,237.2,46.6z M236.5,45.6c0.3,0.2,0.7,0.3,1.1,0.1c0.2-0.1,0.3-0.3,0.4-0.5c0-0.2-0.1-0.3-0.2-0.4
					c-0.3-0.1-0.6-0.1-0.9,0c-0.2,0.1-0.3,0.2-0.3,0.3c0,0.1,0,0.1-0.1,0.2c0,0,0,0.1,0,0.1C236.5,45.5,236.5,45.5,236.5,45.6
					L236.5,45.6z"/>
				<path id="Path_310" class="st7" d="M269.1,47.1c-0.4,0-0.7-0.1-1-0.3c-0.3-0.2-0.5-0.4-0.6-0.8c-0.1,0.1-0.2,0.1-0.3,0.1
					c-0.2,0-0.4-0.2-0.4-0.5l0,0c0.2-0.8,0.8-1.4,1.6-1.5c0.8-0.2,1.7,0.2,2.1,1c0.1,0.3,0.1,0.7,0,1.1c-0.2,0.4-0.6,0.7-1,0.8
					C269.4,47.1,269.2,47.1,269.1,47.1z M267.9,45.5c0.2,0,0.4,0.1,0.4,0.3c0,0.1,0.1,0.2,0.2,0.3c0.2,0.1,0.5,0.2,0.8,0.1
					c0.2,0,0.4-0.2,0.5-0.4c0.1-0.1,0.1-0.3,0-0.4c-0.3-0.4-0.8-0.6-1.2-0.5c-0.3,0-0.6,0.2-0.8,0.5
					C267.7,45.5,267.8,45.5,267.9,45.5C267.8,45.5,267.8,45.5,267.9,45.5L267.9,45.5z"/>
				<path id="Path_311" class="st7" d="M239.6,53.2c-0.3,0-0.5-0.1-0.8-0.2c-0.2-0.2-0.4-0.4-0.4-0.7c0-0.2,0.1-0.3,0.2-0.4
					c-0.1-0.2,0-0.3,0.1-0.5c0.3-0.2,0.6-0.3,0.9-0.2c0.3,0,0.6,0.2,0.8,0.4c0.2,0.2,0.2,0.6,0.1,0.8c-0.1,0.3-0.4,0.6-0.8,0.7
					C239.8,53.2,239.7,53.2,239.6,53.2z"/>
				<path id="Path_312" class="st7" d="M253.9,53.7c-0.3,0-0.5-0.1-0.8-0.2c-0.2-0.2-0.4-0.4-0.4-0.7c0-0.2,0.1-0.3,0.2-0.4
					c-0.1-0.2,0-0.3,0.1-0.5c0.3-0.2,0.6-0.3,0.9-0.2c0.3,0,0.6,0.2,0.8,0.4c0.2,0.2,0.2,0.6,0.1,0.8c-0.1,0.3-0.4,0.6-0.8,0.7
					C254.1,53.7,254,53.7,253.9,53.7z"/>
				<path id="Path_313" class="st7" d="M217.5,45.8c-0.3,0-0.6-0.1-0.9-0.4c-0.2-0.2-0.3-0.5-0.3-0.8c0-0.1,0.1-0.2,0.1-0.2
					c0-0.1,0.1-0.2,0.1-0.2c0.2-0.2,0.6-0.4,0.9-0.4l0,0c0.3,0,0.7,0.1,0.9,0.4c0.2,0.2,0.3,0.6,0.2,0.9c-0.1,0.4-0.4,0.6-0.8,0.7
					C217.7,45.8,217.6,45.8,217.5,45.8z"/>
				<path id="Path_314" class="st7" d="M121.6,25.1c-0.3,0-0.7-0.1-0.9-0.4c-0.2-0.2-0.3-0.5-0.3-0.8c0-0.1,0.1-0.2,0.1-0.2
					c0-0.1,0.1-0.2,0.1-0.2c0.2-0.2,0.6-0.4,0.9-0.4c0.3,0,0.7,0.1,0.9,0.4c0.2,0.2,0.3,0.6,0.2,0.9c-0.1,0.4-0.4,0.6-0.8,0.7
					C121.7,25.1,121.6,25.1,121.6,25.1z"/>
				<path id="Path_315" class="st7" d="M133.1,54.8c-0.7,0.1-1.4-0.4-1.6-1.1c0-0.3,0.1-0.6,0.3-0.8c0.5-0.5,1.2-0.7,1.9-0.5
					c0.5,0.2,0.9,0.6,0.9,1.1c0.1,0.5-0.2,0.9-0.6,1.2C133.7,54.8,133.4,54.8,133.1,54.8z M133.1,53.1c-0.3,0-0.5,0.1-0.7,0.3
					c-0.1,0-0.1,0.1-0.1,0.2c0,0.2,0.4,0.4,0.8,0.4c0.1,0,0.3,0,0.4-0.1c0.1-0.1,0.2-0.2,0.2-0.3c0-0.2-0.2-0.3-0.3-0.4
					C133.3,53.2,133.2,53.1,133.1,53.1L133.1,53.1z"/>
				<path id="Path_316" class="st7" d="M145.7,53.7c-0.3,0-0.7-0.1-0.9-0.3c-0.2-0.1-0.3-0.3-0.4-0.5c-0.2,0-0.3-0.2-0.3-0.4
					c0.1-0.4,0.3-0.8,0.7-1c0.4-0.3,1-0.3,1.5-0.1c0.4,0.2,0.7,0.6,0.8,1.1c0,0.5-0.2,0.9-0.6,1.1C146.1,53.7,145.9,53.7,145.7,53.7
					z M144.9,52.2c0.1,0.1,0.1,0.2,0.1,0.3c0,0.1,0.1,0.3,0.2,0.3c0.2,0.2,0.5,0.2,0.8,0.1c0.2-0.1,0.2-0.2,0.2-0.4
					c0-0.2-0.1-0.4-0.3-0.5c-0.3-0.1-0.6-0.1-0.8,0.1C145,52.2,145,52.2,144.9,52.2L144.9,52.2z"/>
				<path id="Path_317" class="st7" d="M153.5,20.6c-0.4,0-0.7-0.1-1-0.4l0,0c-0.1,0.1-0.3,0.1-0.4,0c0,0,0,0-0.1-0.1
					c-0.1-0.2-0.1-0.5,0-0.8c0.1-0.3,0.4-0.6,0.8-0.7c0.6-0.2,1.4,0,1.8,0.6c0.1,0.2,0.1,0.5,0,0.8c-0.2,0.3-0.5,0.6-0.9,0.6
					C153.6,20.6,153.6,20.6,153.5,20.6z M152.8,19.3c0.1,0.1,0.1,0.2,0.1,0.3c0,0.1,0,0.1,0.1,0.2c0.2,0.2,0.4,0.2,0.7,0.2
					c0.2,0,0.4-0.1,0.5-0.3c0.1-0.1,0.1-0.2,0-0.3c-0.3-0.3-0.7-0.4-1.1-0.3C152.9,19.2,152.8,19.2,152.8,19.3L152.8,19.3z"/>
				<path id="Path_318" class="st7" d="M173.4,47.3L173.4,47.3c-0.9,0-1.7-0.6-1.9-1.4c0-0.2,0.1-0.5,0.4-0.5c0.2,0,0.5,0.1,0.5,0.3
					c0.1,0.4,0.6,0.7,1,0.7c0.3,0,0.5-0.1,0.7-0.3c0.1-0.1,0-0.1,0-0.1c-0.1-0.1-0.3-0.2-0.5-0.2c-0.1,0-0.2,0-0.4,0.1
					c-0.1,0.2-0.3,0.3-0.6,0.2h0c-0.2-0.1-0.3-0.3-0.2-0.6l0,0c0.2-0.4,0.7-0.7,1.1-0.6c0.5,0,1,0.2,1.3,0.7c0.1,0.3,0.1,0.7-0.1,1
					C174.5,47,174,47.3,173.4,47.3z"/>
				<path id="Path_319" class="st7" d="M114.7,38.9c-0.8,0-1.6-0.5-1.9-1.2c-0.1-0.2,0.1-0.5,0.3-0.5c0.1,0,0.1,0,0.2,0
					c0-0.2,0.2-0.3,0.3-0.3c1-0.2,2-0.2,2.9,0.3c0.2,0.1,0.3,0.3,0.2,0.5C116.4,38.4,115.6,38.9,114.7,38.9L114.7,38.9z M113.7,37.6
					c0.3,0.3,0.6,0.4,1,0.4h0c0.3,0,0.7-0.1,0.9-0.4C115,37.5,114.3,37.5,113.7,37.6L113.7,37.6z"/>
				<path id="Path_320" class="st7" d="M106.7,43c-0.8,0-1.6-0.5-1.9-1.2c-0.1-0.2,0.1-0.5,0.3-0.5c0.1,0,0.1,0,0.2,0
					c0-0.2,0.2-0.3,0.3-0.3c1-0.2,2-0.2,2.9,0.3c0.2,0.1,0.3,0.3,0.2,0.5C108.4,42.4,107.6,43,106.7,43L106.7,43z M105.7,41.7
					c0.3,0.3,0.7,0.4,1,0.4c0.3,0,0.7-0.1,0.9-0.4C107,41.6,106.4,41.6,105.7,41.7L105.7,41.7z"/>
				<path id="Path_321" class="st7" d="M107.8,48.9c-0.1,0-0.2,0-0.3,0c-0.7-0.1-1.3-0.5-1.7-1.1c-0.1-0.2-0.1-0.5,0.2-0.6
					c0.2-0.1,0.5,0,0.6,0.2c0.1,0.1,0.2,0.2,0.3,0.3c-0.1-0.3-0.1-0.6,0.1-0.8c0.3-0.4,0.8-0.6,1.3-0.5c0.4,0.1,0.8,0.3,1,0.7
					c0.2,0.3,0.2,0.7,0,1C109.1,48.6,108.4,48.9,107.8,48.9z M107.5,48L107.5,48c0.5,0.1,0.9-0.1,1.1-0.4c0-0.1,0-0.1,0-0.2
					c-0.1-0.1-0.2-0.2-0.4-0.3c-0.2,0-0.4,0.1-0.6,0.2C107.8,47.7,107.7,47.9,107.5,48L107.5,48z"/>
				<path id="Path_322" class="st7" d="M218.5,58.8c-0.3,0-0.6-0.1-0.9-0.4c-0.1,0-0.1-0.1-0.2-0.1c-0.1-0.2-0.2-0.5-0.1-0.8
					c0.1-0.3,0.4-0.6,0.8-0.6c0.4-0.1,0.8,0,1.1,0.2c0.2,0.2,0.4,0.4,0.4,0.7c0,0.3-0.1,0.5-0.3,0.7
					C219.2,58.7,218.8,58.8,218.5,58.8z M218.1,57.6C218.1,57.7,218.1,57.7,218.1,57.6c-0.1,0.2-0.1,0.2,0,0.3
					c0.1,0.1,0.2,0.2,0.4,0.3c0.2,0,0.4,0,0.5-0.2c0.1,0,0.1-0.1,0.1-0.2c0-0.1-0.1-0.2-0.1-0.2c-0.2-0.1-0.4-0.2-0.6-0.1
					C218.2,57.5,218.2,57.6,218.1,57.6L218.1,57.6z"/>
				<path id="Path_323" class="st7" d="M248.8,33.7c-0.4,0-0.9-0.2-1.1-0.5c-0.1-0.1-0.1-0.1-0.1-0.2c-0.1,0-0.1,0.1-0.2,0.1h0
					c-0.2,0-0.4-0.2-0.4-0.4c0-0.8,0.6-1.4,1.3-1.6c0.8-0.2,1.6,0.2,2,0.9c0.1,0.3,0.1,0.7-0.1,1c-0.2,0.4-0.6,0.6-1.1,0.7
					C248.9,33.7,248.9,33.7,248.8,33.7z M248.1,32c0.1,0.1,0.2,0.3,0.1,0.4c0,0.1,0,0.1,0.1,0.2c0.1,0.2,0.4,0.2,0.6,0.2
					c0.2,0,0.4-0.1,0.5-0.3c0.1-0.1,0.1-0.2,0-0.3C249.1,31.9,248.5,31.8,248.1,32L248.1,32z"/>
				<path id="Path_324" class="st7" d="M253.9,32.4c-0.2,0-0.5-0.1-0.6-0.3c-0.3-0.3-0.5-0.8-0.4-1.2c0-0.2,0.2-0.3,0.3-0.3
					c0.1,0,0.2,0.1,0.3,0.2c0.3-0.4,0.8-0.6,1.3-0.4c0.1,0,0.2,0.1,0.2,0.2c0.1,0.5,0,0.9-0.3,1.3C254.5,32.2,254.3,32.4,253.9,32.4
					C254,32.4,253.9,32.4,253.9,32.4z M253.5,31.3c0,0.1,0.1,0.3,0.2,0.4c0.1,0.1,0.1,0.1,0.2,0.1c0.1,0,0.2-0.1,0.2-0.2
					c0.1-0.2,0.2-0.4,0.2-0.6c-0.2,0-0.3,0.1-0.4,0.2C253.8,31.4,253.6,31.4,253.5,31.3C253.5,31.3,253.5,31.3,253.5,31.3
					L253.5,31.3z"/>
			</g>
		</g>
		<g id="Group_115" transform="translate(162.982)">
			<g>
				<g>
					<defs>
						<path id="SVGID_1_" d="M156.5,33.4l-0.5,2.8l9.1,1.1l9.4,179.2l-2.7,5.9l-3.1,3.3l-6.4,3.6l40.4,49.2h28l45.8-15.1l10.5-35.6
							l65-3.3l32.2-51V97.1l-58.5-44.2l-13.3-26.5c0,0-97-23.4-98-22.4s-56.6,11.5-56.6,11.5L156.5,33.4z"/>
					</defs>
					<clipPath id="SVGID_2_">
						<use xlink:href="#SVGID_1_"  style="overflow:visible;"/>
					</clipPath>
					<g id="Group_114" class="st8">
						<g id="Group_113" transform="translate(0.685 9.834)">
							<path id="Path_325" class="st4" d="M207.5,264.6c-0.5,0-0.9,0-1.4,0h-0.1h0c-0.1,0-0.1,0-0.1,0l0,0l0,0
								c-0.1,0-0.1-0.1-0.2-0.1l0,0l0,0l0,0l0,0l0,0l0,0l0,0l0,0l0,0l0,0l-4.3-4.3c-15.5-15.3-31.5-31.2-43.3-49.3
								c-0.1-0.1-0.1-0.2-0.1-0.4c-2-62.5-2-134.3-0.1-196.8c0-0.3,0.3-0.6,0.6-0.6c36.6-3.1,73.4-1.9,109.7,3.5
								c9.4,1.4,19.3,3.1,27.7,8c2.3,1.2,4.3,3,5.8,5.1c0.7,1.1,1.2,2.4,1.3,3.8c0.3,0.1,0.5,0.4,0.5,0.7
								c-3.4,59.1-17,180.4-29.2,201.1C263.3,253.9,225.7,264.6,207.5,264.6z M206.8,263.2c17.6,0.4,55.4-10.2,66.3-28.8
								c11.8-20.1,25-136.4,28.7-196.6c-1.5,1.7-3.4,3-5.5,3.7c-26.9,11.1-56.1,15.6-85.1,13.3c-0.7,33.2-1.5,68.3-2.2,103.5
								C208.3,193.9,207.6,229.6,206.8,263.2L206.8,263.2z M159.2,210.2c11.7,17.9,27.6,33.7,43,48.9l3.2,3.2
								c0.7-33.4,1.5-68.7,2.2-104c0.7-35.4,1.5-70.8,2.2-104.2c0-0.2,0.1-0.4,0.2-0.5c0.1-0.1,0.3-0.2,0.5-0.2
								c29,2.4,58.2-2.1,85.2-13.2c2.1-0.6,3.9-1.9,5.2-3.6c1-2.1,0.9-4.5-0.5-6.4c-1.4-2-3.2-3.6-5.4-4.7
								c-8.2-4.8-17.9-6.5-27.2-7.8c-36-5.4-72.5-6.6-108.8-3.6C157.2,76.6,157.3,147.9,159.2,210.2L159.2,210.2z"/>
							<path id="Path_326" class="st4" d="M194.7,232c-1.1,0-2.3-0.2-3.4-0.6c-15.9-5.5-23-22.6-27.3-36.9c-3-9.9-2.9-20.2-2.9-30.2
								l1-147.4c0-0.4,0.3-0.6,0.6-0.7c13.1-0.7,24.6-1,35-1c32.8,0,59.2,3.2,85.7,10.5c5.4,1.5,8.3,3.9,8.5,7
								c0.3,3.6-2.9,6.6-8.8,8.3c-24.8,7.2-50.6,10.4-76.4,9.5c-0.9,53.8-2.9,103.8-5,156.6L201,227
								C200.4,230,197.8,232.1,194.7,232z M163.5,17.5l-1,146.8c-0.1,9.9-0.1,20.2,2.8,29.9c4.3,14,11.1,30.8,26.5,36.1
								c0.9,0.3,1.9,0.5,2.9,0.5c2.3,0.1,4.4-1.5,5-3.7l0.8-19.9c2.1-53.1,4.1-103.2,5-157.3c0-0.2,0.1-0.3,0.2-0.5
								c0.1-0.1,0.3-0.2,0.5-0.2c3.1,0.1,6.3,0.2,9.5,0.2c22.7,0,45.4-3.2,67.2-9.6c2.5-0.7,8.2-2.8,7.8-6.9
								c-0.2-2.6-2.7-4.5-7.5-5.9c-26.3-7.2-52.6-10.5-85.3-10.5C187.6,16.5,176.4,16.8,163.5,17.5z"/>
							<path id="Path_327" class="st4" d="M162.3,106.6l-1.4-89.9c0-0.1,0.1-0.2,0.2-0.2c38-2.7,76.1-0.8,113.7,5.6l7,1.2
								c2.4,0.4,4.8,1.2,7,2.4c2.3,1.3,4,3.4,4.7,6c0.7,2.7-0.3,5.5-2.5,7.2c-2,1.5-4.3,2.5-6.8,3.1l-6.9,1.7
								c-4.6,1.1-9.2,2.2-13.9,3.2c-18.5,4.1-37.6,7-56.8,5.5l1.1-1l-3.7,79.4l-3.9,79.4l-0.5,9.9l-0.2,5c0.1,1.8-0.4,3.5-1.5,4.9
								c-1.4,1.2-3.3,1.6-5.1,0.9c-1.6-0.5-3.2-1.3-4.5-2.3c-2.7-1.9-5.2-4.2-7.5-6.6c-4.4-5-8-10.7-10.6-16.8
								c-2.5-6.1-4.4-12.6-5.4-19.1c-2.2-13.1-2-26.4-2.2-39.6L162.3,106.6z M162.3,106.6l0.6,39.7c0.2,13.2,0.1,26.5,2.3,39.6
								c1.1,6.5,2.9,12.9,5.5,19c2.6,6.1,6.2,11.7,10.6,16.6c2.2,2.4,4.7,4.6,7.4,6.5c1.3,1,2.7,1.7,4.3,2.2
								c1.4,0.6,3.1,0.3,4.2-0.7c0.9-1.3,1.3-2.8,1.2-4.4l0.2-5l0.4-9.9l3.1-79.4l3.4-79.4c0-0.6,0.5-1,1.1-1h0
								c18.8,1.5,37.7-1.3,56.2-5.3c4.6-1,9.2-2.1,13.9-3.2c4.5-1.3,9.6-1.7,13-4.4c1.7-1.2,2.5-3.4,2-5.4c-0.6-2.1-2-3.9-3.9-5
								c-3.9-2.2-8.8-2.5-13.4-3.5c-37.4-6.7-75.4-9-113.4-6.7l0.2-0.2L162.3,106.6z"/>
							<path id="Path_328" class="st4" d="M206,264.1c-9.5-7.3-18.3-15.6-26.2-24.6c-8-9-15.5-18.4-22.5-28.1c0-0.1-0.1-0.1-0.1-0.2
								c0.1-16.5,0.1-32.9,0-49.4l-0.2-49.4c-0.2-32.9-0.4-65.8-0.1-98.8c0-0.4,0.3-0.7,0.6-0.7c20.8-2.3,41.7-3,62.6-2.3
								c10.4,0.4,20.9,1.1,31.2,2.3c5.2,0.6,10.4,1.2,15.5,2c5.2,0.8,10.3,1.6,15.5,2.6c5.3,0.9,10.3,2.8,14.8,5.7
								c2.3,1.6,4.2,3.6,5.5,6c1.5,2.6,1.5,5.9-0.2,8.4c-1.7,2.2-4,3.9-6.7,4.9c-2.5,1-4.8,2-7.3,2.9c-4.9,1.8-9.9,3.4-15,4.8
								c-20.3,5.5-41.4,7.4-62.3,5.7l1.1-1l-5.6,209.2l-0.6-0.8c5.7,1,11.5,0.9,17.2-0.5c5.7-1.2,11.3-2.9,16.8-5
								c5.5-2.1,10.8-4.6,15.9-7.5c5.1-2.7,9.8-6.2,13.8-10.4c0.4-0.5,0.9-1.1,1.2-1.7l1-1.9c0.7-1.3,1.3-2.6,1.9-3.9
								c1.2-2.6,2.2-5.4,3.2-8.2c1.9-5.5,3.5-11.2,4.8-16.9c2.7-11.4,4.7-23,6.5-34.6c3.4-23.3,5.9-46.7,8-70.1
								c2.2-23.4,3.9-46.9,6.3-70.3c-2.2,23.4-3.7,46.9-5.7,70.4s-4.1,46.9-7.5,70.2c-1.7,11.6-3.7,23.3-6.4,34.8
								c-1.3,5.8-2.9,11.4-4.8,17c-1.8,5.7-4.3,11.1-7.5,16.1c-4.1,4.4-8.9,8-14.2,10.8c-5.1,2.9-10.5,5.4-16,7.6
								c-5.5,2.2-11.2,3.9-17,5.1c-5.9,1.4-11.9,1.6-17.8,0.5c-0.3-0.1-0.6-0.4-0.6-0.7v0l5-209.2c0-0.6,0.5-1,1.1-1h0.1
								c20.7,1.7,41.6-0.2,61.6-5.5c5-1.4,10-2.9,14.8-4.7c2.4-0.9,4.9-1.8,7.2-2.8c2.3-0.8,4.3-2.3,5.9-4.2c1.3-2,1.3-4.5,0.1-6.5
								c-1.2-2.1-2.9-4-4.9-5.4c-4.3-2.8-9.1-4.6-14.1-5.5c-5.1-1-10.2-1.9-15.4-2.6c-5.1-0.8-10.3-1.5-15.5-2
								c-10.3-1.2-20.7-2-31.1-2.4c-20.8-0.8-41.6-0.1-62.3,2.1l0.6-0.7c-0.3,32.9-0.2,65.8-0.2,98.7c0.1,32.9,0.1,65.8-0.3,98.8
								l-0.1-0.2c6.9,9.8,14.4,19.2,22.2,28.2C187.9,248.4,196.6,256.7,206,264.1z"/>
							<path id="Path_329" class="st4" d="M307.8,191.2c-7.3-0.2-14.5-0.9-21.6-2.3c-0.4-0.1-0.6-0.4-0.5-0.8
								c0.1-0.4,0.4-0.6,0.8-0.6l0,0c7.5,1.4,15.2,2.2,22.9,2.2c8,0.1,15.8-2,22.7-6.1c9.5-6.1,16.4-17.7,19.2-32.7
								c2.4-10.9,1.9-22.3-1.2-33c-3.2-10.7-10.3-19.8-19.9-25.5c-10-5.6-22.4-5.8-31.6-0.7c-0.3,0.2-0.7,0.1-0.9-0.3
								s-0.1-0.7,0.3-0.9c9.6-5.3,22.5-5,32.9,0.7c9.9,5.9,17.3,15.2,20.6,26.3c3.2,10.9,3.7,22.5,1.3,33.6
								c-3,15.4-10,27.4-19.9,33.6c-7.1,4.2-15.2,6.4-23.4,6.3C308.8,191.2,308.3,191.2,307.8,191.2z"/>
							<path id="Path_330" class="st4" d="M303.4,211.9c-7.1-0.1-14.2-0.8-21.1-2.2c-0.4-0.1-0.6-0.4-0.5-0.8
								c0.1-0.4,0.4-0.6,0.8-0.5c14.6,2.6,31.7,4.2,48.2-3.7c15.4-7.4,27.3-20.5,33.4-36.4c3.8-10,5.4-21.6,5.1-35.4
								c-0.3-13.4-2.5-23.5-6.7-32c-5.7-11-14.9-19.8-26.1-25.1c-11.2-5.2-23.5-7.7-35.9-7c-0.4,0-0.7-0.3-0.7-0.7
								c0-0.4,0.3-0.7,0.6-0.7h0c12.6-0.6,25.1,1.8,36.5,7.2c11.5,5.4,20.9,14.4,26.7,25.7c4.3,8.7,6.5,19,6.8,32.6
								c0.4,14.1-1.3,25.8-5.2,35.9c-6.2,16.3-18.4,29.6-34.1,37.2C322.5,210.1,313,212.1,303.4,211.9z"/>
							<path id="Path_331" class="st4" d="M296.9,91.4c0,0,0.6-0.4,1.8-1.1c1.8-1,3.6-1.8,5.6-2.5c3-1,6.2-1.5,9.4-1.5
								c4.2,0,8.3,0.8,12.1,2.4c4.6,1.9,8.8,4.5,12.4,7.8c2,1.8,3.9,3.7,5.5,5.8c0.9,1.1,1.7,2.2,2.5,3.4l2.2,3.6
								c5.8,10.6,8.3,22.6,7.3,34.6c-0.5,6.1-1.9,12-4.1,17.6c-2.1,5.5-5,10.6-8.6,15.3c-3.3,4.5-7.7,8.1-12.7,10.4
								c-4.5,1.9-9.4,3.1-14.3,3.3c-7.3,0.5-14.6,0.2-21.8-0.8c-5.2-0.7-8.1-1.4-8.1-1.4s3,0.6,8.2,1.1c7.2,0.7,14.5,0.7,21.6,0
								c4.8-0.4,9.4-1.6,13.8-3.5c4.7-2.4,8.8-5.9,11.9-10.2c3.4-4.5,6.2-9.6,8.2-14.9c4.1-11.1,5.1-23.1,2.8-34.7
								c-1.1-5.6-3.1-11-5.8-16l-2.2-3.6c-0.7-1.1-1.5-2.2-2.3-3.2c-1.6-2.1-3.3-4-5.2-5.8c-3.5-3.3-7.5-6-11.9-7.9
								c-3.7-1.6-7.7-2.5-11.7-2.7c-3.1-0.1-6.3,0.2-9.3,1.1c-2,0.6-3.8,1.3-5.6,2.2C297.6,91,296.9,91.4,296.9,91.4z"/>
							<path id="Path_332" class="st4" d="M299.8,69.2l2.7-0.6c6.6-1.3,13.4-1.4,20-0.1c5.2,1,10.3,2.7,15.1,5.1
								c12.1,6,21.8,16.1,27.3,28.5c3,7,4.8,14.4,5.2,22c0.5,7.7,0.4,15.5-0.2,23.2c-0.5,7.8-2.1,15.5-4.5,22.9
								c-2.5,7.2-6.4,13.8-11.6,19.5c-9,10-20.8,17.2-33.9,20.4c-5.2,1.3-10.5,2-15.8,2.1c-4.1,0-8.2-0.4-12.2-1
								c-3.4-0.4-6-0.9-7.8-1.2c-0.9-0.2-1.8-0.3-2.7-0.3c0.9,0,1.8,0,2.7,0.2l7.8,0.8c4,0.4,8.1,0.6,12.1,0.5
								c5.2-0.3,10.4-1.2,15.4-2.6c6-1.6,11.6-4.1,16.9-7.3c5.8-3.6,11.1-8.1,15.6-13.2c4.9-5.4,8.6-11.8,10.9-18.7
								c2.3-7.2,3.8-14.7,4.2-22.3c0.7-7.6,0.8-15.2,0.4-22.8c-0.4-7.3-2-14.5-4.9-21.2c-2.7-6.3-6.5-12-11.2-17
								c-10.8-11.2-25.6-17.7-41.2-17.8c-2.6,0-5.2,0.2-7.8,0.6L299.8,69.2z"/>
						</g>
					</g>
				</g>
			</g>
		</g>
		<g id="Group_118" transform="translate(0 4.156)">
			<g>
				<g>
					<defs>
						<polyline id="SVGID_3_" points="190.5,208.2 193.9,211.9 197.7,217.1 204.3,222 204.9,227.5 163.6,277 107.6,274.3 
							76.7,246.1 49.5,166.6 47.5,20 117,6.7 209.6,14 207.9,32.2 202.3,30.2 196.4,34.6 						"/>
					</defs>
					<clipPath id="SVGID_4_">
						<use xlink:href="#SVGID_3_"  style="overflow:visible;"/>
					</clipPath>
					<g id="Group_117" class="st9">
						<g id="Group_116" transform="translate(3.303 6.776)">
							<path id="Path_334" class="st3" d="M148,263.3c-13.5,0-32.6-2-47.2-11.6C61.5,226,56.8,159.1,55.1,134l-0.2-2.6
								c-1.2-16.4-1.7-33.4-2.2-49.8c-0.5-16.4-1.1-33.3-2.2-49.7c-0.5-1.3-0.3-2.7,0.4-3.8c2.7-4.7,13.2-7.4,19.3-8.6
								c39.4-7.9,82.1-10,130.7-6.4c0.4,0,0.6,0.3,0.6,0.7c0.4,31.5,0.8,65,1.2,98.5s0.8,67,1.2,98.5c0,0.2-0.1,0.3-0.2,0.4
								c-15,17.8-31.1,35.2-47.7,51.8c0,0,0,0,0,0l0,0l0,0l0,0l0,0l0,0c0,0-0.1,0.1-0.1,0.1l0,0c-0.1,0-0.1,0-0.2,0.1h0l0,0
								C153.4,263.2,150.8,263.3,148,263.3z M52,34.4c1,15.6,1.6,31.6,2,47c0.5,16.4,1.1,33.3,2.2,49.8l0.2,2.6
								c1.7,25,6.3,91.3,45.1,116.7c17.1,11.2,40.5,11.9,53.3,11.2c-1.5-33.8-3-68.9-4.6-104.1c-1.6-35.1-3.1-70.2-4.6-104
								c-27.4,1.5-54.8-2.1-80.8-10.8C60,41.2,55.5,38.2,52,34.4z M146.3,52.4c0.4,0,0.6,0.3,0.7,0.6c1.5,33.9,3.1,69.3,4.6,104.7
								c1.5,34.8,3.1,69.7,4.6,103.2c16.1-16.2,31.7-33.2,46.3-50.5c-0.4-31.4-0.8-64.8-1.2-98.3c-0.4-33.3-0.8-66.6-1.2-97.9
								c-48.2-3.5-90.7-1.4-129.7,6.4c-9.9,2-16.6,4.9-18.4,8c-0.5,0.9-0.6,1.9-0.3,2.8c0,0,0,0,0,0c1.4,3.9,9.1,8.7,13.5,10.2
								C91.4,50.4,118.8,54,146.3,52.4L146.3,52.4z"/>
							<path id="Path_335" class="st3" d="M164.8,232.7L164.8,232.7c-3.5,0-6.3-4.8-6.4-7.2c-2.9-59.4-5-115.9-6.6-177.6
								c-5.6,0.8-11.3,1.2-17,1.1c-28.2,0-73.4-7.6-75.7-16.9c-0.4-1.5,0-3,1-4.1c9.8-12.5,83.6-13.1,98.2-13.1
								c13.8,0,27.3,0.4,38,1.1c0.5,0,0.8,0.4,0.8,0.9l1.4,128.6c0.2,16.4,0.4,33.3-3.8,49.5c-4.4,17.2-10.4,28.9-28.2,37.4
								C166,232.5,165.4,232.7,164.8,232.7z M152.6,45.9c0.5,0,0.9,0.4,0.9,0.9c1.6,62.2,3.7,118.9,6.7,178.6
								c0.1,1.7,2.4,5.5,4.7,5.5l0,0c0.3,0,0.6-0.1,0.9-0.2c17.1-8.2,23-19.5,27.2-36.3c4.1-16,3.9-32.8,3.8-49.1l-1.4-127.8
								c-10.5-0.7-23.7-1.1-37.1-1.1c-43.4,0-90.1,3.9-96.9,12.5c-0.6,0.7-0.9,1.7-0.7,2.6c1.7,7,42.5,15.6,74,15.6
								c5.9,0.1,11.9-0.3,17.7-1.2C152.5,45.9,152.5,45.9,152.6,45.9L152.6,45.9z"/>
							<path id="Path_336" class="st3" d="M155.4,138.3l2,40.2l2.2,40.2c0.2,3.3,0.2,6.8,1.8,9.5c0.7,1.3,1.9,2.2,3.4,2.4
								c1.5,0.1,3.1-0.3,4.4-1c5.9-3,10.9-7.4,14.8-12.8c3.9-5.4,6.8-11.4,8.7-17.7c1.9-6.4,3.1-13,3.5-19.6
								c0.5-6.7,0.6-13.4,0.6-20.1l-0.1-20.1l-0.3-40.3c-0.1-13.4-0.3-26.9-0.5-40.3l-0.6-40.3l0.5,0.5c-19.5-1.4-39.1-1.9-58.6-1.8
								c-9.8,0.1-19.5,0.3-29.3,1c-9.7,0.5-19.4,1.7-28.9,3.5c-4.7,0.9-9.2,2.4-13.4,4.7c-1.9,0.9-3.3,2.7-3.8,4.8
								c-0.3,1.9,1.5,3.5,3.5,4.5c2.2,1.1,4.4,2,6.6,2.7c2.3,0.9,4.6,1.5,6.9,2.3c4.7,1.4,9.3,2.7,14.1,3.6c9.5,2,19.2,3.2,28.9,3.5
								c9.7,0.3,19.5-0.2,29.1-1.6h0c0.4,0,0.7,0.2,0.8,0.6V47l1.7,45.7L155.4,138.3z M155.2,138.3l-2.4-45.6L150.4,47l0.8,0.7
								c-9.7,1.5-19.5,2.2-29.4,2c-9.8-0.2-19.7-1.3-29.3-3.3c-4.8-1-9.6-2.2-14.3-3.6c-2.3-0.8-4.7-1.5-7-2.3
								c-2.4-0.8-4.7-1.7-6.9-2.8c-1.2-0.6-2.3-1.4-3.2-2.4c-0.5-0.5-0.9-1.2-1.1-1.9c-0.1-0.4-0.2-0.8-0.3-1.2c0-0.3,0-0.7,0-1.1
								c0.5-2.8,2.3-5.1,4.8-6.4c4.4-2.4,9.2-4,14.1-4.9c9.7-1.8,19.4-3,29.3-3.4c9.8-0.6,19.6-0.8,29.4-0.8
								c19.6,0.1,39.1,0.8,58.7,2.4c0.3,0,0.5,0.3,0.5,0.5l0.3,40.3c0.1,13.4,0.2,26.9,0.5,40.3l0.7,40.3l0.4,20.1
								c0.1,6.7,0.2,13.5-0.4,20.2c-0.4,6.8-1.6,13.5-3.5,20c-1.9,6.6-5,12.7-9,18.2c-4.1,5.6-9.4,10.1-15.5,13.2
								c-1.6,0.9-3.5,1.3-5.3,1.1c-1.9-0.3-3.6-1.5-4.4-3.2c-1.7-3.3-1.6-6.9-1.8-10.1l-1.5-40.3L155.2,138.3z"/>
							<path id="Path_337" class="st3" d="M49.9,31.8c0.8,11.9,1.3,23.9,1.9,35.8s1.2,23.9,2,35.8s1.7,23.8,2.8,35.7
								c1.2,11.9,3,23.7,5.3,35.4c2.3,11.7,5.6,23.2,9.8,34.4c4,11.2,9.9,21.7,17.3,31c3.8,4.6,8.2,8.5,13.3,11.6
								c5.1,3,10.7,5.1,16.5,6.2c11.7,2.4,23.6,3.5,35.5,3.2l-0.5,0.2c7.8-7.9,15.9-15.4,23.9-23c4-3.8,7.9-7.7,11.8-11.6
								c4-3.7,7.3-8.1,9.9-12.9c1.1-2.5,1.8-5.1,2.1-7.8c0.4-2.7,0.6-5.4,0.8-8.2c0.3-5.5,0.3-11,0.1-16.5l-0.6-33.2L199.5,15l0-1
								c0-0.3,0.2-0.6,0.5-0.6c0.3,0,0.6,0.2,0.6,0.5l0,0V14c-0.4,3.8-0.2,1-0.3,1.9h-0.1l-0.1,0l-0.2,0l-0.5,0l-1-0.1l-2-0.2
								l-4-0.3l-7.9-0.6c-5.3-0.4-10.6-0.7-15.9-0.9c-10.6-0.5-21.3-0.8-31.9-0.7c-10.7,0.1-21.3,0.4-31.9,1.3
								c-10.6,0.8-21.1,2.3-31.5,4.7C68,20.1,63,21.8,58.3,24.1c-2.3,1.1-4.4,2.7-6.1,4.5c-0.7,0.9-1.1,2-0.9,3.2
								c0.2,1.2,0.8,2.3,1.6,3.2c3.4,3.8,8.4,6.2,13.1,8.5c4.8,2.2,9.9,3.8,15.1,4.8c5.2,1.1,10.5,1.9,15.7,2.6s10.6,1.2,15.9,1.6
								c10.6,0.8,21.3,1.2,31.9,1.6c0.3,0,0.6,0.3,0.6,0.6c2.1,34.4,4.4,68.9,6.1,103.3c1.7,34.5,2.9,69,3,103.5
								c-0.3-34.5-1.8-69-3.7-103.4c-2-34.4-4.2-68.9-6.5-103.3l0.6,0.6c-10.7-0.4-21.3-0.8-32-1.6c-5.3-0.4-10.7-0.9-16-1.6
								s-10.6-1.5-15.8-2.5c-5.3-1-10.4-2.7-15.4-4.8c-2.4-1.1-4.8-2.4-7.2-3.7c-2.4-1.3-4.6-3.1-6.4-5.1c-1-1.1-1.7-2.4-2-3.9
								C49.6,30.6,50,29,51,27.8c1.8-2.4,4.3-3.5,6.6-5c4.8-2.4,10-4.2,15.2-5.4c10.4-2.4,21-4,31.7-4.8c10.7-0.9,21.3-1.3,32-1.4
								s21.4,0.2,32,0.6c5.3,0.2,10.7,0.5,16,0.9l8,0.6l4,0.3l2,0.2l1,0.1l0.5,0.1l0.2,0l0.1,0h0.1c-0.1,0.9,0.2-1.9-0.1,1.9l1.1-1
								l2.1,132.7l0.5,33.2c0.1,5.5,0.1,11.1-0.2,16.6c-0.2,2.8-0.4,5.6-0.8,8.3c-0.2,1.4-0.5,2.8-0.8,4.1c-0.1,0.7-0.4,1.4-0.6,2.1
								c-0.2,0.6-0.5,1.3-0.8,2c-2.6,5-6.1,9.5-10.2,13.3c-3.9,3.9-7.9,7.8-11.9,11.6c-8,7.6-16.2,15.1-24,22.9
								c-0.1,0.1-0.3,0.2-0.5,0.2c-12,0.3-24-0.8-35.8-3.3c-5.9-1.2-11.6-3.3-16.9-6.4c-5.1-3.2-9.7-7.2-13.6-11.9
								c-7.5-9.4-13.4-20-17.4-31.4c-4.2-11.2-7.4-22.8-9.7-34.5c-2.3-11.7-4.1-23.6-5.2-35.5c-1.1-11.9-1.9-23.8-2.6-35.8
								c-0.7-11.9-1.2-23.9-1.7-35.8S50.6,43.7,49.9,31.8z"/>
						</g>
					</g>
				</g>
			</g>
		</g>
	</g>
	<g id="Group_121" transform="translate(192.336 323.934)">
		<g id="Group_120">
			<path id="Path_339" d="M115.1,45.1c0.1,0,0.3,0.1,0.4,0.1c0.9,0.3,1.7,0.7,1.6,1.2c-0.1,0.2-0.3,0.3-0.5,0.3c0,0,0,0,0,0
				c-0.1-0.1-0.3-0.2-0.5-0.3c-0.5-0.1-1.1-0.2-1.3-0.2c-1.2-0.4-1.5-0.5-1.5-1.2c0-0.1,0-0.2,0-0.3c0.1-0.2,0.2-0.3,0.5-0.5
				c1.4-0.7,2.6-1.7,3.6-2.8c0-0.2-0.1-0.4-0.3-0.4c-0.4-0.1-1.3,0.4-2,1.1c-0.1,0.1-0.1,0.1-0.2,0.1c-0.3-0.1-0.8-0.7-0.7-1
				c0.7-1,1.8-1.5,3-1.2c0.8,0.4,1.3,1.3,1.2,2.2C118,43.2,116.2,44.1,115.1,45.1z"/>
			<path id="Path_340" d="M122,46.6c-0.1,0.3-0.2,0.5-0.2,0.7c-0.1,0.4-0.1,0.6-0.2,0.8c0,0.2-0.2,0.2-0.4,0.1
				c-0.4-0.1-0.9-0.4-0.8-0.7c0.1-0.5,0.2-0.8,0.2-1.1c-0.9-0.2-1.2-0.3-1.8-0.5c-0.3-0.3-0.5-0.8-0.6-1.3v0
				c0.5-0.7,1.1-1.3,1.7-1.8c0.5-0.5,1-1,1.6-1.4c0.2-0.1,0.3-0.1,0.5,0c0.8,0.2,1.3,0.9,1.2,1.1c0,0.1-0.1,0.1-0.1,0.2
				c-0.2,0.5-0.6,1.9-0.8,2.9c0.5,0.2,0.6,0.5,0.5,0.8c0,0.1-0.1,0.2-0.1,0.2C122.6,46.7,122.3,46.7,122,46.6z M121.5,42.9
				c-0.4,0.5-1.5,1.7-1.7,2c0.1,0,0.3,0.1,0.4,0.1s0.4,0.1,0.5,0.1c0.1,0,0.1,0,0.2,0L121.5,42.9z"/>
			<path id="Path_341" d="M125.3,49c-1.3-0.3-2.1-1.7-1.8-3c0-0.1,0.1-0.2,0.1-0.3c0.3-1.1,0.8-2,1.6-2.8c0.3-0.3,0.6-0.4,1-0.4
				c0.4,0.1,0.6,0.4,0.9,0.6c0.1,0,0.2,0,0.3,0c0.9,0.2,0.7,2.2,0.5,2.7C127.7,46.7,126.9,49.4,125.3,49z M126.6,43.9
				C126.5,43.9,126.5,43.9,126.6,43.9c-0.8,0-1.5,1.3-1.8,2.4c-0.1,0.5-0.2,1.5,0.4,1.6c0.5,0.1,1.3-1.2,1.6-2.3
				c0.1-0.5,0.1-0.9,0-1.4C126.7,44,126.7,43.9,126.6,43.9L126.6,43.9z"/>
			<path id="Path_342" d="M135.8,45.2c0,0.1-0.1,0.1-0.2,0.1c-0.7-0.1-1.4-0.1-2.2-0.1c-0.1,0.4-0.2,0.9-0.4,1.4c0.1,0,0.1,0,0.2,0
				c0.5,0.1,1,0.1,1.6,0.1c0.1,0,0.2,0.2,0.1,0.5c0,0.2-0.2,0.4-0.4,0.4c-0.6,0-1.2,0-1.8,0c-0.1,0.3-0.2,0.9-0.3,1.6
				c-0.1,0.4-0.1,0.8-0.2,1.1c0,0.1-0.1,0.1-0.2,0.1c-0.3-0.1-0.8-0.5-0.9-0.7c-0.1-0.8,0.4-2.1,0.3-2.4c-0.2-0.3-0.2-0.6-0.3-0.9
				c0-0.2,0.1-0.2,0.3-0.2c0.1,0,0.1,0,0.2,0c0.1-0.4,0.2-0.7,0.2-1c0-0.1,0.1-0.3,0-0.4c0,0,0,0-0.1,0c-0.2,0-0.2-0.3-0.2-0.6
				c0-0.2,0.1-0.3,0.2-0.4c0.2-0.2,1.4-0.1,2.3,0.1c0.4,0.1,0.7,0.2,1,0.3c0.3,0.1,0.5,0.4,0.5,0.7
				C135.8,45.2,135.8,45.2,135.8,45.2z"/>
			<path id="Path_343" d="M138.4,51.7c-0.2,0-0.4-0.1-0.5-0.2c-0.1-0.4-0.1-0.8-0.1-1.2c-0.4-0.2-0.9-0.3-1.4-0.4
				c-0.2,0-0.3,0-0.5-0.1c-0.3,0.5-0.5,1-0.6,1.2c-0.1,0.2-0.4,0.2-0.6,0.2c-0.4-0.1-0.6-0.2-0.6-0.4c0.1-0.4,0.3-0.8,0.5-1.2
				c-0.3-0.2-0.5-0.5-0.5-0.9c0.1-0.2,0.6-0.2,1-0.1c0.7-1.4,1.5-2.7,2.5-4c0.1,0,0.1,0,0.2,0c0.2,0,0.4,0.3,0.7,0.3
				c0.1,0,0.1,0,0.2,0c0.1,0,0.1,0,0.2,0.1c0.3,2.2,0.4,4.4,0.4,6.6C139.2,51.8,138.8,51.8,138.4,51.7z M137.7,46.8
				c-0.5,0.6-0.9,1.3-1.2,1.9c0.4,0.1,0.9,0.2,1.3,0.3C137.7,47.9,137.7,46.8,137.7,46.8z"/>
			<path id="Path_344" d="M144.8,52.5c-0.1,0.2-0.2,0.3-0.4,0.3h0c-0.2,0-0.4-0.2-0.6-0.3c-0.1-0.1,0.2-2.5,0.3-3.3
				c-0.4,0.8-1.1,2.2-1.4,3c0,0.1-0.2,0.2-0.3,0.2c-0.3-0.1-0.5-0.3-0.6-0.6c-0.1-0.2-0.4-1.7-0.6-3.1c-0.1,0.4-0.2,0.9-0.2,1.3
				c-0.1,0.6-0.1,1.2-0.2,1.8c0,0.1-0.3,0.2-0.6,0.2c-0.2,0-0.3-0.2-0.3-0.4c0-1.1,0-2.3,0.2-3.4c0.1-0.9,0.3-1.7,0.7-2.5
				c0.1-0.1,0.3-0.1,0.5-0.1c0.4,0.1,0.5,0.2,0.6,0.4c0.1,0.3,0.6,3.1,0.8,3.8c0.5-1.3,1-2.6,1.7-3.8c0.1-0.1,0.3-0.1,0.4,0
				c0.3,0,0.5,0.1,0.7,0.3c0.1,0.2-0.4,3.4-0.6,5.1C144.9,52,144.8,52.4,144.8,52.5L144.8,52.5z"/>
			<path id="Path_345" d="M146.3,52.9c-0.3,0-0.5-0.1-0.5-0.3c-0.1-1.1-0.1-2.2,0.1-3.3c0.1-0.9,0.3-1.8,0.7-2.7
				c0.1-0.1,0.2-0.2,0.4-0.1c0.4,0.1,0.8,0.5,0.7,0.9c-0.1,0.4-0.3,1.6-0.4,2.3c-0.1,1-0.2,2.1-0.3,3.1
				C147,52.9,146.6,52.9,146.3,52.9z"/>
			<path id="Path_346" d="M151.9,52.3c0,0.1-0.1,0.2-0.2,0.3c-0.8,0.4-1.7,0.6-2.6,0.7c-0.4,0-1.1-0.5-1.1-0.7
				c-0.1-0.8-0.1-1.6,0-2.3c0.1-1.2,0.4-2.3,0.7-3.5c0.2-0.2,0.5-0.3,0.9-0.3c0.3,0,0.4,0.2,0.3,0.7c-0.1,0.7-0.4,1.9-0.6,3.8
				c-0.1,0.4-0.1,0.7-0.1,1.1l0.1,0c0.8,0,1.6,0,2.4-0.2c0,0,0,0,0,0c0,0,0.1,0,0.1,0.1C151.9,52,151.9,52.1,151.9,52.3z"/>
			<path id="Path_347" d="M153.2,53.7c-0.3,0-0.5-0.1-0.5-0.3c-0.1-1.1-0.1-2.2,0-3.3c0.1-0.9,0.2-1.8,0.6-2.7
				c0.1-0.1,0.2-0.2,0.4-0.2c0.4,0.1,0.8,0.4,0.8,0.9c0,0.4-0.2,1.6-0.3,2.3c-0.1,1-0.2,2.1-0.2,3.2
				C153.9,53.6,153.5,53.7,153.2,53.7z"/>
			<path id="Path_348" d="M158.7,52.4c0,0.1-0.1,0.2-0.1,0.3c-0.7,0.7-1.6,1.1-2.6,1.1c-0.4-0.1-0.8-0.3-1.1-0.7c-0.1-1-0.1-2,0-2.9
				c0-0.9,0.2-1.8,0.5-2.7c0.1-0.3,1.2-0.3,2-0.2c0.4,0,0.8,0.1,0.9,0.1c0.3,0.1,0.6,0.4,0.6,0.8c0,0.1-0.1,0.2-0.2,0.2
				c-0.7,0-1.4,0-2.1,0.2c-0.1,0.4-0.1,0.8-0.2,1.3c0.1,0,0.2,0,0.3,0c0.5,0,1,0,1.4-0.1h0c0.1,0,0.2,0.2,0.1,0.4
				c0,0.2-0.1,0.4-0.3,0.5c-0.6,0.2-1.1,0.4-1.7,0.4c0,0.4-0.1,1.2-0.1,1.8c0.9-0.1,1.7-0.3,2.5-0.7c0,0,0,0,0,0c0,0,0.1,0,0.1,0.1
				C158.7,52.2,158.8,52.3,158.7,52.4z"/>
			<path id="Path_349" d="M164.1,48.6c-0.1,0.9-0.4,1.8-1,2.5c-0.1,0-0.1,0-0.1,0c-0.4,0-1-0.5-1-0.7c0,0,0-0.1,0.1-0.1
				c0.5-0.5,0.9-1,1.1-1.7c0-0.1,0-0.1-0.1-0.1c-0.3,0-1.3,0.8-1.6,1.1c-0.4,0.3-0.8,0.8-0.9,1.2c0,0.2,0.1,0.2,1.2,0.4
				s1.9,0.6,1.9,1.3c-0.1,1.1-1.1,1.9-2.2,1.8c0,0-0.1,0-0.1,0c-0.7,0-1.4-0.3-1.9-0.7c-0.1-0.2-0.1-0.3-0.1-0.5
				c0-0.1,0.1-0.3,0.2-0.3c0,0,0.1,0,0.1,0c0.4,0.2,0.9,0.3,1.4,0.3c0.9,0,1.8-0.4,1.8-0.7c0-0.4-2.8,0.2-3.4-1.2
				c-0.1-0.1-0.1-0.2-0.1-0.4c0.2-0.8,0.6-1.6,1.3-2.1c0.7-0.7,1.7-1.2,2.7-1.3c0.2,0,0.3,0,0.5,0.1C164,47.8,164.2,48.2,164.1,48.6
				z"/>
			<path id="Path_350" d="M168.2,54.5c-0.3,0-0.5-0.1-0.6-0.2c-0.2-1.1-0.3-2.2-0.3-3.3c0-0.9,0.1-1.9,0.4-2.8
				c0.1-0.1,0.2-0.2,0.4-0.2c0.4,0,0.8,0.4,0.8,0.8c0,0.4-0.1,1.6-0.1,2.3c0,1,0,2.1,0.1,3.2C168.9,54.4,168.5,54.5,168.2,54.5z"/>
			<path id="Path_351" d="M173.7,54.2c0,0.1-0.1,0.2-0.3,0.2c-0.3,0-0.7-0.1-0.8-0.3s-1.6-3.2-1.6-3.2c-0.1,0.8-0.2,1.7-0.2,2.5
				c0,0.4,0.1,0.7,0.1,1.1c0,0.1-0.1,0.2-0.2,0.2c0,0,0,0,0,0c-0.2,0-0.9-0.4-1-0.9c0-0.3,0-0.7,0-1.1c0-1.4,0.1-3.3,0.3-4.3
				c0.1-0.4,0.4-0.7,0.8-0.6c0.2,0,0.3,0,0.3,0.1c0.1,0.2,1.7,3.8,1.7,3.8c0-0.4-0.1-0.8-0.1-1.3c0-0.8,0.1-1.5,0.1-2.3
				c0-0.2,0.1-0.2,0.2-0.2c0.3,0,0.9,0.3,0.9,0.6v0C173.8,50.4,173.7,52.3,173.7,54.2z"/>
			<path id="Path_352" d="M181.6,48.7c-0.1,0-0.2,0-0.2,0c-0.4,0-0.8,0-1.1,0.2c-0.1,0.7-0.1,1.4,0,2c0,1,0.1,2.1,0.3,3.2
				c0,0.1-0.3,0.2-0.7,0.2c-0.2,0-0.4,0-0.5-0.2c-0.3-1.1-0.4-2.2-0.5-3.4c0-0.5,0-1,0-1.5c-0.3,0.1-0.5,0.1-0.8,0.1
				c-0.4,0-0.8-0.3-0.9-0.8c0-0.1,0-0.2,0.2-0.3c1.1-0.4,2.2-0.6,3.4-0.7c0.2,0,0.5,0,0.8,0c0.2,0,0.3,0.3,0.3,0.5c0,0,0,0.1,0,0.1
				C181.7,48.5,181.7,48.7,181.6,48.7z"/>
			<path id="Path_353" d="M186.2,50.6c0.1,1,0.2,2.1,0.4,3.1c0,0.1-0.3,0.2-0.6,0.2c-0.3,0-0.5,0-0.6-0.2c-0.2-0.6-0.2-2.1-0.3-2.2
				c-0.3,0-0.5,0-0.8,0c-0.1,0-0.3,0-0.4,0c-0.1,0.9,0,1.8,0.2,2.7c0,0.1-0.3,0.2-0.6,0.2c-0.2,0-0.5,0-0.5-0.2
				c-0.2-0.8-0.4-1.7-0.4-2.5c0,0,0,0,0,0c-0.4,0-0.7-0.2-0.8-0.6c0-0.1,0.3-0.3,0.8-0.4l0-0.2l0-0.2c-0.1-1,0-2,0.2-2.9
				c0-0.1,0.2-0.2,0.3-0.2c0.4,0,0.8,0.3,0.9,0.8c0,0.3,0,1.6,0,2.3c0.2,0,0.3-0.1,0.5-0.1c0.2,0,0.5,0,0.7,0
				c-0.1-0.9-0.1-1.8,0-2.8c0-0.1,0.2-0.2,0.3-0.2c0.4,0,0.8,0.3,0.9,0.7v0.1C186.1,48.8,186.2,50,186.2,50.6z"/>
			<path id="Path_354" d="M191.2,51.9c0,0.1,0,0.3-0.1,0.4c-0.6,0.8-1.4,1.3-2.4,1.5c-0.4,0-0.9-0.2-1.2-0.5
				c-0.3-0.9-0.5-1.9-0.5-2.9c-0.1-0.9-0.1-1.9,0.1-2.8c0.1-0.3,1.1-0.5,1.9-0.5c0.4,0,0.8,0,0.9,0c0.4,0.1,0.6,0.3,0.7,0.6
				c0,0.1,0,0.2-0.2,0.2c-0.7,0.1-1.4,0.3-2.1,0.5c0,0.4,0,0.8,0.1,1.3c0.1,0,0.2,0,0.3,0c0.5,0,1-0.1,1.4-0.3h0
				c0.1,0,0.2,0.2,0.2,0.3c0,0.2-0.1,0.4-0.2,0.5c-0.5,0.3-1.1,0.6-1.6,0.7c0,0.4,0.1,1.2,0.2,1.8c0.8-0.2,1.6-0.6,2.3-1.1
				c0,0,0,0,0,0c0,0,0.1,0,0.1,0C191.2,51.7,191.2,51.8,191.2,51.9z"/>
			<path id="Path_355" d="M199.3,51.7c0,0.2,0,0.5-0.6,0.5c-0.5,0.1-1.1,0-1.5-0.3c-0.4-0.3-0.8-0.7-1.1-1.1
				c0.1,0.6,0.2,1.2,0.3,1.8v0.1c0,0.2-0.1,0.3-0.2,0.4c0,0-0.1,0-0.1,0c-0.3,0-0.8-0.2-0.9-0.4c-0.2-0.8-0.3-1.6-0.4-2.4
				c-0.1-0.9-0.2-1.8-0.2-2.5c-0.4,0-0.7-0.3-0.9-0.6c0-0.2,1-0.6,2.2-0.7c1.1-0.1,2.3,0,2.4,1.3c0.1,1-0.3,2-1.1,2.6
				c0.1,0.3,0.3,0.5,0.5,0.8C198.5,51.7,199.2,51.5,199.3,51.7L199.3,51.7z M196,47.5L196,47.5c-0.1,0.8,0,1.8,0.1,2.8
				c0.7-0.5,1.1-1.3,1.1-2.1C197.1,47.6,196.5,47.4,196,47.5L196,47.5z"/>
			<path id="Path_356" d="M203.5,50.3c0,0.1,0,0.3-0.1,0.4c-0.6,0.8-1.4,1.4-2.3,1.7c-0.4,0-0.9-0.1-1.2-0.4
				c-0.4-0.9-0.6-1.9-0.7-2.9c-0.2-0.9-0.2-1.8-0.1-2.8c0.1-0.3,1.1-0.5,1.9-0.7c0.4-0.1,0.8-0.1,0.9-0.1c0.4,0,0.6,0.3,0.8,0.6
				c0,0.1,0,0.2-0.2,0.2c-0.7,0.1-1.4,0.4-2.1,0.7c0,0.4,0.1,0.8,0.1,1.3c0.1,0,0.2,0,0.3,0c0.5-0.1,0.9-0.2,1.4-0.4h0
				c0.1,0,0.2,0.1,0.2,0.3c0,0.2,0,0.4-0.2,0.5c-0.5,0.3-1,0.6-1.6,0.8c0.1,0.4,0.2,1.2,0.3,1.7c0.8-0.2,1.6-0.7,2.2-1.2
				c0,0,0,0,0,0c0,0,0.1,0,0.1,0C203.5,50.1,203.5,50.2,203.5,50.3z"/>
			<path id="Path_357" d="M208.4,48.5c0.1,0.2,0.1,0.5,0,0.7c-0.1,0-0.2,0.1-0.2,0.1c0,1.1-0.8,2.1-1.9,2.4c-1,0.2-2.3-0.8-2.6-2.7
				c-0.3-2,0.6-4,1.8-4.3c1-0.2,1.6,0.9,1.8,2c0.1,0.5,0.2,0.9-0.4,1c-0.4,0.1-1,0-1-0.2c0,0,0,0,0,0c0.1-0.5,0.1-1,0-1.5
				c-0.1-0.3-0.1-0.5-0.3-0.5c-0.4,0.1-1,1.6-0.7,3.3c0.2,1.1,0.7,2,1.2,1.9s0.7-0.9,0.7-1.3c-0.3,0-0.6,0.1-0.8,0
				c-0.1,0-0.2-0.2-0.2-0.5c0-0.1,0-0.2,0-0.3c0.1-0.2,1.1-0.2,2.1-0.6c0,0,0,0,0.1,0c0.1,0,0.2,0,0.2,0.1
				C208.3,48.2,208.4,48.3,208.4,48.5z"/>
			<path id="Path_358" d="M210.3,50.9c-0.3,0-0.5,0-0.6-0.1c-0.4-1-0.8-2.1-1-3.2c-0.2-0.9-0.3-1.8-0.2-2.8c0-0.2,0.1-0.2,0.3-0.2
				c0.4-0.1,0.9,0.2,1,0.6c0.1,0.4,0.2,1.6,0.3,2.3c0.2,1,0.4,2.1,0.7,3.1C210.9,50.6,210.6,50.8,210.3,50.9z"/>
			<path id="Path_359" d="M213.6,50.3c-1.1,0.2-2.4-1.1-2.8-3.2c-0.4-1.3,0-2.7,1.1-3.5c0.1,0,0.3,0,0.4,0.1
				c0.2-0.1,0.4-0.4,0.7-0.5c0.5-0.1,1.6,0.5,2.1,2.8c0,0.1,0,0.2,0.1,0.3C215.6,48.6,214.8,50,213.6,50.3z M212.6,44.5
				c-0.4,0.1-0.9,1.1-0.5,2.7c0.3,1.3,1,2,1.4,2c0.4-0.1,0.9-0.9,0.5-2.5C213.7,45.1,213,44.4,212.6,44.5L212.6,44.5z"/>
			<path id="Path_360" d="M220.4,48.3c0,0.1-0.1,0.2-0.2,0.2c-0.3,0.1-0.7,0.1-0.9-0.1c-0.1-0.2-2.3-2.7-2.3-2.7
				c0.1,0.8,0.2,1.7,0.4,2.5c0.1,0.4,0.2,0.7,0.3,1.1c0,0.1,0,0.2-0.1,0.2h0c-0.2,0-1-0.2-1.1-0.6c-0.1-0.3-0.2-0.7-0.3-1
				c-0.3-1.4-0.6-3.2-0.8-4.3c0-0.4,0.3-0.8,0.7-0.8c0.2,0,0.3,0,0.4,0c0.1,0.2,2.6,3.3,2.6,3.3c-0.1-0.4-0.2-0.8-0.4-1.2
				c-0.2-0.8-0.3-1.5-0.4-2.3c0-0.1,0-0.2,0.1-0.2c0,0,0,0,0,0c0.3-0.1,1,0.1,1.1,0.4v0C219.7,44.6,220,46.4,220.4,48.3z"/>
			<path id="Path_361" d="M115,53.2c-0.3,1-0.6,2-0.7,3.1c0,0.1-0.3,0.1-0.7,0c-0.3-0.1-0.5-0.2-0.5-0.4c0-0.6,0.5-2,0.4-2.2
				c-0.2-0.1-0.5-0.2-0.8-0.3c-0.2-0.1-0.3-0.1-0.5-0.1c-0.4,0.8-0.6,1.8-0.7,2.7c0,0.1-0.3,0.1-0.7,0c-0.3-0.1-0.5-0.2-0.5-0.4
				c0.1-0.8,0.2-1.7,0.4-2.5c0,0,0,0,0,0c-0.3-0.1-0.6-0.4-0.6-0.8c0-0.1,0.4-0.1,0.9-0.1l0.1-0.2l0.1-0.2c0.3-1,0.7-1.8,1.2-2.7
				c0.1-0.1,0.2-0.1,0.4-0.1c0.4,0.1,0.7,0.6,0.6,1c-0.1,0.3-0.6,1.5-0.8,2.2c0.2,0,0.4,0.1,0.5,0.1c0.2,0.1,0.5,0.2,0.7,0.2
				c0.2-0.9,0.5-1.8,0.9-2.6c0.1-0.1,0.3-0.1,0.4-0.1c0.4,0.1,0.7,0.6,0.7,1l0,0.1C115.6,51.5,115.2,52.6,115,53.2z"/>
			<path id="Path_362" d="M119.5,57.9c-0.2,0-0.4-0.1-0.6-0.3c-0.1-0.4-0.1-0.8,0-1.3c-0.5-0.2-0.9-0.4-1.4-0.5
				c-0.2,0-0.3-0.1-0.5-0.1c-0.3,0.5-0.6,1-0.8,1.2c-0.1,0.2-0.4,0.2-0.7,0.1c-0.4-0.1-0.6-0.3-0.6-0.4c0.2-0.4,0.4-0.8,0.6-1.1
				c-0.3-0.2-0.5-0.6-0.4-1c0.1-0.2,0.6-0.1,1.1,0c0.8-1.3,1.8-2.6,2.9-3.7c0.1,0,0.2,0,0.2,0c0.3,0.1,0.4,0.3,0.7,0.4
				c0.1,0,0.1,0,0.2,0c0.1,0,0.1,0,0.2,0.1c0.1,2.2,0.1,4.4,0,6.6C120.4,58,119.9,58,119.5,57.9z M119.1,52.9
				c-0.5,0.6-1,1.2-1.4,1.8c0.4,0.1,0.9,0.3,1.3,0.5C119,54,119.1,52.9,119.1,52.9L119.1,52.9z"/>
			<path id="Path_363" d="M126.7,53.2c-0.9,1.9-1.9,3.7-3.2,5.3c-0.5,0.2-1,0.2-1.4,0.1c-0.1,0-0.2-0.1-0.3-0.1
				c-0.4-2.2-0.5-4.4-0.4-6.7c0-0.2,0.4-0.2,0.7-0.1c0.2,0,0.4,0.2,0.6,0.4c0.1,0.2,0.4,5,0.4,5c0.8-1.6,1.7-3.2,2.7-4.7
				c0,0,0.1,0,0.1,0C126.2,52.5,126.5,52.7,126.7,53.2C126.7,53.1,126.7,53.1,126.7,53.2z"/>
			<path id="Path_364" d="M130.2,58.6c0,0.1-0.1,0.2-0.2,0.3c-0.9,0.6-1.9,0.8-2.9,0.7c-0.4-0.1-1-0.6-1.1-0.8c0-1,0.1-2,0.3-2.9
				c0.2-0.9,0.5-1.8,0.9-2.6c0.2-0.3,1.3-0.1,2.1,0.1c0.4,0.1,0.8,0.2,0.9,0.2c0.3,0.2,0.6,0.5,0.6,0.8c0,0.1-0.1,0.1-0.2,0.1
				c-0.8-0.1-1.5-0.2-2.3-0.1c-0.1,0.4-0.2,0.7-0.3,1.2c0.1,0,0.2,0,0.3,0.1c0.5,0.1,1,0.2,1.5,0.1h0c0.1,0,0.1,0.2,0.1,0.4
				c0,0.2-0.2,0.4-0.4,0.4c-0.6,0.2-1.2,0.2-1.9,0.2c-0.1,0.4-0.2,1.2-0.3,1.7c0.9,0.1,1.8,0,2.7-0.3c0,0,0,0,0,0c0,0,0.1,0,0.1,0.1
				C130.2,58.4,130.2,58.5,130.2,58.6z"/>
			<path id="Path_365" d="M138,61.7c-0.2,0-0.4-0.1-0.6-0.2c-0.1-0.4-0.1-0.8-0.1-1.3c-0.5-0.2-1-0.3-1.5-0.4c-0.2,0-0.4,0-0.5-0.1
				c-0.3,0.5-0.5,1-0.6,1.2c-0.1,0.2-0.4,0.2-0.7,0.2c-0.4-0.1-0.6-0.2-0.6-0.4c0.1-0.4,0.3-0.8,0.5-1.2c-0.3-0.2-0.5-0.5-0.5-0.9
				c0.1-0.2,0.6-0.2,1.1-0.1c0.7-1.4,1.5-2.7,2.5-4c0.1,0,0.2,0,0.2,0c0.3,0,0.5,0.3,0.7,0.3c0.1,0,0.1,0,0.2,0c0.1,0,0.1,0,0.2,0.1
				c0.3,2.2,0.5,4.4,0.6,6.6C138.9,61.8,138.4,61.8,138,61.7z M137.2,56.8c-0.5,0.6-0.9,1.3-1.3,1.9c0.4,0.1,0.9,0.2,1.3,0.3
				C137.2,57.9,137.2,56.8,137.2,56.8L137.2,56.8z"/>
			<path id="Path_366" d="M141.3,62.3c-1.1-0.2-2-1.5-1.7-3.4c0.3-2.1,2.1-3.7,3-3.5c0.6,0.1,1.1,0.5,1.4,1c0.1,0.3,0.1,0.6,0,0.9
				c0,0.3-0.1,0.6-0.2,0.9c-0.1,0.1-0.3,0.2-0.6,0.1c-0.4-0.1-0.9-0.3-0.9-0.5c0,0,0,0,0,0c0.2-0.4,0.4-0.8,0.5-1.2
				c0-0.2,0-0.2-0.1-0.3c-0.4,0-1.6,1.2-1.8,2.8c-0.1,1,0.2,2,0.9,2.1c0.7,0,1.4-0.4,1.7-1c0,0,0.1,0,0.1,0c0.1,0,0.3,0.1,0.3,0.3
				c0,0,0,0,0,0.1C143.6,61.7,142.5,62.4,141.3,62.3z"/>
			<path id="Path_367" d="M146.3,63c-1.1-0.1-2.1-1.5-1.8-3.4c0.3-2.2,2-3.7,2.9-3.6c0.6,0.1,1.1,0.5,1.5,1c0.1,0.3,0.1,0.6,0.1,0.9
				c0,0.3-0.1,0.6-0.2,0.9c-0.1,0.1-0.3,0.2-0.6,0.1c-0.4,0-1-0.2-0.9-0.4c0,0,0,0,0,0c0.2-0.4,0.4-0.8,0.5-1.3c0-0.2,0-0.2-0.1-0.3
				c-0.4,0-1.6,1.2-1.8,2.8c-0.1,1,0.2,2,1,2.1c0.7,0,1.4-0.4,1.7-1.1c0,0,0.1,0,0.1,0c0.1,0,0.3,0.1,0.3,0.3c0,0,0,0,0,0.1
				C148.6,62.3,147.5,63,146.3,63z"/>
			<path id="Path_368" d="M153.6,62c0,0.1-0.1,0.2-0.2,0.3c-0.8,0.7-1.8,1-2.8,1c-0.4-0.1-0.9-0.3-1.1-0.7c-0.1-1-0.1-2,0-2.9
				c0.1-0.9,0.3-1.8,0.6-2.7c0.2-0.3,1.2-0.2,2.1-0.2c0.4,0,0.8,0.1,0.9,0.1c0.3,0.1,0.6,0.4,0.6,0.8c0,0.1-0.1,0.2-0.2,0.2
				c-0.8,0-1.5,0-2.3,0.1c-0.1,0.4-0.1,0.8-0.2,1.2c0.1,0,0.2,0,0.3,0c0.5,0.1,1,0,1.5-0.1h0c0.1,0,0.2,0.2,0.1,0.4
				c0,0.2-0.1,0.4-0.3,0.5c-0.6,0.2-1.2,0.4-1.8,0.4c0,0.4-0.1,1.2-0.1,1.8c0.9,0,1.8-0.3,2.6-0.6c0,0,0,0,0,0c0,0,0.1,0,0.1,0.1
				C153.6,61.8,153.6,61.9,153.6,62z"/>
			<path id="Path_369" d="M159.3,58.3c-0.1,0.9-0.5,1.8-1.1,2.4c-0.1,0-0.1,0-0.2,0c-0.4,0-1.1-0.5-1.1-0.8c0,0,0-0.1,0.1-0.1
				c0.5-0.5,0.9-1,1.2-1.6c0-0.1,0-0.1-0.1-0.1c-0.6,0.2-1.2,0.6-1.7,1c-0.4,0.3-0.8,0.7-1,1.2c0,0.2,0.1,0.2,1.2,0.4s2,0.6,1.9,1.4
				c-0.2,1.1-1.3,1.9-2.4,1.7c0,0,0,0-0.1,0c-0.7,0-1.4-0.3-2-0.7c-0.1-0.2-0.1-0.3-0.1-0.5c0-0.1,0.1-0.3,0.2-0.3c0,0,0.1,0,0.1,0
				c0.5,0.2,1,0.3,1.5,0.3c0.9,0.1,1.9-0.3,1.9-0.6c0-0.4-2.9,0.2-3.5-1.3c-0.1-0.1-0.1-0.2-0.1-0.4c0.2-0.8,0.7-1.6,1.4-2.1
				c0.8-0.7,1.8-1.1,2.9-1.2c0.2,0,0.3,0,0.5,0.1C159.2,57.5,159.4,57.9,159.3,58.3z"/>
			<path id="Path_370" d="M164.3,58.5c-0.1,0.9-0.4,1.8-1,2.5c-0.1,0-0.1,0-0.2,0c-0.4,0-1.1-0.5-1.1-0.7c0,0,0-0.1,0.1-0.1
				c0.5-0.5,0.9-1,1.2-1.7c0-0.1,0-0.1-0.1-0.1c-0.6,0.3-1.2,0.6-1.7,1.1c-0.4,0.3-0.8,0.8-1,1.2c0,0.2,0.1,0.2,1.2,0.4
				s2,0.6,1.9,1.3c-0.2,1.1-1.2,1.9-2.4,1.8c0,0,0,0-0.1,0c-0.7,0-1.4-0.3-2-0.7c-0.1-0.2-0.1-0.3-0.1-0.5c0-0.1,0.1-0.3,0.2-0.3
				c0,0,0.1,0,0.1,0c0.5,0.2,1,0.3,1.5,0.3c0.9,0,1.9-0.4,1.9-0.7c0-0.4-2.9,0.2-3.6-1.2c-0.1-0.1-0.1-0.2-0.1-0.4
				c0.2-0.8,0.6-1.6,1.3-2.1c0.8-0.7,1.8-1.2,2.8-1.3c0.2,0,0.3,0,0.5,0.1C164.1,57.7,164.4,58.1,164.3,58.5z"/>
			<path id="Path_371" d="M172,58.9c-0.1,0-0.2,0-0.3,0c-0.4,0-0.8,0-1.2,0.1c-0.1,0.7-0.2,1.4-0.1,2c0,1.1,0,2.1,0.1,3.2
				c0,0.1-0.4,0.2-0.8,0.2c-0.2,0-0.4-0.1-0.5-0.2c-0.2-1.1-0.4-2.3-0.3-3.4c0-0.5,0-1,0.1-1.5c-0.3,0-0.6,0.1-0.8,0.1
				c-0.5,0-0.8-0.4-0.9-0.8c0-0.1,0.1-0.2,0.2-0.3c1.2-0.3,2.4-0.5,3.6-0.6c0.3,0,0.5,0,0.8,0c0.2,0,0.3,0.3,0.3,0.5
				c0,0,0,0.1,0,0.1C172.1,58.7,172,58.9,172,58.9z"/>
			<path id="Path_372" d="M174.2,64.5c-1.2,0-2.2-1.5-2.2-3.6c-0.1-1.4,0.6-2.7,1.8-3.3c0.2,0,0.3,0.1,0.4,0.2
				c0.2-0.2,0.5-0.3,0.8-0.3c0.6,0,1.5,0.7,1.6,3.1c0,0.1,0,0.2,0,0.3C176.6,63.2,175.4,64.5,174.2,64.5z M174.4,58.7
				c-0.4,0-1.1,0.9-1.1,2.5c0,1.4,0.6,2.2,1,2.2c0.4,0,1.1-0.7,1-2.4C175.3,59.4,174.8,58.7,174.4,58.7L174.4,58.7z"/>
			<path id="Path_373" d="M182.5,64.3c-1.1,0.1-2.3-1.1-2.3-3c-0.1-2.2,1.3-4,2.2-4c0.6,0,1.2,0.3,1.6,0.7c0.1,0.3,0.2,0.6,0.2,0.9
				c0,0.3,0,0.6,0,0.9c0,0.2-0.3,0.2-0.5,0.2c-0.4,0-1-0.1-1-0.3c0,0,0,0,0,0c0.1-0.4,0.2-0.9,0.3-1.3c0-0.2-0.1-0.2-0.2-0.2
				c-0.4,0-1.4,1.4-1.3,3.1c0.1,1,0.6,2,1.3,1.9c0.7-0.1,1.3-0.7,1.5-1.3c0,0,0.1-0.1,0.1-0.1c0.1,0,0.4,0.1,0.4,0.3c0,0,0,0,0,0.1
				C184.6,63.2,183.7,64.1,182.5,64.3z"/>
			<path id="Path_374" d="M189.7,62.5c0,0.1,0,0.2-0.1,0.3c-0.8,0.6-1.6,0.9-2.5,1.1c-0.5,0-0.9-0.2-1.2-0.5
				c-0.2-0.7-0.4-1.5-0.4-2.3c-0.1-1.2-0.1-2.4,0.1-3.5c0.2-0.2,0.5-0.4,0.8-0.4c0.3,0,0.4,0.1,0.5,0.6c0.1,0.7-0.1,2,0.1,3.9
				c0,0.4,0.1,0.7,0.1,1.1h0.1c0.8-0.1,1.6-0.3,2.4-0.7c0,0,0,0,0,0c0,0,0.1,0,0.1,0C189.6,62.2,189.7,62.3,189.7,62.5z"/>
			<path id="Path_375" d="M194.3,61.6c0,0.1,0,0.3-0.1,0.4c-0.6,0.8-1.5,1.3-2.5,1.6c-0.5,0-0.9-0.2-1.2-0.5
				c-0.3-0.9-0.5-1.9-0.5-2.9c-0.1-0.9-0.1-1.9,0.1-2.8c0.1-0.3,1.2-0.5,2-0.6c0.4,0,0.8-0.1,0.9-0.1c0.4,0,0.7,0.3,0.8,0.6
				c0,0.1,0,0.2-0.2,0.2c-0.8,0.1-1.5,0.3-2.2,0.5c0,0.4,0,0.8,0.1,1.3c0.1,0,0.2,0,0.3,0c0.5,0,1-0.2,1.5-0.4h0
				c0.1,0,0.2,0.2,0.2,0.3c0,0.2-0.1,0.4-0.2,0.5c-0.5,0.3-1.1,0.6-1.7,0.7c0,0.4,0.1,1.2,0.2,1.8c0.9-0.2,1.7-0.6,2.4-1.1
				c0,0,0,0,0,0c0,0,0.1,0,0.1,0C194.2,61.4,194.3,61.5,194.3,61.6z"/>
			<path id="Path_376" d="M199.6,62.6c-0.2,0-0.4,0-0.6,0c-0.2-0.4-0.4-0.8-0.5-1.2c-0.5,0-1,0-1.5,0c-0.2,0-0.4,0-0.5,0.1
				c-0.1,0.6-0.2,1.1-0.2,1.4c0,0.2-0.3,0.3-0.6,0.3c-0.4,0-0.6,0-0.7-0.2c0-0.4,0.1-0.8,0.2-1.3c-0.4-0.1-0.6-0.4-0.8-0.7
				c0-0.2,0.5-0.3,1-0.4c0.2-1.5,0.7-3.1,1.3-4.5c0.1,0,0.1-0.1,0.2-0.1c0.3,0,0.5,0.1,0.8,0.1c0.1,0,0.1,0,0.2,0c0.1,0,0.1,0,0.2,0
				c0.9,2,1.7,4.1,2.4,6.2C200.5,62.4,200,62.6,199.6,62.6z M197.4,58.2c-0.3,0.7-0.5,1.5-0.7,2.2c0.5-0.1,0.9-0.1,1.4,0
				C197.8,59.2,197.4,58.2,197.4,58.2z"/>
			<path id="Path_377" d="M205.1,61.5c0,0.1-0.1,0.2-0.3,0.2c-0.3,0-0.8,0-0.9-0.2s-2.1-2.9-2.1-2.9c0,0.8,0,1.7,0.1,2.5
				c0.1,0.4,0.2,0.7,0.2,1.1c0,0.1-0.1,0.2-0.2,0.2c-0.2,0-1.1-0.3-1.1-0.7c-0.1-0.3-0.1-0.7-0.2-1c-0.2-1.4-0.4-3.3-0.4-4.3
				c0-0.4,0.4-0.7,0.8-0.8c0.2,0,0.3,0,0.4,0.1c0.1,0.2,2.4,3.5,2.4,3.5c-0.1-0.4-0.2-0.8-0.2-1.2c-0.1-0.8-0.2-1.5-0.2-2.3
				c0-0.1,0.1-0.2,0.2-0.2c0,0,0,0,0,0c0.3,0,1,0.2,1.1,0.5v0C204.7,57.8,204.8,59.6,205.1,61.5z"/>
			<path id="Path_378" d="M214.5,53.4c0.2,2.2,0.1,4.4-0.2,6.6c-0.2,0.2-0.5,0.3-0.8,0.3c-0.2,0.1-0.5,0.1-0.7,0
				c-0.1-0.1-0.7-2.3-1.1-3.4c-0.1,1-0.2,3.4-0.3,3.6c-0.3,0.3-0.6,0.4-1,0.5c-0.2,0.1-0.3,0-0.5,0c-0.9-2-1.6-4-2.1-6
				c0-0.2,0.2-0.3,0.5-0.4c0.2,0,0.4,0,0.5,0.1c0.2,0.2,1.6,4.3,1.6,4.3s0.2-3,0.2-4.3c0-0.4,0-0.5,0.6-0.7c0.1,0,0.3,0,0.4,0.1
				c0.2,0.2,1.4,3.6,1.6,4.2c0-1.7,0-3.5,0.2-5.2c0.1,0,0.1,0,0.1,0c0.3,0,0.7,0.1,0.9,0.3C214.5,53.4,214.5,53.4,214.5,53.4z"/>
			<path id="Path_379" d="M220.2,58.9c-0.2,0.1-0.4,0.1-0.6,0c-0.2-0.3-0.4-0.7-0.6-1.1c-0.5,0-1,0.1-1.5,0.2
				c-0.2,0-0.3,0.1-0.5,0.1c-0.1,0.6-0.1,1.1-0.1,1.4c0,0.2-0.3,0.3-0.6,0.4c-0.4,0.1-0.7,0-0.7-0.1c0-0.4,0-0.8,0-1.3
				c-0.4-0.1-0.7-0.3-0.8-0.7c-0.1-0.2,0.5-0.4,1-0.5c0.1-1.6,0.4-3.1,0.8-4.6c0.1,0,0.1-0.1,0.2-0.1c0.3-0.1,0.5,0.1,0.8,0
				c0.1,0,0.1,0,0.2,0c0.1,0,0.1,0,0.2,0c1.1,1.9,2.1,3.9,3,5.9C221,58.6,220.6,58.8,220.2,58.9z M217.6,54.7
				c-0.2,0.8-0.4,1.5-0.4,2.3c0.4-0.1,0.9-0.2,1.4-0.2C218,55.7,217.6,54.7,217.6,54.7L217.6,54.7z"/>
			<path id="Path_380" d="M223.8,52.3c-0.1,0-0.2,0-0.3,0.1c-0.4,0.1-0.8,0.2-1.1,0.4c0.1,0.7,0.2,1.4,0.4,2c0.2,1,0.5,2,0.9,3
				c0,0.1-0.3,0.3-0.7,0.4c-0.2,0.1-0.4,0-0.5-0.1c-0.5-1-0.9-2.1-1.2-3.2c-0.1-0.5-0.2-1-0.3-1.5c-0.2,0.1-0.5,0.2-0.8,0.3
				c-0.4,0.1-0.9-0.2-1.1-0.6c-0.1-0.1,0-0.2,0.1-0.3c1.1-0.6,2.2-1.1,3.3-1.4c0.3-0.1,0.5-0.1,0.8-0.2c0.2,0,0.3,0.2,0.4,0.5
				c0,0,0,0.1,0,0.1C223.9,52.1,223.9,52.3,223.8,52.3z"/>
			<path id="Path_381" d="M229.2,54.9c0,0.1,0,0.3,0,0.4c-0.5,0.9-1.3,1.6-2.2,2c-0.5,0.1-0.9,0-1.3-0.3c-0.5-0.9-0.8-1.8-1-2.8
				c-0.3-0.9-0.4-1.8-0.4-2.8c0-0.3,1.1-0.7,1.9-0.9c0.4-0.1,0.8-0.2,0.9-0.2c0.4,0,0.7,0.2,0.9,0.5c0,0.1,0,0.2-0.2,0.2
				c-0.7,0.2-1.4,0.5-2.1,0.9c0.1,0.4,0.1,0.8,0.3,1.2c0.1,0,0.2,0,0.3-0.1c0.5-0.1,1-0.3,1.4-0.6h0c0.1,0,0.2,0.1,0.3,0.3
				c0.1,0.2,0,0.4-0.1,0.6c-0.5,0.4-1,0.8-1.6,1c0.1,0.4,0.4,1.2,0.5,1.7c0.8-0.4,1.6-0.9,2.2-1.5c0,0,0,0,0,0c0,0,0.1,0,0.1,0
				C229.1,54.7,229.1,54.8,229.2,54.9z"/>
			<path id="Path_382" d="M234.3,54.1c0.1,0.2,0,0.5-0.5,0.6c-0.5,0.2-1.1,0.2-1.6,0c-0.5-0.2-0.9-0.5-1.3-0.9
				c0.2,0.6,0.4,1.2,0.6,1.8l0,0.1c0.1,0.2,0,0.3-0.2,0.4c0,0-0.1,0-0.1,0c-0.3,0.1-0.9,0-0.9-0.3c-0.3-0.8-0.6-1.5-0.8-2.3
				c-0.2-0.8-0.5-1.7-0.6-2.4c-0.4,0-0.8-0.2-1-0.5c-0.1-0.2,0.9-0.8,2.1-1.1c1.1-0.3,2.4-0.4,2.7,0.8c0.3,1,0,2-0.8,2.7
				c0.1,0.3,0.4,0.5,0.6,0.7C233.4,54.3,234.2,53.9,234.3,54.1L234.3,54.1z M230.2,50.5L230.2,50.5c0.1,0.8,0.3,1.8,0.5,2.7
				c0.7-0.5,1-1.5,0.8-2.3C231.3,50.5,230.8,50.3,230.2,50.5L230.2,50.5z"/>
		</g>
	</g>
	<g id="Group_123" transform="translate(193.419 360.856)">
		<g id="Group_122">
			<path id="Path_383" d="M114.7,69.9c-0.1,0.3-0.1,0.5-0.1,0.7c-0.1,0.4-0.1,0.6-0.1,0.8c0,0.2-0.2,0.2-0.4,0.2
				c-0.4-0.1-0.9-0.3-0.9-0.6c0-0.5,0.1-0.8,0.1-1.1c-0.8-0.1-1.2-0.2-1.8-0.3c-0.2-0.1-0.7-1-0.7-1.2v0c0.4-0.7,0.9-1.4,1.5-2
				c0.4-0.6,0.9-1.1,1.4-1.6c0.1-0.1,0.3-0.1,0.5-0.1c0.8,0.1,1.4,0.8,1.3,1c0,0.1-0.1,0.1-0.1,0.3c-0.2,0.5-0.4,2-0.5,3
				c0.5,0.1,0.6,0.4,0.6,0.8c0,0.1,0,0.2-0.1,0.2C115.3,69.9,115,70,114.7,69.9z M113.8,66.3c-0.4,0.5-1.3,1.8-1.5,2.2
				c0.1,0,0.3,0,0.4,0.1s0.4,0.1,0.5,0.1c0.1,0,0.1,0,0.2,0L113.8,66.3z"/>
			<path id="Path_384" d="M118.1,72c-1.7-0.2-2.2-1.8-1.9-3.2c0.2-1.1,0.6-2.1,1.3-3c0.2-0.3,0.6-0.5,1-0.5c0.4,0.1,0.6,0.3,0.9,0.5
				c0.1,0,0.2,0,0.3,0c0.8,0.1,0.8,2.1,0.8,2.6C120.3,69.5,119.7,72.3,118.1,72z M118.9,66.7C118.9,66.7,118.8,66.7,118.9,66.7
				c-0.8,0.1-1.4,1.4-1.5,2.5c-0.1,0.5-0.1,1.5,0.5,1.6c0.5,0.1,1.2-1.3,1.3-2.5c0.1-0.5,0.1-0.9-0.1-1.4
				C119,66.9,119,66.8,118.9,66.7L118.9,66.7z"/>
			<path id="Path_385" d="M126.2,70.4c0.2,0.8,0.7,1.5,1.4,1.8c0.1,0,0.2,0.1,0.2,0.2c0,0.2-0.2,0.4-0.6,0.4c-1-0.2-1.9-0.9-2.2-1.9
				c-0.1,0.7-0.1,1.4-0.1,1.8c0,0.1-0.3,0.2-0.7,0.1c-0.2,0-0.4-0.1-0.4-0.3c-0.1-1.1-0.1-2.2,0.1-3.3c0.1-1.1,0.4-2.1,0.7-3.1
				c0.1-0.1,0.2-0.2,0.4-0.1c0.4,0.1,0.7,0.4,0.7,0.8v0.1c-0.2,0.9-0.4,1.9-0.5,2.8c1.3-0.6,2.2-1.8,2.3-3.2c0-0.1,0.1-0.1,0.3-0.1
				c0.4,0,0.8,0.3,0.8,0.6C128.3,68.4,127.4,69.6,126.2,70.4z"/>
			<path id="Path_386" d="M129.3,73.4c-0.2,0-0.5-0.1-0.5-0.3c-0.1-1.1-0.1-2.2,0-3.3c0.1-0.9,0.3-1.8,0.6-2.7
				c0.1-0.1,0.2-0.2,0.4-0.1c0.4,0.1,0.8,0.4,0.8,0.9c0,0.4-0.3,1.6-0.3,2.3c-0.1,1-0.2,2.1-0.2,3.2
				C129.9,73.4,129.6,73.5,129.3,73.4z"/>
			<path id="Path_387" d="M134.8,72.7c0,0.1-0.1,0.2-0.2,0.3c-0.8,0.4-1.6,0.7-2.5,0.7c-0.4,0-1-0.5-1.1-0.7c-0.1-0.8-0.1-1.6,0-2.3
				c0.1-1.2,0.3-2.3,0.7-3.5c0.2-0.2,0.5-0.3,0.8-0.3c0.3,0,0.4,0.2,0.3,0.7c-0.1,0.7-0.4,1.9-0.6,3.8c0,0.4-0.1,0.7,0,1.1h0.1
				c0.8,0,1.6-0.1,2.3-0.3c0,0,0,0,0,0c0,0,0.1,0,0.1,0.1C134.8,72.5,134.8,72.6,134.8,72.7z"/>
			<path id="Path_388" d="M137,74.2c-1.1-0.1-1.9-1.7-1.7-3.8c0-1.3,0.8-2.6,2-3.1c0.1,0,0.3,0.1,0.4,0.2c0.2-0.2,0.5-0.2,0.8-0.3
				c0.5,0,1.3,0.9,1.2,3.2c0,0.1,0,0.2,0,0.3C139.3,73.2,138.1,74.3,137,74.2z M137.7,68.4c-0.4,0-1.1,0.8-1.3,2.4
				c-0.1,1.4,0.4,2.2,0.7,2.3s1.1-0.6,1.2-2.3C138.5,69.3,138.1,68.5,137.7,68.4z"/>
			<path id="Path_389" d="M144.9,74.6c0,0.2-0.2,0.3-0.4,0.3h0c-0.2,0-0.4-0.1-0.6-0.3c-0.1-0.1,0-2.5,0.1-3.3
				c-0.3,0.8-0.9,2.3-1.1,3.1c0,0.1-0.1,0.2-0.3,0.2c-0.3-0.1-0.5-0.3-0.7-0.5c-0.1-0.2-0.5-1.6-0.8-3c0,0.4-0.1,0.9-0.1,1.3
				c-0.1,0.6-0.1,1.2,0,1.8c0,0.1-0.3,0.2-0.6,0.2c-0.2,0-0.3-0.2-0.3-0.3c-0.1-1.1-0.1-2.3,0-3.4c0-0.9,0.2-1.8,0.5-2.6
				c0-0.1,0.3-0.1,0.5-0.1c0.4,0,0.6,0.2,0.6,0.4c0.1,0.3,0.9,3,1.1,3.7c0.4-1.3,0.8-2.7,1.4-3.9c0.1-0.1,0.3-0.1,0.4-0.1
				c0.3,0,0.5,0.1,0.7,0.3c0.1,0.2-0.1,3.4-0.2,5.1C145,74,145,74.5,144.9,74.6L144.9,74.6z"/>
			<path id="Path_390" d="M149.5,73.3c0,0.1-0.1,0.2-0.1,0.3c-0.7,0.7-1.6,1.1-2.5,1.2c-0.4-0.1-0.8-0.3-1.1-0.7
				c-0.2-1-0.2-2-0.1-2.9c0-0.9,0.2-1.8,0.5-2.7c0.1-0.3,1.1-0.3,1.9-0.3c0.4,0,0.8,0.1,0.9,0.1c0.3,0.1,0.6,0.4,0.6,0.7
				c0,0.1-0.1,0.2-0.2,0.2c-0.7,0-1.4,0.1-2.1,0.2c-0.1,0.4-0.1,0.8-0.1,1.3c0.1,0,0.2,0,0.3,0c0.5,0,1,0,1.4-0.1h0
				c0.1,0,0.2,0.2,0.2,0.4c0,0.2-0.1,0.4-0.3,0.5c-0.5,0.2-1.1,0.4-1.7,0.5c0,0.4,0,1.2,0,1.8c0.8-0.1,1.7-0.3,2.4-0.8c0,0,0,0,0,0
				c0,0,0.1,0,0.1,0.1C149.5,73.1,149.6,73.2,149.5,73.3z"/>
			<path id="Path_391" d="M154.2,69.7c-0.1,0-0.2,0-0.2,0c-0.4,0-0.8,0-1.1,0.1c-0.1,0.7-0.2,1.4-0.2,2c-0.1,1.1-0.1,2.1,0,3.2
				c0,0.1-0.4,0.2-0.7,0.2c-0.2,0-0.4-0.1-0.4-0.2c-0.2-1.1-0.3-2.3-0.2-3.4c0-0.5,0.1-1,0.1-1.5c-0.3,0-0.5,0.1-0.8,0.1
				c-0.4,0-0.8-0.4-0.8-0.9c0-0.1,0.1-0.2,0.2-0.3c1.1-0.3,2.2-0.4,3.4-0.5c0.2,0,0.5,0,0.8,0.1c0.2,0,0.2,0.3,0.2,0.6
				c0,0,0,0.1,0,0.1C154.4,69.4,154.3,69.7,154.2,69.7z"/>
			<path id="Path_392" d="M158.3,73.7c0,0.1,0,0.2-0.1,0.3c-0.7,0.7-1.6,1.1-2.5,1.2c-0.4-0.1-0.8-0.3-1.1-0.6
				c-0.2-1-0.2-1.9-0.2-2.9c0-0.9,0.1-1.8,0.4-2.7c0.1-0.3,1.1-0.3,1.9-0.3c0.4,0,0.8,0,0.9,0.1c0.3,0.1,0.6,0.4,0.6,0.7
				c0,0.1-0.1,0.2-0.2,0.2c-0.7,0-1.4,0.1-2.1,0.3c0,0.4-0.1,0.8-0.1,1.3c0.1,0,0.2,0,0.3,0c0.5,0,1,0,1.4-0.2h0
				c0.1,0,0.2,0.2,0.2,0.4c0,0.2-0.1,0.4-0.3,0.5c-0.5,0.3-1.1,0.4-1.7,0.5c0,0.4,0,1.2,0,1.8c0.8-0.1,1.6-0.4,2.4-0.8c0,0,0,0,0,0
				c0,0,0.1,0,0.1,0.1C158.3,73.5,158.3,73.6,158.3,73.7z"/>
			<path id="Path_393" d="M163,74.5c0,0.2-0.1,0.4-0.6,0.4c-0.5,0-1-0.2-1.4-0.5c-0.4-0.3-0.7-0.8-0.9-1.3c0,0.6,0,1.2,0,1.9v0.1
				c0,0.2-0.1,0.3-0.3,0.3c0,0,0,0-0.1,0c-0.3,0-0.7-0.3-0.8-0.5c-0.1-0.8-0.1-1.7-0.1-2.5c0-0.9,0.1-1.8,0.1-2.5
				c-0.4-0.1-0.8-0.5-0.8-0.8c0-0.2,1.1-0.4,2.2-0.4c1.1,0,2.2,0.3,2.2,1.6c0,1-0.6,1.9-1.5,2.4c0.1,0.3,0.2,0.6,0.4,0.8
				C162.2,74.4,162.9,74.2,163,74.5L163,74.5z M160.4,69.8L160.4,69.8c-0.2,0.8-0.2,1.8-0.3,2.7c0.8-0.3,1.3-1.1,1.4-2
				C161.4,70.1,161,69.8,160.4,69.8L160.4,69.8z"/>
			<path id="Path_394" d="M168,69.7c-0.1,0.9-0.4,1.8-0.9,2.5c-0.1,0-0.1,0-0.1,0c-0.4,0-1.1-0.4-1-0.7c0,0,0-0.1,0-0.1
				c0.4-0.5,0.8-1.1,1-1.7c0-0.1,0-0.1-0.1-0.1c-0.3,0-1.3,0.9-1.6,1.2c-0.4,0.3-0.7,0.8-0.9,1.3c0,0.2,0.1,0.2,1.2,0.3
				s1.9,0.5,1.9,1.3c-0.1,1.1-1,1.9-2.1,1.8c0,0,0,0-0.1,0c-0.7,0-1.4-0.2-1.9-0.6c-0.1-0.2-0.1-0.3-0.1-0.5c0-0.1,0-0.3,0.2-0.3
				c0,0,0.1,0,0.1,0c0.4,0.2,0.9,0.2,1.4,0.2c0.8,0,1.7-0.4,1.7-0.7c0-0.4-2.7,0.3-3.4-1.1c-0.1-0.1-0.1-0.2-0.1-0.4
				c0.1-0.8,0.5-1.6,1.1-2.2c0.7-0.7,1.6-1.2,2.6-1.4c0.2,0,0.3,0,0.5,0.1C167.9,68.9,168.1,69.3,168,69.7z"/>
			<path id="Path_395" d="M173.2,75.5c-1.1,0-2.1-1.5-2.1-3.6c-0.1-1.3,0.5-2.6,1.7-3.3c0.1,0,0.3,0.1,0.4,0.2
				c0.2-0.1,0.4-0.3,0.8-0.3c0.5,0,1.4,0.7,1.5,3.1c0,0.1,0,0.2,0,0.3C175.4,74.2,174.3,75.5,173.2,75.5z M173.3,69.7
				c-0.4,0-1,0.9-1,2.5c0,1.4,0.6,2.2,0.9,2.2s1-0.7,1-2.4C174.2,70.5,173.7,69.7,173.3,69.7L173.3,69.7z"/>
			<path id="Path_396" d="M179.8,69.4c0,0.1-0.1,0.2-0.2,0.2c-0.7,0.1-1.4,0.2-2.1,0.4c0,0.4,0,0.9,0,1.4c0.1,0,0.1,0,0.2,0
				c0.5,0,1-0.1,1.5-0.2c0.1,0,0.2,0.1,0.2,0.4c0,0.2-0.1,0.4-0.3,0.5c-0.6,0.2-1.1,0.3-1.7,0.4c0,0.3,0,0.9,0,1.7
				c0,0.4,0,0.8,0,1.2c0,0.1-0.1,0.1-0.2,0.1c-0.3,0-0.9-0.3-1-0.5c-0.2-0.7-0.1-2.1-0.3-2.4c-0.1-0.1-0.5-0.6-0.5-0.8
				c0-0.2,0.1-0.2,0.3-0.2c0.1,0,0.1,0,0.2,0c0-0.4,0-0.7,0-1c0-0.1,0-0.3-0.1-0.4c0,0,0,0-0.1,0c-0.2,0-0.3-0.3-0.3-0.5
				c0-0.2,0-0.3,0.1-0.5c0.1-0.2,1.3-0.4,2.3-0.4c0.4,0,0.7,0,1.1,0c0.3,0.1,0.6,0.3,0.7,0.6C179.8,69.3,179.8,69.3,179.8,69.4z"/>
			<path id="Path_397" d="M187.1,74.7c0,0.1-0.1,0.2-0.3,0.2c-0.3,0-0.7-0.1-0.8-0.3c-0.1-0.2-1.7-3.1-1.7-3.1
				c-0.1,0.8-0.1,1.7-0.1,2.5c0,0.4,0.1,0.7,0.1,1.1c0,0.1-0.1,0.2-0.2,0.2l0,0c-0.2,0-0.9-0.4-1-0.8c0-0.3-0.1-0.7-0.1-1.1
				c-0.1-1.4,0-3.3,0-4.4c0-0.4,0.4-0.7,0.8-0.7c0.2,0,0.3,0,0.3,0.1c0.1,0.2,1.9,3.8,1.9,3.8c-0.1-0.4-0.1-0.8-0.1-1.3
				c0-0.8,0-1.5,0.1-2.3c0-0.2,0.1-0.2,0.2-0.2c0.3,0,0.9,0.3,1,0.6v0C187.1,70.9,187,72.8,187.1,74.7z"/>
			<path id="Path_398" d="M191.9,73c0,0.1,0,0.3-0.1,0.4c-0.6,0.8-1.4,1.3-2.4,1.5c-0.4,0-0.9-0.2-1.1-0.5c-0.3-0.9-0.4-1.9-0.4-2.9
				c-0.1-0.9,0-1.9,0.2-2.8c0.1-0.3,1.1-0.4,1.9-0.5c0.4,0,0.8,0,0.9,0c0.4,0.1,0.6,0.3,0.7,0.7c0,0.1-0.1,0.2-0.2,0.2
				c-0.7,0.1-1.4,0.2-2.1,0.5c0,0.4,0,0.8,0,1.3c0.1,0,0.2,0,0.3,0c0.5,0,0.9-0.1,1.4-0.3h0c0.1,0,0.2,0.2,0.2,0.3
				c0,0.2-0.1,0.4-0.2,0.5c-0.5,0.3-1.1,0.5-1.6,0.7c0,0.4,0.1,1.2,0.2,1.8c0.8-0.2,1.6-0.5,2.3-1c0,0,0,0,0,0c0,0,0.1,0,0.1,0.1
				C191.9,72.8,191.9,72.9,191.9,73z"/>
			<path id="Path_399" d="M198.1,67.7c-0.1,2.2-0.4,4.4-0.9,6.5c-0.2,0.2-0.5,0.2-0.7,0.2c-0.3,0-0.6,0-0.7-0.1
				c-0.1-0.1-0.4-2.4-0.7-3.5c-0.1,1-0.5,3.4-0.6,3.5c-0.3,0.2-0.6,0.3-1,0.3c-0.2,0-0.4,0-0.5-0.1c-0.6-2-1.1-4.1-1.4-6.2
				c0-0.2,0.2-0.3,0.5-0.3c0.2,0,0.4,0,0.5,0.2c0.1,0.2,1.1,4.5,1.1,4.5s0.5-2.9,0.6-4.2c0-0.4,0-0.5,0.7-0.6c0.1,0,0.3,0,0.4,0.1
				c0.2,0.2,0.9,3.8,1,4.4c0.1-1.7,0.4-3.4,0.8-5.1c0,0,0.1,0,0.1,0C197.6,67.2,197.9,67.3,198.1,67.7
				C198.1,67.6,198.1,67.6,198.1,67.7z"/>
			<path id="Path_400" d="M206.1,72.6c0,0.2-0.1,0.4-0.6,0.5c-0.5,0.1-1-0.1-1.5-0.4c-0.4-0.3-0.8-0.7-1-1.2
				c0.1,0.6,0.1,1.2,0.2,1.8v0.1c0,0.2-0.1,0.3-0.2,0.4c0,0-0.1,0-0.1,0c-0.3,0-0.8-0.2-0.8-0.4c-0.2-0.8-0.3-1.6-0.3-2.4
				c-0.1-0.9-0.1-1.8-0.2-2.5c-0.4-0.1-0.7-0.3-0.8-0.7c0-0.2,1-0.6,2.2-0.7c1.1-0.1,2.2,0.1,2.4,1.4c0.1,1-0.4,2-1.2,2.5
				c0.1,0.3,0.2,0.6,0.5,0.8C205.2,72.5,206,72.3,206.1,72.6L206.1,72.6z M202.9,68.2L202.9,68.2c-0.1,0.8,0,1.8,0,2.7
				c0.7-0.4,1.2-1.2,1.1-2.1C204,68.4,203.5,68.2,202.9,68.2L202.9,68.2z"/>
			<path id="Path_401" d="M208.4,73.4c-1.1,0.1-2.2-1.3-2.4-3.4c-0.3-1.3,0.3-2.7,1.4-3.4c0.1,0,0.3,0.1,0.4,0.1
				c0.2-0.1,0.4-0.4,0.7-0.4c0.5-0.1,1.5,0.6,1.8,2.9c0,0.1,0,0.2,0,0.3C210.5,71.9,209.6,73.2,208.4,73.4z M208,67.5
				c-0.4,0-0.9,1-0.8,2.6c0.1,1.4,0.8,2.1,1.2,2.1c0.4,0,0.9-0.8,0.7-2.5C209,68.2,208.4,67.5,208,67.5z"/>
			<path id="Path_402" d="M215.5,72.4c-0.2,0-0.4,0-0.6-0.1c-0.2-0.4-0.4-0.8-0.5-1.2c-0.5,0-0.9,0-1.4,0c-0.2,0-0.3,0.1-0.5,0.1
				c-0.1,0.6-0.2,1.1-0.2,1.4c0,0.2-0.3,0.3-0.6,0.3c-0.4,0-0.6,0-0.6-0.2c0-0.4,0.1-0.8,0.1-1.3c-0.4-0.1-0.6-0.4-0.7-0.7
				c0-0.2,0.5-0.3,0.9-0.4c0.2-1.5,0.6-3.1,1.2-4.5c0.1,0,0.1-0.1,0.2-0.1c0.2,0,0.5,0.1,0.7,0.1c0.1,0,0.1,0,0.2,0
				c0.1,0,0.1,0,0.2,0c0.9,2,1.7,4.1,2.3,6.2C216.3,72.2,215.9,72.4,215.5,72.4z M213.4,67.9c-0.2,0.7-0.4,1.5-0.6,2.2
				c0.4-0.1,0.9-0.1,1.3,0C213.7,69,213.4,67.9,213.4,67.9L213.4,67.9z"/>
			<path id="Path_403" d="M220.3,67.5c0.2,1.3-0.1,2.7-1,3.7c-0.3,0.3-0.7,0.6-1.2,0.7c0,0.2-0.4,0.3-0.4,0.3c-0.1,0-0.1,0-0.2,0
				c-0.2,0-0.4,0-0.5-0.1c-0.4-1.1-0.6-2.2-0.8-3.3c-0.1-0.5-0.1-1.1-0.1-1.6c-0.1,0-0.1,0-0.1,0c0,0-0.9-0.3-1-0.8
				c0-0.2,1.2-0.8,2.3-0.9c0.8-0.2,1.7-0.1,2.4,0.4C220,66.3,220.2,66.9,220.3,67.5z M218,66.5c-0.2,0-0.4,0.1-0.6,0.1
				c0,0.5,0.1,1.5,0.2,2.1c0.1,0.4,0.2,1.1,0.3,1.8c0.2,0,0.4-0.1,0.5-0.3c0.6-0.8,0.9-1.8,0.7-2.8c0-0.3-0.1-0.6-0.3-0.8
				C218.6,66.5,218.3,66.4,218,66.5L218,66.5z"/>
			<path id="Path_404" d="M225.1,65.2c0.1,0.9-0.1,1.8-0.5,2.6c0,0-0.1,0.1-0.1,0.1c-0.4,0.1-1.1-0.3-1.1-0.5c0,0,0-0.1,0-0.1
				c0.4-0.6,0.6-1.2,0.8-1.8c0-0.1,0-0.1-0.1-0.1c-0.3,0-1.1,1.1-1.4,1.4c-0.4,0.4-0.6,0.9-0.6,1.4c0,0.2,0.1,0.2,1.2,0.1
				s1.9,0.2,2.1,1c0.1,1.1-0.7,2.1-1.8,2.2c0,0,0,0-0.1,0c-0.7,0.1-1.4,0-2-0.3c-0.1-0.1-0.2-0.3-0.2-0.5c0-0.1,0-0.3,0.1-0.3
				c0,0,0.1,0,0.1,0c0.5,0.1,0.9,0.1,1.4,0c0.8-0.1,1.6-0.7,1.6-1c-0.1-0.4-2.6,0.8-3.5-0.5c-0.1-0.1-0.1-0.2-0.1-0.3
				c0-0.8,0.3-1.7,0.8-2.3c0.6-0.8,1.4-1.5,2.4-1.8c0.2,0,0.3,0,0.5,0C224.8,64.4,225,64.8,225.1,65.2z"/>
		</g>
	</g>
	<g id="Group_125" transform="translate(208.96 396.037)">
		<g id="Group_124" transform="translate(0 0)">
			<path id="Path_405" d="M123.2,93.4c0.1,0,0.3,0.1,0.4,0.1c1,0.3,1.8,0.7,1.7,1.2c0,0.2-0.4,0.3-0.6,0.3c0,0,0,0,0,0
				c-0.2-0.1-0.3-0.2-0.6-0.3c-0.5-0.1-1.1-0.2-1.3-0.2c-1.3-0.4-1.6-0.5-1.6-1.2c0-0.1,0-0.2,0-0.3c0.1-0.2,0.2-0.3,0.5-0.4
				c1.4-0.7,2.6-1.7,3.6-2.8c0-0.2-0.1-0.4-0.3-0.4c-0.4-0.1-1.3,0.4-2,1.1c-0.1,0.1-0.1,0.1-0.2,0.1c-0.3-0.1-0.8-0.7-0.7-1.1
				c0.7-1,1.8-1.4,3-1.2c0.8,0.4,1.3,1.2,1.2,2.1C126.2,91.5,124.4,92.4,123.2,93.4z"/>
			<path id="Path_406" d="M133.2,96.7c0,0.1-0.1,0.2-0.3,0.1c-0.3-0.1-0.7-0.2-0.8-0.4c0-0.2-1-3.4-1-3.4c-0.3,0.8-0.5,1.6-0.7,2.4
				c-0.1,0.4-0.1,0.7-0.2,1.1c0,0.1-0.1,0.1-0.2,0.1c-0.2,0-0.9-0.6-0.8-1.1c0.1-0.3,0.1-0.7,0.2-1.1c0.3-1.4,0.8-3.2,1.1-4.2
				c0.1-0.4,0.6-0.6,0.9-0.5c0.2,0,0.3,0.1,0.3,0.2c0.1,0.2,1,4.1,1,4.1c0-0.4,0.1-0.8,0.2-1.2c0.1-0.8,0.3-1.5,0.6-2.2
				c0-0.1,0.1-0.2,0.2-0.2c0,0,0,0,0,0c0.3,0.1,0.9,0.5,0.8,0.8v0C134.1,93,133.6,94.9,133.2,96.7z"/>
			<path id="Path_407" d="M138.5,96.2c0,0.1-0.1,0.2-0.2,0.3c-0.8,0.6-1.8,0.9-2.8,0.9c-0.4-0.1-1.1-0.6-1.1-0.8c-0.1-1,0-2,0.2-2.9
				c0.1-0.9,0.4-1.8,0.8-2.7c0.2-0.3,1.2-0.2,2-0.1c0.4,0.1,0.8,0.1,0.9,0.2c0.3,0.1,0.6,0.4,0.6,0.8c0,0.1-0.1,0.2-0.2,0.1
				c-0.7-0.1-1.5-0.1-2.2,0c-0.1,0.4-0.2,0.7-0.3,1.2c0.1,0,0.2,0,0.3,0.1c0.5,0.1,1,0.1,1.5,0h0c0.1,0,0.2,0.2,0.1,0.4
				c0,0.2-0.1,0.4-0.3,0.5c-0.6,0.2-1.2,0.3-1.8,0.3c-0.1,0.4-0.2,1.2-0.2,1.8c0.9,0,1.8-0.2,2.6-0.5c0,0,0,0,0,0c0,0,0.1,0,0.1,0.1
				C138.6,96,138.6,96.1,138.5,96.2z"/>
			<path id="Path_408" d="M145.8,92c-0.4,2.2-1.1,4.2-1.9,6.3c-0.2,0.1-0.5,0.2-0.8,0.1c-0.4,0-0.6-0.1-0.7-0.2
				c-0.1-0.1,0-2.4-0.1-3.6c-0.3,0.9-1.1,3.2-1.3,3.4c-0.3,0.2-0.7,0.2-1.1,0.1c-0.2,0-0.4-0.1-0.5-0.2c-0.2-2.1-0.3-4.2-0.2-6.4
				c0-0.2,0.3-0.3,0.6-0.2c0.2,0,0.4,0.1,0.5,0.3c0.1,0.2,0.3,4.6,0.3,4.6s1.1-2.8,1.4-4.1c0.1-0.4,0.1-0.5,0.8-0.4
				c0.2,0,0.3,0.1,0.3,0.2c0.1,0.2,0.3,3.9,0.3,4.5c0.4-1.7,0.9-3.3,1.6-4.9c0.1,0,0.1,0,0.1,0C145.3,91.4,145.6,91.6,145.8,92
				C145.8,91.9,145.8,91.9,145.8,92z"/>
			<path id="Path_409" d="M153.5,92.9c0,0.9-0.3,1.8-0.9,2.5c-0.1,0-0.1,0-0.2,0c-0.4,0-1.1-0.4-1.1-0.7c0,0,0-0.1,0-0.1
				c0.5-0.5,0.8-1.1,1.1-1.7c0-0.1,0-0.1-0.1-0.1c-0.3,0-1.3,0.9-1.6,1.2c-0.4,0.3-0.7,0.8-0.9,1.3c0,0.2,0.1,0.2,1.2,0.3
				c1.1,0.1,1.9,0.5,1.9,1.3c-0.1,1.1-1.1,1.9-2.2,1.8c0,0-0.1,0-0.1,0c-0.7,0-1.4-0.2-2-0.6c-0.1-0.2-0.1-0.3-0.1-0.5
				c0-0.1,0.1-0.3,0.2-0.3c0,0,0.1,0,0.1,0c0.5,0.2,1,0.3,1.5,0.3c0.9,0,1.8-0.4,1.8-0.7c0-0.4-2.8,0.3-3.5-1.1
				c-0.1-0.1-0.1-0.2-0.1-0.4c0.1-0.8,0.6-1.6,1.2-2.1c0.7-0.7,1.6-1.2,2.7-1.4c0.2,0,0.3,0,0.5,0.1
				C153.3,92.1,153.5,92.5,153.5,92.9z"/>
			<path id="Path_410" d="M155.9,98.8c-1.1,0-2.2-1.1-2.2-3.1c0-2.2,1.3-4,2.2-4c0.8-0.1,1.6,0.5,1.7,1.3c0,0.1,0,0.2,0,0.3
				c0,0.3,0,0.6-0.1,0.9c0,0.2-0.3,0.2-0.5,0.2c-0.4,0-0.9-0.1-1-0.3c0,0,0,0,0,0c0.1-0.4,0.2-0.9,0.3-1.3c0-0.2-0.1-0.2-0.2-0.2
				c-0.4,0-1.3,1.4-1.3,3c0,1,0.5,2,1.2,1.9c0.7-0.1,1.2-0.6,1.4-1.3c0,0,0.1-0.1,0.1-0.1c0.2,0,0.3,0.1,0.4,0.3c0,0,0,0.1,0,0.1
				C158,97.7,157.1,98.6,155.9,98.8z"/>
			<path id="Path_411" d="M162.9,94.8c0.1,1.1,0.2,2.1,0.4,3.1c0,0.1-0.3,0.2-0.7,0.3c-0.3,0-0.5,0-0.6-0.2
				c-0.2-0.6-0.2-2.1-0.4-2.2c-0.3,0-0.5,0-0.8,0c-0.2,0-0.3,0-0.5,0.1c0,0.9,0.1,1.8,0.3,2.7c0,0.1-0.3,0.2-0.6,0.3
				c-0.3,0-0.5,0-0.6-0.2c-0.2-0.8-0.4-1.7-0.5-2.5c0,0,0,0,0,0c-0.4,0-0.7-0.2-0.8-0.6c0-0.1,0.3-0.3,0.8-0.4l0-0.2l0-0.2
				c-0.1-1,0-2,0.1-2.9c0-0.1,0.2-0.2,0.3-0.2c0.4,0,0.8,0.3,0.9,0.7c0,0.3,0,1.6,0.1,2.3c0.2,0,0.4-0.1,0.5-0.1c0.2,0,0.5,0,0.7,0
				c-0.1-0.9-0.2-1.8-0.1-2.8c0-0.1,0.2-0.2,0.3-0.2c0.4,0,0.8,0.3,0.9,0.7v0.1C162.8,93,162.8,94.2,162.9,94.8z"/>
			<path id="Path_412" d="M166.2,97.9c-1.2,0.2-2.4-1.3-2.6-3.4c-0.3-1.3,0.2-2.7,1.4-3.4c0.1,0,0.3,0,0.4,0.1
				c0.2-0.1,0.4-0.4,0.7-0.4c0.5-0.1,1.5,0.6,1.9,2.9c0,0.1,0,0.2,0,0.3C168.4,96.3,167.4,97.7,166.2,97.9z M165.7,92.1
				c-0.4,0.1-0.9,1.1-0.7,2.6c0.2,1.4,0.8,2.1,1.2,2.1c0.4-0.1,0.9-0.8,0.7-2.5C166.7,92.7,166.1,92,165.7,92.1z"/>
			<path id="Path_413" d="M171.2,97.1c-1.2,0.2-2.4-1.2-2.7-3.2c-0.4-1.3,0.1-2.7,1.2-3.5c0.1,0,0.3,0,0.4,0.1
				c0.2-0.1,0.4-0.4,0.7-0.5c0.5-0.1,1.6,0.5,2,2.8c0,0.1,0,0.2,0.1,0.3C173.3,95.5,172.4,96.9,171.2,97.1z M170.4,91.3
				c-0.4,0.1-0.9,1.1-0.6,2.7c0.2,1.3,0.9,2.1,1.3,2c0.4-0.1,0.9-0.9,0.6-2.5C171.4,91.9,170.8,91.3,170.4,91.3L170.4,91.3z"/>
			<path id="Path_414" d="M178.1,94.3c0,0.1,0,0.2-0.1,0.3c-0.6,0.7-1.4,1.2-2.3,1.5c-0.5,0.1-0.9-0.1-1.3-0.3
				c-0.4-0.7-0.6-1.4-0.8-2.2c-0.2-1.2-0.4-2.3-0.4-3.5c0.1-0.3,0.4-0.5,0.7-0.5c0.3-0.1,0.4,0,0.5,0.6c0.1,0.7,0.2,2,0.7,3.8
				c0.1,0.4,0.2,0.7,0.3,1l0.1,0c0.8-0.2,1.6-0.6,2.2-1c0,0,0,0,0,0c0,0,0.1,0,0.1,0C178,94,178.1,94.2,178.1,94.3z"/>
			<path id="Path_415" d="M181.9,88.5c0.2,0.9,0.2,1.8-0.1,2.7c0,0-0.1,0.1-0.1,0.1c-0.4,0.1-1.2-0.1-1.2-0.4c0,0,0-0.1,0-0.1
				c0.3-0.6,0.5-1.3,0.5-1.9c0-0.1-0.1-0.1-0.1-0.1c-0.3,0.1-1,1.2-1.2,1.6c-0.3,0.4-0.5,0.9-0.5,1.5c0,0.2,0.1,0.2,1.2,0
				s2-0.1,2.2,0.7c0.2,1.1-0.5,2.2-1.6,2.4c0,0-0.1,0-0.1,0c-0.7,0.2-1.4,0.2-2.1,0c-0.1-0.1-0.2-0.3-0.3-0.5c0-0.1,0-0.3,0.1-0.3
				c0,0,0.1,0,0.1,0c0.5,0,1,0,1.5-0.2c0.9-0.2,1.6-0.9,1.5-1.2c-0.1-0.4-2.6,1.1-3.7-0.1c-0.1-0.1-0.1-0.2-0.2-0.3
				c-0.1-0.8,0.1-1.7,0.6-2.4c0.5-0.9,1.3-1.6,2.2-2.1c0.2-0.1,0.3-0.1,0.5-0.1C181.5,87.7,181.8,88.1,181.9,88.5z"/>
		</g>
	</g>
</g>
</svg>
