<svg id="_ÎÓÈ_1" data-name="—ÎÓÈ_1" xmlns="http://www.w3.org/2000/svg" viewBox="0 0 3600 3600"><defs><style>.cls-1{fill:#f8fafb;}.cls-2{fill:#364a50;}</style></defs><title>profile</title><rect class="cls-1" width="3600" height="3600"/><path class="cls-2" d="M3229.07,1196.25a1555.2,1555.2,0,0,0-825.32-825.33C2212.47,290,2009.34,249,1800,249s-412.47,41-603.75,121.92a1555.25,1555.25,0,0,0-825.33,825.33C290,1387.53,249,1590.66,249,1800s41,412.47,121.92,603.75a1553.09,1553.09,0,0,0,332.36,493q9.88,9.9,20,19.6a97.46,97.46,0,0,0,20.36,19.32,1552,1552,0,0,0,452.62,293.43C1387.53,3310,1590.66,3351,1800,3351s412.47-41,603.75-121.93a1552.28,1552.28,0,0,0,452.63-293.43,97.65,97.65,0,0,0,20.35-19.32q10.08-9.72,20-19.6a1552.84,1552.84,0,0,0,332.35-493C3310,2212.47,3351,2009.34,3351,1800S3310,1387.53,3229.07,1196.25ZM1800,3157.12c-345.88,0-661.94-130.07-901.87-343.85,13.21-163.61,101.51-313.23,252-425,168.76-125.36,399.55-194.4,649.86-194.4s481.11,69,649.86,194.4c150.5,111.81,238.8,261.43,252,425C2461.94,3027.05,2145.88,3157.12,1800,3157.12ZM1286.43,1487.29c0-282.69,230.39-512.67,513.57-512.67s513.57,230,513.57,512.67S2083.18,2000,1800,2000,1286.43,1770,1286.43,1487.29Zm1578.51,1153C2816.26,2483.43,2714,2343,2565.47,2232.61c-101.33-75.28-220.26-133.59-350.46-173a712.32,712.32,0,0,0,85.18-72.67,708,708,0,1,0-1000.38,0,712.32,712.32,0,0,0,85.18,72.67c-130.2,39.41-249.13,97.72-350.46,173C886,2343,783.74,2483.43,735.06,2640.32,552.18,2409.05,442.88,2117.05,442.88,1800c0-748.32,608.8-1357.12,1357.12-1357.12S3157.12,1051.68,3157.12,1800C3157.12,2117.05,3047.82,2409.05,2864.94,2640.32Z"/></svg>