<?xml version="1.0" encoding="utf-8"?>
<!-- Generator: Adobe Illustrator 24.0.3, SVG Export Plug-In . SVG Version: 6.00 Build 0)  -->
<svg version="1.1" id="Layer_1" xmlns="http://www.w3.org/2000/svg" xmlns:xlink="http://www.w3.org/1999/xlink" x="0px" y="0px"
	 viewBox="0 0 86.4 14.4" style="enable-background:new 0 0 86.4 14.4;" xml:space="preserve">
<style type="text/css">
	.st0{fill-rule:evenodd;clip-rule:evenodd;fill:#1E1918;}
	.st1{fill-rule:evenodd;clip-rule:evenodd;fill:#131212;}
	.st2{fill-rule:evenodd;clip-rule:evenodd;fill:#5A3120;}
	.st3{fill-rule:evenodd;clip-rule:evenodd;fill:#2F1F15;}
	.st4{fill-rule:evenodd;clip-rule:evenodd;fill:#C67E2E;}
	.st5{fill-rule:evenodd;clip-rule:evenodd;fill:#A36127;}
</style>
<g id="Group_65" transform="translate(1078.882 737.982)">
	<path id="Path_186" class="st0" d="M-1005.6-735.3c1.2-0.6,1.8-0.1,2,1.2c0.1,1-0.5,1.4-0.6,2.1c-0.1,0.3-0.1,0.7,0.1,1
		c0.2,1,0.2,2.1-0.2,3.1c-0.4,1-0.4,2,0.1,2.9c0.1,0.2,0.1,0.3,0.1,0.4c-0.2,0.2-0.9,0-1.1-0.1
		C-1009.1-726.7-1009.1-733.6-1005.6-735.3L-1005.6-735.3z"/>
	<path id="Path_187" class="st1" d="M-1001.2-725.9c-0.5,0.7-1.1,1.1-1.9,1.3c-0.7,0.1-1-0.3-1-1s0.1-1.4,0.3-2
		c0.4-1,0.5-2.2,0.2-3.3c-0.1-0.6,0-1.3,0.2-1.8c0.3-0.8,0.2-1.7-0.2-2.3c-0.1-0.2-0.1-0.3-0.1-0.4c0.1-0.1,0.2-0.1,0.3-0.1
		c0.7,0.1,1.4,0.4,1.8,1C-999.5-732.4-999.4-728.3-1001.2-725.9L-1001.2-725.9z"/>
</g>
<g id="Group_67" transform="translate(961.177 739.348)">
	<path id="Path_190" class="st2" d="M-924.1-728.5c-0.2-0.9-0.4-1.7-0.4-2.7c0-0.9,0.1-1.8,0.4-2.7c0.6-2.1,2.2-2.9,3-2.6
		c0.4,0.2,0.4,0.5,0.4,1.3c-0.2,2.3-0.2,4.7-0.1,7c0.1,1.2,0.2,1.8-0.2,2C-921.8-725.5-923.5-726.3-924.1-728.5L-924.1-728.5z"/>
	<path id="Path_191" class="st3" d="M-916.9-728.6c0.2-0.8,0.4-1.7,0.4-2.6c0-0.8-0.1-1.7-0.4-2.6c-0.5-2-2.2-2.9-3-2.5
		c-0.4,0.2-0.4,0.5-0.4,1.2c0.2,2.3,0.2,4.6,0.1,6.9c-0.1,1.1-0.2,1.7,0.2,2C-919.2-725.6-917.5-726.4-916.9-728.6L-916.9-728.6z"/>
</g>
<g id="Group_70" transform="translate(842.664 737.193)">
	<path id="Path_196" class="st4" d="M-836.3-723.7c-2.1-0.2-3.8-2.6-3.8-5.7c-0.1-1.8,0.7-3.6,1.9-4.9c1.1-1,2-0.7,2.1,0.8
		c0.1,1.4-0.1,2.9-0.7,4.2C-837.8-726.3-837.2-724.7-836.3-723.7L-836.3-723.7z"/>
	<path id="Path_197" class="st5" d="M-835.6-735c2,0.4,3.5,2.7,3.5,5.6c0.1,1.5-0.4,3-1.3,4.2c-1.5,1.9-2.9,1.4-3-0.9
		c-0.1-1,0.1-2,0.5-2.9C-835-731.9-835.2-733.8-835.6-735z"/>
</g>
</svg>
