<?xml version="1.0" encoding="utf-8"?>
<!-- Generator: Adobe Illustrator 24.0.3, SVG Export Plug-In . SVG Version: 6.00 Build 0)  -->
<svg version="1.1" id="Layer_1" xmlns="http://www.w3.org/2000/svg" xmlns:xlink="http://www.w3.org/1999/xlink" x="0px" y="0px"
	 viewBox="0 0 72 14.4" style="enable-background:new 0 0 72 14.4;" xml:space="preserve">
<style type="text/css">
	.st0{fill-rule:evenodd;clip-rule:evenodd;fill:#1E1918;}
	.st1{fill-rule:evenodd;clip-rule:evenodd;fill:#131212;}
	.st2{fill-rule:evenodd;clip-rule:evenodd;fill:#5A3120;}
	.st3{fill-rule:evenodd;clip-rule:evenodd;fill:#2F1F15;}
	.st4{fill-rule:evenodd;clip-rule:evenodd;fill:#C67E2E;}
	.st5{fill-rule:evenodd;clip-rule:evenodd;fill:#A36127;}
</style>
<g id="Group_65" transform="translate(1078.882 737.982)">
	<path id="Path_186" class="st0" d="M-1017.6-732.9c0.7-0.4,1.1-0.1,1.2,0.7c0.1,0.6-0.3,0.9-0.4,1.3c-0.1,0.2-0.1,0.4,0.1,0.6
		c0.1,0.6,0.1,1.3-0.1,1.9c-0.2,0.6-0.2,1.2,0.1,1.8c0.1,0.1,0.1,0.2,0.1,0.2c-0.1,0.1-0.6,0-0.7-0.1
		C-1019.8-727.5-1019.8-731.8-1017.6-732.9L-1017.6-732.9z"/>
	<path id="Path_187" class="st1" d="M-1014.9-727c-0.3,0.4-0.7,0.7-1.2,0.8c-0.4,0.1-0.6-0.2-0.6-0.6s0.1-0.9,0.2-1.2
		c0.2-0.6,0.3-1.4,0.1-2.1c-0.1-0.4,0-0.8,0.1-1.1c0.2-0.5,0.1-1.1-0.1-1.4c-0.1-0.1-0.1-0.2-0.1-0.2c0.1-0.1,0.1-0.1,0.2-0.1
		c0.4,0.1,0.9,0.2,1.1,0.6C-1013.8-731.1-1013.7-728.5-1014.9-727L-1014.9-727z"/>
</g>
<g id="Group_67" transform="translate(961.177 739.348)">
	<path id="Path_190" class="st2" d="M-929.3-729.2c-0.1-0.6-0.2-1.1-0.2-1.7c0-0.6,0.1-1.1,0.2-1.7c0.4-1.3,1.4-1.8,1.9-1.6
		c0.2,0.1,0.2,0.3,0.2,0.8c-0.1,1.4-0.1,2.9-0.1,4.4c0.1,0.7,0.1,1.1-0.1,1.2C-927.9-727.3-928.9-727.8-929.3-729.2L-929.3-729.2z"
		/>
	<path id="Path_191" class="st3" d="M-924.8-729.2c0.1-0.5,0.2-1.1,0.2-1.6c0-0.5-0.1-1.1-0.2-1.6c-0.3-1.2-1.4-1.8-1.9-1.6
		c-0.2,0.1-0.2,0.3-0.2,0.7c0.1,1.4,0.1,2.9,0.1,4.3c-0.1,0.7-0.1,1.1,0.1,1.2C-926.2-727.4-925.2-727.9-924.8-729.2L-924.8-729.2z"
		/>
</g>
<g id="Group_70" transform="translate(842.664 737.193)">
	<path id="Path_196" class="st4" d="M-836.8-725.4c-1.3-0.1-2.4-1.6-2.4-3.5c-0.1-1.1,0.4-2.2,1.2-3c0.7-0.6,1.2-0.4,1.3,0.5
		c0.1,0.9-0.1,1.8-0.4,2.6C-837.7-727-837.4-726-836.8-725.4L-836.8-725.4z"/>
	<path id="Path_197" class="st5" d="M-836.4-732.4c1.2,0.2,2.2,1.7,2.2,3.5c0.1,0.9-0.2,1.9-0.8,2.6c-0.9,1.2-1.8,0.9-1.9-0.6
		c-0.1-0.6,0.1-1.2,0.3-1.8C-836-730.5-836.1-731.6-836.4-732.4z"/>
</g>
</svg>
