<?xml version="1.0" encoding="utf-8"?>
<!-- Generator: Adobe Illustrator 24.0.3, SVG Export Plug-In . SVG Version: 6.00 Build 0)  -->
<svg version="1.1" id="Layer_1" xmlns="http://www.w3.org/2000/svg" xmlns:xlink="http://www.w3.org/1999/xlink" x="0px" y="0px"
	 viewBox="0 0 165.6 21.6" style="enable-background:new 0 0 165.6 21.6;" xml:space="preserve">
<style type="text/css">
	.st0{fill-rule:evenodd;clip-rule:evenodd;fill:#1E1918;}
	.st1{fill-rule:evenodd;clip-rule:evenodd;fill:#131212;}
	.st2{fill-rule:evenodd;clip-rule:evenodd;fill:#5A3120;}
	.st3{fill-rule:evenodd;clip-rule:evenodd;fill:#2F1F15;}
	.st4{fill-rule:evenodd;clip-rule:evenodd;fill:#C67E2E;}
	.st5{fill-rule:evenodd;clip-rule:evenodd;fill:#A36127;}
</style>
<g id="Group_65" transform="translate(1078.882 737.982)">
	<path id="Path_186" class="st0" d="M-957.7-736.2c2-1,3.1-0.1,3.3,2c0.1,1.6-0.8,2.3-1,3.6c-0.1,0.5-0.1,1.1,0.1,1.6
		c0.4,1.7,0.3,3.5-0.3,5.2c-0.6,1.6-0.6,3.3,0.1,4.9c0.1,0.3,0.2,0.5,0.1,0.6c-0.3,0.4-1.5,0-1.9-0.2
		C-963.5-721.8-963.6-733.3-957.7-736.2L-957.7-736.2z"/>
	<path id="Path_187" class="st1" d="M-950.3-720.5c-0.8,1.1-1.9,1.9-3.2,2.2c-1.2,0.2-1.6-0.5-1.7-1.7c-0.1-1.2,0.1-2.3,0.5-3.4
		c0.7-1.7,0.8-3.7,0.3-5.5c-0.2-1,0-2.1,0.4-3.1c0.5-1.3,0.3-2.8-0.4-3.9c-0.1-0.3-0.2-0.5-0.2-0.6c0.1-0.1,0.3-0.2,0.5-0.2
		c1.2,0.1,2.3,0.7,3.1,1.7C-947.4-731.4-947.3-724.5-950.3-720.5L-950.3-720.5z"/>
</g>
<g id="Group_67" transform="translate(961.177 739.348)">
	<path id="Path_190" class="st2" d="M-900.7-723.9c-0.4-1.5-0.6-2.9-0.6-4.5c0-1.5,0.2-3,0.6-4.5c1-3.5,3.7-4.9,5.1-4.3
		c0.6,0.3,0.7,0.9,0.6,2.1c-0.4,3.9-0.4,7.9-0.1,11.8c0.2,2,0.3,3-0.4,3.4C-896.8-718.9-899.7-720.2-900.7-723.9L-900.7-723.9z"/>
	<path id="Path_191" class="st3" d="M-888.7-724c0.4-1.4,0.6-2.9,0.6-4.3s-0.2-2.9-0.6-4.3c-0.9-3.4-3.7-4.8-5-4.2
		c-0.6,0.3-0.7,0.9-0.6,2c0.4,3.8,0.4,7.7,0.1,11.6c-0.2,1.9-0.3,2.9,0.4,3.4C-892.5-719.1-889.7-720.4-888.7-724L-888.7-724z"/>
</g>
<g id="Group_70" transform="translate(842.664 737.193)">
	<path id="Path_196" class="st4" d="M-833.8-717.3c-3.5-0.3-6.3-4.4-6.3-9.5c-0.1-3.1,1.1-6,3.2-8.2c1.9-1.6,3.3-1.2,3.6,1.3
		c0.2,2.4-0.2,4.9-1.2,7.1C-836.2-721.7-835.3-719-833.8-717.3L-833.8-717.3z"/>
	<path id="Path_197" class="st5" d="M-832.6-736.2c3.3,0.6,5.8,4.6,5.8,9.4c0.1,2.5-0.7,5-2.2,7c-2.5,3.2-4.8,2.4-5.1-1.5
		c-0.1-1.7,0.2-3.3,0.9-4.8C-831.5-731.1-831.8-734.3-832.6-736.2z"/>
</g>
</svg>
