<?xml version="1.0" encoding="utf-8"?>
<!-- Generator: Adobe Illustrator 24.0.3, SVG Export Plug-In . SVG Version: 6.00 Build 0)  -->
<svg version="1.1" id="Layer_1" xmlns="http://www.w3.org/2000/svg" xmlns:xlink="http://www.w3.org/1999/xlink" x="0px" y="0px"
	 viewBox="0 0 194.4 21.6" style="enable-background:new 0 0 194.4 21.6;" xml:space="preserve">
<style type="text/css">
	.st0{fill-rule:evenodd;clip-rule:evenodd;fill:#1E1918;}
	.st1{fill-rule:evenodd;clip-rule:evenodd;fill:#131212;}
	.st2{fill-rule:evenodd;clip-rule:evenodd;fill:#5A3120;}
	.st3{fill-rule:evenodd;clip-rule:evenodd;fill:#2F1F15;}
	.st4{fill-rule:evenodd;clip-rule:evenodd;fill:#C67E2E;}
	.st5{fill-rule:evenodd;clip-rule:evenodd;fill:#A36127;}
</style>
<g id="Group_65" transform="translate(1078.882 737.982)">
	<path id="Path_186" class="st0" d="M-939.88-736.19c1.99-0.97,3.08-0.09,3.26,2.02c0.13,1.6-0.75,2.29-1.05,3.61
		c-0.1,0.53-0.07,1.08,0.07,1.6c0.43,1.7,0.34,3.5-0.26,5.15c-0.61,1.58-0.59,3.32,0.06,4.88c0.1,0.27,0.15,0.51,0.06,0.62
		c-0.32,0.39-1.47,0.02-1.92-0.23C-945.62-721.75-945.72-733.35-939.88-736.19L-939.88-736.19z"/>
	<path id="Path_187" class="st1" d="M-932.47-720.47c-0.76,1.13-1.92,1.94-3.24,2.25c-1.16,0.24-1.62-0.48-1.71-1.68
		c-0.08-1.17,0.07-2.34,0.45-3.44c0.73-1.74,0.85-3.66,0.35-5.48c-0.18-1.04-0.03-2.12,0.42-3.08c0.47-1.3,0.34-2.75-0.36-3.94
		c-0.13-0.29-0.25-0.49-0.16-0.61c0.09-0.11,0.28-0.16,0.55-0.16c1.22,0.12,2.34,0.72,3.12,1.67
		C-929.57-731.36-929.5-724.51-932.47-720.47L-932.47-720.47z"/>
</g>
<g id="Group_67" transform="translate(961.177 739.348)">
	<path id="Path_190" class="st2" d="M-883.33-723.89c-0.39-1.45-0.59-2.94-0.59-4.45c0-1.5,0.2-3,0.59-4.45
		c0.95-3.47,3.73-4.92,5.08-4.34c0.62,0.27,0.69,0.93,0.62,2.09c-0.4,3.93-0.44,7.88-0.11,11.81c0.16,1.96,0.33,2.96-0.39,3.44
		C-879.46-718.89-882.33-720.24-883.33-723.89L-883.33-723.89z"/>
	<path id="Path_191" class="st3" d="M-871.36-724.02c0.38-1.42,0.58-2.88,0.58-4.35c0-1.47-0.19-2.93-0.58-4.35
		c-0.92-3.39-3.65-4.81-4.97-4.23c-0.6,0.26-0.67,0.91-0.61,2.05c0.39,3.84,0.43,7.71,0.11,11.56c-0.16,1.92-0.33,2.9,0.38,3.37
		C-875.14-719.12-872.33-720.44-871.36-724.02L-871.36-724.02z"/>
</g>
<g id="Group_70" transform="translate(842.664 737.193)">
	<path id="Path_196" class="st4" d="M-814.99-717.35c-3.5-0.27-6.28-4.41-6.28-9.48c-0.12-3.06,1.06-6.03,3.25-8.16
		c1.92-1.63,3.32-1.23,3.59,1.26c0.16,2.44-0.23,4.88-1.16,7.14C-817.37-721.65-816.47-719.01-814.99-717.35L-814.99-717.35z"/>
	<path id="Path_197" class="st5" d="M-813.78-736.25c3.27,0.6,5.79,4.59,5.79,9.41c0.06,2.52-0.71,4.99-2.18,7.04
		c-2.46,3.18-4.78,2.36-5.08-1.53c-0.06-1.65,0.23-3.3,0.86-4.84C-812.63-731.06-812.98-734.26-813.78-736.25z"/>
</g>
</svg>
