<?xml version="1.0" encoding="utf-8"?>
<!-- Generator: Adobe Illustrator 24.0.3, SVG Export Plug-In . SVG Version: 6.00 Build 0)  -->
<svg version="1.1" id="Layer_1" xmlns="http://www.w3.org/2000/svg" xmlns:xlink="http://www.w3.org/1999/xlink" x="0px" y="0px"
	 viewBox="0 0 100 87" style="enable-background:new 0 0 100 87;" xml:space="preserve">
<style type="text/css">
	.st0{fill:#1A1A1A;}
	.st1{fill:#F8AE60;}
</style>
<g>
	<path class="st0" d="M41,29l6.5,25.1h-4.4L36.6,29H41L41,29z M52.3,29h4.3v25.1h-4.3V29L52.3,29z M5.8,15.8l7.1,1.1
		c2,0.3,3.8,1.5,4.9,3.2l4.8,7.7v0L30,53.1l0,0c0,0,0,0,0,0c0.1,0.2,0.1,0.5,0.2,0.7l0,0l3.9,10.9c0.8,2.3,2.5,4,4.7,4.9
		c-1,1.3-1.5,2.9-1.5,4.7c0,4.4,3.5,7.9,7.9,7.9c4.4,0,7.9-3.5,7.9-7.9c0-1.5-0.4-2.9-1.2-4.1H62c-0.7,1.2-1.2,2.6-1.2,4.1
		c0,4.4,3.5,7.9,7.9,7.9c4.4,0,7.9-3.5,7.9-7.9c0-1.5-0.4-2.9-1.2-4.1h4c1.2,0,2.1-1,2.1-2.1c0-1.2-1-2.1-2.1-2.1H41.8
		c-1.6,0-3.1-1-3.7-2.6l-1.7-4.9c0.2,0,0.5,0,0.7,0h34.6c3.3,0,6.2-2.2,7.1-5.4l4.3-14.7c-0.6,0.1-1.3,0.1-2,0.1
		c-3.9,0-7.6-1.2-10.6-3.3l-4.9,18.9h-4.4L67,32c-1.8-2.1-3.2-4.6-4-7.3H25.8l-4.3-6.9c-1.7-2.8-4.6-4.7-7.9-5.2l-7.1-1.1
		c-1.2-0.2-2.3,0.6-2.4,1.8C3.8,14.5,4.6,15.6,5.8,15.8L5.8,15.8z"/>
	<path class="st1" d="M81.2,4.9c-8.2,0-14.8,6.6-14.8,14.8c0,8.2,6.6,14.8,14.8,14.8c8.2,0,14.8-6.6,14.8-14.8
		C96,11.5,89.4,4.9,81.2,4.9z M84.3,25.3c-0.9,0.7-1.9,1-3.3,1c-1.2,0-2.2-0.3-3.1-0.9c-0.9-0.6-1.3-1.5-1.2-2.7l0-0.1h2.5
		c0,0.5,0.2,0.9,0.5,1.2s0.8,0.5,1.3,0.5c0.6,0,1.1-0.2,1.4-0.5c0.3-0.3,0.5-0.8,0.5-1.3c0-0.7-0.2-1.2-0.5-1.5s-0.8-0.5-1.5-0.5
		h-1.4v-1.9H81c0.6,0,1.1-0.2,1.4-0.5s0.4-0.8,0.4-1.3c0-0.5-0.1-0.9-0.4-1.2s-0.7-0.5-1.3-0.5c-0.5,0-0.9,0.1-1.2,0.4
		s-0.5,0.7-0.5,1.1h-2.5l0-0.1c0-1,0.3-1.8,1.2-2.5s1.8-1,3-1c1.3,0,2.4,0.3,3.2,0.9s1.2,1.5,1.2,2.7c0,0.6-0.2,1.1-0.5,1.6
		s-0.8,0.9-1.5,1.2c0.7,0.3,1.2,0.6,1.6,1.2s0.6,1.1,0.6,1.8C85.6,23.7,85.2,24.6,84.3,25.3z"/>
</g>
</svg>
